G04 EAGLE Gerber RS-274X export*
G75*
%MOMM*%
%FSLAX34Y34*%
%LPD*%
%INSilkscreen Bottom*%
%IPPOS*%
%AMOC8*
5,1,8,0,0,1.08239X$1,22.5*%
G01*
%ADD10C,0.152400*%
%ADD11C,0.076200*%
%ADD12C,0.254000*%

G36*
X381637Y113794D02*
X381637Y113794D01*
X381639Y113793D01*
X381682Y113813D01*
X381726Y113831D01*
X381726Y113833D01*
X381728Y113834D01*
X381761Y113919D01*
X381761Y116459D01*
X381760Y116461D01*
X381761Y116463D01*
X381741Y116506D01*
X381723Y116550D01*
X381721Y116550D01*
X381720Y116552D01*
X381635Y116585D01*
X377825Y116585D01*
X377823Y116584D01*
X377821Y116585D01*
X377778Y116565D01*
X377734Y116547D01*
X377734Y116545D01*
X377732Y116544D01*
X377699Y116459D01*
X377699Y113919D01*
X377700Y113917D01*
X377699Y113915D01*
X377719Y113872D01*
X377737Y113828D01*
X377739Y113828D01*
X377740Y113826D01*
X377825Y113793D01*
X381635Y113793D01*
X381637Y113794D01*
G37*
G36*
X386717Y58676D02*
X386717Y58676D01*
X386719Y58675D01*
X386762Y58695D01*
X386806Y58713D01*
X386806Y58715D01*
X386808Y58716D01*
X386841Y58801D01*
X386841Y61341D01*
X386840Y61343D01*
X386841Y61345D01*
X386821Y61388D01*
X386803Y61432D01*
X386801Y61432D01*
X386800Y61434D01*
X386715Y61467D01*
X382905Y61467D01*
X382903Y61466D01*
X382901Y61467D01*
X382858Y61447D01*
X382814Y61429D01*
X382814Y61427D01*
X382812Y61426D01*
X382779Y61341D01*
X382779Y58801D01*
X382780Y58799D01*
X382779Y58797D01*
X382799Y58754D01*
X382817Y58710D01*
X382819Y58710D01*
X382820Y58708D01*
X382905Y58675D01*
X386715Y58675D01*
X386717Y58676D01*
G37*
D10*
X109079Y25908D02*
X110546Y25908D01*
X110620Y25910D01*
X110695Y25916D01*
X110768Y25925D01*
X110842Y25938D01*
X110914Y25955D01*
X110985Y25975D01*
X111056Y25999D01*
X111125Y26027D01*
X111193Y26058D01*
X111258Y26092D01*
X111323Y26130D01*
X111385Y26171D01*
X111445Y26215D01*
X111502Y26262D01*
X111557Y26312D01*
X111610Y26365D01*
X111660Y26420D01*
X111707Y26477D01*
X111751Y26537D01*
X111792Y26599D01*
X111830Y26664D01*
X111864Y26730D01*
X111895Y26797D01*
X111923Y26866D01*
X111947Y26937D01*
X111967Y27008D01*
X111984Y27081D01*
X111997Y27154D01*
X112006Y27228D01*
X112012Y27302D01*
X112014Y27376D01*
X112014Y31044D01*
X112012Y31118D01*
X112006Y31193D01*
X111997Y31266D01*
X111984Y31339D01*
X111967Y31412D01*
X111947Y31483D01*
X111923Y31554D01*
X111895Y31623D01*
X111864Y31690D01*
X111830Y31756D01*
X111792Y31821D01*
X111751Y31883D01*
X111707Y31943D01*
X111660Y32000D01*
X111610Y32055D01*
X111557Y32108D01*
X111502Y32158D01*
X111445Y32205D01*
X111385Y32249D01*
X111323Y32290D01*
X111258Y32328D01*
X111193Y32362D01*
X111125Y32393D01*
X111056Y32421D01*
X110986Y32445D01*
X110914Y32465D01*
X110842Y32482D01*
X110768Y32495D01*
X110695Y32504D01*
X110620Y32510D01*
X110546Y32512D01*
X109079Y32512D01*
X105883Y31044D02*
X104048Y32512D01*
X104048Y25908D01*
X102214Y25908D02*
X105883Y25908D01*
X137922Y-10922D02*
X215392Y-10922D01*
X137922Y-10922D02*
X137922Y1270D01*
X137922Y41656D02*
X140970Y41656D01*
X215392Y41656D02*
X215392Y25400D01*
X215392Y41656D02*
X212090Y41656D01*
X215392Y1270D02*
X215392Y-10922D01*
X137922Y25400D02*
X137922Y41656D01*
X220472Y21929D02*
X225608Y21929D01*
X225608Y21928D02*
X225682Y21930D01*
X225757Y21936D01*
X225830Y21945D01*
X225904Y21958D01*
X225976Y21975D01*
X226047Y21995D01*
X226118Y22019D01*
X226187Y22047D01*
X226255Y22078D01*
X226320Y22112D01*
X226385Y22150D01*
X226447Y22191D01*
X226507Y22235D01*
X226564Y22282D01*
X226619Y22332D01*
X226672Y22385D01*
X226722Y22440D01*
X226769Y22497D01*
X226813Y22557D01*
X226854Y22619D01*
X226892Y22684D01*
X226926Y22750D01*
X226957Y22817D01*
X226985Y22886D01*
X227009Y22957D01*
X227029Y23028D01*
X227046Y23101D01*
X227059Y23174D01*
X227068Y23248D01*
X227074Y23322D01*
X227076Y23396D01*
X227076Y24130D01*
X221940Y18088D02*
X220472Y16254D01*
X227076Y16254D01*
X227076Y18088D02*
X227076Y14419D01*
X361950Y38117D02*
X368554Y38117D01*
X368554Y39951D01*
X368552Y40036D01*
X368546Y40120D01*
X368536Y40204D01*
X368523Y40288D01*
X368505Y40371D01*
X368484Y40453D01*
X368459Y40534D01*
X368430Y40614D01*
X368398Y40692D01*
X368362Y40768D01*
X368322Y40843D01*
X368279Y40916D01*
X368233Y40987D01*
X368184Y41056D01*
X368131Y41123D01*
X368075Y41187D01*
X368017Y41248D01*
X367956Y41306D01*
X367892Y41362D01*
X367825Y41415D01*
X367756Y41464D01*
X367685Y41510D01*
X367612Y41553D01*
X367537Y41593D01*
X367461Y41629D01*
X367383Y41661D01*
X367303Y41690D01*
X367222Y41715D01*
X367140Y41736D01*
X367057Y41754D01*
X366973Y41767D01*
X366889Y41777D01*
X366805Y41783D01*
X366720Y41785D01*
X366635Y41783D01*
X366551Y41777D01*
X366467Y41767D01*
X366383Y41754D01*
X366300Y41736D01*
X366218Y41715D01*
X366137Y41690D01*
X366057Y41661D01*
X365979Y41629D01*
X365903Y41593D01*
X365828Y41553D01*
X365755Y41510D01*
X365684Y41464D01*
X365615Y41415D01*
X365548Y41362D01*
X365484Y41306D01*
X365423Y41248D01*
X365365Y41187D01*
X365309Y41123D01*
X365256Y41056D01*
X365207Y40987D01*
X365161Y40916D01*
X365118Y40843D01*
X365078Y40768D01*
X365042Y40692D01*
X365010Y40614D01*
X364981Y40534D01*
X364956Y40453D01*
X364935Y40371D01*
X364917Y40288D01*
X364904Y40204D01*
X364894Y40120D01*
X364888Y40036D01*
X364886Y39951D01*
X364885Y39951D02*
X364885Y38117D01*
X364885Y40318D02*
X361950Y41786D01*
X367086Y45353D02*
X368554Y47188D01*
X361950Y47188D01*
X361950Y49022D02*
X361950Y45353D01*
X359664Y67818D02*
X357378Y67818D01*
X357378Y107442D02*
X359664Y107442D01*
X397002Y107442D02*
X397002Y105156D01*
X397002Y67818D02*
X394716Y67818D01*
X357378Y67818D02*
X357378Y70104D01*
X357378Y105156D02*
X357378Y107442D01*
X394716Y107442D02*
X397002Y107442D01*
X397002Y70104D02*
X397002Y67818D01*
D11*
X350696Y75353D02*
X349130Y73787D01*
X350696Y75353D02*
X349130Y76920D01*
D10*
X403124Y115880D02*
X403124Y120650D01*
X403124Y115880D02*
X403122Y115795D01*
X403116Y115711D01*
X403106Y115627D01*
X403093Y115543D01*
X403075Y115460D01*
X403054Y115378D01*
X403029Y115297D01*
X403000Y115217D01*
X402968Y115139D01*
X402932Y115063D01*
X402892Y114988D01*
X402849Y114915D01*
X402803Y114844D01*
X402754Y114775D01*
X402701Y114708D01*
X402645Y114644D01*
X402587Y114583D01*
X402526Y114525D01*
X402462Y114469D01*
X402395Y114416D01*
X402326Y114367D01*
X402255Y114321D01*
X402182Y114278D01*
X402107Y114238D01*
X402031Y114202D01*
X401953Y114170D01*
X401873Y114141D01*
X401792Y114116D01*
X401710Y114095D01*
X401627Y114077D01*
X401543Y114064D01*
X401459Y114054D01*
X401375Y114048D01*
X401290Y114046D01*
X401205Y114048D01*
X401121Y114054D01*
X401037Y114064D01*
X400953Y114077D01*
X400870Y114095D01*
X400788Y114116D01*
X400707Y114141D01*
X400627Y114170D01*
X400549Y114202D01*
X400473Y114238D01*
X400398Y114278D01*
X400325Y114321D01*
X400254Y114367D01*
X400185Y114416D01*
X400118Y114469D01*
X400054Y114525D01*
X399993Y114583D01*
X399935Y114644D01*
X399879Y114708D01*
X399826Y114775D01*
X399777Y114844D01*
X399731Y114915D01*
X399688Y114988D01*
X399648Y115063D01*
X399612Y115139D01*
X399580Y115217D01*
X399551Y115297D01*
X399526Y115378D01*
X399505Y115460D01*
X399487Y115543D01*
X399474Y115627D01*
X399464Y115711D01*
X399458Y115795D01*
X399456Y115880D01*
X399455Y115880D02*
X399455Y120650D01*
X395565Y119182D02*
X393730Y120650D01*
X393730Y114046D01*
X391896Y114046D02*
X395565Y114046D01*
X90170Y74676D02*
X90170Y70104D01*
X90170Y6604D02*
X52070Y6604D01*
X52070Y22606D01*
X52070Y74676D02*
X90170Y74676D01*
X90170Y57150D02*
X90170Y47244D01*
X90170Y34036D02*
X90170Y24130D01*
X90170Y11176D02*
X90170Y6604D01*
X52070Y58674D02*
X52070Y74676D01*
X106680Y74676D02*
X106750Y74674D01*
X106820Y74668D01*
X106889Y74659D01*
X106958Y74645D01*
X107026Y74628D01*
X107092Y74607D01*
X107158Y74583D01*
X107222Y74555D01*
X107284Y74523D01*
X107345Y74488D01*
X107404Y74450D01*
X107460Y74408D01*
X107514Y74364D01*
X107566Y74316D01*
X107614Y74266D01*
X107660Y74213D01*
X107703Y74158D01*
X107743Y74101D01*
X107780Y74041D01*
X107813Y73979D01*
X107843Y73916D01*
X107869Y73851D01*
X107892Y73785D01*
X107911Y73718D01*
X107926Y73649D01*
X107938Y73580D01*
X107946Y73511D01*
X107950Y73441D01*
X107950Y73371D01*
X107946Y73301D01*
X107938Y73232D01*
X107926Y73163D01*
X107911Y73094D01*
X107892Y73027D01*
X107869Y72961D01*
X107843Y72896D01*
X107813Y72833D01*
X107780Y72771D01*
X107743Y72711D01*
X107703Y72654D01*
X107660Y72599D01*
X107614Y72546D01*
X107566Y72496D01*
X107514Y72448D01*
X107460Y72404D01*
X107404Y72362D01*
X107345Y72324D01*
X107284Y72289D01*
X107222Y72257D01*
X107158Y72229D01*
X107092Y72205D01*
X107026Y72184D01*
X106958Y72167D01*
X106889Y72153D01*
X106820Y72144D01*
X106750Y72138D01*
X106680Y72136D01*
X106610Y72138D01*
X106540Y72144D01*
X106471Y72153D01*
X106402Y72167D01*
X106334Y72184D01*
X106268Y72205D01*
X106202Y72229D01*
X106138Y72257D01*
X106076Y72289D01*
X106015Y72324D01*
X105956Y72362D01*
X105900Y72404D01*
X105846Y72448D01*
X105794Y72496D01*
X105746Y72546D01*
X105700Y72599D01*
X105657Y72654D01*
X105617Y72711D01*
X105580Y72771D01*
X105547Y72833D01*
X105517Y72896D01*
X105491Y72961D01*
X105468Y73027D01*
X105449Y73094D01*
X105434Y73163D01*
X105422Y73232D01*
X105414Y73301D01*
X105410Y73371D01*
X105410Y73441D01*
X105414Y73511D01*
X105422Y73580D01*
X105434Y73649D01*
X105449Y73718D01*
X105468Y73785D01*
X105491Y73851D01*
X105517Y73916D01*
X105547Y73979D01*
X105580Y74041D01*
X105617Y74101D01*
X105657Y74158D01*
X105700Y74213D01*
X105746Y74266D01*
X105794Y74316D01*
X105846Y74364D01*
X105900Y74408D01*
X105956Y74450D01*
X106015Y74488D01*
X106076Y74523D01*
X106138Y74555D01*
X106202Y74583D01*
X106268Y74607D01*
X106334Y74628D01*
X106402Y74645D01*
X106471Y74659D01*
X106540Y74668D01*
X106610Y74674D01*
X106680Y74676D01*
X45974Y17526D02*
X45974Y12756D01*
X45972Y12671D01*
X45966Y12587D01*
X45956Y12503D01*
X45943Y12419D01*
X45925Y12336D01*
X45904Y12254D01*
X45879Y12173D01*
X45850Y12093D01*
X45818Y12015D01*
X45782Y11939D01*
X45742Y11864D01*
X45699Y11791D01*
X45653Y11720D01*
X45604Y11651D01*
X45551Y11584D01*
X45495Y11520D01*
X45437Y11459D01*
X45376Y11401D01*
X45312Y11345D01*
X45245Y11292D01*
X45176Y11243D01*
X45105Y11197D01*
X45032Y11154D01*
X44957Y11114D01*
X44881Y11078D01*
X44803Y11046D01*
X44723Y11017D01*
X44642Y10992D01*
X44560Y10971D01*
X44477Y10953D01*
X44393Y10940D01*
X44309Y10930D01*
X44225Y10924D01*
X44140Y10922D01*
X44055Y10924D01*
X43971Y10930D01*
X43887Y10940D01*
X43803Y10953D01*
X43720Y10971D01*
X43638Y10992D01*
X43557Y11017D01*
X43477Y11046D01*
X43399Y11078D01*
X43323Y11114D01*
X43248Y11154D01*
X43175Y11197D01*
X43104Y11243D01*
X43035Y11292D01*
X42968Y11345D01*
X42904Y11401D01*
X42843Y11459D01*
X42785Y11520D01*
X42729Y11584D01*
X42676Y11651D01*
X42627Y11720D01*
X42581Y11791D01*
X42538Y11864D01*
X42498Y11939D01*
X42462Y12015D01*
X42430Y12093D01*
X42401Y12173D01*
X42376Y12254D01*
X42355Y12336D01*
X42337Y12419D01*
X42324Y12503D01*
X42314Y12587D01*
X42308Y12671D01*
X42306Y12756D01*
X42305Y12756D02*
X42305Y17526D01*
X36397Y17526D02*
X36318Y17524D01*
X36240Y17519D01*
X36162Y17509D01*
X36085Y17496D01*
X36008Y17479D01*
X35932Y17459D01*
X35857Y17435D01*
X35783Y17408D01*
X35711Y17377D01*
X35640Y17342D01*
X35572Y17305D01*
X35504Y17264D01*
X35439Y17220D01*
X35376Y17173D01*
X35316Y17123D01*
X35258Y17070D01*
X35202Y17014D01*
X35149Y16956D01*
X35099Y16896D01*
X35052Y16833D01*
X35008Y16768D01*
X34967Y16701D01*
X34930Y16632D01*
X34895Y16561D01*
X34864Y16489D01*
X34837Y16415D01*
X34813Y16340D01*
X34793Y16264D01*
X34776Y16187D01*
X34763Y16110D01*
X34753Y16032D01*
X34748Y15954D01*
X34746Y15875D01*
X36397Y17526D02*
X36486Y17524D01*
X36575Y17519D01*
X36663Y17509D01*
X36751Y17496D01*
X36838Y17480D01*
X36925Y17459D01*
X37010Y17435D01*
X37095Y17408D01*
X37178Y17377D01*
X37260Y17342D01*
X37341Y17304D01*
X37420Y17263D01*
X37496Y17219D01*
X37572Y17171D01*
X37645Y17120D01*
X37715Y17067D01*
X37784Y17010D01*
X37850Y16950D01*
X37913Y16888D01*
X37974Y16823D01*
X38032Y16756D01*
X38087Y16686D01*
X38140Y16614D01*
X38189Y16540D01*
X38235Y16464D01*
X38277Y16386D01*
X38317Y16306D01*
X38353Y16225D01*
X38386Y16142D01*
X38415Y16058D01*
X35296Y14591D02*
X35240Y14647D01*
X35186Y14706D01*
X35135Y14767D01*
X35086Y14831D01*
X35041Y14896D01*
X34998Y14964D01*
X34959Y15033D01*
X34922Y15104D01*
X34889Y15177D01*
X34860Y15251D01*
X34833Y15326D01*
X34810Y15402D01*
X34791Y15480D01*
X34775Y15558D01*
X34762Y15636D01*
X34753Y15716D01*
X34748Y15795D01*
X34746Y15875D01*
X35296Y14591D02*
X38415Y10922D01*
X34746Y10922D01*
X142494Y72334D02*
X142494Y73801D01*
X142494Y72334D02*
X142496Y72260D01*
X142502Y72185D01*
X142511Y72112D01*
X142524Y72038D01*
X142541Y71966D01*
X142561Y71895D01*
X142585Y71824D01*
X142613Y71755D01*
X142644Y71688D01*
X142678Y71622D01*
X142716Y71557D01*
X142757Y71495D01*
X142801Y71435D01*
X142848Y71378D01*
X142898Y71323D01*
X142951Y71270D01*
X143006Y71220D01*
X143063Y71173D01*
X143123Y71129D01*
X143185Y71088D01*
X143250Y71050D01*
X143316Y71016D01*
X143383Y70985D01*
X143452Y70957D01*
X143523Y70933D01*
X143594Y70913D01*
X143666Y70896D01*
X143740Y70883D01*
X143813Y70874D01*
X143888Y70868D01*
X143962Y70866D01*
X147630Y70866D01*
X147704Y70868D01*
X147779Y70874D01*
X147852Y70883D01*
X147926Y70896D01*
X147998Y70913D01*
X148069Y70933D01*
X148140Y70957D01*
X148209Y70985D01*
X148276Y71016D01*
X148342Y71050D01*
X148407Y71088D01*
X148469Y71129D01*
X148529Y71173D01*
X148586Y71220D01*
X148641Y71270D01*
X148694Y71323D01*
X148744Y71378D01*
X148791Y71435D01*
X148835Y71495D01*
X148876Y71557D01*
X148914Y71622D01*
X148948Y71687D01*
X148979Y71755D01*
X149007Y71824D01*
X149031Y71895D01*
X149051Y71966D01*
X149068Y72038D01*
X149081Y72112D01*
X149090Y72185D01*
X149096Y72260D01*
X149098Y72334D01*
X149098Y73801D01*
X149098Y79015D02*
X149096Y79094D01*
X149091Y79172D01*
X149081Y79250D01*
X149068Y79327D01*
X149051Y79404D01*
X149031Y79480D01*
X149007Y79555D01*
X148980Y79629D01*
X148949Y79701D01*
X148914Y79772D01*
X148877Y79841D01*
X148836Y79908D01*
X148792Y79973D01*
X148745Y80036D01*
X148695Y80096D01*
X148642Y80154D01*
X148586Y80210D01*
X148528Y80263D01*
X148468Y80313D01*
X148405Y80360D01*
X148340Y80404D01*
X148273Y80445D01*
X148204Y80482D01*
X148133Y80517D01*
X148061Y80548D01*
X147987Y80575D01*
X147912Y80599D01*
X147836Y80619D01*
X147759Y80636D01*
X147682Y80649D01*
X147604Y80659D01*
X147526Y80664D01*
X147447Y80666D01*
X149098Y79015D02*
X149096Y78926D01*
X149091Y78837D01*
X149081Y78749D01*
X149068Y78661D01*
X149052Y78574D01*
X149031Y78487D01*
X149007Y78402D01*
X148980Y78317D01*
X148949Y78234D01*
X148914Y78152D01*
X148876Y78071D01*
X148835Y77992D01*
X148791Y77916D01*
X148743Y77840D01*
X148692Y77767D01*
X148639Y77697D01*
X148582Y77628D01*
X148522Y77562D01*
X148460Y77499D01*
X148395Y77438D01*
X148328Y77380D01*
X148258Y77325D01*
X148186Y77272D01*
X148112Y77223D01*
X148036Y77177D01*
X147958Y77135D01*
X147878Y77095D01*
X147797Y77059D01*
X147714Y77026D01*
X147630Y76997D01*
X146163Y80116D02*
X146219Y80172D01*
X146278Y80226D01*
X146339Y80277D01*
X146403Y80326D01*
X146468Y80371D01*
X146536Y80414D01*
X146605Y80453D01*
X146676Y80490D01*
X146749Y80523D01*
X146823Y80552D01*
X146898Y80579D01*
X146974Y80602D01*
X147052Y80621D01*
X147130Y80637D01*
X147208Y80650D01*
X147288Y80659D01*
X147367Y80664D01*
X147447Y80666D01*
X146163Y80116D02*
X142494Y76998D01*
X142494Y80666D01*
X352411Y52324D02*
X353878Y52324D01*
X353952Y52326D01*
X354027Y52332D01*
X354100Y52341D01*
X354174Y52354D01*
X354246Y52371D01*
X354317Y52391D01*
X354388Y52415D01*
X354457Y52443D01*
X354525Y52474D01*
X354590Y52508D01*
X354655Y52546D01*
X354717Y52587D01*
X354777Y52631D01*
X354834Y52678D01*
X354889Y52728D01*
X354942Y52781D01*
X354992Y52836D01*
X355039Y52893D01*
X355083Y52953D01*
X355124Y53015D01*
X355162Y53080D01*
X355196Y53146D01*
X355227Y53213D01*
X355255Y53282D01*
X355279Y53353D01*
X355299Y53424D01*
X355316Y53497D01*
X355329Y53570D01*
X355338Y53644D01*
X355344Y53718D01*
X355346Y53792D01*
X355346Y57460D01*
X355344Y57534D01*
X355338Y57609D01*
X355329Y57682D01*
X355316Y57755D01*
X355299Y57828D01*
X355279Y57899D01*
X355255Y57970D01*
X355227Y58039D01*
X355196Y58106D01*
X355162Y58172D01*
X355124Y58237D01*
X355083Y58299D01*
X355039Y58359D01*
X354992Y58416D01*
X354942Y58471D01*
X354889Y58524D01*
X354834Y58574D01*
X354777Y58621D01*
X354717Y58665D01*
X354655Y58706D01*
X354590Y58744D01*
X354525Y58778D01*
X354457Y58809D01*
X354388Y58837D01*
X354318Y58861D01*
X354246Y58881D01*
X354174Y58898D01*
X354100Y58911D01*
X354027Y58920D01*
X353952Y58926D01*
X353878Y58928D01*
X352411Y58928D01*
X349215Y52324D02*
X347380Y52324D01*
X347295Y52326D01*
X347211Y52332D01*
X347127Y52342D01*
X347043Y52355D01*
X346960Y52373D01*
X346878Y52394D01*
X346797Y52419D01*
X346717Y52448D01*
X346639Y52480D01*
X346563Y52516D01*
X346488Y52556D01*
X346415Y52599D01*
X346344Y52645D01*
X346275Y52694D01*
X346208Y52747D01*
X346144Y52803D01*
X346083Y52861D01*
X346025Y52922D01*
X345969Y52986D01*
X345916Y53053D01*
X345867Y53122D01*
X345821Y53193D01*
X345778Y53266D01*
X345738Y53341D01*
X345702Y53417D01*
X345670Y53495D01*
X345641Y53575D01*
X345616Y53656D01*
X345595Y53738D01*
X345577Y53821D01*
X345564Y53905D01*
X345554Y53989D01*
X345548Y54073D01*
X345546Y54158D01*
X345548Y54243D01*
X345554Y54327D01*
X345564Y54411D01*
X345577Y54495D01*
X345595Y54578D01*
X345616Y54660D01*
X345641Y54741D01*
X345670Y54821D01*
X345702Y54899D01*
X345738Y54975D01*
X345778Y55050D01*
X345821Y55123D01*
X345867Y55194D01*
X345916Y55263D01*
X345969Y55330D01*
X346025Y55394D01*
X346083Y55455D01*
X346144Y55513D01*
X346208Y55569D01*
X346275Y55622D01*
X346344Y55671D01*
X346415Y55717D01*
X346488Y55760D01*
X346563Y55800D01*
X346639Y55836D01*
X346717Y55868D01*
X346797Y55897D01*
X346878Y55922D01*
X346960Y55943D01*
X347043Y55961D01*
X347127Y55974D01*
X347211Y55984D01*
X347295Y55990D01*
X347380Y55992D01*
X347013Y58928D02*
X349215Y58928D01*
X347013Y58928D02*
X346937Y58926D01*
X346862Y58920D01*
X346787Y58911D01*
X346713Y58897D01*
X346639Y58880D01*
X346567Y58858D01*
X346495Y58834D01*
X346425Y58805D01*
X346357Y58773D01*
X346290Y58738D01*
X346225Y58699D01*
X346162Y58656D01*
X346102Y58611D01*
X346044Y58563D01*
X345988Y58511D01*
X345936Y58457D01*
X345886Y58400D01*
X345839Y58341D01*
X345795Y58280D01*
X345754Y58216D01*
X345717Y58150D01*
X345683Y58082D01*
X345653Y58013D01*
X345626Y57942D01*
X345603Y57870D01*
X345584Y57797D01*
X345569Y57723D01*
X345557Y57648D01*
X345549Y57573D01*
X345545Y57498D01*
X345545Y57422D01*
X345549Y57347D01*
X345557Y57272D01*
X345569Y57197D01*
X345584Y57123D01*
X345603Y57050D01*
X345626Y56978D01*
X345653Y56907D01*
X345683Y56838D01*
X345717Y56770D01*
X345754Y56704D01*
X345795Y56640D01*
X345839Y56579D01*
X345886Y56520D01*
X345936Y56463D01*
X345988Y56409D01*
X346044Y56357D01*
X346102Y56309D01*
X346162Y56264D01*
X346225Y56221D01*
X346290Y56182D01*
X346357Y56147D01*
X346425Y56115D01*
X346495Y56086D01*
X346567Y56062D01*
X346639Y56040D01*
X346713Y56023D01*
X346787Y56009D01*
X346862Y56000D01*
X346937Y55994D01*
X347013Y55992D01*
X347013Y55993D02*
X348481Y55993D01*
X336247Y81280D02*
X334779Y81280D01*
X336247Y81280D02*
X336321Y81282D01*
X336396Y81288D01*
X336469Y81297D01*
X336543Y81310D01*
X336615Y81327D01*
X336686Y81347D01*
X336757Y81371D01*
X336826Y81399D01*
X336894Y81430D01*
X336959Y81464D01*
X337024Y81502D01*
X337086Y81543D01*
X337146Y81587D01*
X337203Y81634D01*
X337258Y81684D01*
X337311Y81737D01*
X337361Y81792D01*
X337408Y81849D01*
X337452Y81909D01*
X337493Y81971D01*
X337531Y82036D01*
X337565Y82102D01*
X337596Y82169D01*
X337624Y82238D01*
X337648Y82309D01*
X337668Y82380D01*
X337685Y82453D01*
X337698Y82526D01*
X337707Y82600D01*
X337713Y82674D01*
X337715Y82748D01*
X337714Y82748D02*
X337714Y86416D01*
X337715Y86416D02*
X337713Y86490D01*
X337707Y86565D01*
X337698Y86638D01*
X337685Y86711D01*
X337668Y86784D01*
X337648Y86855D01*
X337624Y86926D01*
X337596Y86995D01*
X337565Y87062D01*
X337531Y87128D01*
X337493Y87193D01*
X337452Y87255D01*
X337408Y87315D01*
X337361Y87372D01*
X337311Y87427D01*
X337258Y87480D01*
X337203Y87530D01*
X337146Y87577D01*
X337086Y87621D01*
X337024Y87662D01*
X336959Y87700D01*
X336894Y87734D01*
X336826Y87765D01*
X336757Y87793D01*
X336687Y87817D01*
X336615Y87837D01*
X336543Y87854D01*
X336469Y87867D01*
X336396Y87876D01*
X336321Y87882D01*
X336247Y87884D01*
X334779Y87884D01*
X330115Y87884D02*
X331583Y82748D01*
X327914Y82748D01*
X329015Y84215D02*
X329015Y81280D01*
X329043Y133096D02*
X330510Y133096D01*
X330584Y133098D01*
X330659Y133104D01*
X330732Y133113D01*
X330806Y133126D01*
X330878Y133143D01*
X330949Y133163D01*
X331020Y133187D01*
X331089Y133215D01*
X331157Y133246D01*
X331222Y133280D01*
X331287Y133318D01*
X331349Y133359D01*
X331409Y133403D01*
X331466Y133450D01*
X331521Y133500D01*
X331574Y133553D01*
X331624Y133608D01*
X331671Y133665D01*
X331715Y133725D01*
X331756Y133787D01*
X331794Y133852D01*
X331828Y133918D01*
X331859Y133985D01*
X331887Y134054D01*
X331911Y134125D01*
X331931Y134196D01*
X331948Y134269D01*
X331961Y134342D01*
X331970Y134416D01*
X331976Y134490D01*
X331978Y134564D01*
X331978Y138232D01*
X331976Y138306D01*
X331970Y138381D01*
X331961Y138454D01*
X331948Y138527D01*
X331931Y138600D01*
X331911Y138671D01*
X331887Y138742D01*
X331859Y138811D01*
X331828Y138878D01*
X331794Y138944D01*
X331756Y139009D01*
X331715Y139071D01*
X331671Y139131D01*
X331624Y139188D01*
X331574Y139243D01*
X331521Y139296D01*
X331466Y139346D01*
X331409Y139393D01*
X331349Y139437D01*
X331287Y139478D01*
X331222Y139516D01*
X331157Y139550D01*
X331089Y139581D01*
X331020Y139609D01*
X330950Y139633D01*
X330878Y139653D01*
X330806Y139670D01*
X330732Y139683D01*
X330659Y139692D01*
X330584Y139698D01*
X330510Y139700D01*
X329043Y139700D01*
X325847Y133096D02*
X323645Y133096D01*
X323571Y133098D01*
X323496Y133104D01*
X323423Y133113D01*
X323349Y133126D01*
X323277Y133143D01*
X323206Y133163D01*
X323135Y133187D01*
X323066Y133215D01*
X322999Y133246D01*
X322933Y133280D01*
X322868Y133318D01*
X322806Y133359D01*
X322746Y133403D01*
X322689Y133450D01*
X322634Y133500D01*
X322581Y133553D01*
X322531Y133608D01*
X322484Y133665D01*
X322440Y133725D01*
X322399Y133787D01*
X322361Y133852D01*
X322327Y133917D01*
X322296Y133985D01*
X322268Y134054D01*
X322244Y134125D01*
X322224Y134196D01*
X322207Y134268D01*
X322194Y134342D01*
X322185Y134415D01*
X322179Y134490D01*
X322177Y134564D01*
X322178Y134564D02*
X322178Y135297D01*
X322177Y135297D02*
X322179Y135371D01*
X322185Y135446D01*
X322194Y135519D01*
X322207Y135593D01*
X322224Y135665D01*
X322244Y135736D01*
X322268Y135807D01*
X322296Y135876D01*
X322327Y135943D01*
X322361Y136009D01*
X322399Y136074D01*
X322440Y136136D01*
X322484Y136196D01*
X322531Y136253D01*
X322581Y136308D01*
X322634Y136361D01*
X322689Y136411D01*
X322746Y136458D01*
X322806Y136502D01*
X322868Y136543D01*
X322933Y136581D01*
X322999Y136615D01*
X323066Y136646D01*
X323135Y136674D01*
X323206Y136698D01*
X323277Y136718D01*
X323349Y136735D01*
X323423Y136748D01*
X323496Y136757D01*
X323571Y136763D01*
X323645Y136765D01*
X325847Y136765D01*
X325847Y139700D01*
X322178Y139700D01*
D12*
X317070Y42035D02*
X320880Y38225D01*
X324690Y42035D01*
D10*
X309670Y77724D02*
X309670Y84328D01*
X309670Y77724D02*
X306735Y77724D01*
X303599Y82860D02*
X301764Y84328D01*
X301764Y77724D01*
X299930Y77724D02*
X303599Y77724D01*
D12*
X257380Y63625D02*
X253570Y67435D01*
X257380Y63625D02*
X261190Y67435D01*
D10*
X246170Y103124D02*
X246170Y109728D01*
X246170Y103124D02*
X243235Y103124D01*
X238081Y109728D02*
X238002Y109726D01*
X237924Y109721D01*
X237846Y109711D01*
X237769Y109698D01*
X237692Y109681D01*
X237616Y109661D01*
X237541Y109637D01*
X237467Y109610D01*
X237395Y109579D01*
X237324Y109544D01*
X237256Y109507D01*
X237188Y109466D01*
X237123Y109422D01*
X237060Y109375D01*
X237000Y109325D01*
X236942Y109272D01*
X236886Y109216D01*
X236833Y109158D01*
X236783Y109098D01*
X236736Y109035D01*
X236692Y108970D01*
X236651Y108903D01*
X236614Y108834D01*
X236579Y108763D01*
X236548Y108691D01*
X236521Y108617D01*
X236497Y108542D01*
X236477Y108466D01*
X236460Y108389D01*
X236447Y108312D01*
X236437Y108234D01*
X236432Y108156D01*
X236430Y108077D01*
X238081Y109728D02*
X238170Y109726D01*
X238259Y109721D01*
X238347Y109711D01*
X238435Y109698D01*
X238522Y109682D01*
X238609Y109661D01*
X238694Y109637D01*
X238779Y109610D01*
X238862Y109579D01*
X238944Y109544D01*
X239025Y109506D01*
X239104Y109465D01*
X239180Y109421D01*
X239256Y109373D01*
X239329Y109322D01*
X239399Y109269D01*
X239468Y109212D01*
X239534Y109152D01*
X239597Y109090D01*
X239658Y109025D01*
X239716Y108958D01*
X239771Y108888D01*
X239824Y108816D01*
X239873Y108742D01*
X239919Y108666D01*
X239961Y108588D01*
X240001Y108508D01*
X240037Y108427D01*
X240070Y108344D01*
X240099Y108260D01*
X236980Y106793D02*
X236924Y106849D01*
X236870Y106908D01*
X236819Y106969D01*
X236770Y107033D01*
X236725Y107098D01*
X236682Y107166D01*
X236643Y107235D01*
X236606Y107306D01*
X236573Y107379D01*
X236544Y107453D01*
X236517Y107528D01*
X236494Y107604D01*
X236475Y107682D01*
X236459Y107760D01*
X236446Y107838D01*
X236437Y107918D01*
X236432Y107997D01*
X236430Y108077D01*
X236980Y106793D02*
X240099Y103124D01*
X236430Y103124D01*
D12*
X193880Y89025D02*
X190070Y92835D01*
X193880Y89025D02*
X197690Y92835D01*
D10*
X182670Y128397D02*
X182670Y135001D01*
X182670Y128397D02*
X179735Y128397D01*
X176599Y128397D02*
X174764Y128397D01*
X174679Y128399D01*
X174595Y128405D01*
X174511Y128415D01*
X174427Y128428D01*
X174344Y128446D01*
X174262Y128467D01*
X174181Y128492D01*
X174101Y128521D01*
X174023Y128553D01*
X173947Y128589D01*
X173872Y128629D01*
X173799Y128672D01*
X173728Y128718D01*
X173659Y128767D01*
X173592Y128820D01*
X173528Y128876D01*
X173467Y128934D01*
X173409Y128995D01*
X173353Y129059D01*
X173300Y129126D01*
X173251Y129195D01*
X173205Y129266D01*
X173162Y129339D01*
X173122Y129414D01*
X173086Y129490D01*
X173054Y129568D01*
X173025Y129648D01*
X173000Y129729D01*
X172979Y129811D01*
X172961Y129894D01*
X172948Y129978D01*
X172938Y130062D01*
X172932Y130146D01*
X172930Y130231D01*
X172932Y130316D01*
X172938Y130400D01*
X172948Y130484D01*
X172961Y130568D01*
X172979Y130651D01*
X173000Y130733D01*
X173025Y130814D01*
X173054Y130894D01*
X173086Y130972D01*
X173122Y131048D01*
X173162Y131123D01*
X173205Y131196D01*
X173251Y131267D01*
X173300Y131336D01*
X173353Y131403D01*
X173409Y131467D01*
X173467Y131528D01*
X173528Y131586D01*
X173592Y131642D01*
X173659Y131695D01*
X173728Y131744D01*
X173799Y131790D01*
X173872Y131833D01*
X173947Y131873D01*
X174023Y131909D01*
X174101Y131941D01*
X174181Y131970D01*
X174262Y131995D01*
X174344Y132016D01*
X174427Y132034D01*
X174511Y132047D01*
X174595Y132057D01*
X174679Y132063D01*
X174764Y132065D01*
X174397Y135001D02*
X176599Y135001D01*
X174397Y135001D02*
X174321Y134999D01*
X174246Y134993D01*
X174171Y134984D01*
X174097Y134970D01*
X174023Y134953D01*
X173951Y134931D01*
X173879Y134907D01*
X173809Y134878D01*
X173741Y134846D01*
X173674Y134811D01*
X173609Y134772D01*
X173546Y134729D01*
X173486Y134684D01*
X173428Y134636D01*
X173372Y134584D01*
X173320Y134530D01*
X173270Y134473D01*
X173223Y134414D01*
X173179Y134353D01*
X173138Y134289D01*
X173101Y134223D01*
X173067Y134155D01*
X173037Y134086D01*
X173010Y134015D01*
X172987Y133943D01*
X172968Y133870D01*
X172953Y133796D01*
X172941Y133721D01*
X172933Y133646D01*
X172929Y133571D01*
X172929Y133495D01*
X172933Y133420D01*
X172941Y133345D01*
X172953Y133270D01*
X172968Y133196D01*
X172987Y133123D01*
X173010Y133051D01*
X173037Y132980D01*
X173067Y132911D01*
X173101Y132843D01*
X173138Y132777D01*
X173179Y132713D01*
X173223Y132652D01*
X173270Y132593D01*
X173320Y132536D01*
X173372Y132482D01*
X173428Y132430D01*
X173486Y132382D01*
X173546Y132337D01*
X173609Y132294D01*
X173674Y132255D01*
X173741Y132220D01*
X173809Y132188D01*
X173879Y132159D01*
X173951Y132135D01*
X174023Y132113D01*
X174097Y132096D01*
X174171Y132082D01*
X174246Y132073D01*
X174321Y132067D01*
X174397Y132065D01*
X174397Y132066D02*
X175865Y132066D01*
D12*
X130380Y114425D02*
X126570Y118235D01*
X130380Y114425D02*
X134190Y118235D01*
D10*
X119170Y153924D02*
X119170Y160528D01*
X119170Y153924D02*
X116235Y153924D01*
X113099Y155392D02*
X111631Y160528D01*
X113099Y155392D02*
X109430Y155392D01*
X110530Y156859D02*
X110530Y153924D01*
D12*
X66880Y139825D02*
X63070Y143635D01*
X66880Y139825D02*
X70690Y143635D01*
D10*
X55670Y179324D02*
X55670Y185928D01*
X55670Y179324D02*
X52735Y179324D01*
X49599Y179324D02*
X47397Y179324D01*
X47323Y179326D01*
X47248Y179332D01*
X47175Y179341D01*
X47101Y179354D01*
X47029Y179371D01*
X46958Y179391D01*
X46887Y179415D01*
X46818Y179443D01*
X46751Y179474D01*
X46685Y179508D01*
X46620Y179546D01*
X46558Y179587D01*
X46498Y179631D01*
X46441Y179678D01*
X46386Y179728D01*
X46333Y179781D01*
X46283Y179836D01*
X46236Y179893D01*
X46192Y179953D01*
X46151Y180015D01*
X46113Y180080D01*
X46079Y180145D01*
X46048Y180213D01*
X46020Y180282D01*
X45996Y180353D01*
X45976Y180424D01*
X45959Y180496D01*
X45946Y180570D01*
X45937Y180643D01*
X45931Y180718D01*
X45929Y180792D01*
X45930Y180792D02*
X45930Y181525D01*
X45929Y181525D02*
X45931Y181599D01*
X45937Y181674D01*
X45946Y181747D01*
X45959Y181821D01*
X45976Y181893D01*
X45996Y181964D01*
X46020Y182035D01*
X46048Y182104D01*
X46079Y182171D01*
X46113Y182237D01*
X46151Y182302D01*
X46192Y182364D01*
X46236Y182424D01*
X46283Y182481D01*
X46333Y182536D01*
X46386Y182589D01*
X46441Y182639D01*
X46498Y182686D01*
X46558Y182730D01*
X46620Y182771D01*
X46685Y182809D01*
X46751Y182843D01*
X46818Y182874D01*
X46887Y182902D01*
X46958Y182926D01*
X47029Y182946D01*
X47101Y182963D01*
X47175Y182976D01*
X47248Y182985D01*
X47323Y182991D01*
X47397Y182993D01*
X49599Y182993D01*
X49599Y185928D01*
X45930Y185928D01*
D12*
X66880Y266825D02*
X63070Y270635D01*
X66880Y266825D02*
X70690Y270635D01*
D10*
X55670Y244602D02*
X55670Y237998D01*
X52735Y237998D01*
X49599Y241667D02*
X47397Y241667D01*
X47323Y241665D01*
X47248Y241659D01*
X47175Y241650D01*
X47101Y241637D01*
X47029Y241620D01*
X46958Y241600D01*
X46887Y241576D01*
X46818Y241548D01*
X46751Y241517D01*
X46685Y241483D01*
X46620Y241445D01*
X46558Y241404D01*
X46498Y241360D01*
X46441Y241313D01*
X46386Y241263D01*
X46333Y241210D01*
X46283Y241155D01*
X46236Y241098D01*
X46192Y241038D01*
X46151Y240976D01*
X46113Y240911D01*
X46079Y240845D01*
X46048Y240778D01*
X46020Y240709D01*
X45996Y240638D01*
X45976Y240567D01*
X45959Y240495D01*
X45946Y240421D01*
X45937Y240348D01*
X45931Y240273D01*
X45929Y240199D01*
X45930Y240199D02*
X45930Y239832D01*
X45932Y239747D01*
X45938Y239663D01*
X45948Y239579D01*
X45961Y239495D01*
X45979Y239412D01*
X46000Y239330D01*
X46025Y239249D01*
X46054Y239169D01*
X46086Y239091D01*
X46122Y239015D01*
X46162Y238940D01*
X46205Y238867D01*
X46251Y238796D01*
X46300Y238727D01*
X46353Y238660D01*
X46409Y238596D01*
X46467Y238535D01*
X46528Y238477D01*
X46592Y238421D01*
X46659Y238368D01*
X46728Y238319D01*
X46799Y238273D01*
X46872Y238230D01*
X46947Y238190D01*
X47023Y238154D01*
X47101Y238122D01*
X47181Y238093D01*
X47262Y238068D01*
X47344Y238047D01*
X47427Y238029D01*
X47511Y238016D01*
X47595Y238006D01*
X47679Y238000D01*
X47764Y237998D01*
X47849Y238000D01*
X47933Y238006D01*
X48017Y238016D01*
X48101Y238029D01*
X48184Y238047D01*
X48266Y238068D01*
X48347Y238093D01*
X48427Y238122D01*
X48505Y238154D01*
X48581Y238190D01*
X48656Y238230D01*
X48729Y238273D01*
X48800Y238319D01*
X48869Y238368D01*
X48936Y238421D01*
X49000Y238477D01*
X49061Y238535D01*
X49119Y238596D01*
X49175Y238660D01*
X49228Y238727D01*
X49277Y238796D01*
X49323Y238867D01*
X49366Y238940D01*
X49406Y239015D01*
X49442Y239091D01*
X49474Y239169D01*
X49503Y239249D01*
X49528Y239330D01*
X49549Y239412D01*
X49567Y239495D01*
X49580Y239579D01*
X49590Y239663D01*
X49596Y239747D01*
X49598Y239832D01*
X49599Y239832D02*
X49599Y241667D01*
X49598Y241667D02*
X49596Y241774D01*
X49590Y241881D01*
X49580Y241988D01*
X49567Y242094D01*
X49549Y242200D01*
X49528Y242305D01*
X49503Y242409D01*
X49474Y242513D01*
X49441Y242615D01*
X49404Y242715D01*
X49364Y242815D01*
X49320Y242913D01*
X49273Y243009D01*
X49222Y243103D01*
X49168Y243196D01*
X49111Y243286D01*
X49050Y243375D01*
X48986Y243461D01*
X48919Y243544D01*
X48849Y243626D01*
X48776Y243704D01*
X48700Y243780D01*
X48622Y243853D01*
X48540Y243923D01*
X48457Y243990D01*
X48371Y244054D01*
X48282Y244115D01*
X48192Y244172D01*
X48099Y244226D01*
X48005Y244277D01*
X47909Y244324D01*
X47811Y244368D01*
X47712Y244408D01*
X47611Y244445D01*
X47509Y244478D01*
X47405Y244507D01*
X47301Y244532D01*
X47196Y244553D01*
X47090Y244571D01*
X46984Y244584D01*
X46877Y244594D01*
X46770Y244600D01*
X46663Y244602D01*
D12*
X126570Y245235D02*
X130380Y241425D01*
X134190Y245235D01*
D10*
X119170Y219202D02*
X119170Y212598D01*
X116235Y212598D01*
X113099Y218468D02*
X113099Y219202D01*
X109430Y219202D01*
X111264Y212598D01*
D12*
X190070Y219835D02*
X193880Y216025D01*
X197690Y219835D01*
D10*
X182670Y193802D02*
X182670Y187198D01*
X179735Y187198D01*
X176598Y189032D02*
X176596Y189117D01*
X176590Y189201D01*
X176580Y189285D01*
X176567Y189369D01*
X176549Y189452D01*
X176528Y189534D01*
X176503Y189615D01*
X176474Y189695D01*
X176442Y189773D01*
X176406Y189849D01*
X176366Y189924D01*
X176323Y189997D01*
X176277Y190068D01*
X176228Y190137D01*
X176175Y190204D01*
X176119Y190268D01*
X176061Y190329D01*
X176000Y190387D01*
X175936Y190443D01*
X175869Y190496D01*
X175800Y190545D01*
X175729Y190591D01*
X175656Y190634D01*
X175581Y190674D01*
X175505Y190710D01*
X175427Y190742D01*
X175347Y190771D01*
X175266Y190796D01*
X175184Y190817D01*
X175101Y190835D01*
X175017Y190848D01*
X174933Y190858D01*
X174849Y190864D01*
X174764Y190866D01*
X174679Y190864D01*
X174595Y190858D01*
X174511Y190848D01*
X174427Y190835D01*
X174344Y190817D01*
X174262Y190796D01*
X174181Y190771D01*
X174101Y190742D01*
X174023Y190710D01*
X173947Y190674D01*
X173872Y190634D01*
X173799Y190591D01*
X173728Y190545D01*
X173659Y190496D01*
X173592Y190443D01*
X173528Y190387D01*
X173467Y190329D01*
X173409Y190268D01*
X173353Y190204D01*
X173300Y190137D01*
X173251Y190068D01*
X173205Y189997D01*
X173162Y189924D01*
X173122Y189849D01*
X173086Y189773D01*
X173054Y189695D01*
X173025Y189615D01*
X173000Y189534D01*
X172979Y189452D01*
X172961Y189369D01*
X172948Y189285D01*
X172938Y189201D01*
X172932Y189117D01*
X172930Y189032D01*
X172932Y188947D01*
X172938Y188863D01*
X172948Y188779D01*
X172961Y188695D01*
X172979Y188612D01*
X173000Y188530D01*
X173025Y188449D01*
X173054Y188369D01*
X173086Y188291D01*
X173122Y188215D01*
X173162Y188140D01*
X173205Y188067D01*
X173251Y187996D01*
X173300Y187927D01*
X173353Y187860D01*
X173409Y187796D01*
X173467Y187735D01*
X173528Y187677D01*
X173592Y187621D01*
X173659Y187568D01*
X173728Y187519D01*
X173799Y187473D01*
X173872Y187430D01*
X173947Y187390D01*
X174023Y187354D01*
X174101Y187322D01*
X174181Y187293D01*
X174262Y187268D01*
X174344Y187247D01*
X174427Y187229D01*
X174511Y187216D01*
X174595Y187206D01*
X174679Y187200D01*
X174764Y187198D01*
X174849Y187200D01*
X174933Y187206D01*
X175017Y187216D01*
X175101Y187229D01*
X175184Y187247D01*
X175266Y187268D01*
X175347Y187293D01*
X175427Y187322D01*
X175505Y187354D01*
X175581Y187390D01*
X175656Y187430D01*
X175729Y187473D01*
X175800Y187519D01*
X175869Y187568D01*
X175936Y187621D01*
X176000Y187677D01*
X176061Y187735D01*
X176119Y187796D01*
X176175Y187860D01*
X176228Y187927D01*
X176277Y187996D01*
X176323Y188067D01*
X176366Y188140D01*
X176406Y188215D01*
X176442Y188291D01*
X176474Y188369D01*
X176503Y188449D01*
X176528Y188530D01*
X176549Y188612D01*
X176567Y188695D01*
X176580Y188779D01*
X176590Y188863D01*
X176596Y188947D01*
X176598Y189032D01*
X176232Y192334D02*
X176230Y192410D01*
X176224Y192485D01*
X176215Y192560D01*
X176201Y192634D01*
X176184Y192708D01*
X176162Y192780D01*
X176138Y192852D01*
X176109Y192922D01*
X176077Y192990D01*
X176042Y193057D01*
X176003Y193122D01*
X175960Y193185D01*
X175915Y193245D01*
X175867Y193303D01*
X175815Y193359D01*
X175761Y193411D01*
X175704Y193461D01*
X175645Y193508D01*
X175584Y193552D01*
X175520Y193593D01*
X175454Y193630D01*
X175386Y193664D01*
X175317Y193694D01*
X175246Y193721D01*
X175174Y193744D01*
X175101Y193763D01*
X175027Y193778D01*
X174952Y193790D01*
X174877Y193798D01*
X174802Y193802D01*
X174726Y193802D01*
X174651Y193798D01*
X174576Y193790D01*
X174501Y193778D01*
X174427Y193763D01*
X174354Y193744D01*
X174282Y193721D01*
X174211Y193694D01*
X174142Y193664D01*
X174074Y193630D01*
X174008Y193593D01*
X173944Y193552D01*
X173883Y193508D01*
X173824Y193461D01*
X173767Y193411D01*
X173713Y193359D01*
X173661Y193303D01*
X173613Y193245D01*
X173568Y193185D01*
X173525Y193122D01*
X173486Y193057D01*
X173451Y192990D01*
X173419Y192922D01*
X173390Y192852D01*
X173366Y192780D01*
X173344Y192708D01*
X173327Y192634D01*
X173313Y192560D01*
X173304Y192485D01*
X173298Y192410D01*
X173296Y192334D01*
X173298Y192258D01*
X173304Y192183D01*
X173313Y192108D01*
X173327Y192034D01*
X173344Y191960D01*
X173366Y191888D01*
X173390Y191816D01*
X173419Y191746D01*
X173451Y191678D01*
X173486Y191611D01*
X173525Y191546D01*
X173568Y191483D01*
X173613Y191423D01*
X173661Y191365D01*
X173713Y191309D01*
X173767Y191257D01*
X173824Y191207D01*
X173883Y191160D01*
X173944Y191116D01*
X174008Y191075D01*
X174074Y191038D01*
X174142Y191004D01*
X174211Y190974D01*
X174282Y190947D01*
X174354Y190924D01*
X174427Y190905D01*
X174501Y190890D01*
X174576Y190878D01*
X174651Y190870D01*
X174726Y190866D01*
X174802Y190866D01*
X174877Y190870D01*
X174952Y190878D01*
X175027Y190890D01*
X175101Y190905D01*
X175174Y190924D01*
X175246Y190947D01*
X175317Y190974D01*
X175386Y191004D01*
X175454Y191038D01*
X175520Y191075D01*
X175584Y191116D01*
X175645Y191160D01*
X175704Y191207D01*
X175761Y191257D01*
X175815Y191309D01*
X175867Y191365D01*
X175915Y191423D01*
X175960Y191483D01*
X176003Y191546D01*
X176042Y191611D01*
X176077Y191678D01*
X176109Y191746D01*
X176138Y191816D01*
X176162Y191888D01*
X176184Y191960D01*
X176201Y192034D01*
X176215Y192108D01*
X176224Y192183D01*
X176230Y192258D01*
X176232Y192334D01*
D12*
X253570Y194435D02*
X257380Y190625D01*
X261190Y194435D01*
D10*
X246170Y168402D02*
X246170Y161798D01*
X243235Y161798D01*
X238631Y164733D02*
X236430Y164733D01*
X238631Y164733D02*
X238705Y164735D01*
X238780Y164741D01*
X238853Y164750D01*
X238927Y164763D01*
X238999Y164780D01*
X239070Y164800D01*
X239141Y164824D01*
X239210Y164852D01*
X239278Y164883D01*
X239343Y164917D01*
X239408Y164955D01*
X239470Y164996D01*
X239530Y165040D01*
X239587Y165087D01*
X239642Y165137D01*
X239695Y165190D01*
X239745Y165245D01*
X239792Y165302D01*
X239836Y165362D01*
X239877Y165424D01*
X239915Y165489D01*
X239949Y165555D01*
X239980Y165622D01*
X240008Y165691D01*
X240032Y165762D01*
X240052Y165833D01*
X240069Y165906D01*
X240082Y165979D01*
X240091Y166053D01*
X240097Y166127D01*
X240099Y166201D01*
X240099Y166568D01*
X240098Y166568D02*
X240096Y166653D01*
X240090Y166737D01*
X240080Y166821D01*
X240067Y166905D01*
X240049Y166988D01*
X240028Y167070D01*
X240003Y167151D01*
X239974Y167231D01*
X239942Y167309D01*
X239906Y167385D01*
X239866Y167460D01*
X239823Y167533D01*
X239777Y167604D01*
X239728Y167673D01*
X239675Y167740D01*
X239619Y167804D01*
X239561Y167865D01*
X239500Y167923D01*
X239436Y167979D01*
X239369Y168032D01*
X239300Y168081D01*
X239229Y168127D01*
X239156Y168170D01*
X239081Y168210D01*
X239005Y168246D01*
X238927Y168278D01*
X238847Y168307D01*
X238766Y168332D01*
X238684Y168353D01*
X238601Y168371D01*
X238517Y168384D01*
X238433Y168394D01*
X238349Y168400D01*
X238264Y168402D01*
X238179Y168400D01*
X238095Y168394D01*
X238011Y168384D01*
X237927Y168371D01*
X237844Y168353D01*
X237762Y168332D01*
X237681Y168307D01*
X237601Y168278D01*
X237523Y168246D01*
X237447Y168210D01*
X237372Y168170D01*
X237299Y168127D01*
X237228Y168081D01*
X237159Y168032D01*
X237092Y167979D01*
X237028Y167923D01*
X236967Y167865D01*
X236909Y167804D01*
X236853Y167740D01*
X236800Y167673D01*
X236751Y167604D01*
X236705Y167533D01*
X236662Y167460D01*
X236622Y167385D01*
X236586Y167309D01*
X236554Y167231D01*
X236525Y167151D01*
X236500Y167070D01*
X236479Y166988D01*
X236461Y166905D01*
X236448Y166821D01*
X236438Y166737D01*
X236432Y166653D01*
X236430Y166568D01*
X236430Y164733D01*
X236432Y164626D01*
X236438Y164519D01*
X236448Y164412D01*
X236461Y164306D01*
X236479Y164200D01*
X236500Y164095D01*
X236525Y163991D01*
X236554Y163887D01*
X236587Y163785D01*
X236624Y163685D01*
X236664Y163585D01*
X236708Y163487D01*
X236755Y163391D01*
X236806Y163297D01*
X236860Y163204D01*
X236917Y163114D01*
X236978Y163025D01*
X237042Y162939D01*
X237109Y162856D01*
X237179Y162774D01*
X237252Y162696D01*
X237328Y162620D01*
X237406Y162547D01*
X237488Y162477D01*
X237571Y162410D01*
X237657Y162346D01*
X237746Y162285D01*
X237836Y162228D01*
X237929Y162174D01*
X238023Y162123D01*
X238119Y162076D01*
X238217Y162032D01*
X238317Y161992D01*
X238417Y161955D01*
X238519Y161922D01*
X238623Y161893D01*
X238727Y161868D01*
X238832Y161847D01*
X238938Y161829D01*
X239044Y161816D01*
X239151Y161806D01*
X239258Y161800D01*
X239365Y161798D01*
D12*
X317070Y169035D02*
X320880Y165225D01*
X324690Y169035D01*
D10*
X313328Y143002D02*
X313328Y136398D01*
X310393Y136398D01*
X307256Y141534D02*
X305422Y143002D01*
X305422Y136398D01*
X307256Y136398D02*
X303587Y136398D01*
X299941Y139700D02*
X299939Y139845D01*
X299933Y139990D01*
X299924Y140135D01*
X299910Y140280D01*
X299893Y140424D01*
X299871Y140567D01*
X299846Y140711D01*
X299817Y140853D01*
X299785Y140994D01*
X299748Y141135D01*
X299708Y141274D01*
X299664Y141413D01*
X299617Y141550D01*
X299566Y141686D01*
X299511Y141820D01*
X299453Y141953D01*
X299391Y142085D01*
X299392Y142085D02*
X299366Y142154D01*
X299337Y142221D01*
X299304Y142287D01*
X299268Y142350D01*
X299228Y142412D01*
X299185Y142471D01*
X299139Y142528D01*
X299090Y142582D01*
X299038Y142634D01*
X298983Y142683D01*
X298926Y142728D01*
X298866Y142771D01*
X298804Y142810D01*
X298741Y142846D01*
X298675Y142879D01*
X298608Y142907D01*
X298539Y142933D01*
X298469Y142954D01*
X298398Y142972D01*
X298326Y142985D01*
X298253Y142995D01*
X298180Y143001D01*
X298107Y143003D01*
X298107Y143002D02*
X298034Y143000D01*
X297961Y142994D01*
X297888Y142984D01*
X297817Y142971D01*
X297745Y142953D01*
X297675Y142932D01*
X297607Y142906D01*
X297539Y142878D01*
X297474Y142845D01*
X297410Y142809D01*
X297348Y142770D01*
X297289Y142728D01*
X297232Y142682D01*
X297177Y142633D01*
X297125Y142582D01*
X297076Y142527D01*
X297030Y142470D01*
X296987Y142411D01*
X296947Y142350D01*
X296911Y142286D01*
X296878Y142221D01*
X296849Y142154D01*
X296823Y142085D01*
X296822Y142085D02*
X296760Y141953D01*
X296702Y141820D01*
X296647Y141686D01*
X296596Y141550D01*
X296549Y141413D01*
X296505Y141274D01*
X296465Y141135D01*
X296428Y140994D01*
X296396Y140853D01*
X296367Y140711D01*
X296342Y140568D01*
X296320Y140424D01*
X296303Y140280D01*
X296289Y140135D01*
X296280Y139990D01*
X296274Y139845D01*
X296272Y139700D01*
X299940Y139700D02*
X299938Y139555D01*
X299932Y139410D01*
X299923Y139265D01*
X299909Y139120D01*
X299892Y138976D01*
X299870Y138833D01*
X299845Y138690D01*
X299817Y138547D01*
X299784Y138406D01*
X299747Y138265D01*
X299707Y138126D01*
X299663Y137987D01*
X299616Y137850D01*
X299565Y137714D01*
X299510Y137580D01*
X299452Y137447D01*
X299390Y137315D01*
X299392Y137316D02*
X299366Y137247D01*
X299337Y137180D01*
X299304Y137114D01*
X299268Y137051D01*
X299228Y136989D01*
X299185Y136930D01*
X299139Y136873D01*
X299090Y136819D01*
X299038Y136767D01*
X298983Y136718D01*
X298926Y136673D01*
X298866Y136630D01*
X298804Y136591D01*
X298741Y136555D01*
X298675Y136522D01*
X298608Y136494D01*
X298539Y136468D01*
X298469Y136447D01*
X298398Y136429D01*
X298326Y136416D01*
X298253Y136406D01*
X298180Y136400D01*
X298107Y136398D01*
X296822Y137315D02*
X296760Y137447D01*
X296702Y137580D01*
X296647Y137714D01*
X296596Y137850D01*
X296549Y137987D01*
X296505Y138126D01*
X296465Y138265D01*
X296428Y138406D01*
X296396Y138547D01*
X296367Y138689D01*
X296342Y138832D01*
X296320Y138976D01*
X296303Y139120D01*
X296289Y139265D01*
X296280Y139410D01*
X296274Y139555D01*
X296272Y139700D01*
X296823Y137315D02*
X296849Y137246D01*
X296878Y137179D01*
X296911Y137114D01*
X296947Y137050D01*
X296987Y136989D01*
X297030Y136930D01*
X297076Y136873D01*
X297125Y136818D01*
X297177Y136767D01*
X297232Y136718D01*
X297289Y136672D01*
X297348Y136630D01*
X297410Y136591D01*
X297474Y136555D01*
X297539Y136522D01*
X297607Y136494D01*
X297675Y136468D01*
X297745Y136447D01*
X297817Y136429D01*
X297888Y136416D01*
X297961Y136406D01*
X298034Y136400D01*
X298107Y136398D01*
X299574Y137866D02*
X296639Y141534D01*
D12*
X380570Y143635D02*
X384380Y139825D01*
X388190Y143635D01*
D10*
X376828Y179578D02*
X376828Y186182D01*
X376828Y179578D02*
X373893Y179578D01*
X370756Y184714D02*
X368922Y186182D01*
X368922Y179578D01*
X370756Y179578D02*
X367087Y179578D01*
X363441Y184714D02*
X361607Y186182D01*
X361607Y179578D01*
X363441Y179578D02*
X359772Y179578D01*
D12*
X444070Y118235D02*
X447880Y114425D01*
X451690Y118235D01*
D10*
X440328Y154178D02*
X440328Y160782D01*
X440328Y154178D02*
X437393Y154178D01*
X434256Y159314D02*
X432422Y160782D01*
X432422Y154178D01*
X434256Y154178D02*
X430587Y154178D01*
X424923Y160782D02*
X424844Y160780D01*
X424766Y160775D01*
X424688Y160765D01*
X424611Y160752D01*
X424534Y160735D01*
X424458Y160715D01*
X424383Y160691D01*
X424309Y160664D01*
X424237Y160633D01*
X424166Y160598D01*
X424098Y160561D01*
X424030Y160520D01*
X423965Y160476D01*
X423902Y160429D01*
X423842Y160379D01*
X423784Y160326D01*
X423728Y160270D01*
X423675Y160212D01*
X423625Y160152D01*
X423578Y160089D01*
X423534Y160024D01*
X423493Y159957D01*
X423456Y159888D01*
X423421Y159817D01*
X423390Y159745D01*
X423363Y159671D01*
X423339Y159596D01*
X423319Y159520D01*
X423302Y159443D01*
X423289Y159366D01*
X423279Y159288D01*
X423274Y159210D01*
X423272Y159131D01*
X424923Y160782D02*
X425012Y160780D01*
X425101Y160775D01*
X425189Y160765D01*
X425277Y160752D01*
X425364Y160736D01*
X425451Y160715D01*
X425536Y160691D01*
X425621Y160664D01*
X425704Y160633D01*
X425786Y160598D01*
X425867Y160560D01*
X425946Y160519D01*
X426022Y160475D01*
X426098Y160427D01*
X426171Y160376D01*
X426241Y160323D01*
X426310Y160266D01*
X426376Y160206D01*
X426439Y160144D01*
X426500Y160079D01*
X426558Y160012D01*
X426613Y159942D01*
X426666Y159870D01*
X426715Y159796D01*
X426761Y159720D01*
X426803Y159642D01*
X426843Y159562D01*
X426879Y159481D01*
X426912Y159398D01*
X426941Y159314D01*
X423822Y157847D02*
X423766Y157903D01*
X423712Y157962D01*
X423661Y158023D01*
X423612Y158087D01*
X423567Y158152D01*
X423524Y158220D01*
X423485Y158289D01*
X423448Y158360D01*
X423415Y158433D01*
X423386Y158507D01*
X423359Y158582D01*
X423336Y158658D01*
X423317Y158736D01*
X423301Y158814D01*
X423288Y158892D01*
X423279Y158972D01*
X423274Y159051D01*
X423272Y159131D01*
X423822Y157847D02*
X426941Y154178D01*
X423272Y154178D01*
D12*
X507570Y92835D02*
X511380Y89025D01*
X515190Y92835D01*
D10*
X503828Y128778D02*
X503828Y135382D01*
X503828Y128778D02*
X500893Y128778D01*
X497756Y133914D02*
X495922Y135382D01*
X495922Y128778D01*
X497756Y128778D02*
X494087Y128778D01*
X490441Y128778D02*
X488607Y128778D01*
X488522Y128780D01*
X488438Y128786D01*
X488354Y128796D01*
X488270Y128809D01*
X488187Y128827D01*
X488105Y128848D01*
X488024Y128873D01*
X487944Y128902D01*
X487866Y128934D01*
X487790Y128970D01*
X487715Y129010D01*
X487642Y129053D01*
X487571Y129099D01*
X487502Y129148D01*
X487435Y129201D01*
X487371Y129257D01*
X487310Y129315D01*
X487252Y129376D01*
X487196Y129440D01*
X487143Y129507D01*
X487094Y129576D01*
X487048Y129647D01*
X487005Y129720D01*
X486965Y129795D01*
X486929Y129871D01*
X486897Y129949D01*
X486868Y130029D01*
X486843Y130110D01*
X486822Y130192D01*
X486804Y130275D01*
X486791Y130359D01*
X486781Y130443D01*
X486775Y130527D01*
X486773Y130612D01*
X486775Y130697D01*
X486781Y130781D01*
X486791Y130865D01*
X486804Y130949D01*
X486822Y131032D01*
X486843Y131114D01*
X486868Y131195D01*
X486897Y131275D01*
X486929Y131353D01*
X486965Y131429D01*
X487005Y131504D01*
X487048Y131577D01*
X487094Y131648D01*
X487143Y131717D01*
X487196Y131784D01*
X487252Y131848D01*
X487310Y131909D01*
X487371Y131967D01*
X487435Y132023D01*
X487502Y132076D01*
X487571Y132125D01*
X487642Y132171D01*
X487715Y132214D01*
X487790Y132254D01*
X487866Y132290D01*
X487944Y132322D01*
X488024Y132351D01*
X488105Y132376D01*
X488187Y132397D01*
X488270Y132415D01*
X488354Y132428D01*
X488438Y132438D01*
X488522Y132444D01*
X488607Y132446D01*
X488240Y135382D02*
X490441Y135382D01*
X488240Y135382D02*
X488164Y135380D01*
X488089Y135374D01*
X488014Y135365D01*
X487940Y135351D01*
X487866Y135334D01*
X487794Y135312D01*
X487722Y135288D01*
X487652Y135259D01*
X487584Y135227D01*
X487517Y135192D01*
X487452Y135153D01*
X487389Y135110D01*
X487329Y135065D01*
X487271Y135017D01*
X487215Y134965D01*
X487163Y134911D01*
X487113Y134854D01*
X487066Y134795D01*
X487022Y134734D01*
X486981Y134670D01*
X486944Y134604D01*
X486910Y134536D01*
X486880Y134467D01*
X486853Y134396D01*
X486830Y134324D01*
X486811Y134251D01*
X486796Y134177D01*
X486784Y134102D01*
X486776Y134027D01*
X486772Y133952D01*
X486772Y133876D01*
X486776Y133801D01*
X486784Y133726D01*
X486796Y133651D01*
X486811Y133577D01*
X486830Y133504D01*
X486853Y133432D01*
X486880Y133361D01*
X486910Y133292D01*
X486944Y133224D01*
X486981Y133158D01*
X487022Y133094D01*
X487066Y133033D01*
X487113Y132974D01*
X487163Y132917D01*
X487215Y132863D01*
X487271Y132811D01*
X487329Y132763D01*
X487389Y132718D01*
X487452Y132675D01*
X487517Y132636D01*
X487584Y132601D01*
X487652Y132569D01*
X487722Y132540D01*
X487794Y132516D01*
X487866Y132494D01*
X487940Y132477D01*
X488014Y132463D01*
X488089Y132454D01*
X488164Y132448D01*
X488240Y132446D01*
X488240Y132447D02*
X489707Y132447D01*
D12*
X571070Y67435D02*
X574880Y63625D01*
X578690Y67435D01*
D10*
X567328Y103378D02*
X567328Y109982D01*
X567328Y103378D02*
X564393Y103378D01*
X561256Y108514D02*
X559422Y109982D01*
X559422Y103378D01*
X561256Y103378D02*
X557587Y103378D01*
X553941Y104846D02*
X552473Y109982D01*
X553941Y104846D02*
X550272Y104846D01*
X551373Y106313D02*
X551373Y103378D01*
D12*
X634570Y42035D02*
X638380Y38225D01*
X642190Y42035D01*
D10*
X630828Y77978D02*
X630828Y84582D01*
X630828Y77978D02*
X627893Y77978D01*
X624756Y83114D02*
X622922Y84582D01*
X622922Y77978D01*
X624756Y77978D02*
X621087Y77978D01*
X617441Y77978D02*
X615240Y77978D01*
X615166Y77980D01*
X615091Y77986D01*
X615018Y77995D01*
X614944Y78008D01*
X614872Y78025D01*
X614801Y78045D01*
X614730Y78069D01*
X614661Y78097D01*
X614594Y78128D01*
X614528Y78162D01*
X614463Y78200D01*
X614401Y78241D01*
X614341Y78285D01*
X614284Y78332D01*
X614229Y78382D01*
X614176Y78435D01*
X614126Y78490D01*
X614079Y78547D01*
X614035Y78607D01*
X613994Y78669D01*
X613956Y78734D01*
X613922Y78799D01*
X613891Y78867D01*
X613863Y78936D01*
X613839Y79007D01*
X613819Y79078D01*
X613802Y79150D01*
X613789Y79224D01*
X613780Y79297D01*
X613774Y79372D01*
X613772Y79446D01*
X613772Y80179D01*
X613774Y80253D01*
X613780Y80328D01*
X613789Y80401D01*
X613802Y80475D01*
X613819Y80547D01*
X613839Y80618D01*
X613863Y80689D01*
X613891Y80758D01*
X613922Y80825D01*
X613956Y80891D01*
X613994Y80956D01*
X614035Y81018D01*
X614079Y81078D01*
X614126Y81135D01*
X614176Y81190D01*
X614229Y81243D01*
X614284Y81293D01*
X614341Y81340D01*
X614401Y81384D01*
X614463Y81425D01*
X614528Y81463D01*
X614594Y81497D01*
X614661Y81528D01*
X614730Y81556D01*
X614801Y81580D01*
X614872Y81600D01*
X614944Y81617D01*
X615018Y81630D01*
X615091Y81639D01*
X615166Y81645D01*
X615240Y81647D01*
X617441Y81647D01*
X617441Y84582D01*
X613772Y84582D01*
D12*
X638380Y165225D02*
X634570Y169035D01*
X638380Y165225D02*
X642190Y169035D01*
D10*
X630828Y143002D02*
X630828Y136398D01*
X627893Y136398D01*
X624756Y141534D02*
X622922Y143002D01*
X622922Y136398D01*
X624756Y136398D02*
X621087Y136398D01*
X617441Y140067D02*
X615240Y140067D01*
X615166Y140065D01*
X615091Y140059D01*
X615018Y140050D01*
X614944Y140037D01*
X614872Y140020D01*
X614801Y140000D01*
X614730Y139976D01*
X614661Y139948D01*
X614594Y139917D01*
X614528Y139883D01*
X614463Y139845D01*
X614401Y139804D01*
X614341Y139760D01*
X614284Y139713D01*
X614229Y139663D01*
X614176Y139610D01*
X614126Y139555D01*
X614079Y139498D01*
X614035Y139438D01*
X613994Y139376D01*
X613956Y139311D01*
X613922Y139245D01*
X613891Y139178D01*
X613863Y139109D01*
X613839Y139038D01*
X613819Y138967D01*
X613802Y138895D01*
X613789Y138821D01*
X613780Y138748D01*
X613774Y138673D01*
X613772Y138599D01*
X613772Y138232D01*
X613773Y138232D02*
X613775Y138147D01*
X613781Y138063D01*
X613791Y137979D01*
X613804Y137895D01*
X613822Y137812D01*
X613843Y137730D01*
X613868Y137649D01*
X613897Y137569D01*
X613929Y137491D01*
X613965Y137415D01*
X614005Y137340D01*
X614048Y137267D01*
X614094Y137196D01*
X614143Y137127D01*
X614196Y137060D01*
X614252Y136996D01*
X614310Y136935D01*
X614371Y136877D01*
X614435Y136821D01*
X614502Y136768D01*
X614571Y136719D01*
X614642Y136673D01*
X614715Y136630D01*
X614790Y136590D01*
X614866Y136554D01*
X614944Y136522D01*
X615024Y136493D01*
X615105Y136468D01*
X615187Y136447D01*
X615270Y136429D01*
X615354Y136416D01*
X615438Y136406D01*
X615522Y136400D01*
X615607Y136398D01*
X615692Y136400D01*
X615776Y136406D01*
X615860Y136416D01*
X615944Y136429D01*
X616027Y136447D01*
X616109Y136468D01*
X616190Y136493D01*
X616270Y136522D01*
X616348Y136554D01*
X616424Y136590D01*
X616499Y136630D01*
X616572Y136673D01*
X616643Y136719D01*
X616712Y136768D01*
X616779Y136821D01*
X616843Y136877D01*
X616904Y136935D01*
X616962Y136996D01*
X617018Y137060D01*
X617071Y137127D01*
X617120Y137196D01*
X617166Y137267D01*
X617209Y137340D01*
X617249Y137415D01*
X617285Y137491D01*
X617317Y137569D01*
X617346Y137649D01*
X617371Y137730D01*
X617392Y137812D01*
X617410Y137895D01*
X617423Y137979D01*
X617433Y138063D01*
X617439Y138147D01*
X617441Y138232D01*
X617441Y140067D01*
X617439Y140174D01*
X617433Y140281D01*
X617423Y140388D01*
X617410Y140494D01*
X617392Y140600D01*
X617371Y140705D01*
X617346Y140809D01*
X617317Y140913D01*
X617284Y141015D01*
X617247Y141115D01*
X617207Y141215D01*
X617163Y141313D01*
X617116Y141409D01*
X617065Y141503D01*
X617011Y141596D01*
X616954Y141686D01*
X616893Y141775D01*
X616829Y141861D01*
X616762Y141944D01*
X616692Y142026D01*
X616619Y142104D01*
X616543Y142180D01*
X616465Y142253D01*
X616383Y142323D01*
X616300Y142390D01*
X616214Y142454D01*
X616125Y142515D01*
X616035Y142572D01*
X615942Y142626D01*
X615848Y142677D01*
X615752Y142724D01*
X615654Y142768D01*
X615555Y142808D01*
X615454Y142845D01*
X615352Y142878D01*
X615248Y142907D01*
X615144Y142932D01*
X615039Y142953D01*
X614933Y142971D01*
X614827Y142984D01*
X614720Y142994D01*
X614613Y143000D01*
X614506Y143002D01*
D12*
X574880Y190625D02*
X571070Y194435D01*
X574880Y190625D02*
X578690Y194435D01*
D10*
X567328Y168402D02*
X567328Y161798D01*
X564393Y161798D01*
X561256Y166934D02*
X559422Y168402D01*
X559422Y161798D01*
X561256Y161798D02*
X557587Y161798D01*
X553941Y167668D02*
X553941Y168402D01*
X550272Y168402D01*
X552107Y161798D01*
D12*
X511380Y216025D02*
X507570Y219835D01*
X511380Y216025D02*
X515190Y219835D01*
D10*
X503828Y193802D02*
X503828Y187198D01*
X500893Y187198D01*
X497756Y192334D02*
X495922Y193802D01*
X495922Y187198D01*
X497756Y187198D02*
X494087Y187198D01*
X490441Y189032D02*
X490439Y189117D01*
X490433Y189201D01*
X490423Y189285D01*
X490410Y189369D01*
X490392Y189452D01*
X490371Y189534D01*
X490346Y189615D01*
X490317Y189695D01*
X490285Y189773D01*
X490249Y189849D01*
X490209Y189924D01*
X490166Y189997D01*
X490120Y190068D01*
X490071Y190137D01*
X490018Y190204D01*
X489962Y190268D01*
X489904Y190329D01*
X489843Y190387D01*
X489779Y190443D01*
X489712Y190496D01*
X489643Y190545D01*
X489572Y190591D01*
X489499Y190634D01*
X489424Y190674D01*
X489348Y190710D01*
X489270Y190742D01*
X489190Y190771D01*
X489109Y190796D01*
X489027Y190817D01*
X488944Y190835D01*
X488860Y190848D01*
X488776Y190858D01*
X488692Y190864D01*
X488607Y190866D01*
X488522Y190864D01*
X488438Y190858D01*
X488354Y190848D01*
X488270Y190835D01*
X488187Y190817D01*
X488105Y190796D01*
X488024Y190771D01*
X487944Y190742D01*
X487866Y190710D01*
X487790Y190674D01*
X487715Y190634D01*
X487642Y190591D01*
X487571Y190545D01*
X487502Y190496D01*
X487435Y190443D01*
X487371Y190387D01*
X487310Y190329D01*
X487252Y190268D01*
X487196Y190204D01*
X487143Y190137D01*
X487094Y190068D01*
X487048Y189997D01*
X487005Y189924D01*
X486965Y189849D01*
X486929Y189773D01*
X486897Y189695D01*
X486868Y189615D01*
X486843Y189534D01*
X486822Y189452D01*
X486804Y189369D01*
X486791Y189285D01*
X486781Y189201D01*
X486775Y189117D01*
X486773Y189032D01*
X486775Y188947D01*
X486781Y188863D01*
X486791Y188779D01*
X486804Y188695D01*
X486822Y188612D01*
X486843Y188530D01*
X486868Y188449D01*
X486897Y188369D01*
X486929Y188291D01*
X486965Y188215D01*
X487005Y188140D01*
X487048Y188067D01*
X487094Y187996D01*
X487143Y187927D01*
X487196Y187860D01*
X487252Y187796D01*
X487310Y187735D01*
X487371Y187677D01*
X487435Y187621D01*
X487502Y187568D01*
X487571Y187519D01*
X487642Y187473D01*
X487715Y187430D01*
X487790Y187390D01*
X487866Y187354D01*
X487944Y187322D01*
X488024Y187293D01*
X488105Y187268D01*
X488187Y187247D01*
X488270Y187229D01*
X488354Y187216D01*
X488438Y187206D01*
X488522Y187200D01*
X488607Y187198D01*
X488692Y187200D01*
X488776Y187206D01*
X488860Y187216D01*
X488944Y187229D01*
X489027Y187247D01*
X489109Y187268D01*
X489190Y187293D01*
X489270Y187322D01*
X489348Y187354D01*
X489424Y187390D01*
X489499Y187430D01*
X489572Y187473D01*
X489643Y187519D01*
X489712Y187568D01*
X489779Y187621D01*
X489843Y187677D01*
X489904Y187735D01*
X489962Y187796D01*
X490018Y187860D01*
X490071Y187927D01*
X490120Y187996D01*
X490166Y188067D01*
X490209Y188140D01*
X490249Y188215D01*
X490285Y188291D01*
X490317Y188369D01*
X490346Y188449D01*
X490371Y188530D01*
X490392Y188612D01*
X490410Y188695D01*
X490423Y188779D01*
X490433Y188863D01*
X490439Y188947D01*
X490441Y189032D01*
X490075Y192334D02*
X490073Y192410D01*
X490067Y192485D01*
X490058Y192560D01*
X490044Y192634D01*
X490027Y192708D01*
X490005Y192780D01*
X489981Y192852D01*
X489952Y192922D01*
X489920Y192990D01*
X489885Y193057D01*
X489846Y193122D01*
X489803Y193185D01*
X489758Y193245D01*
X489710Y193303D01*
X489658Y193359D01*
X489604Y193411D01*
X489547Y193461D01*
X489488Y193508D01*
X489427Y193552D01*
X489363Y193593D01*
X489297Y193630D01*
X489229Y193664D01*
X489160Y193694D01*
X489089Y193721D01*
X489017Y193744D01*
X488944Y193763D01*
X488870Y193778D01*
X488795Y193790D01*
X488720Y193798D01*
X488645Y193802D01*
X488569Y193802D01*
X488494Y193798D01*
X488419Y193790D01*
X488344Y193778D01*
X488270Y193763D01*
X488197Y193744D01*
X488125Y193721D01*
X488054Y193694D01*
X487985Y193664D01*
X487917Y193630D01*
X487851Y193593D01*
X487787Y193552D01*
X487726Y193508D01*
X487667Y193461D01*
X487610Y193411D01*
X487556Y193359D01*
X487504Y193303D01*
X487456Y193245D01*
X487411Y193185D01*
X487368Y193122D01*
X487329Y193057D01*
X487294Y192990D01*
X487262Y192922D01*
X487233Y192852D01*
X487209Y192780D01*
X487187Y192708D01*
X487170Y192634D01*
X487156Y192560D01*
X487147Y192485D01*
X487141Y192410D01*
X487139Y192334D01*
X487141Y192258D01*
X487147Y192183D01*
X487156Y192108D01*
X487170Y192034D01*
X487187Y191960D01*
X487209Y191888D01*
X487233Y191816D01*
X487262Y191746D01*
X487294Y191678D01*
X487329Y191611D01*
X487368Y191546D01*
X487411Y191483D01*
X487456Y191423D01*
X487504Y191365D01*
X487556Y191309D01*
X487610Y191257D01*
X487667Y191207D01*
X487726Y191160D01*
X487787Y191116D01*
X487851Y191075D01*
X487917Y191038D01*
X487985Y191004D01*
X488054Y190974D01*
X488125Y190947D01*
X488197Y190924D01*
X488270Y190905D01*
X488344Y190890D01*
X488419Y190878D01*
X488494Y190870D01*
X488569Y190866D01*
X488645Y190866D01*
X488720Y190870D01*
X488795Y190878D01*
X488870Y190890D01*
X488944Y190905D01*
X489017Y190924D01*
X489089Y190947D01*
X489160Y190974D01*
X489229Y191004D01*
X489297Y191038D01*
X489363Y191075D01*
X489427Y191116D01*
X489488Y191160D01*
X489547Y191207D01*
X489604Y191257D01*
X489658Y191309D01*
X489710Y191365D01*
X489758Y191423D01*
X489803Y191483D01*
X489846Y191546D01*
X489885Y191611D01*
X489920Y191678D01*
X489952Y191746D01*
X489981Y191816D01*
X490005Y191888D01*
X490027Y191960D01*
X490044Y192034D01*
X490058Y192108D01*
X490067Y192183D01*
X490073Y192258D01*
X490075Y192334D01*
D12*
X447880Y241425D02*
X444070Y245235D01*
X447880Y241425D02*
X451690Y245235D01*
D10*
X440328Y219202D02*
X440328Y212598D01*
X437393Y212598D01*
X434256Y217734D02*
X432422Y219202D01*
X432422Y212598D01*
X434256Y212598D02*
X430587Y212598D01*
X425473Y215533D02*
X423272Y215533D01*
X425473Y215533D02*
X425547Y215535D01*
X425622Y215541D01*
X425695Y215550D01*
X425769Y215563D01*
X425841Y215580D01*
X425912Y215600D01*
X425983Y215624D01*
X426052Y215652D01*
X426120Y215683D01*
X426185Y215717D01*
X426250Y215755D01*
X426312Y215796D01*
X426372Y215840D01*
X426429Y215887D01*
X426484Y215937D01*
X426537Y215990D01*
X426587Y216045D01*
X426634Y216102D01*
X426678Y216162D01*
X426719Y216224D01*
X426757Y216289D01*
X426791Y216355D01*
X426822Y216422D01*
X426850Y216491D01*
X426874Y216562D01*
X426894Y216633D01*
X426911Y216706D01*
X426924Y216779D01*
X426933Y216853D01*
X426939Y216927D01*
X426941Y217001D01*
X426941Y217368D01*
X426939Y217453D01*
X426933Y217537D01*
X426923Y217621D01*
X426910Y217705D01*
X426892Y217788D01*
X426871Y217870D01*
X426846Y217951D01*
X426817Y218031D01*
X426785Y218109D01*
X426749Y218185D01*
X426709Y218260D01*
X426666Y218333D01*
X426620Y218404D01*
X426571Y218473D01*
X426518Y218540D01*
X426462Y218604D01*
X426404Y218665D01*
X426343Y218723D01*
X426279Y218779D01*
X426212Y218832D01*
X426143Y218881D01*
X426072Y218927D01*
X425999Y218970D01*
X425924Y219010D01*
X425848Y219046D01*
X425770Y219078D01*
X425690Y219107D01*
X425609Y219132D01*
X425527Y219153D01*
X425444Y219171D01*
X425360Y219184D01*
X425276Y219194D01*
X425192Y219200D01*
X425107Y219202D01*
X425022Y219200D01*
X424938Y219194D01*
X424854Y219184D01*
X424770Y219171D01*
X424687Y219153D01*
X424605Y219132D01*
X424524Y219107D01*
X424444Y219078D01*
X424366Y219046D01*
X424290Y219010D01*
X424215Y218970D01*
X424142Y218927D01*
X424071Y218881D01*
X424002Y218832D01*
X423935Y218779D01*
X423871Y218723D01*
X423810Y218665D01*
X423752Y218604D01*
X423696Y218540D01*
X423643Y218473D01*
X423594Y218404D01*
X423548Y218333D01*
X423505Y218260D01*
X423465Y218185D01*
X423429Y218109D01*
X423397Y218031D01*
X423368Y217951D01*
X423343Y217870D01*
X423322Y217788D01*
X423304Y217705D01*
X423291Y217621D01*
X423281Y217537D01*
X423275Y217453D01*
X423273Y217368D01*
X423272Y217368D02*
X423272Y215533D01*
X423274Y215426D01*
X423280Y215319D01*
X423290Y215212D01*
X423303Y215106D01*
X423321Y215000D01*
X423342Y214895D01*
X423367Y214791D01*
X423396Y214687D01*
X423429Y214585D01*
X423466Y214485D01*
X423506Y214385D01*
X423550Y214287D01*
X423597Y214191D01*
X423648Y214097D01*
X423702Y214004D01*
X423759Y213914D01*
X423820Y213825D01*
X423884Y213739D01*
X423951Y213656D01*
X424021Y213574D01*
X424094Y213496D01*
X424170Y213420D01*
X424248Y213347D01*
X424330Y213277D01*
X424413Y213210D01*
X424499Y213146D01*
X424588Y213085D01*
X424678Y213028D01*
X424771Y212974D01*
X424865Y212923D01*
X424961Y212876D01*
X425059Y212832D01*
X425159Y212792D01*
X425259Y212755D01*
X425361Y212722D01*
X425465Y212693D01*
X425569Y212668D01*
X425674Y212647D01*
X425780Y212629D01*
X425886Y212616D01*
X425993Y212606D01*
X426100Y212600D01*
X426207Y212598D01*
D12*
X384380Y266825D02*
X380570Y270635D01*
X384380Y266825D02*
X388190Y270635D01*
D10*
X376828Y244602D02*
X376828Y237998D01*
X373893Y237998D01*
X368738Y244602D02*
X368659Y244600D01*
X368581Y244595D01*
X368503Y244585D01*
X368426Y244572D01*
X368349Y244555D01*
X368273Y244535D01*
X368198Y244511D01*
X368124Y244484D01*
X368052Y244453D01*
X367981Y244418D01*
X367913Y244381D01*
X367845Y244340D01*
X367780Y244296D01*
X367717Y244249D01*
X367657Y244199D01*
X367599Y244146D01*
X367543Y244090D01*
X367490Y244032D01*
X367440Y243972D01*
X367393Y243909D01*
X367349Y243844D01*
X367308Y243777D01*
X367271Y243708D01*
X367236Y243637D01*
X367205Y243565D01*
X367178Y243491D01*
X367154Y243416D01*
X367134Y243340D01*
X367117Y243263D01*
X367104Y243186D01*
X367094Y243108D01*
X367089Y243030D01*
X367087Y242951D01*
X368738Y244602D02*
X368827Y244600D01*
X368916Y244595D01*
X369004Y244585D01*
X369092Y244572D01*
X369179Y244556D01*
X369266Y244535D01*
X369351Y244511D01*
X369436Y244484D01*
X369519Y244453D01*
X369601Y244418D01*
X369682Y244380D01*
X369761Y244339D01*
X369837Y244295D01*
X369913Y244247D01*
X369986Y244196D01*
X370056Y244143D01*
X370125Y244086D01*
X370191Y244026D01*
X370254Y243964D01*
X370315Y243899D01*
X370373Y243832D01*
X370428Y243762D01*
X370481Y243690D01*
X370530Y243616D01*
X370576Y243540D01*
X370618Y243462D01*
X370658Y243382D01*
X370694Y243301D01*
X370727Y243218D01*
X370756Y243134D01*
X367638Y241667D02*
X367582Y241723D01*
X367528Y241782D01*
X367477Y241843D01*
X367428Y241907D01*
X367383Y241972D01*
X367340Y242040D01*
X367301Y242109D01*
X367264Y242180D01*
X367231Y242253D01*
X367202Y242327D01*
X367175Y242402D01*
X367152Y242478D01*
X367133Y242556D01*
X367117Y242634D01*
X367104Y242712D01*
X367095Y242792D01*
X367090Y242871D01*
X367088Y242951D01*
X367638Y241667D02*
X370756Y237998D01*
X367087Y237998D01*
X363441Y241300D02*
X363439Y241445D01*
X363433Y241590D01*
X363424Y241735D01*
X363410Y241880D01*
X363393Y242024D01*
X363371Y242167D01*
X363346Y242311D01*
X363317Y242453D01*
X363285Y242594D01*
X363248Y242735D01*
X363208Y242874D01*
X363164Y243013D01*
X363117Y243150D01*
X363066Y243286D01*
X363011Y243420D01*
X362953Y243553D01*
X362891Y243685D01*
X362892Y243685D02*
X362866Y243754D01*
X362837Y243821D01*
X362804Y243887D01*
X362768Y243950D01*
X362728Y244012D01*
X362685Y244071D01*
X362639Y244128D01*
X362590Y244182D01*
X362538Y244234D01*
X362483Y244283D01*
X362426Y244328D01*
X362366Y244371D01*
X362304Y244410D01*
X362241Y244446D01*
X362175Y244479D01*
X362108Y244507D01*
X362039Y244533D01*
X361969Y244554D01*
X361898Y244572D01*
X361826Y244585D01*
X361753Y244595D01*
X361680Y244601D01*
X361607Y244603D01*
X361607Y244602D02*
X361534Y244600D01*
X361461Y244594D01*
X361388Y244584D01*
X361317Y244571D01*
X361245Y244553D01*
X361175Y244532D01*
X361107Y244506D01*
X361039Y244478D01*
X360974Y244445D01*
X360910Y244409D01*
X360848Y244370D01*
X360789Y244328D01*
X360732Y244282D01*
X360677Y244233D01*
X360625Y244182D01*
X360576Y244127D01*
X360530Y244070D01*
X360487Y244011D01*
X360447Y243950D01*
X360411Y243886D01*
X360378Y243821D01*
X360349Y243754D01*
X360323Y243685D01*
X360322Y243685D02*
X360260Y243553D01*
X360202Y243420D01*
X360147Y243286D01*
X360096Y243150D01*
X360049Y243013D01*
X360005Y242874D01*
X359965Y242735D01*
X359928Y242594D01*
X359896Y242453D01*
X359867Y242311D01*
X359842Y242168D01*
X359820Y242024D01*
X359803Y241880D01*
X359789Y241735D01*
X359780Y241590D01*
X359774Y241445D01*
X359772Y241300D01*
X363440Y241300D02*
X363438Y241155D01*
X363432Y241010D01*
X363423Y240865D01*
X363409Y240720D01*
X363392Y240576D01*
X363370Y240433D01*
X363345Y240290D01*
X363317Y240147D01*
X363284Y240006D01*
X363247Y239865D01*
X363207Y239726D01*
X363163Y239587D01*
X363116Y239450D01*
X363065Y239314D01*
X363010Y239180D01*
X362952Y239047D01*
X362890Y238915D01*
X362892Y238916D02*
X362866Y238847D01*
X362837Y238780D01*
X362804Y238714D01*
X362768Y238651D01*
X362728Y238589D01*
X362685Y238530D01*
X362639Y238473D01*
X362590Y238419D01*
X362538Y238367D01*
X362483Y238318D01*
X362426Y238273D01*
X362366Y238230D01*
X362304Y238191D01*
X362241Y238155D01*
X362175Y238122D01*
X362108Y238094D01*
X362039Y238068D01*
X361969Y238047D01*
X361898Y238029D01*
X361826Y238016D01*
X361753Y238006D01*
X361680Y238000D01*
X361607Y237998D01*
X360322Y238915D02*
X360260Y239047D01*
X360202Y239180D01*
X360147Y239314D01*
X360096Y239450D01*
X360049Y239587D01*
X360005Y239726D01*
X359965Y239865D01*
X359928Y240006D01*
X359896Y240147D01*
X359867Y240289D01*
X359842Y240432D01*
X359820Y240576D01*
X359803Y240720D01*
X359789Y240865D01*
X359780Y241010D01*
X359774Y241155D01*
X359772Y241300D01*
X360323Y238915D02*
X360349Y238846D01*
X360378Y238779D01*
X360411Y238714D01*
X360447Y238650D01*
X360487Y238589D01*
X360530Y238530D01*
X360576Y238473D01*
X360625Y238418D01*
X360677Y238367D01*
X360732Y238318D01*
X360789Y238272D01*
X360848Y238230D01*
X360910Y238191D01*
X360974Y238155D01*
X361039Y238122D01*
X361107Y238094D01*
X361175Y238068D01*
X361245Y238047D01*
X361317Y238029D01*
X361388Y238016D01*
X361461Y238006D01*
X361534Y238000D01*
X361607Y237998D01*
X363074Y239466D02*
X360139Y243134D01*
X330200Y118110D02*
X284480Y118110D01*
X284480Y102870D02*
X330200Y102870D01*
X374793Y7479D02*
X376628Y7479D01*
X374793Y7478D02*
X374708Y7476D01*
X374624Y7470D01*
X374540Y7460D01*
X374456Y7447D01*
X374373Y7429D01*
X374291Y7408D01*
X374210Y7383D01*
X374130Y7354D01*
X374052Y7322D01*
X373976Y7286D01*
X373901Y7246D01*
X373828Y7203D01*
X373757Y7157D01*
X373688Y7108D01*
X373621Y7055D01*
X373557Y6999D01*
X373496Y6941D01*
X373438Y6880D01*
X373382Y6816D01*
X373329Y6749D01*
X373280Y6680D01*
X373234Y6609D01*
X373191Y6536D01*
X373151Y6461D01*
X373115Y6385D01*
X373083Y6307D01*
X373054Y6227D01*
X373029Y6146D01*
X373008Y6064D01*
X372990Y5981D01*
X372977Y5897D01*
X372967Y5813D01*
X372961Y5729D01*
X372959Y5644D01*
X372961Y5559D01*
X372967Y5475D01*
X372977Y5391D01*
X372990Y5307D01*
X373008Y5224D01*
X373029Y5142D01*
X373054Y5061D01*
X373083Y4981D01*
X373115Y4903D01*
X373151Y4827D01*
X373191Y4752D01*
X373234Y4679D01*
X373280Y4608D01*
X373329Y4539D01*
X373382Y4472D01*
X373438Y4408D01*
X373496Y4347D01*
X373557Y4289D01*
X373621Y4233D01*
X373688Y4180D01*
X373757Y4131D01*
X373828Y4085D01*
X373901Y4042D01*
X373976Y4002D01*
X374052Y3966D01*
X374130Y3934D01*
X374210Y3905D01*
X374291Y3880D01*
X374373Y3859D01*
X374456Y3841D01*
X374540Y3828D01*
X374624Y3818D01*
X374708Y3812D01*
X374793Y3810D01*
X376628Y3810D01*
X376628Y10414D01*
X374793Y10414D01*
X374717Y10412D01*
X374642Y10406D01*
X374567Y10397D01*
X374493Y10383D01*
X374419Y10366D01*
X374347Y10344D01*
X374275Y10320D01*
X374205Y10291D01*
X374137Y10259D01*
X374070Y10224D01*
X374005Y10185D01*
X373942Y10142D01*
X373882Y10097D01*
X373824Y10049D01*
X373768Y9997D01*
X373716Y9943D01*
X373666Y9886D01*
X373619Y9827D01*
X373575Y9766D01*
X373534Y9702D01*
X373497Y9636D01*
X373463Y9568D01*
X373433Y9499D01*
X373406Y9428D01*
X373383Y9356D01*
X373364Y9283D01*
X373349Y9209D01*
X373337Y9134D01*
X373329Y9059D01*
X373325Y8984D01*
X373325Y8908D01*
X373329Y8833D01*
X373337Y8758D01*
X373349Y8683D01*
X373364Y8609D01*
X373383Y8536D01*
X373406Y8464D01*
X373433Y8393D01*
X373463Y8324D01*
X373497Y8256D01*
X373534Y8190D01*
X373575Y8126D01*
X373619Y8065D01*
X373666Y8006D01*
X373716Y7949D01*
X373768Y7895D01*
X373824Y7843D01*
X373882Y7795D01*
X373942Y7750D01*
X374005Y7707D01*
X374070Y7668D01*
X374137Y7633D01*
X374205Y7601D01*
X374275Y7572D01*
X374347Y7548D01*
X374419Y7526D01*
X374493Y7509D01*
X374567Y7495D01*
X374642Y7486D01*
X374717Y7480D01*
X374793Y7478D01*
X369737Y8946D02*
X367903Y10414D01*
X367903Y3810D01*
X369737Y3810D02*
X366069Y3810D01*
X597805Y7987D02*
X599640Y7987D01*
X597805Y7986D02*
X597720Y7984D01*
X597636Y7978D01*
X597552Y7968D01*
X597468Y7955D01*
X597385Y7937D01*
X597303Y7916D01*
X597222Y7891D01*
X597142Y7862D01*
X597064Y7830D01*
X596988Y7794D01*
X596913Y7754D01*
X596840Y7711D01*
X596769Y7665D01*
X596700Y7616D01*
X596633Y7563D01*
X596569Y7507D01*
X596508Y7449D01*
X596450Y7388D01*
X596394Y7324D01*
X596341Y7257D01*
X596292Y7188D01*
X596246Y7117D01*
X596203Y7044D01*
X596163Y6969D01*
X596127Y6893D01*
X596095Y6815D01*
X596066Y6735D01*
X596041Y6654D01*
X596020Y6572D01*
X596002Y6489D01*
X595989Y6405D01*
X595979Y6321D01*
X595973Y6237D01*
X595971Y6152D01*
X595973Y6067D01*
X595979Y5983D01*
X595989Y5899D01*
X596002Y5815D01*
X596020Y5732D01*
X596041Y5650D01*
X596066Y5569D01*
X596095Y5489D01*
X596127Y5411D01*
X596163Y5335D01*
X596203Y5260D01*
X596246Y5187D01*
X596292Y5116D01*
X596341Y5047D01*
X596394Y4980D01*
X596450Y4916D01*
X596508Y4855D01*
X596569Y4797D01*
X596633Y4741D01*
X596700Y4688D01*
X596769Y4639D01*
X596840Y4593D01*
X596913Y4550D01*
X596988Y4510D01*
X597064Y4474D01*
X597142Y4442D01*
X597222Y4413D01*
X597303Y4388D01*
X597385Y4367D01*
X597468Y4349D01*
X597552Y4336D01*
X597636Y4326D01*
X597720Y4320D01*
X597805Y4318D01*
X599640Y4318D01*
X599640Y10922D01*
X597805Y10922D01*
X597729Y10920D01*
X597654Y10914D01*
X597579Y10905D01*
X597505Y10891D01*
X597431Y10874D01*
X597359Y10852D01*
X597287Y10828D01*
X597217Y10799D01*
X597149Y10767D01*
X597082Y10732D01*
X597017Y10693D01*
X596954Y10650D01*
X596894Y10605D01*
X596836Y10557D01*
X596780Y10505D01*
X596728Y10451D01*
X596678Y10394D01*
X596631Y10335D01*
X596587Y10274D01*
X596546Y10210D01*
X596509Y10144D01*
X596475Y10076D01*
X596445Y10007D01*
X596418Y9936D01*
X596395Y9864D01*
X596376Y9791D01*
X596361Y9717D01*
X596349Y9642D01*
X596341Y9567D01*
X596337Y9492D01*
X596337Y9416D01*
X596341Y9341D01*
X596349Y9266D01*
X596361Y9191D01*
X596376Y9117D01*
X596395Y9044D01*
X596418Y8972D01*
X596445Y8901D01*
X596475Y8832D01*
X596509Y8764D01*
X596546Y8698D01*
X596587Y8634D01*
X596631Y8573D01*
X596678Y8514D01*
X596728Y8457D01*
X596780Y8403D01*
X596836Y8351D01*
X596894Y8303D01*
X596954Y8258D01*
X597017Y8215D01*
X597082Y8176D01*
X597149Y8141D01*
X597217Y8109D01*
X597287Y8080D01*
X597359Y8056D01*
X597431Y8034D01*
X597505Y8017D01*
X597579Y8003D01*
X597654Y7994D01*
X597729Y7988D01*
X597805Y7986D01*
X590731Y10922D02*
X590652Y10920D01*
X590574Y10915D01*
X590496Y10905D01*
X590419Y10892D01*
X590342Y10875D01*
X590266Y10855D01*
X590191Y10831D01*
X590117Y10804D01*
X590045Y10773D01*
X589974Y10738D01*
X589906Y10701D01*
X589838Y10660D01*
X589773Y10616D01*
X589710Y10569D01*
X589650Y10519D01*
X589592Y10466D01*
X589536Y10410D01*
X589483Y10352D01*
X589433Y10292D01*
X589386Y10229D01*
X589342Y10164D01*
X589301Y10097D01*
X589264Y10028D01*
X589229Y9957D01*
X589198Y9885D01*
X589171Y9811D01*
X589147Y9736D01*
X589127Y9660D01*
X589110Y9583D01*
X589097Y9506D01*
X589087Y9428D01*
X589082Y9350D01*
X589080Y9271D01*
X590731Y10922D02*
X590820Y10920D01*
X590909Y10915D01*
X590997Y10905D01*
X591085Y10892D01*
X591172Y10876D01*
X591259Y10855D01*
X591344Y10831D01*
X591429Y10804D01*
X591512Y10773D01*
X591594Y10738D01*
X591675Y10700D01*
X591754Y10659D01*
X591830Y10615D01*
X591906Y10567D01*
X591979Y10516D01*
X592049Y10463D01*
X592118Y10406D01*
X592184Y10346D01*
X592247Y10284D01*
X592308Y10219D01*
X592366Y10152D01*
X592421Y10082D01*
X592474Y10010D01*
X592523Y9936D01*
X592569Y9860D01*
X592611Y9782D01*
X592651Y9702D01*
X592687Y9621D01*
X592720Y9538D01*
X592749Y9454D01*
X589631Y7987D02*
X589575Y8043D01*
X589521Y8102D01*
X589470Y8163D01*
X589421Y8227D01*
X589376Y8292D01*
X589333Y8360D01*
X589294Y8429D01*
X589257Y8500D01*
X589224Y8573D01*
X589195Y8647D01*
X589168Y8722D01*
X589145Y8798D01*
X589126Y8876D01*
X589110Y8954D01*
X589097Y9032D01*
X589088Y9112D01*
X589083Y9191D01*
X589081Y9271D01*
X589631Y7987D02*
X592749Y4318D01*
X589080Y4318D01*
X438150Y16510D02*
X438163Y17601D01*
X438204Y18691D01*
X438270Y19780D01*
X438364Y20867D01*
X438484Y21951D01*
X438631Y23032D01*
X438804Y24109D01*
X439004Y25182D01*
X439230Y26249D01*
X439482Y27310D01*
X439760Y28365D01*
X440064Y29413D01*
X440393Y30453D01*
X440748Y31485D01*
X441128Y32507D01*
X441534Y33520D01*
X441963Y34523D01*
X442418Y35515D01*
X442896Y36495D01*
X443399Y37464D01*
X443925Y38419D01*
X444474Y39362D01*
X445046Y40291D01*
X445641Y41205D01*
X446258Y42105D01*
X446897Y42989D01*
X447558Y43857D01*
X448240Y44709D01*
X448942Y45544D01*
X449665Y46361D01*
X450407Y47160D01*
X451169Y47941D01*
X451950Y48703D01*
X452749Y49445D01*
X453566Y50168D01*
X454401Y50870D01*
X455253Y51552D01*
X456121Y52213D01*
X457005Y52852D01*
X457905Y53469D01*
X458819Y54064D01*
X459748Y54636D01*
X460691Y55185D01*
X461646Y55711D01*
X462615Y56214D01*
X463595Y56692D01*
X464587Y57147D01*
X465590Y57576D01*
X466603Y57982D01*
X467625Y58362D01*
X468657Y58717D01*
X469697Y59046D01*
X470745Y59350D01*
X471800Y59628D01*
X472861Y59880D01*
X473928Y60106D01*
X475001Y60306D01*
X476078Y60479D01*
X477159Y60626D01*
X478243Y60746D01*
X479330Y60840D01*
X480419Y60906D01*
X481509Y60947D01*
X482600Y60960D01*
X483691Y60947D01*
X484781Y60906D01*
X485870Y60840D01*
X486957Y60746D01*
X488041Y60626D01*
X489122Y60479D01*
X490199Y60306D01*
X491272Y60106D01*
X492339Y59880D01*
X493400Y59628D01*
X494455Y59350D01*
X495503Y59046D01*
X496543Y58717D01*
X497575Y58362D01*
X498597Y57982D01*
X499610Y57576D01*
X500613Y57147D01*
X501605Y56692D01*
X502585Y56214D01*
X503554Y55711D01*
X504509Y55185D01*
X505452Y54636D01*
X506381Y54064D01*
X507295Y53469D01*
X508195Y52852D01*
X509079Y52213D01*
X509947Y51552D01*
X510799Y50870D01*
X511634Y50168D01*
X512451Y49445D01*
X513250Y48703D01*
X514031Y47941D01*
X514793Y47160D01*
X515535Y46361D01*
X516258Y45544D01*
X516960Y44709D01*
X517642Y43857D01*
X518303Y42989D01*
X518942Y42105D01*
X519559Y41205D01*
X520154Y40291D01*
X520726Y39362D01*
X521275Y38419D01*
X521801Y37464D01*
X522304Y36495D01*
X522782Y35515D01*
X523237Y34523D01*
X523666Y33520D01*
X524072Y32507D01*
X524452Y31485D01*
X524807Y30453D01*
X525136Y29413D01*
X525440Y28365D01*
X525718Y27310D01*
X525970Y26249D01*
X526196Y25182D01*
X526396Y24109D01*
X526569Y23032D01*
X526716Y21951D01*
X526836Y20867D01*
X526930Y19780D01*
X526996Y18691D01*
X527037Y17601D01*
X527050Y16510D01*
X527037Y15419D01*
X526996Y14329D01*
X526930Y13240D01*
X526836Y12153D01*
X526716Y11069D01*
X526569Y9988D01*
X526396Y8911D01*
X526196Y7838D01*
X525970Y6771D01*
X525718Y5710D01*
X525440Y4655D01*
X525136Y3607D01*
X524807Y2567D01*
X524452Y1535D01*
X524072Y513D01*
X523666Y-500D01*
X523237Y-1503D01*
X522782Y-2495D01*
X522304Y-3475D01*
X521801Y-4444D01*
X521275Y-5399D01*
X520726Y-6342D01*
X520154Y-7271D01*
X519559Y-8185D01*
X518942Y-9085D01*
X518303Y-9969D01*
X517642Y-10837D01*
X516960Y-11689D01*
X516258Y-12524D01*
X515535Y-13341D01*
X514793Y-14140D01*
X514031Y-14921D01*
X513250Y-15683D01*
X512451Y-16425D01*
X511634Y-17148D01*
X510799Y-17850D01*
X509947Y-18532D01*
X509079Y-19193D01*
X508195Y-19832D01*
X507295Y-20449D01*
X506381Y-21044D01*
X505452Y-21616D01*
X504509Y-22165D01*
X503554Y-22691D01*
X502585Y-23194D01*
X501605Y-23672D01*
X500613Y-24127D01*
X499610Y-24556D01*
X498597Y-24962D01*
X497575Y-25342D01*
X496543Y-25697D01*
X495503Y-26026D01*
X494455Y-26330D01*
X493400Y-26608D01*
X492339Y-26860D01*
X491272Y-27086D01*
X490199Y-27286D01*
X489122Y-27459D01*
X488041Y-27606D01*
X486957Y-27726D01*
X485870Y-27820D01*
X484781Y-27886D01*
X483691Y-27927D01*
X482600Y-27940D01*
X481509Y-27927D01*
X480419Y-27886D01*
X479330Y-27820D01*
X478243Y-27726D01*
X477159Y-27606D01*
X476078Y-27459D01*
X475001Y-27286D01*
X473928Y-27086D01*
X472861Y-26860D01*
X471800Y-26608D01*
X470745Y-26330D01*
X469697Y-26026D01*
X468657Y-25697D01*
X467625Y-25342D01*
X466603Y-24962D01*
X465590Y-24556D01*
X464587Y-24127D01*
X463595Y-23672D01*
X462615Y-23194D01*
X461646Y-22691D01*
X460691Y-22165D01*
X459748Y-21616D01*
X458819Y-21044D01*
X457905Y-20449D01*
X457005Y-19832D01*
X456121Y-19193D01*
X455253Y-18532D01*
X454401Y-17850D01*
X453566Y-17148D01*
X452749Y-16425D01*
X451950Y-15683D01*
X451169Y-14921D01*
X450407Y-14140D01*
X449665Y-13341D01*
X448942Y-12524D01*
X448240Y-11689D01*
X447558Y-10837D01*
X446897Y-9969D01*
X446258Y-9085D01*
X445641Y-8185D01*
X445046Y-7271D01*
X444474Y-6342D01*
X443925Y-5399D01*
X443399Y-4444D01*
X442896Y-3475D01*
X442418Y-2495D01*
X441963Y-1503D01*
X441534Y-500D01*
X441128Y513D01*
X440748Y1535D01*
X440393Y2567D01*
X440064Y3607D01*
X439760Y4655D01*
X439482Y5710D01*
X439230Y6771D01*
X439004Y7838D01*
X438804Y8911D01*
X438631Y9988D01*
X438484Y11069D01*
X438364Y12153D01*
X438270Y13240D01*
X438204Y14329D01*
X438163Y15419D01*
X438150Y16510D01*
X520700Y39370D02*
X520700Y67260D01*
X444500Y67260D01*
X444500Y39370D01*
X432308Y11057D02*
X425704Y11057D01*
X432308Y11057D02*
X432308Y12892D01*
X432306Y12977D01*
X432300Y13061D01*
X432290Y13145D01*
X432277Y13229D01*
X432259Y13312D01*
X432238Y13394D01*
X432213Y13475D01*
X432184Y13555D01*
X432152Y13633D01*
X432116Y13709D01*
X432076Y13784D01*
X432033Y13857D01*
X431987Y13928D01*
X431938Y13997D01*
X431885Y14064D01*
X431829Y14128D01*
X431771Y14189D01*
X431710Y14247D01*
X431646Y14303D01*
X431579Y14356D01*
X431510Y14405D01*
X431439Y14451D01*
X431366Y14494D01*
X431291Y14534D01*
X431215Y14570D01*
X431137Y14602D01*
X431057Y14631D01*
X430976Y14656D01*
X430894Y14677D01*
X430811Y14695D01*
X430727Y14708D01*
X430643Y14718D01*
X430559Y14724D01*
X430474Y14726D01*
X430389Y14724D01*
X430305Y14718D01*
X430221Y14708D01*
X430137Y14695D01*
X430054Y14677D01*
X429972Y14656D01*
X429891Y14631D01*
X429811Y14602D01*
X429733Y14570D01*
X429657Y14534D01*
X429582Y14494D01*
X429509Y14451D01*
X429438Y14405D01*
X429369Y14356D01*
X429302Y14303D01*
X429238Y14247D01*
X429177Y14189D01*
X429119Y14128D01*
X429063Y14064D01*
X429010Y13997D01*
X428961Y13928D01*
X428915Y13857D01*
X428872Y13784D01*
X428832Y13709D01*
X428796Y13633D01*
X428764Y13555D01*
X428735Y13475D01*
X428710Y13394D01*
X428689Y13312D01*
X428671Y13229D01*
X428658Y13145D01*
X428648Y13061D01*
X428642Y12977D01*
X428640Y12892D01*
X428639Y12892D02*
X428639Y11057D01*
X428639Y13259D02*
X425704Y14726D01*
X432308Y20312D02*
X432306Y20391D01*
X432301Y20469D01*
X432291Y20547D01*
X432278Y20624D01*
X432261Y20701D01*
X432241Y20777D01*
X432217Y20852D01*
X432190Y20926D01*
X432159Y20998D01*
X432124Y21069D01*
X432087Y21138D01*
X432046Y21205D01*
X432002Y21270D01*
X431955Y21333D01*
X431905Y21393D01*
X431852Y21451D01*
X431796Y21507D01*
X431738Y21560D01*
X431678Y21610D01*
X431615Y21657D01*
X431550Y21701D01*
X431483Y21742D01*
X431414Y21779D01*
X431343Y21814D01*
X431271Y21845D01*
X431197Y21872D01*
X431122Y21896D01*
X431046Y21916D01*
X430969Y21933D01*
X430892Y21946D01*
X430814Y21956D01*
X430736Y21961D01*
X430657Y21963D01*
X432308Y20312D02*
X432306Y20223D01*
X432301Y20134D01*
X432291Y20046D01*
X432278Y19958D01*
X432262Y19871D01*
X432241Y19784D01*
X432217Y19699D01*
X432190Y19614D01*
X432159Y19531D01*
X432124Y19449D01*
X432086Y19368D01*
X432045Y19289D01*
X432001Y19213D01*
X431953Y19137D01*
X431902Y19064D01*
X431849Y18994D01*
X431792Y18925D01*
X431732Y18859D01*
X431670Y18796D01*
X431605Y18735D01*
X431538Y18677D01*
X431468Y18622D01*
X431396Y18569D01*
X431322Y18520D01*
X431246Y18474D01*
X431168Y18432D01*
X431088Y18392D01*
X431007Y18356D01*
X430924Y18323D01*
X430840Y18294D01*
X429373Y21412D02*
X429429Y21468D01*
X429488Y21522D01*
X429549Y21573D01*
X429613Y21622D01*
X429678Y21667D01*
X429746Y21710D01*
X429815Y21749D01*
X429886Y21786D01*
X429959Y21819D01*
X430033Y21848D01*
X430108Y21875D01*
X430184Y21898D01*
X430262Y21917D01*
X430340Y21933D01*
X430418Y21946D01*
X430498Y21955D01*
X430577Y21960D01*
X430657Y21962D01*
X429373Y21412D02*
X425704Y18294D01*
X425704Y21963D01*
X439928Y85852D02*
X439928Y92456D01*
X438094Y92456D01*
X438009Y92454D01*
X437925Y92448D01*
X437841Y92438D01*
X437757Y92425D01*
X437674Y92407D01*
X437592Y92386D01*
X437511Y92361D01*
X437431Y92332D01*
X437353Y92300D01*
X437277Y92264D01*
X437202Y92224D01*
X437129Y92181D01*
X437058Y92135D01*
X436989Y92086D01*
X436922Y92033D01*
X436858Y91977D01*
X436797Y91919D01*
X436739Y91858D01*
X436683Y91794D01*
X436630Y91727D01*
X436581Y91658D01*
X436535Y91587D01*
X436492Y91514D01*
X436452Y91439D01*
X436416Y91363D01*
X436384Y91285D01*
X436355Y91205D01*
X436330Y91124D01*
X436309Y91042D01*
X436291Y90959D01*
X436278Y90875D01*
X436268Y90791D01*
X436262Y90707D01*
X436260Y90622D01*
X436262Y90537D01*
X436268Y90453D01*
X436278Y90369D01*
X436291Y90285D01*
X436309Y90202D01*
X436330Y90120D01*
X436355Y90039D01*
X436384Y89959D01*
X436416Y89881D01*
X436452Y89805D01*
X436492Y89730D01*
X436535Y89657D01*
X436581Y89586D01*
X436630Y89517D01*
X436683Y89450D01*
X436739Y89386D01*
X436797Y89325D01*
X436858Y89267D01*
X436922Y89211D01*
X436989Y89158D01*
X437058Y89109D01*
X437129Y89063D01*
X437202Y89020D01*
X437277Y88980D01*
X437353Y88944D01*
X437431Y88912D01*
X437511Y88883D01*
X437592Y88858D01*
X437674Y88837D01*
X437757Y88819D01*
X437841Y88806D01*
X437925Y88796D01*
X438009Y88790D01*
X438094Y88788D01*
X438094Y88787D02*
X439928Y88787D01*
X437727Y88787D02*
X436259Y85852D01*
X432692Y85852D02*
X430857Y85852D01*
X430772Y85854D01*
X430688Y85860D01*
X430604Y85870D01*
X430520Y85883D01*
X430437Y85901D01*
X430355Y85922D01*
X430274Y85947D01*
X430194Y85976D01*
X430116Y86008D01*
X430040Y86044D01*
X429965Y86084D01*
X429892Y86127D01*
X429821Y86173D01*
X429752Y86222D01*
X429685Y86275D01*
X429621Y86331D01*
X429560Y86389D01*
X429502Y86450D01*
X429446Y86514D01*
X429393Y86581D01*
X429344Y86650D01*
X429298Y86721D01*
X429255Y86794D01*
X429215Y86869D01*
X429179Y86945D01*
X429147Y87023D01*
X429118Y87103D01*
X429093Y87184D01*
X429072Y87266D01*
X429054Y87349D01*
X429041Y87433D01*
X429031Y87517D01*
X429025Y87601D01*
X429023Y87686D01*
X429025Y87771D01*
X429031Y87855D01*
X429041Y87939D01*
X429054Y88023D01*
X429072Y88106D01*
X429093Y88188D01*
X429118Y88269D01*
X429147Y88349D01*
X429179Y88427D01*
X429215Y88503D01*
X429255Y88578D01*
X429298Y88651D01*
X429344Y88722D01*
X429393Y88791D01*
X429446Y88858D01*
X429502Y88922D01*
X429560Y88983D01*
X429621Y89041D01*
X429685Y89097D01*
X429752Y89150D01*
X429821Y89199D01*
X429892Y89245D01*
X429965Y89288D01*
X430040Y89328D01*
X430116Y89364D01*
X430194Y89396D01*
X430274Y89425D01*
X430355Y89450D01*
X430437Y89471D01*
X430520Y89489D01*
X430604Y89502D01*
X430688Y89512D01*
X430772Y89518D01*
X430857Y89520D01*
X430490Y92456D02*
X432692Y92456D01*
X430490Y92456D02*
X430414Y92454D01*
X430339Y92448D01*
X430264Y92439D01*
X430190Y92425D01*
X430116Y92408D01*
X430044Y92386D01*
X429972Y92362D01*
X429902Y92333D01*
X429834Y92301D01*
X429767Y92266D01*
X429702Y92227D01*
X429639Y92184D01*
X429579Y92139D01*
X429521Y92091D01*
X429465Y92039D01*
X429413Y91985D01*
X429363Y91928D01*
X429316Y91869D01*
X429272Y91808D01*
X429231Y91744D01*
X429194Y91678D01*
X429160Y91610D01*
X429130Y91541D01*
X429103Y91470D01*
X429080Y91398D01*
X429061Y91325D01*
X429046Y91251D01*
X429034Y91176D01*
X429026Y91101D01*
X429022Y91026D01*
X429022Y90950D01*
X429026Y90875D01*
X429034Y90800D01*
X429046Y90725D01*
X429061Y90651D01*
X429080Y90578D01*
X429103Y90506D01*
X429130Y90435D01*
X429160Y90366D01*
X429194Y90298D01*
X429231Y90232D01*
X429272Y90168D01*
X429316Y90107D01*
X429363Y90048D01*
X429413Y89991D01*
X429465Y89937D01*
X429521Y89885D01*
X429579Y89837D01*
X429639Y89792D01*
X429702Y89749D01*
X429767Y89710D01*
X429834Y89675D01*
X429902Y89643D01*
X429972Y89614D01*
X430044Y89590D01*
X430116Y89568D01*
X430190Y89551D01*
X430264Y89537D01*
X430339Y89528D01*
X430414Y89522D01*
X430490Y89520D01*
X430490Y89521D02*
X431958Y89521D01*
X280875Y85344D02*
X279407Y85344D01*
X280875Y85344D02*
X280949Y85346D01*
X281024Y85352D01*
X281097Y85361D01*
X281171Y85374D01*
X281243Y85391D01*
X281314Y85411D01*
X281385Y85435D01*
X281454Y85463D01*
X281522Y85494D01*
X281587Y85528D01*
X281652Y85566D01*
X281714Y85607D01*
X281774Y85651D01*
X281831Y85698D01*
X281886Y85748D01*
X281939Y85801D01*
X281989Y85856D01*
X282036Y85913D01*
X282080Y85973D01*
X282121Y86035D01*
X282159Y86100D01*
X282193Y86166D01*
X282224Y86233D01*
X282252Y86302D01*
X282276Y86373D01*
X282296Y86444D01*
X282313Y86517D01*
X282326Y86590D01*
X282335Y86664D01*
X282341Y86738D01*
X282343Y86812D01*
X282342Y86812D02*
X282342Y90480D01*
X282343Y90480D02*
X282341Y90554D01*
X282335Y90629D01*
X282326Y90702D01*
X282313Y90775D01*
X282296Y90848D01*
X282276Y90919D01*
X282252Y90990D01*
X282224Y91059D01*
X282193Y91126D01*
X282159Y91192D01*
X282121Y91257D01*
X282080Y91319D01*
X282036Y91379D01*
X281989Y91436D01*
X281939Y91491D01*
X281886Y91544D01*
X281831Y91594D01*
X281774Y91641D01*
X281714Y91685D01*
X281652Y91726D01*
X281587Y91764D01*
X281522Y91798D01*
X281454Y91829D01*
X281385Y91857D01*
X281315Y91881D01*
X281243Y91901D01*
X281171Y91918D01*
X281097Y91931D01*
X281024Y91940D01*
X280949Y91946D01*
X280875Y91948D01*
X279407Y91948D01*
X276211Y89013D02*
X274010Y89013D01*
X273936Y89011D01*
X273861Y89005D01*
X273788Y88996D01*
X273714Y88983D01*
X273642Y88966D01*
X273571Y88946D01*
X273500Y88922D01*
X273431Y88894D01*
X273364Y88863D01*
X273298Y88829D01*
X273233Y88791D01*
X273171Y88750D01*
X273111Y88706D01*
X273054Y88659D01*
X272999Y88609D01*
X272946Y88556D01*
X272896Y88501D01*
X272849Y88444D01*
X272805Y88384D01*
X272764Y88322D01*
X272726Y88257D01*
X272692Y88191D01*
X272661Y88124D01*
X272633Y88055D01*
X272609Y87984D01*
X272589Y87913D01*
X272572Y87841D01*
X272559Y87767D01*
X272550Y87694D01*
X272544Y87619D01*
X272542Y87545D01*
X272542Y87178D01*
X272544Y87093D01*
X272550Y87009D01*
X272560Y86925D01*
X272573Y86841D01*
X272591Y86758D01*
X272612Y86676D01*
X272637Y86595D01*
X272666Y86515D01*
X272698Y86437D01*
X272734Y86361D01*
X272774Y86286D01*
X272817Y86213D01*
X272863Y86142D01*
X272912Y86073D01*
X272965Y86006D01*
X273021Y85942D01*
X273079Y85881D01*
X273140Y85823D01*
X273204Y85767D01*
X273271Y85714D01*
X273340Y85665D01*
X273411Y85619D01*
X273484Y85576D01*
X273559Y85536D01*
X273635Y85500D01*
X273713Y85468D01*
X273793Y85439D01*
X273874Y85414D01*
X273956Y85393D01*
X274039Y85375D01*
X274123Y85362D01*
X274207Y85352D01*
X274291Y85346D01*
X274376Y85344D01*
X274461Y85346D01*
X274545Y85352D01*
X274629Y85362D01*
X274713Y85375D01*
X274796Y85393D01*
X274878Y85414D01*
X274959Y85439D01*
X275039Y85468D01*
X275117Y85500D01*
X275193Y85536D01*
X275268Y85576D01*
X275341Y85619D01*
X275412Y85665D01*
X275481Y85714D01*
X275548Y85767D01*
X275612Y85823D01*
X275673Y85881D01*
X275731Y85942D01*
X275787Y86006D01*
X275840Y86073D01*
X275889Y86142D01*
X275935Y86213D01*
X275978Y86286D01*
X276018Y86361D01*
X276054Y86437D01*
X276086Y86515D01*
X276115Y86595D01*
X276140Y86676D01*
X276161Y86758D01*
X276179Y86841D01*
X276192Y86925D01*
X276202Y87009D01*
X276208Y87093D01*
X276210Y87178D01*
X276211Y87178D02*
X276211Y89013D01*
X276209Y89120D01*
X276203Y89227D01*
X276193Y89334D01*
X276180Y89440D01*
X276162Y89546D01*
X276141Y89651D01*
X276116Y89755D01*
X276087Y89859D01*
X276054Y89961D01*
X276017Y90061D01*
X275977Y90161D01*
X275933Y90259D01*
X275886Y90355D01*
X275835Y90449D01*
X275781Y90542D01*
X275724Y90632D01*
X275663Y90721D01*
X275599Y90807D01*
X275532Y90890D01*
X275462Y90972D01*
X275389Y91050D01*
X275313Y91126D01*
X275235Y91199D01*
X275153Y91269D01*
X275070Y91336D01*
X274984Y91400D01*
X274895Y91461D01*
X274805Y91518D01*
X274712Y91572D01*
X274618Y91623D01*
X274522Y91670D01*
X274424Y91714D01*
X274325Y91754D01*
X274224Y91791D01*
X274122Y91824D01*
X274018Y91853D01*
X273914Y91878D01*
X273809Y91899D01*
X273703Y91917D01*
X273597Y91930D01*
X273490Y91940D01*
X273383Y91946D01*
X273276Y91948D01*
X235155Y123444D02*
X233687Y123444D01*
X235155Y123444D02*
X235229Y123446D01*
X235304Y123452D01*
X235377Y123461D01*
X235451Y123474D01*
X235523Y123491D01*
X235594Y123511D01*
X235665Y123535D01*
X235734Y123563D01*
X235802Y123594D01*
X235867Y123628D01*
X235932Y123666D01*
X235994Y123707D01*
X236054Y123751D01*
X236111Y123798D01*
X236166Y123848D01*
X236219Y123901D01*
X236269Y123956D01*
X236316Y124013D01*
X236360Y124073D01*
X236401Y124135D01*
X236439Y124200D01*
X236473Y124266D01*
X236504Y124333D01*
X236532Y124402D01*
X236556Y124473D01*
X236576Y124544D01*
X236593Y124617D01*
X236606Y124690D01*
X236615Y124764D01*
X236621Y124838D01*
X236623Y124912D01*
X236622Y124912D02*
X236622Y128580D01*
X236623Y128580D02*
X236621Y128654D01*
X236615Y128729D01*
X236606Y128802D01*
X236593Y128875D01*
X236576Y128948D01*
X236556Y129019D01*
X236532Y129090D01*
X236504Y129159D01*
X236473Y129226D01*
X236439Y129292D01*
X236401Y129357D01*
X236360Y129419D01*
X236316Y129479D01*
X236269Y129536D01*
X236219Y129591D01*
X236166Y129644D01*
X236111Y129694D01*
X236054Y129741D01*
X235994Y129785D01*
X235932Y129826D01*
X235867Y129864D01*
X235802Y129898D01*
X235734Y129929D01*
X235665Y129957D01*
X235595Y129981D01*
X235523Y130001D01*
X235451Y130018D01*
X235377Y130031D01*
X235304Y130040D01*
X235229Y130046D01*
X235155Y130048D01*
X233687Y130048D01*
X230491Y130048D02*
X230491Y129314D01*
X230491Y130048D02*
X226822Y130048D01*
X228656Y123444D01*
X171655Y148844D02*
X170187Y148844D01*
X171655Y148844D02*
X171729Y148846D01*
X171804Y148852D01*
X171877Y148861D01*
X171951Y148874D01*
X172023Y148891D01*
X172094Y148911D01*
X172165Y148935D01*
X172234Y148963D01*
X172302Y148994D01*
X172367Y149028D01*
X172432Y149066D01*
X172494Y149107D01*
X172554Y149151D01*
X172611Y149198D01*
X172666Y149248D01*
X172719Y149301D01*
X172769Y149356D01*
X172816Y149413D01*
X172860Y149473D01*
X172901Y149535D01*
X172939Y149600D01*
X172973Y149666D01*
X173004Y149733D01*
X173032Y149802D01*
X173056Y149873D01*
X173076Y149944D01*
X173093Y150017D01*
X173106Y150090D01*
X173115Y150164D01*
X173121Y150238D01*
X173123Y150312D01*
X173122Y150312D02*
X173122Y153980D01*
X173123Y153980D02*
X173121Y154054D01*
X173115Y154129D01*
X173106Y154202D01*
X173093Y154275D01*
X173076Y154348D01*
X173056Y154419D01*
X173032Y154490D01*
X173004Y154559D01*
X172973Y154626D01*
X172939Y154692D01*
X172901Y154757D01*
X172860Y154819D01*
X172816Y154879D01*
X172769Y154936D01*
X172719Y154991D01*
X172666Y155044D01*
X172611Y155094D01*
X172554Y155141D01*
X172494Y155185D01*
X172432Y155226D01*
X172367Y155264D01*
X172302Y155298D01*
X172234Y155329D01*
X172165Y155357D01*
X172095Y155381D01*
X172023Y155401D01*
X171951Y155418D01*
X171877Y155431D01*
X171804Y155440D01*
X171729Y155446D01*
X171655Y155448D01*
X170187Y155448D01*
X166990Y150678D02*
X166988Y150763D01*
X166982Y150847D01*
X166972Y150931D01*
X166959Y151015D01*
X166941Y151098D01*
X166920Y151180D01*
X166895Y151261D01*
X166866Y151341D01*
X166834Y151419D01*
X166798Y151495D01*
X166758Y151570D01*
X166715Y151643D01*
X166669Y151714D01*
X166620Y151783D01*
X166567Y151850D01*
X166511Y151914D01*
X166453Y151975D01*
X166392Y152033D01*
X166328Y152089D01*
X166261Y152142D01*
X166192Y152191D01*
X166121Y152237D01*
X166048Y152280D01*
X165973Y152320D01*
X165897Y152356D01*
X165819Y152388D01*
X165739Y152417D01*
X165658Y152442D01*
X165576Y152463D01*
X165493Y152481D01*
X165409Y152494D01*
X165325Y152504D01*
X165241Y152510D01*
X165156Y152512D01*
X165071Y152510D01*
X164987Y152504D01*
X164903Y152494D01*
X164819Y152481D01*
X164736Y152463D01*
X164654Y152442D01*
X164573Y152417D01*
X164493Y152388D01*
X164415Y152356D01*
X164339Y152320D01*
X164264Y152280D01*
X164191Y152237D01*
X164120Y152191D01*
X164051Y152142D01*
X163984Y152089D01*
X163920Y152033D01*
X163859Y151975D01*
X163801Y151914D01*
X163745Y151850D01*
X163692Y151783D01*
X163643Y151714D01*
X163597Y151643D01*
X163554Y151570D01*
X163514Y151495D01*
X163478Y151419D01*
X163446Y151341D01*
X163417Y151261D01*
X163392Y151180D01*
X163371Y151098D01*
X163353Y151015D01*
X163340Y150931D01*
X163330Y150847D01*
X163324Y150763D01*
X163322Y150678D01*
X163324Y150593D01*
X163330Y150509D01*
X163340Y150425D01*
X163353Y150341D01*
X163371Y150258D01*
X163392Y150176D01*
X163417Y150095D01*
X163446Y150015D01*
X163478Y149937D01*
X163514Y149861D01*
X163554Y149786D01*
X163597Y149713D01*
X163643Y149642D01*
X163692Y149573D01*
X163745Y149506D01*
X163801Y149442D01*
X163859Y149381D01*
X163920Y149323D01*
X163984Y149267D01*
X164051Y149214D01*
X164120Y149165D01*
X164191Y149119D01*
X164264Y149076D01*
X164339Y149036D01*
X164415Y149000D01*
X164493Y148968D01*
X164573Y148939D01*
X164654Y148914D01*
X164736Y148893D01*
X164819Y148875D01*
X164903Y148862D01*
X164987Y148852D01*
X165071Y148846D01*
X165156Y148844D01*
X165241Y148846D01*
X165325Y148852D01*
X165409Y148862D01*
X165493Y148875D01*
X165576Y148893D01*
X165658Y148914D01*
X165739Y148939D01*
X165819Y148968D01*
X165897Y149000D01*
X165973Y149036D01*
X166048Y149076D01*
X166121Y149119D01*
X166192Y149165D01*
X166261Y149214D01*
X166328Y149267D01*
X166392Y149323D01*
X166453Y149381D01*
X166511Y149442D01*
X166567Y149506D01*
X166620Y149573D01*
X166669Y149642D01*
X166715Y149713D01*
X166758Y149786D01*
X166798Y149861D01*
X166834Y149937D01*
X166866Y150015D01*
X166895Y150095D01*
X166920Y150176D01*
X166941Y150258D01*
X166959Y150341D01*
X166972Y150425D01*
X166982Y150509D01*
X166988Y150593D01*
X166990Y150678D01*
X166624Y153980D02*
X166622Y154056D01*
X166616Y154131D01*
X166607Y154206D01*
X166593Y154280D01*
X166576Y154354D01*
X166554Y154426D01*
X166530Y154498D01*
X166501Y154568D01*
X166469Y154636D01*
X166434Y154703D01*
X166395Y154768D01*
X166352Y154831D01*
X166307Y154891D01*
X166259Y154949D01*
X166207Y155005D01*
X166153Y155057D01*
X166096Y155107D01*
X166037Y155154D01*
X165976Y155198D01*
X165912Y155239D01*
X165846Y155276D01*
X165778Y155310D01*
X165709Y155340D01*
X165638Y155367D01*
X165566Y155390D01*
X165493Y155409D01*
X165419Y155424D01*
X165344Y155436D01*
X165269Y155444D01*
X165194Y155448D01*
X165118Y155448D01*
X165043Y155444D01*
X164968Y155436D01*
X164893Y155424D01*
X164819Y155409D01*
X164746Y155390D01*
X164674Y155367D01*
X164603Y155340D01*
X164534Y155310D01*
X164466Y155276D01*
X164400Y155239D01*
X164336Y155198D01*
X164275Y155154D01*
X164216Y155107D01*
X164159Y155057D01*
X164105Y155005D01*
X164053Y154949D01*
X164005Y154891D01*
X163960Y154831D01*
X163917Y154768D01*
X163878Y154703D01*
X163843Y154636D01*
X163811Y154568D01*
X163782Y154498D01*
X163758Y154426D01*
X163736Y154354D01*
X163719Y154280D01*
X163705Y154206D01*
X163696Y154131D01*
X163690Y154056D01*
X163688Y153980D01*
X163690Y153904D01*
X163696Y153829D01*
X163705Y153754D01*
X163719Y153680D01*
X163736Y153606D01*
X163758Y153534D01*
X163782Y153462D01*
X163811Y153392D01*
X163843Y153324D01*
X163878Y153257D01*
X163917Y153192D01*
X163960Y153129D01*
X164005Y153069D01*
X164053Y153011D01*
X164105Y152955D01*
X164159Y152903D01*
X164216Y152853D01*
X164275Y152806D01*
X164336Y152762D01*
X164400Y152721D01*
X164466Y152684D01*
X164534Y152650D01*
X164603Y152620D01*
X164674Y152593D01*
X164746Y152570D01*
X164819Y152551D01*
X164893Y152536D01*
X164968Y152524D01*
X165043Y152516D01*
X165118Y152512D01*
X165194Y152512D01*
X165269Y152516D01*
X165344Y152524D01*
X165419Y152536D01*
X165493Y152551D01*
X165566Y152570D01*
X165638Y152593D01*
X165709Y152620D01*
X165778Y152650D01*
X165846Y152684D01*
X165912Y152721D01*
X165976Y152762D01*
X166037Y152806D01*
X166096Y152853D01*
X166153Y152903D01*
X166207Y152955D01*
X166259Y153011D01*
X166307Y153069D01*
X166352Y153129D01*
X166395Y153192D01*
X166434Y153257D01*
X166469Y153324D01*
X166501Y153392D01*
X166530Y153462D01*
X166554Y153534D01*
X166576Y153606D01*
X166593Y153680D01*
X166607Y153754D01*
X166616Y153829D01*
X166622Y153904D01*
X166624Y153980D01*
X108155Y174244D02*
X106687Y174244D01*
X108155Y174244D02*
X108229Y174246D01*
X108304Y174252D01*
X108377Y174261D01*
X108451Y174274D01*
X108523Y174291D01*
X108594Y174311D01*
X108665Y174335D01*
X108734Y174363D01*
X108802Y174394D01*
X108867Y174428D01*
X108932Y174466D01*
X108994Y174507D01*
X109054Y174551D01*
X109111Y174598D01*
X109166Y174648D01*
X109219Y174701D01*
X109269Y174756D01*
X109316Y174813D01*
X109360Y174873D01*
X109401Y174935D01*
X109439Y175000D01*
X109473Y175066D01*
X109504Y175133D01*
X109532Y175202D01*
X109556Y175273D01*
X109576Y175344D01*
X109593Y175417D01*
X109606Y175490D01*
X109615Y175564D01*
X109621Y175638D01*
X109623Y175712D01*
X109622Y175712D02*
X109622Y179380D01*
X109623Y179380D02*
X109621Y179454D01*
X109615Y179529D01*
X109606Y179602D01*
X109593Y179675D01*
X109576Y179748D01*
X109556Y179819D01*
X109532Y179890D01*
X109504Y179959D01*
X109473Y180026D01*
X109439Y180092D01*
X109401Y180157D01*
X109360Y180219D01*
X109316Y180279D01*
X109269Y180336D01*
X109219Y180391D01*
X109166Y180444D01*
X109111Y180494D01*
X109054Y180541D01*
X108994Y180585D01*
X108932Y180626D01*
X108867Y180664D01*
X108802Y180698D01*
X108734Y180729D01*
X108665Y180757D01*
X108595Y180781D01*
X108523Y180801D01*
X108451Y180818D01*
X108377Y180831D01*
X108304Y180840D01*
X108229Y180846D01*
X108155Y180848D01*
X106687Y180848D01*
X102023Y177179D02*
X99822Y177179D01*
X102023Y177179D02*
X102097Y177181D01*
X102172Y177187D01*
X102245Y177196D01*
X102319Y177209D01*
X102391Y177226D01*
X102462Y177246D01*
X102533Y177270D01*
X102602Y177298D01*
X102670Y177329D01*
X102735Y177363D01*
X102800Y177401D01*
X102862Y177442D01*
X102922Y177486D01*
X102979Y177533D01*
X103034Y177583D01*
X103087Y177636D01*
X103137Y177691D01*
X103184Y177748D01*
X103228Y177808D01*
X103269Y177870D01*
X103307Y177935D01*
X103341Y178001D01*
X103372Y178068D01*
X103400Y178137D01*
X103424Y178208D01*
X103444Y178279D01*
X103461Y178352D01*
X103474Y178425D01*
X103483Y178499D01*
X103489Y178573D01*
X103491Y178647D01*
X103491Y179014D01*
X103490Y179014D02*
X103488Y179099D01*
X103482Y179183D01*
X103472Y179267D01*
X103459Y179351D01*
X103441Y179434D01*
X103420Y179516D01*
X103395Y179597D01*
X103366Y179677D01*
X103334Y179755D01*
X103298Y179831D01*
X103258Y179906D01*
X103215Y179979D01*
X103169Y180050D01*
X103120Y180119D01*
X103067Y180186D01*
X103011Y180250D01*
X102953Y180311D01*
X102892Y180369D01*
X102828Y180425D01*
X102761Y180478D01*
X102692Y180527D01*
X102621Y180573D01*
X102548Y180616D01*
X102473Y180656D01*
X102397Y180692D01*
X102319Y180724D01*
X102239Y180753D01*
X102158Y180778D01*
X102076Y180799D01*
X101993Y180817D01*
X101909Y180830D01*
X101825Y180840D01*
X101741Y180846D01*
X101656Y180848D01*
X101571Y180846D01*
X101487Y180840D01*
X101403Y180830D01*
X101319Y180817D01*
X101236Y180799D01*
X101154Y180778D01*
X101073Y180753D01*
X100993Y180724D01*
X100915Y180692D01*
X100839Y180656D01*
X100764Y180616D01*
X100691Y180573D01*
X100620Y180527D01*
X100551Y180478D01*
X100484Y180425D01*
X100420Y180369D01*
X100359Y180311D01*
X100301Y180250D01*
X100245Y180186D01*
X100192Y180119D01*
X100143Y180050D01*
X100097Y179979D01*
X100054Y179906D01*
X100014Y179831D01*
X99978Y179755D01*
X99946Y179677D01*
X99917Y179597D01*
X99892Y179516D01*
X99871Y179434D01*
X99853Y179351D01*
X99840Y179267D01*
X99830Y179183D01*
X99824Y179099D01*
X99822Y179014D01*
X99822Y177179D01*
X99824Y177072D01*
X99830Y176965D01*
X99840Y176858D01*
X99853Y176752D01*
X99871Y176646D01*
X99892Y176541D01*
X99917Y176437D01*
X99946Y176333D01*
X99979Y176231D01*
X100016Y176131D01*
X100056Y176031D01*
X100100Y175933D01*
X100147Y175837D01*
X100198Y175743D01*
X100252Y175650D01*
X100309Y175560D01*
X100370Y175471D01*
X100434Y175385D01*
X100501Y175302D01*
X100571Y175220D01*
X100644Y175142D01*
X100720Y175066D01*
X100798Y174993D01*
X100880Y174923D01*
X100963Y174856D01*
X101049Y174792D01*
X101138Y174731D01*
X101228Y174674D01*
X101321Y174620D01*
X101415Y174569D01*
X101511Y174522D01*
X101609Y174478D01*
X101709Y174438D01*
X101809Y174401D01*
X101911Y174368D01*
X102015Y174339D01*
X102119Y174314D01*
X102224Y174293D01*
X102330Y174275D01*
X102436Y174262D01*
X102543Y174252D01*
X102650Y174246D01*
X102757Y174244D01*
X49430Y199644D02*
X47962Y199644D01*
X49430Y199644D02*
X49504Y199646D01*
X49579Y199652D01*
X49652Y199661D01*
X49726Y199674D01*
X49798Y199691D01*
X49869Y199711D01*
X49940Y199735D01*
X50009Y199763D01*
X50077Y199794D01*
X50142Y199828D01*
X50207Y199866D01*
X50269Y199907D01*
X50329Y199951D01*
X50386Y199998D01*
X50441Y200048D01*
X50494Y200101D01*
X50544Y200156D01*
X50591Y200213D01*
X50635Y200273D01*
X50676Y200335D01*
X50714Y200400D01*
X50748Y200466D01*
X50779Y200533D01*
X50807Y200602D01*
X50831Y200673D01*
X50851Y200744D01*
X50868Y200817D01*
X50881Y200890D01*
X50890Y200964D01*
X50896Y201038D01*
X50898Y201112D01*
X50898Y204780D01*
X50896Y204854D01*
X50890Y204929D01*
X50881Y205002D01*
X50868Y205075D01*
X50851Y205148D01*
X50831Y205219D01*
X50807Y205290D01*
X50779Y205359D01*
X50748Y205426D01*
X50714Y205492D01*
X50676Y205557D01*
X50635Y205619D01*
X50591Y205679D01*
X50544Y205736D01*
X50494Y205791D01*
X50441Y205844D01*
X50386Y205894D01*
X50329Y205941D01*
X50269Y205985D01*
X50207Y206026D01*
X50142Y206064D01*
X50077Y206098D01*
X50009Y206129D01*
X49940Y206157D01*
X49870Y206181D01*
X49798Y206201D01*
X49726Y206218D01*
X49652Y206231D01*
X49579Y206240D01*
X49504Y206246D01*
X49430Y206248D01*
X47962Y206248D01*
X44766Y204780D02*
X42932Y206248D01*
X42932Y199644D01*
X44766Y199644D02*
X41097Y199644D01*
X37451Y202946D02*
X37449Y203091D01*
X37443Y203236D01*
X37434Y203381D01*
X37420Y203526D01*
X37403Y203670D01*
X37381Y203813D01*
X37356Y203957D01*
X37327Y204099D01*
X37295Y204240D01*
X37258Y204381D01*
X37218Y204520D01*
X37174Y204659D01*
X37127Y204796D01*
X37076Y204932D01*
X37021Y205066D01*
X36963Y205199D01*
X36901Y205331D01*
X36875Y205400D01*
X36846Y205467D01*
X36813Y205533D01*
X36777Y205596D01*
X36737Y205658D01*
X36694Y205717D01*
X36648Y205774D01*
X36599Y205828D01*
X36547Y205880D01*
X36492Y205929D01*
X36435Y205974D01*
X36375Y206017D01*
X36313Y206056D01*
X36250Y206092D01*
X36184Y206125D01*
X36117Y206153D01*
X36048Y206179D01*
X35978Y206200D01*
X35907Y206218D01*
X35835Y206231D01*
X35762Y206241D01*
X35689Y206247D01*
X35616Y206249D01*
X35616Y206248D02*
X35543Y206246D01*
X35470Y206240D01*
X35397Y206230D01*
X35326Y206217D01*
X35254Y206199D01*
X35184Y206178D01*
X35116Y206152D01*
X35048Y206124D01*
X34983Y206091D01*
X34919Y206055D01*
X34857Y206016D01*
X34798Y205974D01*
X34741Y205928D01*
X34686Y205879D01*
X34634Y205828D01*
X34585Y205773D01*
X34539Y205716D01*
X34496Y205657D01*
X34456Y205596D01*
X34420Y205532D01*
X34387Y205467D01*
X34358Y205400D01*
X34332Y205331D01*
X34270Y205199D01*
X34212Y205066D01*
X34157Y204932D01*
X34106Y204796D01*
X34059Y204659D01*
X34015Y204520D01*
X33975Y204381D01*
X33938Y204240D01*
X33906Y204099D01*
X33877Y203957D01*
X33852Y203814D01*
X33830Y203670D01*
X33813Y203526D01*
X33799Y203381D01*
X33790Y203236D01*
X33784Y203091D01*
X33782Y202946D01*
X37450Y202946D02*
X37448Y202801D01*
X37442Y202656D01*
X37433Y202511D01*
X37419Y202366D01*
X37402Y202222D01*
X37380Y202079D01*
X37355Y201936D01*
X37327Y201793D01*
X37294Y201652D01*
X37257Y201511D01*
X37217Y201372D01*
X37173Y201233D01*
X37126Y201096D01*
X37075Y200960D01*
X37020Y200826D01*
X36962Y200693D01*
X36900Y200561D01*
X36901Y200562D02*
X36875Y200493D01*
X36846Y200426D01*
X36813Y200360D01*
X36777Y200297D01*
X36737Y200235D01*
X36694Y200176D01*
X36648Y200119D01*
X36599Y200065D01*
X36547Y200013D01*
X36492Y199964D01*
X36435Y199919D01*
X36375Y199876D01*
X36313Y199837D01*
X36250Y199801D01*
X36184Y199768D01*
X36117Y199740D01*
X36048Y199714D01*
X35978Y199693D01*
X35907Y199675D01*
X35835Y199662D01*
X35762Y199652D01*
X35689Y199646D01*
X35616Y199644D01*
X34332Y200561D02*
X34270Y200693D01*
X34212Y200826D01*
X34157Y200960D01*
X34106Y201096D01*
X34059Y201233D01*
X34015Y201372D01*
X33975Y201511D01*
X33938Y201652D01*
X33906Y201793D01*
X33877Y201935D01*
X33852Y202078D01*
X33830Y202222D01*
X33813Y202366D01*
X33799Y202511D01*
X33790Y202656D01*
X33784Y202801D01*
X33782Y202946D01*
X34332Y200561D02*
X34358Y200492D01*
X34387Y200425D01*
X34420Y200360D01*
X34456Y200296D01*
X34496Y200235D01*
X34539Y200176D01*
X34585Y200119D01*
X34634Y200064D01*
X34686Y200013D01*
X34741Y199964D01*
X34798Y199918D01*
X34857Y199876D01*
X34919Y199837D01*
X34983Y199801D01*
X35048Y199768D01*
X35116Y199740D01*
X35184Y199714D01*
X35254Y199693D01*
X35326Y199675D01*
X35397Y199662D01*
X35470Y199652D01*
X35543Y199646D01*
X35616Y199644D01*
X37084Y201112D02*
X34149Y204780D01*
X78853Y316992D02*
X80320Y316992D01*
X80394Y316994D01*
X80469Y317000D01*
X80542Y317009D01*
X80616Y317022D01*
X80688Y317039D01*
X80759Y317059D01*
X80830Y317083D01*
X80899Y317111D01*
X80967Y317142D01*
X81032Y317176D01*
X81097Y317214D01*
X81159Y317255D01*
X81219Y317299D01*
X81276Y317346D01*
X81331Y317396D01*
X81384Y317449D01*
X81434Y317504D01*
X81481Y317561D01*
X81525Y317621D01*
X81566Y317683D01*
X81604Y317748D01*
X81638Y317814D01*
X81669Y317881D01*
X81697Y317950D01*
X81721Y318021D01*
X81741Y318092D01*
X81758Y318165D01*
X81771Y318238D01*
X81780Y318312D01*
X81786Y318386D01*
X81788Y318460D01*
X81788Y322128D01*
X81786Y322202D01*
X81780Y322277D01*
X81771Y322350D01*
X81758Y322423D01*
X81741Y322496D01*
X81721Y322567D01*
X81697Y322638D01*
X81669Y322707D01*
X81638Y322774D01*
X81604Y322840D01*
X81566Y322905D01*
X81525Y322967D01*
X81481Y323027D01*
X81434Y323084D01*
X81384Y323139D01*
X81331Y323192D01*
X81276Y323242D01*
X81219Y323289D01*
X81159Y323333D01*
X81097Y323374D01*
X81032Y323412D01*
X80967Y323446D01*
X80899Y323477D01*
X80830Y323505D01*
X80760Y323529D01*
X80688Y323549D01*
X80616Y323566D01*
X80542Y323579D01*
X80469Y323588D01*
X80394Y323594D01*
X80320Y323596D01*
X78853Y323596D01*
X75657Y322128D02*
X73822Y323596D01*
X73822Y316992D01*
X71988Y316992D02*
X75657Y316992D01*
X68341Y322128D02*
X66507Y323596D01*
X66507Y316992D01*
X68341Y316992D02*
X64672Y316992D01*
X111462Y301244D02*
X112930Y301244D01*
X113004Y301246D01*
X113079Y301252D01*
X113152Y301261D01*
X113226Y301274D01*
X113298Y301291D01*
X113369Y301311D01*
X113440Y301335D01*
X113509Y301363D01*
X113577Y301394D01*
X113642Y301428D01*
X113707Y301466D01*
X113769Y301507D01*
X113829Y301551D01*
X113886Y301598D01*
X113941Y301648D01*
X113994Y301701D01*
X114044Y301756D01*
X114091Y301813D01*
X114135Y301873D01*
X114176Y301935D01*
X114214Y302000D01*
X114248Y302066D01*
X114279Y302133D01*
X114307Y302202D01*
X114331Y302273D01*
X114351Y302344D01*
X114368Y302417D01*
X114381Y302490D01*
X114390Y302564D01*
X114396Y302638D01*
X114398Y302712D01*
X114398Y306380D01*
X114396Y306454D01*
X114390Y306529D01*
X114381Y306602D01*
X114368Y306675D01*
X114351Y306748D01*
X114331Y306819D01*
X114307Y306890D01*
X114279Y306959D01*
X114248Y307026D01*
X114214Y307092D01*
X114176Y307157D01*
X114135Y307219D01*
X114091Y307279D01*
X114044Y307336D01*
X113994Y307391D01*
X113941Y307444D01*
X113886Y307494D01*
X113829Y307541D01*
X113769Y307585D01*
X113707Y307626D01*
X113642Y307664D01*
X113577Y307698D01*
X113509Y307729D01*
X113440Y307757D01*
X113370Y307781D01*
X113298Y307801D01*
X113226Y307818D01*
X113152Y307831D01*
X113079Y307840D01*
X113004Y307846D01*
X112930Y307848D01*
X111462Y307848D01*
X108266Y306380D02*
X106432Y307848D01*
X106432Y301244D01*
X108266Y301244D02*
X104597Y301244D01*
X98933Y307848D02*
X98854Y307846D01*
X98776Y307841D01*
X98698Y307831D01*
X98621Y307818D01*
X98544Y307801D01*
X98468Y307781D01*
X98393Y307757D01*
X98319Y307730D01*
X98247Y307699D01*
X98176Y307664D01*
X98108Y307627D01*
X98040Y307586D01*
X97975Y307542D01*
X97912Y307495D01*
X97852Y307445D01*
X97794Y307392D01*
X97738Y307336D01*
X97685Y307278D01*
X97635Y307218D01*
X97588Y307155D01*
X97544Y307090D01*
X97503Y307023D01*
X97466Y306954D01*
X97431Y306883D01*
X97400Y306811D01*
X97373Y306737D01*
X97349Y306662D01*
X97329Y306586D01*
X97312Y306509D01*
X97299Y306432D01*
X97289Y306354D01*
X97284Y306276D01*
X97282Y306197D01*
X98933Y307848D02*
X99022Y307846D01*
X99111Y307841D01*
X99199Y307831D01*
X99287Y307818D01*
X99374Y307802D01*
X99461Y307781D01*
X99546Y307757D01*
X99631Y307730D01*
X99714Y307699D01*
X99796Y307664D01*
X99877Y307626D01*
X99956Y307585D01*
X100032Y307541D01*
X100108Y307493D01*
X100181Y307442D01*
X100251Y307389D01*
X100320Y307332D01*
X100386Y307272D01*
X100449Y307210D01*
X100510Y307145D01*
X100568Y307078D01*
X100623Y307008D01*
X100676Y306936D01*
X100725Y306862D01*
X100771Y306786D01*
X100813Y306708D01*
X100853Y306628D01*
X100889Y306547D01*
X100922Y306464D01*
X100951Y306380D01*
X97832Y304913D02*
X97776Y304969D01*
X97722Y305028D01*
X97671Y305089D01*
X97622Y305153D01*
X97577Y305218D01*
X97534Y305286D01*
X97495Y305355D01*
X97458Y305426D01*
X97425Y305499D01*
X97396Y305573D01*
X97369Y305648D01*
X97346Y305724D01*
X97327Y305802D01*
X97311Y305880D01*
X97298Y305958D01*
X97289Y306038D01*
X97284Y306117D01*
X97282Y306197D01*
X97832Y304913D02*
X100951Y301244D01*
X97282Y301244D01*
X174962Y275844D02*
X176430Y275844D01*
X176504Y275846D01*
X176579Y275852D01*
X176652Y275861D01*
X176726Y275874D01*
X176798Y275891D01*
X176869Y275911D01*
X176940Y275935D01*
X177009Y275963D01*
X177077Y275994D01*
X177142Y276028D01*
X177207Y276066D01*
X177269Y276107D01*
X177329Y276151D01*
X177386Y276198D01*
X177441Y276248D01*
X177494Y276301D01*
X177544Y276356D01*
X177591Y276413D01*
X177635Y276473D01*
X177676Y276535D01*
X177714Y276600D01*
X177748Y276666D01*
X177779Y276733D01*
X177807Y276802D01*
X177831Y276873D01*
X177851Y276944D01*
X177868Y277017D01*
X177881Y277090D01*
X177890Y277164D01*
X177896Y277238D01*
X177898Y277312D01*
X177898Y280980D01*
X177896Y281054D01*
X177890Y281129D01*
X177881Y281202D01*
X177868Y281275D01*
X177851Y281348D01*
X177831Y281419D01*
X177807Y281490D01*
X177779Y281559D01*
X177748Y281626D01*
X177714Y281692D01*
X177676Y281757D01*
X177635Y281819D01*
X177591Y281879D01*
X177544Y281936D01*
X177494Y281991D01*
X177441Y282044D01*
X177386Y282094D01*
X177329Y282141D01*
X177269Y282185D01*
X177207Y282226D01*
X177142Y282264D01*
X177077Y282298D01*
X177009Y282329D01*
X176940Y282357D01*
X176870Y282381D01*
X176798Y282401D01*
X176726Y282418D01*
X176652Y282431D01*
X176579Y282440D01*
X176504Y282446D01*
X176430Y282448D01*
X174962Y282448D01*
X171766Y280980D02*
X169932Y282448D01*
X169932Y275844D01*
X171766Y275844D02*
X168097Y275844D01*
X164451Y275844D02*
X162616Y275844D01*
X162531Y275846D01*
X162447Y275852D01*
X162363Y275862D01*
X162279Y275875D01*
X162196Y275893D01*
X162114Y275914D01*
X162033Y275939D01*
X161953Y275968D01*
X161875Y276000D01*
X161799Y276036D01*
X161724Y276076D01*
X161651Y276119D01*
X161580Y276165D01*
X161511Y276214D01*
X161444Y276267D01*
X161380Y276323D01*
X161319Y276381D01*
X161261Y276442D01*
X161205Y276506D01*
X161152Y276573D01*
X161103Y276642D01*
X161057Y276713D01*
X161014Y276786D01*
X160974Y276861D01*
X160938Y276937D01*
X160906Y277015D01*
X160877Y277095D01*
X160852Y277176D01*
X160831Y277258D01*
X160813Y277341D01*
X160800Y277425D01*
X160790Y277509D01*
X160784Y277593D01*
X160782Y277678D01*
X160784Y277763D01*
X160790Y277847D01*
X160800Y277931D01*
X160813Y278015D01*
X160831Y278098D01*
X160852Y278180D01*
X160877Y278261D01*
X160906Y278341D01*
X160938Y278419D01*
X160974Y278495D01*
X161014Y278570D01*
X161057Y278643D01*
X161103Y278714D01*
X161152Y278783D01*
X161205Y278850D01*
X161261Y278914D01*
X161319Y278975D01*
X161380Y279033D01*
X161444Y279089D01*
X161511Y279142D01*
X161580Y279191D01*
X161651Y279237D01*
X161724Y279280D01*
X161799Y279320D01*
X161875Y279356D01*
X161953Y279388D01*
X162033Y279417D01*
X162114Y279442D01*
X162196Y279463D01*
X162279Y279481D01*
X162363Y279494D01*
X162447Y279504D01*
X162531Y279510D01*
X162616Y279512D01*
X162250Y282448D02*
X164451Y282448D01*
X162250Y282448D02*
X162174Y282446D01*
X162099Y282440D01*
X162024Y282431D01*
X161950Y282417D01*
X161876Y282400D01*
X161804Y282378D01*
X161732Y282354D01*
X161662Y282325D01*
X161594Y282293D01*
X161527Y282258D01*
X161462Y282219D01*
X161399Y282176D01*
X161339Y282131D01*
X161281Y282083D01*
X161225Y282031D01*
X161173Y281977D01*
X161123Y281920D01*
X161076Y281861D01*
X161032Y281800D01*
X160991Y281736D01*
X160954Y281670D01*
X160920Y281602D01*
X160890Y281533D01*
X160863Y281462D01*
X160840Y281390D01*
X160821Y281317D01*
X160806Y281243D01*
X160794Y281168D01*
X160786Y281093D01*
X160782Y281018D01*
X160782Y280942D01*
X160786Y280867D01*
X160794Y280792D01*
X160806Y280717D01*
X160821Y280643D01*
X160840Y280570D01*
X160863Y280498D01*
X160890Y280427D01*
X160920Y280358D01*
X160954Y280290D01*
X160991Y280224D01*
X161032Y280160D01*
X161076Y280099D01*
X161123Y280040D01*
X161173Y279983D01*
X161225Y279929D01*
X161281Y279877D01*
X161339Y279829D01*
X161399Y279784D01*
X161462Y279741D01*
X161527Y279702D01*
X161594Y279667D01*
X161662Y279635D01*
X161732Y279606D01*
X161804Y279582D01*
X161876Y279560D01*
X161950Y279543D01*
X162024Y279529D01*
X162099Y279520D01*
X162174Y279514D01*
X162250Y279512D01*
X162250Y279513D02*
X163717Y279513D01*
X238462Y250444D02*
X239930Y250444D01*
X240004Y250446D01*
X240079Y250452D01*
X240152Y250461D01*
X240226Y250474D01*
X240298Y250491D01*
X240369Y250511D01*
X240440Y250535D01*
X240509Y250563D01*
X240577Y250594D01*
X240642Y250628D01*
X240707Y250666D01*
X240769Y250707D01*
X240829Y250751D01*
X240886Y250798D01*
X240941Y250848D01*
X240994Y250901D01*
X241044Y250956D01*
X241091Y251013D01*
X241135Y251073D01*
X241176Y251135D01*
X241214Y251200D01*
X241248Y251266D01*
X241279Y251333D01*
X241307Y251402D01*
X241331Y251473D01*
X241351Y251544D01*
X241368Y251617D01*
X241381Y251690D01*
X241390Y251764D01*
X241396Y251838D01*
X241398Y251912D01*
X241398Y255580D01*
X241396Y255654D01*
X241390Y255729D01*
X241381Y255802D01*
X241368Y255875D01*
X241351Y255948D01*
X241331Y256019D01*
X241307Y256090D01*
X241279Y256159D01*
X241248Y256226D01*
X241214Y256292D01*
X241176Y256357D01*
X241135Y256419D01*
X241091Y256479D01*
X241044Y256536D01*
X240994Y256591D01*
X240941Y256644D01*
X240886Y256694D01*
X240829Y256741D01*
X240769Y256785D01*
X240707Y256826D01*
X240642Y256864D01*
X240577Y256898D01*
X240509Y256929D01*
X240440Y256957D01*
X240370Y256981D01*
X240298Y257001D01*
X240226Y257018D01*
X240152Y257031D01*
X240079Y257040D01*
X240004Y257046D01*
X239930Y257048D01*
X238462Y257048D01*
X235266Y255580D02*
X233432Y257048D01*
X233432Y250444D01*
X235266Y250444D02*
X231597Y250444D01*
X227951Y251912D02*
X226483Y257048D01*
X227951Y251912D02*
X224282Y251912D01*
X225383Y253379D02*
X225383Y250444D01*
X301962Y226314D02*
X303430Y226314D01*
X303504Y226316D01*
X303579Y226322D01*
X303652Y226331D01*
X303726Y226344D01*
X303798Y226361D01*
X303869Y226381D01*
X303940Y226405D01*
X304009Y226433D01*
X304077Y226464D01*
X304142Y226498D01*
X304207Y226536D01*
X304269Y226577D01*
X304329Y226621D01*
X304386Y226668D01*
X304441Y226718D01*
X304494Y226771D01*
X304544Y226826D01*
X304591Y226883D01*
X304635Y226943D01*
X304676Y227005D01*
X304714Y227070D01*
X304748Y227136D01*
X304779Y227203D01*
X304807Y227272D01*
X304831Y227343D01*
X304851Y227414D01*
X304868Y227487D01*
X304881Y227560D01*
X304890Y227634D01*
X304896Y227708D01*
X304898Y227782D01*
X304898Y231450D01*
X304896Y231524D01*
X304890Y231599D01*
X304881Y231672D01*
X304868Y231745D01*
X304851Y231818D01*
X304831Y231889D01*
X304807Y231960D01*
X304779Y232029D01*
X304748Y232096D01*
X304714Y232162D01*
X304676Y232227D01*
X304635Y232289D01*
X304591Y232349D01*
X304544Y232406D01*
X304494Y232461D01*
X304441Y232514D01*
X304386Y232564D01*
X304329Y232611D01*
X304269Y232655D01*
X304207Y232696D01*
X304142Y232734D01*
X304077Y232768D01*
X304009Y232799D01*
X303940Y232827D01*
X303870Y232851D01*
X303798Y232871D01*
X303726Y232888D01*
X303652Y232901D01*
X303579Y232910D01*
X303504Y232916D01*
X303430Y232918D01*
X301962Y232918D01*
X298766Y231450D02*
X296932Y232918D01*
X296932Y226314D01*
X298766Y226314D02*
X295097Y226314D01*
X291451Y226314D02*
X289250Y226314D01*
X289176Y226316D01*
X289101Y226322D01*
X289028Y226331D01*
X288954Y226344D01*
X288882Y226361D01*
X288811Y226381D01*
X288740Y226405D01*
X288671Y226433D01*
X288604Y226464D01*
X288538Y226498D01*
X288473Y226536D01*
X288411Y226577D01*
X288351Y226621D01*
X288294Y226668D01*
X288239Y226718D01*
X288186Y226771D01*
X288136Y226826D01*
X288089Y226883D01*
X288045Y226943D01*
X288004Y227005D01*
X287966Y227070D01*
X287932Y227135D01*
X287901Y227203D01*
X287873Y227272D01*
X287849Y227343D01*
X287829Y227414D01*
X287812Y227486D01*
X287799Y227560D01*
X287790Y227633D01*
X287784Y227708D01*
X287782Y227782D01*
X287782Y228515D01*
X287784Y228589D01*
X287790Y228664D01*
X287799Y228737D01*
X287812Y228811D01*
X287829Y228883D01*
X287849Y228954D01*
X287873Y229025D01*
X287901Y229094D01*
X287932Y229161D01*
X287966Y229227D01*
X288004Y229292D01*
X288045Y229354D01*
X288089Y229414D01*
X288136Y229471D01*
X288186Y229526D01*
X288239Y229579D01*
X288294Y229629D01*
X288351Y229676D01*
X288411Y229720D01*
X288473Y229761D01*
X288538Y229799D01*
X288604Y229833D01*
X288671Y229864D01*
X288740Y229892D01*
X288811Y229916D01*
X288882Y229936D01*
X288954Y229953D01*
X289028Y229966D01*
X289101Y229975D01*
X289176Y229981D01*
X289250Y229983D01*
X291451Y229983D01*
X291451Y232918D01*
X287782Y232918D01*
X365462Y200914D02*
X366930Y200914D01*
X367004Y200916D01*
X367079Y200922D01*
X367152Y200931D01*
X367226Y200944D01*
X367298Y200961D01*
X367369Y200981D01*
X367440Y201005D01*
X367509Y201033D01*
X367577Y201064D01*
X367642Y201098D01*
X367707Y201136D01*
X367769Y201177D01*
X367829Y201221D01*
X367886Y201268D01*
X367941Y201318D01*
X367994Y201371D01*
X368044Y201426D01*
X368091Y201483D01*
X368135Y201543D01*
X368176Y201605D01*
X368214Y201670D01*
X368248Y201736D01*
X368279Y201803D01*
X368307Y201872D01*
X368331Y201943D01*
X368351Y202014D01*
X368368Y202087D01*
X368381Y202160D01*
X368390Y202234D01*
X368396Y202308D01*
X368398Y202382D01*
X368398Y206050D01*
X368396Y206124D01*
X368390Y206199D01*
X368381Y206272D01*
X368368Y206345D01*
X368351Y206418D01*
X368331Y206489D01*
X368307Y206560D01*
X368279Y206629D01*
X368248Y206696D01*
X368214Y206762D01*
X368176Y206827D01*
X368135Y206889D01*
X368091Y206949D01*
X368044Y207006D01*
X367994Y207061D01*
X367941Y207114D01*
X367886Y207164D01*
X367829Y207211D01*
X367769Y207255D01*
X367707Y207296D01*
X367642Y207334D01*
X367577Y207368D01*
X367509Y207399D01*
X367440Y207427D01*
X367370Y207451D01*
X367298Y207471D01*
X367226Y207488D01*
X367152Y207501D01*
X367079Y207510D01*
X367004Y207516D01*
X366930Y207518D01*
X365462Y207518D01*
X362266Y206050D02*
X360432Y207518D01*
X360432Y200914D01*
X362266Y200914D02*
X358597Y200914D01*
X354951Y204583D02*
X352750Y204583D01*
X352676Y204581D01*
X352601Y204575D01*
X352528Y204566D01*
X352454Y204553D01*
X352382Y204536D01*
X352311Y204516D01*
X352240Y204492D01*
X352171Y204464D01*
X352104Y204433D01*
X352038Y204399D01*
X351973Y204361D01*
X351911Y204320D01*
X351851Y204276D01*
X351794Y204229D01*
X351739Y204179D01*
X351686Y204126D01*
X351636Y204071D01*
X351589Y204014D01*
X351545Y203954D01*
X351504Y203892D01*
X351466Y203827D01*
X351432Y203761D01*
X351401Y203694D01*
X351373Y203625D01*
X351349Y203554D01*
X351329Y203483D01*
X351312Y203411D01*
X351299Y203337D01*
X351290Y203264D01*
X351284Y203189D01*
X351282Y203115D01*
X351282Y202748D01*
X351284Y202663D01*
X351290Y202579D01*
X351300Y202495D01*
X351313Y202411D01*
X351331Y202328D01*
X351352Y202246D01*
X351377Y202165D01*
X351406Y202085D01*
X351438Y202007D01*
X351474Y201931D01*
X351514Y201856D01*
X351557Y201783D01*
X351603Y201712D01*
X351652Y201643D01*
X351705Y201576D01*
X351761Y201512D01*
X351819Y201451D01*
X351880Y201393D01*
X351944Y201337D01*
X352011Y201284D01*
X352080Y201235D01*
X352151Y201189D01*
X352224Y201146D01*
X352299Y201106D01*
X352375Y201070D01*
X352453Y201038D01*
X352533Y201009D01*
X352614Y200984D01*
X352696Y200963D01*
X352779Y200945D01*
X352863Y200932D01*
X352947Y200922D01*
X353031Y200916D01*
X353116Y200914D01*
X353201Y200916D01*
X353285Y200922D01*
X353369Y200932D01*
X353453Y200945D01*
X353536Y200963D01*
X353618Y200984D01*
X353699Y201009D01*
X353779Y201038D01*
X353857Y201070D01*
X353933Y201106D01*
X354008Y201146D01*
X354081Y201189D01*
X354152Y201235D01*
X354221Y201284D01*
X354288Y201337D01*
X354352Y201393D01*
X354413Y201451D01*
X354471Y201512D01*
X354527Y201576D01*
X354580Y201643D01*
X354629Y201712D01*
X354675Y201783D01*
X354718Y201856D01*
X354758Y201931D01*
X354794Y202007D01*
X354826Y202085D01*
X354855Y202165D01*
X354880Y202246D01*
X354901Y202328D01*
X354919Y202411D01*
X354932Y202495D01*
X354942Y202579D01*
X354948Y202663D01*
X354950Y202748D01*
X354951Y202748D02*
X354951Y204583D01*
X354949Y204690D01*
X354943Y204797D01*
X354933Y204904D01*
X354920Y205010D01*
X354902Y205116D01*
X354881Y205221D01*
X354856Y205325D01*
X354827Y205429D01*
X354794Y205531D01*
X354757Y205631D01*
X354717Y205731D01*
X354673Y205829D01*
X354626Y205925D01*
X354575Y206019D01*
X354521Y206112D01*
X354464Y206202D01*
X354403Y206291D01*
X354339Y206377D01*
X354272Y206460D01*
X354202Y206542D01*
X354129Y206620D01*
X354053Y206696D01*
X353975Y206769D01*
X353893Y206839D01*
X353810Y206906D01*
X353724Y206970D01*
X353635Y207031D01*
X353545Y207088D01*
X353452Y207142D01*
X353358Y207193D01*
X353262Y207240D01*
X353164Y207284D01*
X353065Y207324D01*
X352964Y207361D01*
X352862Y207394D01*
X352758Y207423D01*
X352654Y207448D01*
X352549Y207469D01*
X352443Y207487D01*
X352337Y207500D01*
X352230Y207510D01*
X352123Y207516D01*
X352016Y207518D01*
X428962Y175514D02*
X430430Y175514D01*
X430504Y175516D01*
X430579Y175522D01*
X430652Y175531D01*
X430726Y175544D01*
X430798Y175561D01*
X430869Y175581D01*
X430940Y175605D01*
X431009Y175633D01*
X431077Y175664D01*
X431142Y175698D01*
X431207Y175736D01*
X431269Y175777D01*
X431329Y175821D01*
X431386Y175868D01*
X431441Y175918D01*
X431494Y175971D01*
X431544Y176026D01*
X431591Y176083D01*
X431635Y176143D01*
X431676Y176205D01*
X431714Y176270D01*
X431748Y176336D01*
X431779Y176403D01*
X431807Y176472D01*
X431831Y176543D01*
X431851Y176614D01*
X431868Y176687D01*
X431881Y176760D01*
X431890Y176834D01*
X431896Y176908D01*
X431898Y176982D01*
X431898Y180650D01*
X431896Y180724D01*
X431890Y180799D01*
X431881Y180872D01*
X431868Y180945D01*
X431851Y181018D01*
X431831Y181089D01*
X431807Y181160D01*
X431779Y181229D01*
X431748Y181296D01*
X431714Y181362D01*
X431676Y181427D01*
X431635Y181489D01*
X431591Y181549D01*
X431544Y181606D01*
X431494Y181661D01*
X431441Y181714D01*
X431386Y181764D01*
X431329Y181811D01*
X431269Y181855D01*
X431207Y181896D01*
X431142Y181934D01*
X431077Y181968D01*
X431009Y181999D01*
X430940Y182027D01*
X430870Y182051D01*
X430798Y182071D01*
X430726Y182088D01*
X430652Y182101D01*
X430579Y182110D01*
X430504Y182116D01*
X430430Y182118D01*
X428962Y182118D01*
X425766Y180650D02*
X423932Y182118D01*
X423932Y175514D01*
X425766Y175514D02*
X422097Y175514D01*
X418451Y181384D02*
X418451Y182118D01*
X414782Y182118D01*
X416616Y175514D01*
X492462Y150114D02*
X493930Y150114D01*
X494004Y150116D01*
X494079Y150122D01*
X494152Y150131D01*
X494226Y150144D01*
X494298Y150161D01*
X494369Y150181D01*
X494440Y150205D01*
X494509Y150233D01*
X494577Y150264D01*
X494642Y150298D01*
X494707Y150336D01*
X494769Y150377D01*
X494829Y150421D01*
X494886Y150468D01*
X494941Y150518D01*
X494994Y150571D01*
X495044Y150626D01*
X495091Y150683D01*
X495135Y150743D01*
X495176Y150805D01*
X495214Y150870D01*
X495248Y150936D01*
X495279Y151003D01*
X495307Y151072D01*
X495331Y151143D01*
X495351Y151214D01*
X495368Y151287D01*
X495381Y151360D01*
X495390Y151434D01*
X495396Y151508D01*
X495398Y151582D01*
X495398Y155250D01*
X495396Y155324D01*
X495390Y155399D01*
X495381Y155472D01*
X495368Y155545D01*
X495351Y155618D01*
X495331Y155689D01*
X495307Y155760D01*
X495279Y155829D01*
X495248Y155896D01*
X495214Y155962D01*
X495176Y156027D01*
X495135Y156089D01*
X495091Y156149D01*
X495044Y156206D01*
X494994Y156261D01*
X494941Y156314D01*
X494886Y156364D01*
X494829Y156411D01*
X494769Y156455D01*
X494707Y156496D01*
X494642Y156534D01*
X494577Y156568D01*
X494509Y156599D01*
X494440Y156627D01*
X494370Y156651D01*
X494298Y156671D01*
X494226Y156688D01*
X494152Y156701D01*
X494079Y156710D01*
X494004Y156716D01*
X493930Y156718D01*
X492462Y156718D01*
X489266Y155250D02*
X487432Y156718D01*
X487432Y150114D01*
X489266Y150114D02*
X485597Y150114D01*
X481950Y151948D02*
X481948Y152033D01*
X481942Y152117D01*
X481932Y152201D01*
X481919Y152285D01*
X481901Y152368D01*
X481880Y152450D01*
X481855Y152531D01*
X481826Y152611D01*
X481794Y152689D01*
X481758Y152765D01*
X481718Y152840D01*
X481675Y152913D01*
X481629Y152984D01*
X481580Y153053D01*
X481527Y153120D01*
X481471Y153184D01*
X481413Y153245D01*
X481352Y153303D01*
X481288Y153359D01*
X481221Y153412D01*
X481152Y153461D01*
X481081Y153507D01*
X481008Y153550D01*
X480933Y153590D01*
X480857Y153626D01*
X480779Y153658D01*
X480699Y153687D01*
X480618Y153712D01*
X480536Y153733D01*
X480453Y153751D01*
X480369Y153764D01*
X480285Y153774D01*
X480201Y153780D01*
X480116Y153782D01*
X480031Y153780D01*
X479947Y153774D01*
X479863Y153764D01*
X479779Y153751D01*
X479696Y153733D01*
X479614Y153712D01*
X479533Y153687D01*
X479453Y153658D01*
X479375Y153626D01*
X479299Y153590D01*
X479224Y153550D01*
X479151Y153507D01*
X479080Y153461D01*
X479011Y153412D01*
X478944Y153359D01*
X478880Y153303D01*
X478819Y153245D01*
X478761Y153184D01*
X478705Y153120D01*
X478652Y153053D01*
X478603Y152984D01*
X478557Y152913D01*
X478514Y152840D01*
X478474Y152765D01*
X478438Y152689D01*
X478406Y152611D01*
X478377Y152531D01*
X478352Y152450D01*
X478331Y152368D01*
X478313Y152285D01*
X478300Y152201D01*
X478290Y152117D01*
X478284Y152033D01*
X478282Y151948D01*
X478284Y151863D01*
X478290Y151779D01*
X478300Y151695D01*
X478313Y151611D01*
X478331Y151528D01*
X478352Y151446D01*
X478377Y151365D01*
X478406Y151285D01*
X478438Y151207D01*
X478474Y151131D01*
X478514Y151056D01*
X478557Y150983D01*
X478603Y150912D01*
X478652Y150843D01*
X478705Y150776D01*
X478761Y150712D01*
X478819Y150651D01*
X478880Y150593D01*
X478944Y150537D01*
X479011Y150484D01*
X479080Y150435D01*
X479151Y150389D01*
X479224Y150346D01*
X479299Y150306D01*
X479375Y150270D01*
X479453Y150238D01*
X479533Y150209D01*
X479614Y150184D01*
X479696Y150163D01*
X479779Y150145D01*
X479863Y150132D01*
X479947Y150122D01*
X480031Y150116D01*
X480116Y150114D01*
X480201Y150116D01*
X480285Y150122D01*
X480369Y150132D01*
X480453Y150145D01*
X480536Y150163D01*
X480618Y150184D01*
X480699Y150209D01*
X480779Y150238D01*
X480857Y150270D01*
X480933Y150306D01*
X481008Y150346D01*
X481081Y150389D01*
X481152Y150435D01*
X481221Y150484D01*
X481288Y150537D01*
X481352Y150593D01*
X481413Y150651D01*
X481471Y150712D01*
X481527Y150776D01*
X481580Y150843D01*
X481629Y150912D01*
X481675Y150983D01*
X481718Y151056D01*
X481758Y151131D01*
X481794Y151207D01*
X481826Y151285D01*
X481855Y151365D01*
X481880Y151446D01*
X481901Y151528D01*
X481919Y151611D01*
X481932Y151695D01*
X481942Y151779D01*
X481948Y151863D01*
X481950Y151948D01*
X481584Y155250D02*
X481582Y155326D01*
X481576Y155401D01*
X481567Y155476D01*
X481553Y155550D01*
X481536Y155624D01*
X481514Y155696D01*
X481490Y155768D01*
X481461Y155838D01*
X481429Y155906D01*
X481394Y155973D01*
X481355Y156038D01*
X481312Y156101D01*
X481267Y156161D01*
X481219Y156219D01*
X481167Y156275D01*
X481113Y156327D01*
X481056Y156377D01*
X480997Y156424D01*
X480936Y156468D01*
X480872Y156509D01*
X480806Y156546D01*
X480738Y156580D01*
X480669Y156610D01*
X480598Y156637D01*
X480526Y156660D01*
X480453Y156679D01*
X480379Y156694D01*
X480304Y156706D01*
X480229Y156714D01*
X480154Y156718D01*
X480078Y156718D01*
X480003Y156714D01*
X479928Y156706D01*
X479853Y156694D01*
X479779Y156679D01*
X479706Y156660D01*
X479634Y156637D01*
X479563Y156610D01*
X479494Y156580D01*
X479426Y156546D01*
X479360Y156509D01*
X479296Y156468D01*
X479235Y156424D01*
X479176Y156377D01*
X479119Y156327D01*
X479065Y156275D01*
X479013Y156219D01*
X478965Y156161D01*
X478920Y156101D01*
X478877Y156038D01*
X478838Y155973D01*
X478803Y155906D01*
X478771Y155838D01*
X478742Y155768D01*
X478718Y155696D01*
X478696Y155624D01*
X478679Y155550D01*
X478665Y155476D01*
X478656Y155401D01*
X478650Y155326D01*
X478648Y155250D01*
X478650Y155174D01*
X478656Y155099D01*
X478665Y155024D01*
X478679Y154950D01*
X478696Y154876D01*
X478718Y154804D01*
X478742Y154732D01*
X478771Y154662D01*
X478803Y154594D01*
X478838Y154527D01*
X478877Y154462D01*
X478920Y154399D01*
X478965Y154339D01*
X479013Y154281D01*
X479065Y154225D01*
X479119Y154173D01*
X479176Y154123D01*
X479235Y154076D01*
X479296Y154032D01*
X479360Y153991D01*
X479426Y153954D01*
X479494Y153920D01*
X479563Y153890D01*
X479634Y153863D01*
X479706Y153840D01*
X479779Y153821D01*
X479853Y153806D01*
X479928Y153794D01*
X480003Y153786D01*
X480078Y153782D01*
X480154Y153782D01*
X480229Y153786D01*
X480304Y153794D01*
X480379Y153806D01*
X480453Y153821D01*
X480526Y153840D01*
X480598Y153863D01*
X480669Y153890D01*
X480738Y153920D01*
X480806Y153954D01*
X480872Y153991D01*
X480936Y154032D01*
X480997Y154076D01*
X481056Y154123D01*
X481113Y154173D01*
X481167Y154225D01*
X481219Y154281D01*
X481267Y154339D01*
X481312Y154399D01*
X481355Y154462D01*
X481394Y154527D01*
X481429Y154594D01*
X481461Y154662D01*
X481490Y154732D01*
X481514Y154804D01*
X481536Y154876D01*
X481553Y154950D01*
X481567Y155024D01*
X481576Y155099D01*
X481582Y155174D01*
X481584Y155250D01*
X555962Y124714D02*
X557430Y124714D01*
X557504Y124716D01*
X557579Y124722D01*
X557652Y124731D01*
X557726Y124744D01*
X557798Y124761D01*
X557869Y124781D01*
X557940Y124805D01*
X558009Y124833D01*
X558077Y124864D01*
X558142Y124898D01*
X558207Y124936D01*
X558269Y124977D01*
X558329Y125021D01*
X558386Y125068D01*
X558441Y125118D01*
X558494Y125171D01*
X558544Y125226D01*
X558591Y125283D01*
X558635Y125343D01*
X558676Y125405D01*
X558714Y125470D01*
X558748Y125536D01*
X558779Y125603D01*
X558807Y125672D01*
X558831Y125743D01*
X558851Y125814D01*
X558868Y125887D01*
X558881Y125960D01*
X558890Y126034D01*
X558896Y126108D01*
X558898Y126182D01*
X558898Y129850D01*
X558896Y129924D01*
X558890Y129999D01*
X558881Y130072D01*
X558868Y130145D01*
X558851Y130218D01*
X558831Y130289D01*
X558807Y130360D01*
X558779Y130429D01*
X558748Y130496D01*
X558714Y130562D01*
X558676Y130627D01*
X558635Y130689D01*
X558591Y130749D01*
X558544Y130806D01*
X558494Y130861D01*
X558441Y130914D01*
X558386Y130964D01*
X558329Y131011D01*
X558269Y131055D01*
X558207Y131096D01*
X558142Y131134D01*
X558077Y131168D01*
X558009Y131199D01*
X557940Y131227D01*
X557870Y131251D01*
X557798Y131271D01*
X557726Y131288D01*
X557652Y131301D01*
X557579Y131310D01*
X557504Y131316D01*
X557430Y131318D01*
X555962Y131318D01*
X552766Y129850D02*
X550932Y131318D01*
X550932Y124714D01*
X552766Y124714D02*
X549097Y124714D01*
X543983Y127649D02*
X541782Y127649D01*
X543983Y127649D02*
X544057Y127651D01*
X544132Y127657D01*
X544205Y127666D01*
X544279Y127679D01*
X544351Y127696D01*
X544422Y127716D01*
X544493Y127740D01*
X544562Y127768D01*
X544630Y127799D01*
X544695Y127833D01*
X544760Y127871D01*
X544822Y127912D01*
X544882Y127956D01*
X544939Y128003D01*
X544994Y128053D01*
X545047Y128106D01*
X545097Y128161D01*
X545144Y128218D01*
X545188Y128278D01*
X545229Y128340D01*
X545267Y128405D01*
X545301Y128471D01*
X545332Y128538D01*
X545360Y128607D01*
X545384Y128678D01*
X545404Y128749D01*
X545421Y128822D01*
X545434Y128895D01*
X545443Y128969D01*
X545449Y129043D01*
X545451Y129117D01*
X545451Y129484D01*
X545450Y129484D02*
X545448Y129569D01*
X545442Y129653D01*
X545432Y129737D01*
X545419Y129821D01*
X545401Y129904D01*
X545380Y129986D01*
X545355Y130067D01*
X545326Y130147D01*
X545294Y130225D01*
X545258Y130301D01*
X545218Y130376D01*
X545175Y130449D01*
X545129Y130520D01*
X545080Y130589D01*
X545027Y130656D01*
X544971Y130720D01*
X544913Y130781D01*
X544852Y130839D01*
X544788Y130895D01*
X544721Y130948D01*
X544652Y130997D01*
X544581Y131043D01*
X544508Y131086D01*
X544433Y131126D01*
X544357Y131162D01*
X544279Y131194D01*
X544199Y131223D01*
X544118Y131248D01*
X544036Y131269D01*
X543953Y131287D01*
X543869Y131300D01*
X543785Y131310D01*
X543701Y131316D01*
X543616Y131318D01*
X543531Y131316D01*
X543447Y131310D01*
X543363Y131300D01*
X543279Y131287D01*
X543196Y131269D01*
X543114Y131248D01*
X543033Y131223D01*
X542953Y131194D01*
X542875Y131162D01*
X542799Y131126D01*
X542724Y131086D01*
X542651Y131043D01*
X542580Y130997D01*
X542511Y130948D01*
X542444Y130895D01*
X542380Y130839D01*
X542319Y130781D01*
X542261Y130720D01*
X542205Y130656D01*
X542152Y130589D01*
X542103Y130520D01*
X542057Y130449D01*
X542014Y130376D01*
X541974Y130301D01*
X541938Y130225D01*
X541906Y130147D01*
X541877Y130067D01*
X541852Y129986D01*
X541831Y129904D01*
X541813Y129821D01*
X541800Y129737D01*
X541790Y129653D01*
X541784Y129569D01*
X541782Y129484D01*
X541782Y127649D01*
X541784Y127542D01*
X541790Y127435D01*
X541800Y127328D01*
X541813Y127222D01*
X541831Y127116D01*
X541852Y127011D01*
X541877Y126907D01*
X541906Y126803D01*
X541939Y126701D01*
X541976Y126601D01*
X542016Y126501D01*
X542060Y126403D01*
X542107Y126307D01*
X542158Y126213D01*
X542212Y126120D01*
X542269Y126030D01*
X542330Y125941D01*
X542394Y125855D01*
X542461Y125772D01*
X542531Y125690D01*
X542604Y125612D01*
X542680Y125536D01*
X542758Y125463D01*
X542840Y125393D01*
X542923Y125326D01*
X543009Y125262D01*
X543098Y125201D01*
X543188Y125144D01*
X543281Y125090D01*
X543375Y125039D01*
X543471Y124992D01*
X543569Y124948D01*
X543669Y124908D01*
X543769Y124871D01*
X543871Y124838D01*
X543975Y124809D01*
X544079Y124784D01*
X544184Y124763D01*
X544290Y124745D01*
X544396Y124732D01*
X544503Y124722D01*
X544610Y124716D01*
X544717Y124714D01*
X619462Y99314D02*
X620930Y99314D01*
X621004Y99316D01*
X621079Y99322D01*
X621152Y99331D01*
X621226Y99344D01*
X621298Y99361D01*
X621369Y99381D01*
X621440Y99405D01*
X621509Y99433D01*
X621577Y99464D01*
X621642Y99498D01*
X621707Y99536D01*
X621769Y99577D01*
X621829Y99621D01*
X621886Y99668D01*
X621941Y99718D01*
X621994Y99771D01*
X622044Y99826D01*
X622091Y99883D01*
X622135Y99943D01*
X622176Y100005D01*
X622214Y100070D01*
X622248Y100136D01*
X622279Y100203D01*
X622307Y100272D01*
X622331Y100343D01*
X622351Y100414D01*
X622368Y100487D01*
X622381Y100560D01*
X622390Y100634D01*
X622396Y100708D01*
X622398Y100782D01*
X622398Y104450D01*
X622396Y104524D01*
X622390Y104599D01*
X622381Y104672D01*
X622368Y104745D01*
X622351Y104818D01*
X622331Y104889D01*
X622307Y104960D01*
X622279Y105029D01*
X622248Y105096D01*
X622214Y105162D01*
X622176Y105227D01*
X622135Y105289D01*
X622091Y105349D01*
X622044Y105406D01*
X621994Y105461D01*
X621941Y105514D01*
X621886Y105564D01*
X621829Y105611D01*
X621769Y105655D01*
X621707Y105696D01*
X621642Y105734D01*
X621577Y105768D01*
X621509Y105799D01*
X621440Y105827D01*
X621370Y105851D01*
X621298Y105871D01*
X621226Y105888D01*
X621152Y105901D01*
X621079Y105910D01*
X621004Y105916D01*
X620930Y105918D01*
X619462Y105918D01*
X614248Y105918D02*
X614169Y105916D01*
X614091Y105911D01*
X614013Y105901D01*
X613936Y105888D01*
X613859Y105871D01*
X613783Y105851D01*
X613708Y105827D01*
X613634Y105800D01*
X613562Y105769D01*
X613491Y105734D01*
X613423Y105697D01*
X613355Y105656D01*
X613290Y105612D01*
X613227Y105565D01*
X613167Y105515D01*
X613109Y105462D01*
X613053Y105406D01*
X613000Y105348D01*
X612950Y105288D01*
X612903Y105225D01*
X612859Y105160D01*
X612818Y105093D01*
X612781Y105024D01*
X612746Y104953D01*
X612715Y104881D01*
X612688Y104807D01*
X612664Y104732D01*
X612644Y104656D01*
X612627Y104579D01*
X612614Y104502D01*
X612604Y104424D01*
X612599Y104346D01*
X612597Y104267D01*
X614248Y105918D02*
X614337Y105916D01*
X614426Y105911D01*
X614514Y105901D01*
X614602Y105888D01*
X614689Y105872D01*
X614776Y105851D01*
X614861Y105827D01*
X614946Y105800D01*
X615029Y105769D01*
X615111Y105734D01*
X615192Y105696D01*
X615271Y105655D01*
X615347Y105611D01*
X615423Y105563D01*
X615496Y105512D01*
X615566Y105459D01*
X615635Y105402D01*
X615701Y105342D01*
X615764Y105280D01*
X615825Y105215D01*
X615883Y105148D01*
X615938Y105078D01*
X615991Y105006D01*
X616040Y104932D01*
X616086Y104856D01*
X616128Y104778D01*
X616168Y104698D01*
X616204Y104617D01*
X616237Y104534D01*
X616266Y104450D01*
X613147Y102983D02*
X613091Y103039D01*
X613037Y103098D01*
X612986Y103159D01*
X612937Y103223D01*
X612892Y103288D01*
X612849Y103356D01*
X612810Y103425D01*
X612773Y103496D01*
X612740Y103569D01*
X612711Y103643D01*
X612684Y103718D01*
X612661Y103794D01*
X612642Y103872D01*
X612626Y103950D01*
X612613Y104028D01*
X612604Y104108D01*
X612599Y104187D01*
X612597Y104267D01*
X613148Y102983D02*
X616266Y99314D01*
X612597Y99314D01*
X608951Y102616D02*
X608949Y102761D01*
X608943Y102906D01*
X608934Y103051D01*
X608920Y103196D01*
X608903Y103340D01*
X608881Y103483D01*
X608856Y103627D01*
X608827Y103769D01*
X608795Y103910D01*
X608758Y104051D01*
X608718Y104190D01*
X608674Y104329D01*
X608627Y104466D01*
X608576Y104602D01*
X608521Y104736D01*
X608463Y104869D01*
X608401Y105001D01*
X608375Y105070D01*
X608346Y105137D01*
X608313Y105203D01*
X608277Y105266D01*
X608237Y105328D01*
X608194Y105387D01*
X608148Y105444D01*
X608099Y105498D01*
X608047Y105550D01*
X607992Y105599D01*
X607935Y105644D01*
X607875Y105687D01*
X607813Y105726D01*
X607750Y105762D01*
X607684Y105795D01*
X607617Y105823D01*
X607548Y105849D01*
X607478Y105870D01*
X607407Y105888D01*
X607335Y105901D01*
X607262Y105911D01*
X607189Y105917D01*
X607116Y105919D01*
X607116Y105918D02*
X607043Y105916D01*
X606970Y105910D01*
X606897Y105900D01*
X606826Y105887D01*
X606754Y105869D01*
X606684Y105848D01*
X606616Y105822D01*
X606548Y105794D01*
X606483Y105761D01*
X606419Y105725D01*
X606357Y105686D01*
X606298Y105644D01*
X606241Y105598D01*
X606186Y105549D01*
X606134Y105498D01*
X606085Y105443D01*
X606039Y105386D01*
X605996Y105327D01*
X605956Y105266D01*
X605920Y105202D01*
X605887Y105137D01*
X605858Y105070D01*
X605832Y105001D01*
X605770Y104869D01*
X605712Y104736D01*
X605657Y104602D01*
X605606Y104466D01*
X605559Y104329D01*
X605515Y104190D01*
X605475Y104051D01*
X605438Y103910D01*
X605406Y103769D01*
X605377Y103627D01*
X605352Y103484D01*
X605330Y103340D01*
X605313Y103196D01*
X605299Y103051D01*
X605290Y102906D01*
X605284Y102761D01*
X605282Y102616D01*
X608950Y102616D02*
X608948Y102471D01*
X608942Y102326D01*
X608933Y102181D01*
X608919Y102036D01*
X608902Y101892D01*
X608880Y101749D01*
X608855Y101606D01*
X608827Y101463D01*
X608794Y101322D01*
X608757Y101181D01*
X608717Y101042D01*
X608673Y100903D01*
X608626Y100766D01*
X608575Y100630D01*
X608520Y100496D01*
X608462Y100363D01*
X608400Y100231D01*
X608401Y100232D02*
X608375Y100163D01*
X608346Y100096D01*
X608313Y100030D01*
X608277Y99967D01*
X608237Y99905D01*
X608194Y99846D01*
X608148Y99789D01*
X608099Y99735D01*
X608047Y99683D01*
X607992Y99634D01*
X607935Y99589D01*
X607875Y99546D01*
X607813Y99507D01*
X607750Y99471D01*
X607684Y99438D01*
X607617Y99410D01*
X607548Y99384D01*
X607478Y99363D01*
X607407Y99345D01*
X607335Y99332D01*
X607262Y99322D01*
X607189Y99316D01*
X607116Y99314D01*
X605832Y100231D02*
X605770Y100363D01*
X605712Y100496D01*
X605657Y100630D01*
X605606Y100766D01*
X605559Y100903D01*
X605515Y101042D01*
X605475Y101181D01*
X605438Y101322D01*
X605406Y101463D01*
X605377Y101605D01*
X605352Y101748D01*
X605330Y101892D01*
X605313Y102036D01*
X605299Y102181D01*
X605290Y102326D01*
X605284Y102471D01*
X605282Y102616D01*
X605832Y100231D02*
X605858Y100162D01*
X605887Y100095D01*
X605920Y100030D01*
X605956Y99966D01*
X605996Y99905D01*
X606039Y99846D01*
X606085Y99789D01*
X606134Y99734D01*
X606186Y99683D01*
X606241Y99634D01*
X606298Y99588D01*
X606357Y99546D01*
X606419Y99507D01*
X606483Y99471D01*
X606548Y99438D01*
X606616Y99410D01*
X606684Y99384D01*
X606754Y99363D01*
X606826Y99345D01*
X606897Y99332D01*
X606970Y99322D01*
X607043Y99316D01*
X607116Y99314D01*
X608584Y100782D02*
X605649Y104450D01*
X619462Y225044D02*
X620930Y225044D01*
X621004Y225046D01*
X621079Y225052D01*
X621152Y225061D01*
X621226Y225074D01*
X621298Y225091D01*
X621369Y225111D01*
X621440Y225135D01*
X621509Y225163D01*
X621577Y225194D01*
X621642Y225228D01*
X621707Y225266D01*
X621769Y225307D01*
X621829Y225351D01*
X621886Y225398D01*
X621941Y225448D01*
X621994Y225501D01*
X622044Y225556D01*
X622091Y225613D01*
X622135Y225673D01*
X622176Y225735D01*
X622214Y225800D01*
X622248Y225866D01*
X622279Y225933D01*
X622307Y226002D01*
X622331Y226073D01*
X622351Y226144D01*
X622368Y226217D01*
X622381Y226290D01*
X622390Y226364D01*
X622396Y226438D01*
X622398Y226512D01*
X622398Y230180D01*
X622396Y230254D01*
X622390Y230329D01*
X622381Y230402D01*
X622368Y230475D01*
X622351Y230548D01*
X622331Y230619D01*
X622307Y230690D01*
X622279Y230759D01*
X622248Y230826D01*
X622214Y230892D01*
X622176Y230957D01*
X622135Y231019D01*
X622091Y231079D01*
X622044Y231136D01*
X621994Y231191D01*
X621941Y231244D01*
X621886Y231294D01*
X621829Y231341D01*
X621769Y231385D01*
X621707Y231426D01*
X621642Y231464D01*
X621577Y231498D01*
X621509Y231529D01*
X621440Y231557D01*
X621370Y231581D01*
X621298Y231601D01*
X621226Y231618D01*
X621152Y231631D01*
X621079Y231640D01*
X621004Y231646D01*
X620930Y231648D01*
X619462Y231648D01*
X614248Y231648D02*
X614169Y231646D01*
X614091Y231641D01*
X614013Y231631D01*
X613936Y231618D01*
X613859Y231601D01*
X613783Y231581D01*
X613708Y231557D01*
X613634Y231530D01*
X613562Y231499D01*
X613491Y231464D01*
X613423Y231427D01*
X613355Y231386D01*
X613290Y231342D01*
X613227Y231295D01*
X613167Y231245D01*
X613109Y231192D01*
X613053Y231136D01*
X613000Y231078D01*
X612950Y231018D01*
X612903Y230955D01*
X612859Y230890D01*
X612818Y230823D01*
X612781Y230754D01*
X612746Y230683D01*
X612715Y230611D01*
X612688Y230537D01*
X612664Y230462D01*
X612644Y230386D01*
X612627Y230309D01*
X612614Y230232D01*
X612604Y230154D01*
X612599Y230076D01*
X612597Y229997D01*
X614248Y231648D02*
X614337Y231646D01*
X614426Y231641D01*
X614514Y231631D01*
X614602Y231618D01*
X614689Y231602D01*
X614776Y231581D01*
X614861Y231557D01*
X614946Y231530D01*
X615029Y231499D01*
X615111Y231464D01*
X615192Y231426D01*
X615271Y231385D01*
X615347Y231341D01*
X615423Y231293D01*
X615496Y231242D01*
X615566Y231189D01*
X615635Y231132D01*
X615701Y231072D01*
X615764Y231010D01*
X615825Y230945D01*
X615883Y230878D01*
X615938Y230808D01*
X615991Y230736D01*
X616040Y230662D01*
X616086Y230586D01*
X616128Y230508D01*
X616168Y230428D01*
X616204Y230347D01*
X616237Y230264D01*
X616266Y230180D01*
X613147Y228713D02*
X613091Y228769D01*
X613037Y228828D01*
X612986Y228889D01*
X612937Y228953D01*
X612892Y229018D01*
X612849Y229086D01*
X612810Y229155D01*
X612773Y229226D01*
X612740Y229299D01*
X612711Y229373D01*
X612684Y229448D01*
X612661Y229524D01*
X612642Y229602D01*
X612626Y229680D01*
X612613Y229758D01*
X612604Y229838D01*
X612599Y229917D01*
X612597Y229997D01*
X613148Y228713D02*
X616266Y225044D01*
X612597Y225044D01*
X608951Y230180D02*
X607116Y231648D01*
X607116Y225044D01*
X605282Y225044D02*
X608951Y225044D01*
X557430Y250444D02*
X555962Y250444D01*
X557430Y250444D02*
X557504Y250446D01*
X557579Y250452D01*
X557652Y250461D01*
X557726Y250474D01*
X557798Y250491D01*
X557869Y250511D01*
X557940Y250535D01*
X558009Y250563D01*
X558077Y250594D01*
X558142Y250628D01*
X558207Y250666D01*
X558269Y250707D01*
X558329Y250751D01*
X558386Y250798D01*
X558441Y250848D01*
X558494Y250901D01*
X558544Y250956D01*
X558591Y251013D01*
X558635Y251073D01*
X558676Y251135D01*
X558714Y251200D01*
X558748Y251266D01*
X558779Y251333D01*
X558807Y251402D01*
X558831Y251473D01*
X558851Y251544D01*
X558868Y251617D01*
X558881Y251690D01*
X558890Y251764D01*
X558896Y251838D01*
X558898Y251912D01*
X558898Y255580D01*
X558896Y255654D01*
X558890Y255729D01*
X558881Y255802D01*
X558868Y255875D01*
X558851Y255948D01*
X558831Y256019D01*
X558807Y256090D01*
X558779Y256159D01*
X558748Y256226D01*
X558714Y256292D01*
X558676Y256357D01*
X558635Y256419D01*
X558591Y256479D01*
X558544Y256536D01*
X558494Y256591D01*
X558441Y256644D01*
X558386Y256694D01*
X558329Y256741D01*
X558269Y256785D01*
X558207Y256826D01*
X558142Y256864D01*
X558077Y256898D01*
X558009Y256929D01*
X557940Y256957D01*
X557870Y256981D01*
X557798Y257001D01*
X557726Y257018D01*
X557652Y257031D01*
X557579Y257040D01*
X557504Y257046D01*
X557430Y257048D01*
X555962Y257048D01*
X550748Y257048D02*
X550669Y257046D01*
X550591Y257041D01*
X550513Y257031D01*
X550436Y257018D01*
X550359Y257001D01*
X550283Y256981D01*
X550208Y256957D01*
X550134Y256930D01*
X550062Y256899D01*
X549991Y256864D01*
X549923Y256827D01*
X549855Y256786D01*
X549790Y256742D01*
X549727Y256695D01*
X549667Y256645D01*
X549609Y256592D01*
X549553Y256536D01*
X549500Y256478D01*
X549450Y256418D01*
X549403Y256355D01*
X549359Y256290D01*
X549318Y256223D01*
X549281Y256154D01*
X549246Y256083D01*
X549215Y256011D01*
X549188Y255937D01*
X549164Y255862D01*
X549144Y255786D01*
X549127Y255709D01*
X549114Y255632D01*
X549104Y255554D01*
X549099Y255476D01*
X549097Y255397D01*
X550748Y257048D02*
X550837Y257046D01*
X550926Y257041D01*
X551014Y257031D01*
X551102Y257018D01*
X551189Y257002D01*
X551276Y256981D01*
X551361Y256957D01*
X551446Y256930D01*
X551529Y256899D01*
X551611Y256864D01*
X551692Y256826D01*
X551771Y256785D01*
X551847Y256741D01*
X551923Y256693D01*
X551996Y256642D01*
X552066Y256589D01*
X552135Y256532D01*
X552201Y256472D01*
X552264Y256410D01*
X552325Y256345D01*
X552383Y256278D01*
X552438Y256208D01*
X552491Y256136D01*
X552540Y256062D01*
X552586Y255986D01*
X552628Y255908D01*
X552668Y255828D01*
X552704Y255747D01*
X552737Y255664D01*
X552766Y255580D01*
X549647Y254113D02*
X549591Y254169D01*
X549537Y254228D01*
X549486Y254289D01*
X549437Y254353D01*
X549392Y254418D01*
X549349Y254486D01*
X549310Y254555D01*
X549273Y254626D01*
X549240Y254699D01*
X549211Y254773D01*
X549184Y254848D01*
X549161Y254924D01*
X549142Y255002D01*
X549126Y255080D01*
X549113Y255158D01*
X549104Y255238D01*
X549099Y255317D01*
X549097Y255397D01*
X549648Y254113D02*
X552766Y250444D01*
X549097Y250444D01*
X543433Y257048D02*
X543354Y257046D01*
X543276Y257041D01*
X543198Y257031D01*
X543121Y257018D01*
X543044Y257001D01*
X542968Y256981D01*
X542893Y256957D01*
X542819Y256930D01*
X542747Y256899D01*
X542676Y256864D01*
X542608Y256827D01*
X542540Y256786D01*
X542475Y256742D01*
X542412Y256695D01*
X542352Y256645D01*
X542294Y256592D01*
X542238Y256536D01*
X542185Y256478D01*
X542135Y256418D01*
X542088Y256355D01*
X542044Y256290D01*
X542003Y256223D01*
X541966Y256154D01*
X541931Y256083D01*
X541900Y256011D01*
X541873Y255937D01*
X541849Y255862D01*
X541829Y255786D01*
X541812Y255709D01*
X541799Y255632D01*
X541789Y255554D01*
X541784Y255476D01*
X541782Y255397D01*
X543433Y257048D02*
X543522Y257046D01*
X543611Y257041D01*
X543699Y257031D01*
X543787Y257018D01*
X543874Y257002D01*
X543961Y256981D01*
X544046Y256957D01*
X544131Y256930D01*
X544214Y256899D01*
X544296Y256864D01*
X544377Y256826D01*
X544456Y256785D01*
X544532Y256741D01*
X544608Y256693D01*
X544681Y256642D01*
X544751Y256589D01*
X544820Y256532D01*
X544886Y256472D01*
X544949Y256410D01*
X545010Y256345D01*
X545068Y256278D01*
X545123Y256208D01*
X545176Y256136D01*
X545225Y256062D01*
X545271Y255986D01*
X545313Y255908D01*
X545353Y255828D01*
X545389Y255747D01*
X545422Y255664D01*
X545451Y255580D01*
X542332Y254113D02*
X542276Y254169D01*
X542222Y254228D01*
X542171Y254289D01*
X542122Y254353D01*
X542077Y254418D01*
X542034Y254486D01*
X541995Y254555D01*
X541958Y254626D01*
X541925Y254699D01*
X541896Y254773D01*
X541869Y254848D01*
X541846Y254924D01*
X541827Y255002D01*
X541811Y255080D01*
X541798Y255158D01*
X541789Y255238D01*
X541784Y255317D01*
X541782Y255397D01*
X542332Y254113D02*
X545451Y250444D01*
X541782Y250444D01*
X493930Y275844D02*
X492462Y275844D01*
X493930Y275844D02*
X494004Y275846D01*
X494079Y275852D01*
X494152Y275861D01*
X494226Y275874D01*
X494298Y275891D01*
X494369Y275911D01*
X494440Y275935D01*
X494509Y275963D01*
X494577Y275994D01*
X494642Y276028D01*
X494707Y276066D01*
X494769Y276107D01*
X494829Y276151D01*
X494886Y276198D01*
X494941Y276248D01*
X494994Y276301D01*
X495044Y276356D01*
X495091Y276413D01*
X495135Y276473D01*
X495176Y276535D01*
X495214Y276600D01*
X495248Y276666D01*
X495279Y276733D01*
X495307Y276802D01*
X495331Y276873D01*
X495351Y276944D01*
X495368Y277017D01*
X495381Y277090D01*
X495390Y277164D01*
X495396Y277238D01*
X495398Y277312D01*
X495398Y280980D01*
X495396Y281054D01*
X495390Y281129D01*
X495381Y281202D01*
X495368Y281275D01*
X495351Y281348D01*
X495331Y281419D01*
X495307Y281490D01*
X495279Y281559D01*
X495248Y281626D01*
X495214Y281692D01*
X495176Y281757D01*
X495135Y281819D01*
X495091Y281879D01*
X495044Y281936D01*
X494994Y281991D01*
X494941Y282044D01*
X494886Y282094D01*
X494829Y282141D01*
X494769Y282185D01*
X494707Y282226D01*
X494642Y282264D01*
X494577Y282298D01*
X494509Y282329D01*
X494440Y282357D01*
X494370Y282381D01*
X494298Y282401D01*
X494226Y282418D01*
X494152Y282431D01*
X494079Y282440D01*
X494004Y282446D01*
X493930Y282448D01*
X492462Y282448D01*
X487248Y282448D02*
X487169Y282446D01*
X487091Y282441D01*
X487013Y282431D01*
X486936Y282418D01*
X486859Y282401D01*
X486783Y282381D01*
X486708Y282357D01*
X486634Y282330D01*
X486562Y282299D01*
X486491Y282264D01*
X486423Y282227D01*
X486355Y282186D01*
X486290Y282142D01*
X486227Y282095D01*
X486167Y282045D01*
X486109Y281992D01*
X486053Y281936D01*
X486000Y281878D01*
X485950Y281818D01*
X485903Y281755D01*
X485859Y281690D01*
X485818Y281623D01*
X485781Y281554D01*
X485746Y281483D01*
X485715Y281411D01*
X485688Y281337D01*
X485664Y281262D01*
X485644Y281186D01*
X485627Y281109D01*
X485614Y281032D01*
X485604Y280954D01*
X485599Y280876D01*
X485597Y280797D01*
X487248Y282448D02*
X487337Y282446D01*
X487426Y282441D01*
X487514Y282431D01*
X487602Y282418D01*
X487689Y282402D01*
X487776Y282381D01*
X487861Y282357D01*
X487946Y282330D01*
X488029Y282299D01*
X488111Y282264D01*
X488192Y282226D01*
X488271Y282185D01*
X488347Y282141D01*
X488423Y282093D01*
X488496Y282042D01*
X488566Y281989D01*
X488635Y281932D01*
X488701Y281872D01*
X488764Y281810D01*
X488825Y281745D01*
X488883Y281678D01*
X488938Y281608D01*
X488991Y281536D01*
X489040Y281462D01*
X489086Y281386D01*
X489128Y281308D01*
X489168Y281228D01*
X489204Y281147D01*
X489237Y281064D01*
X489266Y280980D01*
X486147Y279513D02*
X486091Y279569D01*
X486037Y279628D01*
X485986Y279689D01*
X485937Y279753D01*
X485892Y279818D01*
X485849Y279886D01*
X485810Y279955D01*
X485773Y280026D01*
X485740Y280099D01*
X485711Y280173D01*
X485684Y280248D01*
X485661Y280324D01*
X485642Y280402D01*
X485626Y280480D01*
X485613Y280558D01*
X485604Y280638D01*
X485599Y280717D01*
X485597Y280797D01*
X486148Y279513D02*
X489266Y275844D01*
X485597Y275844D01*
X481951Y275844D02*
X480116Y275844D01*
X480031Y275846D01*
X479947Y275852D01*
X479863Y275862D01*
X479779Y275875D01*
X479696Y275893D01*
X479614Y275914D01*
X479533Y275939D01*
X479453Y275968D01*
X479375Y276000D01*
X479299Y276036D01*
X479224Y276076D01*
X479151Y276119D01*
X479080Y276165D01*
X479011Y276214D01*
X478944Y276267D01*
X478880Y276323D01*
X478819Y276381D01*
X478761Y276442D01*
X478705Y276506D01*
X478652Y276573D01*
X478603Y276642D01*
X478557Y276713D01*
X478514Y276786D01*
X478474Y276861D01*
X478438Y276937D01*
X478406Y277015D01*
X478377Y277095D01*
X478352Y277176D01*
X478331Y277258D01*
X478313Y277341D01*
X478300Y277425D01*
X478290Y277509D01*
X478284Y277593D01*
X478282Y277678D01*
X478284Y277763D01*
X478290Y277847D01*
X478300Y277931D01*
X478313Y278015D01*
X478331Y278098D01*
X478352Y278180D01*
X478377Y278261D01*
X478406Y278341D01*
X478438Y278419D01*
X478474Y278495D01*
X478514Y278570D01*
X478557Y278643D01*
X478603Y278714D01*
X478652Y278783D01*
X478705Y278850D01*
X478761Y278914D01*
X478819Y278975D01*
X478880Y279033D01*
X478944Y279089D01*
X479011Y279142D01*
X479080Y279191D01*
X479151Y279237D01*
X479224Y279280D01*
X479299Y279320D01*
X479375Y279356D01*
X479453Y279388D01*
X479533Y279417D01*
X479614Y279442D01*
X479696Y279463D01*
X479779Y279481D01*
X479863Y279494D01*
X479947Y279504D01*
X480031Y279510D01*
X480116Y279512D01*
X479750Y282448D02*
X481951Y282448D01*
X479750Y282448D02*
X479674Y282446D01*
X479599Y282440D01*
X479524Y282431D01*
X479450Y282417D01*
X479376Y282400D01*
X479304Y282378D01*
X479232Y282354D01*
X479162Y282325D01*
X479094Y282293D01*
X479027Y282258D01*
X478962Y282219D01*
X478899Y282176D01*
X478839Y282131D01*
X478781Y282083D01*
X478725Y282031D01*
X478673Y281977D01*
X478623Y281920D01*
X478576Y281861D01*
X478532Y281800D01*
X478491Y281736D01*
X478454Y281670D01*
X478420Y281602D01*
X478390Y281533D01*
X478363Y281462D01*
X478340Y281390D01*
X478321Y281317D01*
X478306Y281243D01*
X478294Y281168D01*
X478286Y281093D01*
X478282Y281018D01*
X478282Y280942D01*
X478286Y280867D01*
X478294Y280792D01*
X478306Y280717D01*
X478321Y280643D01*
X478340Y280570D01*
X478363Y280498D01*
X478390Y280427D01*
X478420Y280358D01*
X478454Y280290D01*
X478491Y280224D01*
X478532Y280160D01*
X478576Y280099D01*
X478623Y280040D01*
X478673Y279983D01*
X478725Y279929D01*
X478781Y279877D01*
X478839Y279829D01*
X478899Y279784D01*
X478962Y279741D01*
X479027Y279702D01*
X479094Y279667D01*
X479162Y279635D01*
X479232Y279606D01*
X479304Y279582D01*
X479376Y279560D01*
X479450Y279543D01*
X479524Y279529D01*
X479599Y279520D01*
X479674Y279514D01*
X479750Y279512D01*
X479750Y279513D02*
X481217Y279513D01*
X454560Y289814D02*
X453092Y289814D01*
X454560Y289814D02*
X454634Y289816D01*
X454709Y289822D01*
X454782Y289831D01*
X454856Y289844D01*
X454928Y289861D01*
X454999Y289881D01*
X455070Y289905D01*
X455139Y289933D01*
X455207Y289964D01*
X455272Y289998D01*
X455337Y290036D01*
X455399Y290077D01*
X455459Y290121D01*
X455516Y290168D01*
X455571Y290218D01*
X455624Y290271D01*
X455674Y290326D01*
X455721Y290383D01*
X455765Y290443D01*
X455806Y290505D01*
X455844Y290570D01*
X455878Y290636D01*
X455909Y290703D01*
X455937Y290772D01*
X455961Y290843D01*
X455981Y290914D01*
X455998Y290987D01*
X456011Y291060D01*
X456020Y291134D01*
X456026Y291208D01*
X456028Y291282D01*
X456028Y294950D01*
X456026Y295024D01*
X456020Y295099D01*
X456011Y295172D01*
X455998Y295245D01*
X455981Y295318D01*
X455961Y295389D01*
X455937Y295460D01*
X455909Y295529D01*
X455878Y295596D01*
X455844Y295662D01*
X455806Y295727D01*
X455765Y295789D01*
X455721Y295849D01*
X455674Y295906D01*
X455624Y295961D01*
X455571Y296014D01*
X455516Y296064D01*
X455459Y296111D01*
X455399Y296155D01*
X455337Y296196D01*
X455272Y296234D01*
X455207Y296268D01*
X455139Y296299D01*
X455070Y296327D01*
X455000Y296351D01*
X454928Y296371D01*
X454856Y296388D01*
X454782Y296401D01*
X454709Y296410D01*
X454634Y296416D01*
X454560Y296418D01*
X453092Y296418D01*
X447878Y296418D02*
X447799Y296416D01*
X447721Y296411D01*
X447643Y296401D01*
X447566Y296388D01*
X447489Y296371D01*
X447413Y296351D01*
X447338Y296327D01*
X447264Y296300D01*
X447192Y296269D01*
X447121Y296234D01*
X447053Y296197D01*
X446985Y296156D01*
X446920Y296112D01*
X446857Y296065D01*
X446797Y296015D01*
X446739Y295962D01*
X446683Y295906D01*
X446630Y295848D01*
X446580Y295788D01*
X446533Y295725D01*
X446489Y295660D01*
X446448Y295593D01*
X446411Y295524D01*
X446376Y295453D01*
X446345Y295381D01*
X446318Y295307D01*
X446294Y295232D01*
X446274Y295156D01*
X446257Y295079D01*
X446244Y295002D01*
X446234Y294924D01*
X446229Y294846D01*
X446227Y294767D01*
X447878Y296418D02*
X447967Y296416D01*
X448056Y296411D01*
X448144Y296401D01*
X448232Y296388D01*
X448319Y296372D01*
X448406Y296351D01*
X448491Y296327D01*
X448576Y296300D01*
X448659Y296269D01*
X448741Y296234D01*
X448822Y296196D01*
X448901Y296155D01*
X448977Y296111D01*
X449053Y296063D01*
X449126Y296012D01*
X449196Y295959D01*
X449265Y295902D01*
X449331Y295842D01*
X449394Y295780D01*
X449455Y295715D01*
X449513Y295648D01*
X449568Y295578D01*
X449621Y295506D01*
X449670Y295432D01*
X449716Y295356D01*
X449758Y295278D01*
X449798Y295198D01*
X449834Y295117D01*
X449867Y295034D01*
X449896Y294950D01*
X446777Y293483D02*
X446721Y293539D01*
X446667Y293598D01*
X446616Y293659D01*
X446567Y293723D01*
X446522Y293788D01*
X446479Y293856D01*
X446440Y293925D01*
X446403Y293996D01*
X446370Y294069D01*
X446341Y294143D01*
X446314Y294218D01*
X446291Y294294D01*
X446272Y294372D01*
X446256Y294450D01*
X446243Y294528D01*
X446234Y294608D01*
X446229Y294687D01*
X446227Y294767D01*
X446778Y293483D02*
X449896Y289814D01*
X446227Y289814D01*
X442581Y291282D02*
X441113Y296418D01*
X442581Y291282D02*
X438912Y291282D01*
X440013Y292749D02*
X440013Y289814D01*
X389790Y316484D02*
X388322Y316484D01*
X389790Y316484D02*
X389864Y316486D01*
X389939Y316492D01*
X390012Y316501D01*
X390086Y316514D01*
X390158Y316531D01*
X390229Y316551D01*
X390300Y316575D01*
X390369Y316603D01*
X390437Y316634D01*
X390502Y316668D01*
X390567Y316706D01*
X390629Y316747D01*
X390689Y316791D01*
X390746Y316838D01*
X390801Y316888D01*
X390854Y316941D01*
X390904Y316996D01*
X390951Y317053D01*
X390995Y317113D01*
X391036Y317175D01*
X391074Y317240D01*
X391108Y317306D01*
X391139Y317373D01*
X391167Y317442D01*
X391191Y317513D01*
X391211Y317584D01*
X391228Y317657D01*
X391241Y317730D01*
X391250Y317804D01*
X391256Y317878D01*
X391258Y317952D01*
X391258Y321620D01*
X391256Y321694D01*
X391250Y321769D01*
X391241Y321842D01*
X391228Y321915D01*
X391211Y321988D01*
X391191Y322059D01*
X391167Y322130D01*
X391139Y322199D01*
X391108Y322266D01*
X391074Y322332D01*
X391036Y322397D01*
X390995Y322459D01*
X390951Y322519D01*
X390904Y322576D01*
X390854Y322631D01*
X390801Y322684D01*
X390746Y322734D01*
X390689Y322781D01*
X390629Y322825D01*
X390567Y322866D01*
X390502Y322904D01*
X390437Y322938D01*
X390369Y322969D01*
X390300Y322997D01*
X390230Y323021D01*
X390158Y323041D01*
X390086Y323058D01*
X390012Y323071D01*
X389939Y323080D01*
X389864Y323086D01*
X389790Y323088D01*
X388322Y323088D01*
X383108Y323088D02*
X383029Y323086D01*
X382951Y323081D01*
X382873Y323071D01*
X382796Y323058D01*
X382719Y323041D01*
X382643Y323021D01*
X382568Y322997D01*
X382494Y322970D01*
X382422Y322939D01*
X382351Y322904D01*
X382283Y322867D01*
X382215Y322826D01*
X382150Y322782D01*
X382087Y322735D01*
X382027Y322685D01*
X381969Y322632D01*
X381913Y322576D01*
X381860Y322518D01*
X381810Y322458D01*
X381763Y322395D01*
X381719Y322330D01*
X381678Y322263D01*
X381641Y322194D01*
X381606Y322123D01*
X381575Y322051D01*
X381548Y321977D01*
X381524Y321902D01*
X381504Y321826D01*
X381487Y321749D01*
X381474Y321672D01*
X381464Y321594D01*
X381459Y321516D01*
X381457Y321437D01*
X383108Y323088D02*
X383197Y323086D01*
X383286Y323081D01*
X383374Y323071D01*
X383462Y323058D01*
X383549Y323042D01*
X383636Y323021D01*
X383721Y322997D01*
X383806Y322970D01*
X383889Y322939D01*
X383971Y322904D01*
X384052Y322866D01*
X384131Y322825D01*
X384207Y322781D01*
X384283Y322733D01*
X384356Y322682D01*
X384426Y322629D01*
X384495Y322572D01*
X384561Y322512D01*
X384624Y322450D01*
X384685Y322385D01*
X384743Y322318D01*
X384798Y322248D01*
X384851Y322176D01*
X384900Y322102D01*
X384946Y322026D01*
X384988Y321948D01*
X385028Y321868D01*
X385064Y321787D01*
X385097Y321704D01*
X385126Y321620D01*
X382007Y320153D02*
X381951Y320209D01*
X381897Y320268D01*
X381846Y320329D01*
X381797Y320393D01*
X381752Y320458D01*
X381709Y320526D01*
X381670Y320595D01*
X381633Y320666D01*
X381600Y320739D01*
X381571Y320813D01*
X381544Y320888D01*
X381521Y320964D01*
X381502Y321042D01*
X381486Y321120D01*
X381473Y321198D01*
X381464Y321278D01*
X381459Y321357D01*
X381457Y321437D01*
X382008Y320153D02*
X385126Y316484D01*
X381457Y316484D01*
X377811Y316484D02*
X375610Y316484D01*
X375536Y316486D01*
X375461Y316492D01*
X375388Y316501D01*
X375314Y316514D01*
X375242Y316531D01*
X375171Y316551D01*
X375100Y316575D01*
X375031Y316603D01*
X374964Y316634D01*
X374898Y316668D01*
X374833Y316706D01*
X374771Y316747D01*
X374711Y316791D01*
X374654Y316838D01*
X374599Y316888D01*
X374546Y316941D01*
X374496Y316996D01*
X374449Y317053D01*
X374405Y317113D01*
X374364Y317175D01*
X374326Y317240D01*
X374292Y317305D01*
X374261Y317373D01*
X374233Y317442D01*
X374209Y317513D01*
X374189Y317584D01*
X374172Y317656D01*
X374159Y317730D01*
X374150Y317803D01*
X374144Y317878D01*
X374142Y317952D01*
X374142Y318685D01*
X374144Y318759D01*
X374150Y318834D01*
X374159Y318907D01*
X374172Y318981D01*
X374189Y319053D01*
X374209Y319124D01*
X374233Y319195D01*
X374261Y319264D01*
X374292Y319331D01*
X374326Y319397D01*
X374364Y319462D01*
X374405Y319524D01*
X374449Y319584D01*
X374496Y319641D01*
X374546Y319696D01*
X374599Y319749D01*
X374654Y319799D01*
X374711Y319846D01*
X374771Y319890D01*
X374833Y319931D01*
X374898Y319969D01*
X374964Y320003D01*
X375031Y320034D01*
X375100Y320062D01*
X375171Y320086D01*
X375242Y320106D01*
X375314Y320123D01*
X375388Y320136D01*
X375461Y320145D01*
X375536Y320151D01*
X375610Y320153D01*
X377811Y320153D01*
X377811Y323088D01*
X374142Y323088D01*
X336042Y35814D02*
X336042Y25146D01*
X355346Y25146D02*
X355346Y35814D01*
D11*
X357681Y21971D02*
X355692Y19981D01*
X357681Y17992D01*
D10*
X352100Y5334D02*
X350633Y5334D01*
X352100Y5334D02*
X352174Y5336D01*
X352249Y5342D01*
X352322Y5351D01*
X352396Y5364D01*
X352468Y5381D01*
X352539Y5401D01*
X352610Y5425D01*
X352679Y5453D01*
X352747Y5484D01*
X352812Y5518D01*
X352877Y5556D01*
X352939Y5597D01*
X352999Y5641D01*
X353056Y5688D01*
X353111Y5738D01*
X353164Y5791D01*
X353214Y5846D01*
X353261Y5903D01*
X353305Y5963D01*
X353346Y6025D01*
X353384Y6090D01*
X353418Y6156D01*
X353449Y6223D01*
X353477Y6292D01*
X353501Y6363D01*
X353521Y6434D01*
X353538Y6507D01*
X353551Y6580D01*
X353560Y6654D01*
X353566Y6728D01*
X353568Y6802D01*
X353568Y10470D01*
X353566Y10544D01*
X353560Y10619D01*
X353551Y10692D01*
X353538Y10765D01*
X353521Y10838D01*
X353501Y10909D01*
X353477Y10980D01*
X353449Y11049D01*
X353418Y11116D01*
X353384Y11182D01*
X353346Y11247D01*
X353305Y11309D01*
X353261Y11369D01*
X353214Y11426D01*
X353164Y11481D01*
X353111Y11534D01*
X353056Y11584D01*
X352999Y11631D01*
X352939Y11675D01*
X352877Y11716D01*
X352812Y11754D01*
X352747Y11788D01*
X352679Y11819D01*
X352610Y11847D01*
X352540Y11871D01*
X352468Y11891D01*
X352396Y11908D01*
X352322Y11921D01*
X352249Y11930D01*
X352174Y11936D01*
X352100Y11938D01*
X350633Y11938D01*
X347114Y11938D02*
X347114Y5334D01*
X347114Y11938D02*
X345279Y11938D01*
X345194Y11936D01*
X345110Y11930D01*
X345026Y11920D01*
X344942Y11907D01*
X344859Y11889D01*
X344777Y11868D01*
X344696Y11843D01*
X344616Y11814D01*
X344538Y11782D01*
X344462Y11746D01*
X344387Y11706D01*
X344314Y11663D01*
X344243Y11617D01*
X344174Y11568D01*
X344107Y11515D01*
X344043Y11459D01*
X343982Y11401D01*
X343924Y11340D01*
X343868Y11276D01*
X343815Y11209D01*
X343766Y11140D01*
X343720Y11069D01*
X343677Y10996D01*
X343637Y10921D01*
X343601Y10845D01*
X343569Y10767D01*
X343540Y10687D01*
X343515Y10606D01*
X343494Y10524D01*
X343476Y10441D01*
X343463Y10357D01*
X343453Y10273D01*
X343447Y10189D01*
X343445Y10104D01*
X343447Y10019D01*
X343453Y9935D01*
X343463Y9851D01*
X343476Y9767D01*
X343494Y9684D01*
X343515Y9602D01*
X343540Y9521D01*
X343569Y9441D01*
X343601Y9363D01*
X343637Y9287D01*
X343677Y9212D01*
X343720Y9139D01*
X343766Y9068D01*
X343815Y8999D01*
X343868Y8932D01*
X343924Y8868D01*
X343982Y8807D01*
X344043Y8749D01*
X344107Y8693D01*
X344174Y8640D01*
X344243Y8591D01*
X344314Y8545D01*
X344387Y8502D01*
X344462Y8462D01*
X344538Y8426D01*
X344616Y8394D01*
X344696Y8365D01*
X344777Y8340D01*
X344859Y8319D01*
X344942Y8301D01*
X345026Y8288D01*
X345110Y8278D01*
X345194Y8272D01*
X345279Y8270D01*
X345279Y8269D02*
X347114Y8269D01*
X344913Y8269D02*
X343445Y5334D01*
X339877Y10470D02*
X338043Y11938D01*
X338043Y5334D01*
X339877Y5334D02*
X336209Y5334D01*
M02*
