G04 EAGLE Gerber RS-274X export*
G75*
%MOMM*%
%FSLAX34Y34*%
%LPD*%
%INSoldermask Top*%
%IPPOS*%
%AMOC8*
5,1,8,0,0,1.08239X$1,22.5*%
G01*
%ADD10C,3.200400*%
%ADD11C,1.600200*%
%ADD12R,2.438400X1.676400*%
%ADD13C,1.930400*%
%ADD14P,2.089446X8X112.500000*%
%ADD15C,1.676400*%

G36*
X342939Y13830D02*
X342939Y13830D01*
X343042Y13832D01*
X343061Y13839D01*
X343081Y13841D01*
X343176Y13881D01*
X343273Y13917D01*
X343289Y13929D01*
X343307Y13937D01*
X343438Y14042D01*
X348826Y19430D01*
X348842Y19451D01*
X348877Y19485D01*
X349824Y20640D01*
X349836Y20661D01*
X349907Y20764D01*
X350611Y22082D01*
X350619Y22104D01*
X350668Y22219D01*
X351102Y23649D01*
X351105Y23673D01*
X351131Y23795D01*
X351278Y25282D01*
X351276Y25306D01*
X351278Y25431D01*
X351131Y26918D01*
X351125Y26941D01*
X351102Y27064D01*
X350668Y28494D01*
X350658Y28515D01*
X350647Y28543D01*
X350643Y28563D01*
X350632Y28581D01*
X350611Y28631D01*
X349907Y29949D01*
X349893Y29968D01*
X349824Y30073D01*
X348877Y31228D01*
X348859Y31243D01*
X348771Y31333D01*
X347616Y32281D01*
X347596Y32293D01*
X347492Y32364D01*
X346175Y33068D01*
X346152Y33076D01*
X346037Y33125D01*
X344608Y33559D01*
X344584Y33562D01*
X344461Y33588D01*
X342975Y33734D01*
X342951Y33733D01*
X342825Y33734D01*
X341339Y33588D01*
X341316Y33581D01*
X341192Y33559D01*
X339763Y33125D01*
X339742Y33114D01*
X339625Y33068D01*
X338308Y32364D01*
X338289Y32349D01*
X338184Y32281D01*
X337029Y31333D01*
X337013Y31315D01*
X336923Y31228D01*
X335976Y30073D01*
X335964Y30052D01*
X335893Y29949D01*
X335189Y28631D01*
X335181Y28609D01*
X335132Y28494D01*
X334698Y27064D01*
X334695Y27040D01*
X334669Y26918D01*
X334522Y25431D01*
X334524Y25407D01*
X334522Y25282D01*
X334669Y23795D01*
X334675Y23772D01*
X334698Y23649D01*
X335132Y22220D01*
X335142Y22198D01*
X335189Y22082D01*
X335893Y20764D01*
X335907Y20745D01*
X335976Y20640D01*
X336923Y19485D01*
X336943Y19468D01*
X336974Y19430D01*
X342362Y14042D01*
X342378Y14030D01*
X342390Y14015D01*
X342478Y13959D01*
X342561Y13898D01*
X342580Y13893D01*
X342597Y13882D01*
X342698Y13856D01*
X342797Y13826D01*
X342816Y13827D01*
X342836Y13822D01*
X342939Y13830D01*
G37*
G36*
X393739Y13830D02*
X393739Y13830D01*
X393842Y13832D01*
X393861Y13839D01*
X393881Y13841D01*
X393976Y13881D01*
X394073Y13917D01*
X394089Y13929D01*
X394107Y13937D01*
X394238Y14042D01*
X399626Y19430D01*
X399642Y19451D01*
X399677Y19485D01*
X400624Y20640D01*
X400636Y20661D01*
X400707Y20764D01*
X401411Y22082D01*
X401419Y22104D01*
X401468Y22219D01*
X401902Y23649D01*
X401905Y23673D01*
X401931Y23795D01*
X402078Y25282D01*
X402076Y25306D01*
X402078Y25431D01*
X401931Y26918D01*
X401925Y26941D01*
X401902Y27064D01*
X401468Y28494D01*
X401458Y28515D01*
X401447Y28543D01*
X401443Y28563D01*
X401432Y28581D01*
X401411Y28631D01*
X400707Y29949D01*
X400693Y29968D01*
X400624Y30073D01*
X399677Y31228D01*
X399659Y31243D01*
X399571Y31333D01*
X398416Y32281D01*
X398396Y32293D01*
X398292Y32364D01*
X396975Y33068D01*
X396952Y33076D01*
X396837Y33125D01*
X395408Y33559D01*
X395384Y33562D01*
X395261Y33588D01*
X393775Y33734D01*
X393751Y33733D01*
X393625Y33734D01*
X392139Y33588D01*
X392116Y33581D01*
X391992Y33559D01*
X390563Y33125D01*
X390542Y33114D01*
X390425Y33068D01*
X389108Y32364D01*
X389089Y32349D01*
X388984Y32281D01*
X387829Y31333D01*
X387813Y31315D01*
X387723Y31228D01*
X386776Y30073D01*
X386764Y30052D01*
X386693Y29949D01*
X385989Y28631D01*
X385981Y28609D01*
X385932Y28494D01*
X385498Y27064D01*
X385495Y27040D01*
X385469Y26918D01*
X385322Y25431D01*
X385324Y25407D01*
X385322Y25282D01*
X385469Y23795D01*
X385475Y23772D01*
X385498Y23649D01*
X385932Y22220D01*
X385942Y22198D01*
X385989Y22082D01*
X386693Y20764D01*
X386707Y20745D01*
X386776Y20640D01*
X387723Y19485D01*
X387743Y19468D01*
X387774Y19430D01*
X393162Y14042D01*
X393178Y14030D01*
X393190Y14015D01*
X393278Y13959D01*
X393361Y13898D01*
X393380Y13893D01*
X393397Y13882D01*
X393498Y13856D01*
X393597Y13826D01*
X393616Y13827D01*
X393636Y13822D01*
X393739Y13830D01*
G37*
G36*
X368339Y13830D02*
X368339Y13830D01*
X368442Y13832D01*
X368461Y13839D01*
X368481Y13841D01*
X368576Y13881D01*
X368673Y13917D01*
X368689Y13929D01*
X368707Y13937D01*
X368838Y14042D01*
X374226Y19430D01*
X374242Y19451D01*
X374277Y19485D01*
X375224Y20640D01*
X375236Y20661D01*
X375307Y20764D01*
X376011Y22082D01*
X376019Y22104D01*
X376068Y22219D01*
X376502Y23649D01*
X376505Y23673D01*
X376531Y23795D01*
X376678Y25282D01*
X376676Y25306D01*
X376678Y25431D01*
X376531Y26918D01*
X376525Y26941D01*
X376502Y27064D01*
X376068Y28494D01*
X376058Y28515D01*
X376047Y28543D01*
X376043Y28563D01*
X376032Y28581D01*
X376011Y28631D01*
X375307Y29949D01*
X375293Y29968D01*
X375224Y30073D01*
X374277Y31228D01*
X374259Y31243D01*
X374171Y31333D01*
X373016Y32281D01*
X372996Y32293D01*
X372892Y32364D01*
X371575Y33068D01*
X371552Y33076D01*
X371437Y33125D01*
X370008Y33559D01*
X369984Y33562D01*
X369861Y33588D01*
X368375Y33734D01*
X368351Y33733D01*
X368225Y33734D01*
X366739Y33588D01*
X366716Y33581D01*
X366592Y33559D01*
X365163Y33125D01*
X365142Y33114D01*
X365025Y33068D01*
X363708Y32364D01*
X363689Y32349D01*
X363584Y32281D01*
X362429Y31333D01*
X362413Y31315D01*
X362323Y31228D01*
X361376Y30073D01*
X361364Y30052D01*
X361293Y29949D01*
X360589Y28631D01*
X360581Y28609D01*
X360532Y28494D01*
X360098Y27064D01*
X360095Y27040D01*
X360069Y26918D01*
X359922Y25431D01*
X359924Y25407D01*
X359922Y25282D01*
X360069Y23795D01*
X360075Y23772D01*
X360098Y23649D01*
X360532Y22220D01*
X360542Y22198D01*
X360589Y22082D01*
X361293Y20764D01*
X361307Y20745D01*
X361376Y20640D01*
X362323Y19485D01*
X362343Y19468D01*
X362374Y19430D01*
X367762Y14042D01*
X367778Y14030D01*
X367790Y14015D01*
X367878Y13959D01*
X367961Y13898D01*
X367980Y13893D01*
X367997Y13882D01*
X368098Y13856D01*
X368197Y13826D01*
X368216Y13827D01*
X368236Y13822D01*
X368339Y13830D01*
G37*
G36*
X495339Y13830D02*
X495339Y13830D01*
X495442Y13832D01*
X495461Y13839D01*
X495481Y13841D01*
X495576Y13881D01*
X495673Y13917D01*
X495689Y13929D01*
X495707Y13937D01*
X495838Y14042D01*
X501226Y19430D01*
X501242Y19451D01*
X501277Y19485D01*
X502224Y20640D01*
X502236Y20661D01*
X502307Y20764D01*
X503011Y22082D01*
X503019Y22104D01*
X503068Y22219D01*
X503502Y23649D01*
X503505Y23673D01*
X503531Y23795D01*
X503678Y25282D01*
X503676Y25306D01*
X503678Y25431D01*
X503531Y26918D01*
X503525Y26941D01*
X503502Y27064D01*
X503068Y28494D01*
X503058Y28515D01*
X503047Y28543D01*
X503043Y28563D01*
X503032Y28581D01*
X503011Y28631D01*
X502307Y29949D01*
X502293Y29968D01*
X502224Y30073D01*
X501277Y31228D01*
X501259Y31243D01*
X501171Y31333D01*
X500016Y32281D01*
X499996Y32293D01*
X499892Y32364D01*
X498575Y33068D01*
X498552Y33076D01*
X498437Y33125D01*
X497008Y33559D01*
X496984Y33562D01*
X496861Y33588D01*
X495375Y33734D01*
X495351Y33733D01*
X495225Y33734D01*
X493739Y33588D01*
X493716Y33581D01*
X493592Y33559D01*
X492163Y33125D01*
X492142Y33114D01*
X492025Y33068D01*
X490708Y32364D01*
X490689Y32349D01*
X490584Y32281D01*
X489429Y31333D01*
X489413Y31315D01*
X489323Y31228D01*
X488376Y30073D01*
X488364Y30052D01*
X488293Y29949D01*
X487589Y28631D01*
X487581Y28609D01*
X487532Y28494D01*
X487098Y27064D01*
X487095Y27040D01*
X487069Y26918D01*
X486922Y25431D01*
X486924Y25407D01*
X486922Y25282D01*
X487069Y23795D01*
X487075Y23772D01*
X487098Y23649D01*
X487532Y22220D01*
X487542Y22198D01*
X487589Y22082D01*
X488293Y20764D01*
X488307Y20745D01*
X488376Y20640D01*
X489323Y19485D01*
X489343Y19468D01*
X489374Y19430D01*
X494762Y14042D01*
X494778Y14030D01*
X494790Y14015D01*
X494878Y13959D01*
X494961Y13898D01*
X494980Y13893D01*
X494997Y13882D01*
X495098Y13856D01*
X495197Y13826D01*
X495216Y13827D01*
X495236Y13822D01*
X495339Y13830D01*
G37*
G36*
X419139Y13830D02*
X419139Y13830D01*
X419242Y13832D01*
X419261Y13839D01*
X419281Y13841D01*
X419376Y13881D01*
X419473Y13917D01*
X419489Y13929D01*
X419507Y13937D01*
X419638Y14042D01*
X425026Y19430D01*
X425042Y19451D01*
X425077Y19485D01*
X426024Y20640D01*
X426036Y20661D01*
X426107Y20764D01*
X426811Y22082D01*
X426819Y22104D01*
X426868Y22219D01*
X427302Y23649D01*
X427305Y23673D01*
X427331Y23795D01*
X427478Y25282D01*
X427476Y25306D01*
X427478Y25431D01*
X427331Y26918D01*
X427325Y26941D01*
X427302Y27064D01*
X426868Y28494D01*
X426858Y28515D01*
X426847Y28543D01*
X426843Y28563D01*
X426832Y28581D01*
X426811Y28631D01*
X426107Y29949D01*
X426093Y29968D01*
X426024Y30073D01*
X425077Y31228D01*
X425059Y31243D01*
X424971Y31333D01*
X423816Y32281D01*
X423796Y32293D01*
X423692Y32364D01*
X422375Y33068D01*
X422352Y33076D01*
X422237Y33125D01*
X420808Y33559D01*
X420784Y33562D01*
X420661Y33588D01*
X419175Y33734D01*
X419151Y33733D01*
X419025Y33734D01*
X417539Y33588D01*
X417516Y33581D01*
X417392Y33559D01*
X415963Y33125D01*
X415942Y33114D01*
X415825Y33068D01*
X414508Y32364D01*
X414489Y32349D01*
X414384Y32281D01*
X413229Y31333D01*
X413213Y31315D01*
X413123Y31228D01*
X412176Y30073D01*
X412164Y30052D01*
X412093Y29949D01*
X411389Y28631D01*
X411381Y28609D01*
X411332Y28494D01*
X410898Y27064D01*
X410895Y27040D01*
X410869Y26918D01*
X410722Y25431D01*
X410724Y25407D01*
X410722Y25282D01*
X410869Y23795D01*
X410875Y23772D01*
X410898Y23649D01*
X411332Y22220D01*
X411342Y22198D01*
X411389Y22082D01*
X412093Y20764D01*
X412107Y20745D01*
X412176Y20640D01*
X413123Y19485D01*
X413143Y19468D01*
X413174Y19430D01*
X418562Y14042D01*
X418578Y14030D01*
X418590Y14015D01*
X418678Y13959D01*
X418761Y13898D01*
X418780Y13893D01*
X418797Y13882D01*
X418898Y13856D01*
X418997Y13826D01*
X419016Y13827D01*
X419036Y13822D01*
X419139Y13830D01*
G37*
G36*
X469939Y13830D02*
X469939Y13830D01*
X470042Y13832D01*
X470061Y13839D01*
X470081Y13841D01*
X470176Y13881D01*
X470273Y13917D01*
X470289Y13929D01*
X470307Y13937D01*
X470438Y14042D01*
X475826Y19430D01*
X475842Y19451D01*
X475877Y19485D01*
X476824Y20640D01*
X476836Y20661D01*
X476907Y20764D01*
X477611Y22082D01*
X477619Y22104D01*
X477668Y22219D01*
X478102Y23649D01*
X478105Y23673D01*
X478131Y23795D01*
X478278Y25282D01*
X478276Y25306D01*
X478278Y25431D01*
X478131Y26918D01*
X478125Y26941D01*
X478102Y27064D01*
X477668Y28494D01*
X477658Y28515D01*
X477647Y28543D01*
X477643Y28563D01*
X477632Y28581D01*
X477611Y28631D01*
X476907Y29949D01*
X476893Y29968D01*
X476824Y30073D01*
X475877Y31228D01*
X475859Y31243D01*
X475771Y31333D01*
X474616Y32281D01*
X474596Y32293D01*
X474492Y32364D01*
X473175Y33068D01*
X473152Y33076D01*
X473037Y33125D01*
X471608Y33559D01*
X471584Y33562D01*
X471461Y33588D01*
X469975Y33734D01*
X469951Y33733D01*
X469825Y33734D01*
X468339Y33588D01*
X468316Y33581D01*
X468192Y33559D01*
X466763Y33125D01*
X466742Y33114D01*
X466625Y33068D01*
X465308Y32364D01*
X465289Y32349D01*
X465184Y32281D01*
X464029Y31333D01*
X464013Y31315D01*
X463923Y31228D01*
X462976Y30073D01*
X462964Y30052D01*
X462893Y29949D01*
X462189Y28631D01*
X462181Y28609D01*
X462132Y28494D01*
X461698Y27064D01*
X461695Y27040D01*
X461669Y26918D01*
X461522Y25431D01*
X461524Y25407D01*
X461522Y25282D01*
X461669Y23795D01*
X461675Y23772D01*
X461698Y23649D01*
X462132Y22220D01*
X462142Y22198D01*
X462189Y22082D01*
X462893Y20764D01*
X462907Y20745D01*
X462976Y20640D01*
X463923Y19485D01*
X463943Y19468D01*
X463974Y19430D01*
X469362Y14042D01*
X469378Y14030D01*
X469390Y14015D01*
X469478Y13959D01*
X469561Y13898D01*
X469580Y13893D01*
X469597Y13882D01*
X469698Y13856D01*
X469797Y13826D01*
X469816Y13827D01*
X469836Y13822D01*
X469939Y13830D01*
G37*
G36*
X444539Y13830D02*
X444539Y13830D01*
X444642Y13832D01*
X444661Y13839D01*
X444681Y13841D01*
X444776Y13881D01*
X444873Y13917D01*
X444889Y13929D01*
X444907Y13937D01*
X445038Y14042D01*
X450426Y19430D01*
X450442Y19451D01*
X450477Y19485D01*
X451424Y20640D01*
X451436Y20661D01*
X451507Y20764D01*
X452211Y22082D01*
X452219Y22104D01*
X452268Y22219D01*
X452702Y23649D01*
X452705Y23673D01*
X452731Y23795D01*
X452878Y25282D01*
X452876Y25306D01*
X452878Y25431D01*
X452731Y26918D01*
X452725Y26941D01*
X452702Y27064D01*
X452268Y28494D01*
X452258Y28515D01*
X452247Y28543D01*
X452243Y28563D01*
X452232Y28581D01*
X452211Y28631D01*
X451507Y29949D01*
X451493Y29968D01*
X451424Y30073D01*
X450477Y31228D01*
X450459Y31243D01*
X450371Y31333D01*
X449216Y32281D01*
X449196Y32293D01*
X449092Y32364D01*
X447775Y33068D01*
X447752Y33076D01*
X447637Y33125D01*
X446208Y33559D01*
X446184Y33562D01*
X446061Y33588D01*
X444575Y33734D01*
X444551Y33733D01*
X444425Y33734D01*
X442939Y33588D01*
X442916Y33581D01*
X442792Y33559D01*
X441363Y33125D01*
X441342Y33114D01*
X441225Y33068D01*
X439908Y32364D01*
X439889Y32349D01*
X439784Y32281D01*
X438629Y31333D01*
X438613Y31315D01*
X438523Y31228D01*
X437576Y30073D01*
X437564Y30052D01*
X437493Y29949D01*
X436789Y28631D01*
X436781Y28609D01*
X436732Y28494D01*
X436298Y27064D01*
X436295Y27040D01*
X436269Y26918D01*
X436122Y25431D01*
X436124Y25407D01*
X436122Y25282D01*
X436269Y23795D01*
X436275Y23772D01*
X436298Y23649D01*
X436732Y22220D01*
X436742Y22198D01*
X436789Y22082D01*
X437493Y20764D01*
X437507Y20745D01*
X437576Y20640D01*
X438523Y19485D01*
X438543Y19468D01*
X438574Y19430D01*
X443962Y14042D01*
X443978Y14030D01*
X443990Y14015D01*
X444078Y13959D01*
X444161Y13898D01*
X444180Y13893D01*
X444197Y13882D01*
X444298Y13856D01*
X444397Y13826D01*
X444416Y13827D01*
X444436Y13822D01*
X444539Y13830D01*
G37*
G36*
X546139Y13830D02*
X546139Y13830D01*
X546242Y13832D01*
X546261Y13839D01*
X546281Y13841D01*
X546376Y13881D01*
X546473Y13917D01*
X546489Y13929D01*
X546507Y13937D01*
X546638Y14042D01*
X552026Y19430D01*
X552042Y19451D01*
X552077Y19485D01*
X553024Y20640D01*
X553036Y20661D01*
X553107Y20764D01*
X553811Y22082D01*
X553819Y22104D01*
X553868Y22219D01*
X554302Y23649D01*
X554305Y23673D01*
X554331Y23795D01*
X554478Y25282D01*
X554476Y25306D01*
X554478Y25431D01*
X554331Y26918D01*
X554325Y26941D01*
X554302Y27064D01*
X553868Y28494D01*
X553858Y28515D01*
X553847Y28543D01*
X553843Y28563D01*
X553832Y28581D01*
X553811Y28631D01*
X553107Y29949D01*
X553093Y29968D01*
X553024Y30073D01*
X552077Y31228D01*
X552059Y31243D01*
X551971Y31333D01*
X550816Y32281D01*
X550796Y32293D01*
X550692Y32364D01*
X549375Y33068D01*
X549352Y33076D01*
X549237Y33125D01*
X547808Y33559D01*
X547784Y33562D01*
X547661Y33588D01*
X546175Y33734D01*
X546151Y33733D01*
X546025Y33734D01*
X544539Y33588D01*
X544516Y33581D01*
X544392Y33559D01*
X542963Y33125D01*
X542942Y33114D01*
X542825Y33068D01*
X541508Y32364D01*
X541489Y32349D01*
X541384Y32281D01*
X540229Y31333D01*
X540213Y31315D01*
X540123Y31228D01*
X539176Y30073D01*
X539164Y30052D01*
X539093Y29949D01*
X538389Y28631D01*
X538381Y28609D01*
X538332Y28494D01*
X537898Y27064D01*
X537895Y27040D01*
X537869Y26918D01*
X537722Y25431D01*
X537724Y25407D01*
X537722Y25282D01*
X537869Y23795D01*
X537875Y23772D01*
X537898Y23649D01*
X538332Y22220D01*
X538342Y22198D01*
X538389Y22082D01*
X539093Y20764D01*
X539107Y20745D01*
X539176Y20640D01*
X540123Y19485D01*
X540143Y19468D01*
X540174Y19430D01*
X545562Y14042D01*
X545578Y14030D01*
X545590Y14015D01*
X545678Y13959D01*
X545761Y13898D01*
X545780Y13893D01*
X545797Y13882D01*
X545898Y13856D01*
X545997Y13826D01*
X546016Y13827D01*
X546036Y13822D01*
X546139Y13830D01*
G37*
G36*
X520739Y13830D02*
X520739Y13830D01*
X520842Y13832D01*
X520861Y13839D01*
X520881Y13841D01*
X520976Y13881D01*
X521073Y13917D01*
X521089Y13929D01*
X521107Y13937D01*
X521238Y14042D01*
X526626Y19430D01*
X526642Y19451D01*
X526677Y19485D01*
X527624Y20640D01*
X527636Y20661D01*
X527707Y20764D01*
X528411Y22082D01*
X528419Y22104D01*
X528468Y22219D01*
X528902Y23649D01*
X528905Y23673D01*
X528931Y23795D01*
X529078Y25282D01*
X529076Y25306D01*
X529078Y25431D01*
X528931Y26918D01*
X528925Y26941D01*
X528902Y27064D01*
X528468Y28494D01*
X528458Y28515D01*
X528447Y28543D01*
X528443Y28563D01*
X528432Y28581D01*
X528411Y28631D01*
X527707Y29949D01*
X527693Y29968D01*
X527624Y30073D01*
X526677Y31228D01*
X526659Y31243D01*
X526571Y31333D01*
X525416Y32281D01*
X525396Y32293D01*
X525292Y32364D01*
X523975Y33068D01*
X523952Y33076D01*
X523837Y33125D01*
X522408Y33559D01*
X522384Y33562D01*
X522261Y33588D01*
X520775Y33734D01*
X520751Y33733D01*
X520625Y33734D01*
X519139Y33588D01*
X519116Y33581D01*
X518992Y33559D01*
X517563Y33125D01*
X517542Y33114D01*
X517425Y33068D01*
X516108Y32364D01*
X516089Y32349D01*
X515984Y32281D01*
X514829Y31333D01*
X514813Y31315D01*
X514723Y31228D01*
X513776Y30073D01*
X513764Y30052D01*
X513693Y29949D01*
X512989Y28631D01*
X512981Y28609D01*
X512932Y28494D01*
X512498Y27064D01*
X512495Y27040D01*
X512469Y26918D01*
X512322Y25431D01*
X512324Y25407D01*
X512322Y25282D01*
X512469Y23795D01*
X512475Y23772D01*
X512498Y23649D01*
X512932Y22220D01*
X512942Y22198D01*
X512989Y22082D01*
X513693Y20764D01*
X513707Y20745D01*
X513776Y20640D01*
X514723Y19485D01*
X514743Y19468D01*
X514774Y19430D01*
X520162Y14042D01*
X520178Y14030D01*
X520190Y14015D01*
X520278Y13959D01*
X520361Y13898D01*
X520380Y13893D01*
X520397Y13882D01*
X520498Y13856D01*
X520597Y13826D01*
X520616Y13827D01*
X520636Y13822D01*
X520739Y13830D01*
G37*
D10*
X317500Y279400D03*
X38100Y88900D03*
X635000Y241300D03*
D11*
X201422Y40386D03*
X151638Y40386D03*
D12*
X102362Y190500D03*
X102362Y165100D03*
X102362Y139700D03*
X11938Y190500D03*
X11938Y165100D03*
X11938Y139700D03*
X570738Y139700D03*
X570738Y165100D03*
X570738Y190500D03*
X661162Y139700D03*
X661162Y165100D03*
X661162Y190500D03*
D13*
X508000Y45160D03*
X482600Y45160D03*
X457200Y45160D03*
D14*
X408940Y311150D03*
X434340Y311150D03*
X459740Y311150D03*
X485140Y311150D03*
X510540Y311150D03*
X535940Y311150D03*
X561340Y311150D03*
X586740Y311150D03*
X612140Y311150D03*
X637540Y311150D03*
D15*
X198120Y311150D03*
X172720Y311150D03*
X147320Y311150D03*
M02*
