G04 EAGLE Gerber RS-274X export*
G75*
%MOMM*%
%FSLAX34Y34*%
%LPD*%
%INSoldermask Top*%
%IPPOS*%
%AMOC8*
5,1,8,0,0,1.08239X$1,22.5*%
G01*
%ADD10C,3.200400*%
%ADD11R,2.438400X1.676400*%
%ADD12C,1.676400*%

G36*
X495339Y13830D02*
X495339Y13830D01*
X495442Y13832D01*
X495461Y13839D01*
X495481Y13841D01*
X495576Y13881D01*
X495673Y13917D01*
X495689Y13929D01*
X495707Y13937D01*
X495838Y14042D01*
X501226Y19430D01*
X501242Y19451D01*
X501277Y19485D01*
X502224Y20640D01*
X502236Y20661D01*
X502307Y20764D01*
X503011Y22082D01*
X503019Y22104D01*
X503068Y22219D01*
X503502Y23649D01*
X503505Y23673D01*
X503531Y23795D01*
X503678Y25282D01*
X503676Y25306D01*
X503678Y25431D01*
X503531Y26918D01*
X503525Y26941D01*
X503502Y27064D01*
X503068Y28494D01*
X503058Y28515D01*
X503047Y28543D01*
X503043Y28563D01*
X503032Y28581D01*
X503011Y28631D01*
X502307Y29949D01*
X502293Y29968D01*
X502224Y30073D01*
X501277Y31228D01*
X501259Y31243D01*
X501171Y31333D01*
X500016Y32281D01*
X499996Y32293D01*
X499892Y32364D01*
X498575Y33068D01*
X498552Y33076D01*
X498437Y33125D01*
X497008Y33559D01*
X496984Y33562D01*
X496861Y33588D01*
X495375Y33734D01*
X495351Y33733D01*
X495225Y33734D01*
X493739Y33588D01*
X493716Y33581D01*
X493592Y33559D01*
X492163Y33125D01*
X492142Y33114D01*
X492025Y33068D01*
X490708Y32364D01*
X490689Y32349D01*
X490584Y32281D01*
X489429Y31333D01*
X489413Y31315D01*
X489323Y31228D01*
X488376Y30073D01*
X488364Y30052D01*
X488293Y29949D01*
X487589Y28631D01*
X487581Y28609D01*
X487532Y28494D01*
X487098Y27064D01*
X487095Y27040D01*
X487069Y26918D01*
X486922Y25431D01*
X486924Y25407D01*
X486922Y25282D01*
X487069Y23795D01*
X487075Y23772D01*
X487098Y23649D01*
X487532Y22220D01*
X487542Y22198D01*
X487589Y22082D01*
X488293Y20764D01*
X488307Y20745D01*
X488376Y20640D01*
X489323Y19485D01*
X489343Y19468D01*
X489374Y19430D01*
X494762Y14042D01*
X494778Y14030D01*
X494790Y14015D01*
X494878Y13959D01*
X494961Y13898D01*
X494980Y13893D01*
X494997Y13882D01*
X495098Y13856D01*
X495197Y13826D01*
X495216Y13827D01*
X495236Y13822D01*
X495339Y13830D01*
G37*
G36*
X393739Y13830D02*
X393739Y13830D01*
X393842Y13832D01*
X393861Y13839D01*
X393881Y13841D01*
X393976Y13881D01*
X394073Y13917D01*
X394089Y13929D01*
X394107Y13937D01*
X394238Y14042D01*
X399626Y19430D01*
X399642Y19451D01*
X399677Y19485D01*
X400624Y20640D01*
X400636Y20661D01*
X400707Y20764D01*
X401411Y22082D01*
X401419Y22104D01*
X401468Y22219D01*
X401902Y23649D01*
X401905Y23673D01*
X401931Y23795D01*
X402078Y25282D01*
X402076Y25306D01*
X402078Y25431D01*
X401931Y26918D01*
X401925Y26941D01*
X401902Y27064D01*
X401468Y28494D01*
X401458Y28515D01*
X401447Y28543D01*
X401443Y28563D01*
X401432Y28581D01*
X401411Y28631D01*
X400707Y29949D01*
X400693Y29968D01*
X400624Y30073D01*
X399677Y31228D01*
X399659Y31243D01*
X399571Y31333D01*
X398416Y32281D01*
X398396Y32293D01*
X398292Y32364D01*
X396975Y33068D01*
X396952Y33076D01*
X396837Y33125D01*
X395408Y33559D01*
X395384Y33562D01*
X395261Y33588D01*
X393775Y33734D01*
X393751Y33733D01*
X393625Y33734D01*
X392139Y33588D01*
X392116Y33581D01*
X391992Y33559D01*
X390563Y33125D01*
X390542Y33114D01*
X390425Y33068D01*
X389108Y32364D01*
X389089Y32349D01*
X388984Y32281D01*
X387829Y31333D01*
X387813Y31315D01*
X387723Y31228D01*
X386776Y30073D01*
X386764Y30052D01*
X386693Y29949D01*
X385989Y28631D01*
X385981Y28609D01*
X385932Y28494D01*
X385498Y27064D01*
X385495Y27040D01*
X385469Y26918D01*
X385322Y25431D01*
X385324Y25407D01*
X385322Y25282D01*
X385469Y23795D01*
X385475Y23772D01*
X385498Y23649D01*
X385932Y22220D01*
X385942Y22198D01*
X385989Y22082D01*
X386693Y20764D01*
X386707Y20745D01*
X386776Y20640D01*
X387723Y19485D01*
X387743Y19468D01*
X387774Y19430D01*
X393162Y14042D01*
X393178Y14030D01*
X393190Y14015D01*
X393278Y13959D01*
X393361Y13898D01*
X393380Y13893D01*
X393397Y13882D01*
X393498Y13856D01*
X393597Y13826D01*
X393616Y13827D01*
X393636Y13822D01*
X393739Y13830D01*
G37*
G36*
X546139Y13830D02*
X546139Y13830D01*
X546242Y13832D01*
X546261Y13839D01*
X546281Y13841D01*
X546376Y13881D01*
X546473Y13917D01*
X546489Y13929D01*
X546507Y13937D01*
X546638Y14042D01*
X552026Y19430D01*
X552042Y19451D01*
X552077Y19485D01*
X553024Y20640D01*
X553036Y20661D01*
X553107Y20764D01*
X553811Y22082D01*
X553819Y22104D01*
X553868Y22219D01*
X554302Y23649D01*
X554305Y23673D01*
X554331Y23795D01*
X554478Y25282D01*
X554476Y25306D01*
X554478Y25431D01*
X554331Y26918D01*
X554325Y26941D01*
X554302Y27064D01*
X553868Y28494D01*
X553858Y28515D01*
X553847Y28543D01*
X553843Y28563D01*
X553832Y28581D01*
X553811Y28631D01*
X553107Y29949D01*
X553093Y29968D01*
X553024Y30073D01*
X552077Y31228D01*
X552059Y31243D01*
X551971Y31333D01*
X550816Y32281D01*
X550796Y32293D01*
X550692Y32364D01*
X549375Y33068D01*
X549352Y33076D01*
X549237Y33125D01*
X547808Y33559D01*
X547784Y33562D01*
X547661Y33588D01*
X546175Y33734D01*
X546151Y33733D01*
X546025Y33734D01*
X544539Y33588D01*
X544516Y33581D01*
X544392Y33559D01*
X542963Y33125D01*
X542942Y33114D01*
X542825Y33068D01*
X541508Y32364D01*
X541489Y32349D01*
X541384Y32281D01*
X540229Y31333D01*
X540213Y31315D01*
X540123Y31228D01*
X539176Y30073D01*
X539164Y30052D01*
X539093Y29949D01*
X538389Y28631D01*
X538381Y28609D01*
X538332Y28494D01*
X537898Y27064D01*
X537895Y27040D01*
X537869Y26918D01*
X537722Y25431D01*
X537724Y25407D01*
X537722Y25282D01*
X537869Y23795D01*
X537875Y23772D01*
X537898Y23649D01*
X538332Y22220D01*
X538342Y22198D01*
X538389Y22082D01*
X539093Y20764D01*
X539107Y20745D01*
X539176Y20640D01*
X540123Y19485D01*
X540143Y19468D01*
X540174Y19430D01*
X545562Y14042D01*
X545578Y14030D01*
X545590Y14015D01*
X545678Y13959D01*
X545761Y13898D01*
X545780Y13893D01*
X545797Y13882D01*
X545898Y13856D01*
X545997Y13826D01*
X546016Y13827D01*
X546036Y13822D01*
X546139Y13830D01*
G37*
G36*
X520739Y13830D02*
X520739Y13830D01*
X520842Y13832D01*
X520861Y13839D01*
X520881Y13841D01*
X520976Y13881D01*
X521073Y13917D01*
X521089Y13929D01*
X521107Y13937D01*
X521238Y14042D01*
X526626Y19430D01*
X526642Y19451D01*
X526677Y19485D01*
X527624Y20640D01*
X527636Y20661D01*
X527707Y20764D01*
X528411Y22082D01*
X528419Y22104D01*
X528468Y22219D01*
X528902Y23649D01*
X528905Y23673D01*
X528931Y23795D01*
X529078Y25282D01*
X529076Y25306D01*
X529078Y25431D01*
X528931Y26918D01*
X528925Y26941D01*
X528902Y27064D01*
X528468Y28494D01*
X528458Y28515D01*
X528447Y28543D01*
X528443Y28563D01*
X528432Y28581D01*
X528411Y28631D01*
X527707Y29949D01*
X527693Y29968D01*
X527624Y30073D01*
X526677Y31228D01*
X526659Y31243D01*
X526571Y31333D01*
X525416Y32281D01*
X525396Y32293D01*
X525292Y32364D01*
X523975Y33068D01*
X523952Y33076D01*
X523837Y33125D01*
X522408Y33559D01*
X522384Y33562D01*
X522261Y33588D01*
X520775Y33734D01*
X520751Y33733D01*
X520625Y33734D01*
X519139Y33588D01*
X519116Y33581D01*
X518992Y33559D01*
X517563Y33125D01*
X517542Y33114D01*
X517425Y33068D01*
X516108Y32364D01*
X516089Y32349D01*
X515984Y32281D01*
X514829Y31333D01*
X514813Y31315D01*
X514723Y31228D01*
X513776Y30073D01*
X513764Y30052D01*
X513693Y29949D01*
X512989Y28631D01*
X512981Y28609D01*
X512932Y28494D01*
X512498Y27064D01*
X512495Y27040D01*
X512469Y26918D01*
X512322Y25431D01*
X512324Y25407D01*
X512322Y25282D01*
X512469Y23795D01*
X512475Y23772D01*
X512498Y23649D01*
X512932Y22220D01*
X512942Y22198D01*
X512989Y22082D01*
X513693Y20764D01*
X513707Y20745D01*
X513776Y20640D01*
X514723Y19485D01*
X514743Y19468D01*
X514774Y19430D01*
X520162Y14042D01*
X520178Y14030D01*
X520190Y14015D01*
X520278Y13959D01*
X520361Y13898D01*
X520380Y13893D01*
X520397Y13882D01*
X520498Y13856D01*
X520597Y13826D01*
X520616Y13827D01*
X520636Y13822D01*
X520739Y13830D01*
G37*
D10*
X317500Y279400D03*
X38100Y88900D03*
X635000Y241300D03*
D11*
X102362Y190500D03*
X102362Y165100D03*
X102362Y139700D03*
X11938Y190500D03*
X11938Y165100D03*
X11938Y139700D03*
X639826Y139700D03*
X639826Y165100D03*
X639826Y190500D03*
D12*
X637540Y311150D03*
X612140Y311150D03*
X586740Y311150D03*
X561340Y311150D03*
M02*
