G04 EAGLE Gerber RS-274X export*
G75*
%MOMM*%
%FSLAX34Y34*%
%LPD*%
%INSoldermask Bottom*%
%IPPOS*%
%AMOC8*
5,1,8,0,0,1.08239X$1,22.5*%
G01*
%ADD10C,3.200400*%
%ADD11R,1.652400X1.152400*%
%ADD12R,1.052400X0.852400*%
%ADD13R,0.965200X0.457200*%
%ADD14R,0.457200X0.965200*%
%ADD15R,2.743200X2.743200*%
%ADD16C,0.152400*%
%ADD17R,0.852400X1.052400*%
%ADD18R,1.552400X1.202400*%
%ADD19R,1.652400X1.452400*%
%ADD20R,0.558800X1.498600*%
%ADD21C,1.600200*%
%ADD22R,1.651000X2.057400*%
%ADD23C,1.346200*%
%ADD24R,1.352906X2.057400*%
%ADD25R,1.003200X1.913600*%
%ADD26R,3.303200X1.913600*%
%ADD27R,0.482600X0.914400*%
%ADD28R,0.752400X1.352400*%
%ADD29C,2.247900*%
%ADD30R,0.914400X2.540000*%


D10*
X317500Y279400D03*
X38100Y88900D03*
X635000Y241300D03*
D11*
X407300Y352300D03*
X407300Y384300D03*
X456300Y384300D03*
X456300Y352300D03*
X216800Y352300D03*
X216800Y384300D03*
X265800Y384300D03*
X265800Y352300D03*
D12*
X387350Y361800D03*
X387350Y374800D03*
X196850Y361800D03*
X196850Y374800D03*
D13*
X600075Y265430D03*
X600075Y260350D03*
X600075Y255270D03*
X600075Y250190D03*
X600075Y245110D03*
X600075Y240030D03*
D14*
X593090Y233045D03*
X588010Y233045D03*
X582930Y233045D03*
X577850Y233045D03*
X572770Y233045D03*
X567690Y233045D03*
D13*
X560705Y240030D03*
X560705Y245110D03*
X560705Y250190D03*
X560705Y255270D03*
X560705Y260350D03*
X560705Y265430D03*
D14*
X567690Y272415D03*
X572770Y272415D03*
X577850Y272415D03*
X582930Y272415D03*
X588010Y272415D03*
X593090Y272415D03*
D15*
X580390Y252730D03*
D16*
X594360Y266700D02*
X594360Y238760D01*
X566420Y238760D01*
X566420Y266700D01*
X594360Y266700D01*
D12*
X298450Y348130D03*
X298450Y335130D03*
D17*
X604370Y280670D03*
X617370Y280670D03*
D18*
X318550Y361050D03*
X318550Y375800D03*
X354550Y375800D03*
X354550Y360800D03*
D19*
X519430Y334400D03*
X519430Y351400D03*
D20*
X571184Y353422D03*
X577684Y353422D03*
X584184Y353422D03*
X590684Y353422D03*
X597184Y353422D03*
D21*
X559308Y353314D03*
X609092Y353314D03*
D22*
X574184Y380422D03*
X594184Y380422D03*
D23*
X619184Y383978D02*
X619184Y376866D01*
X549184Y376866D02*
X549184Y383978D01*
D24*
X555184Y380422D03*
X613175Y380422D03*
D25*
X472300Y309650D03*
X495300Y309650D03*
X518300Y309650D03*
D26*
X495300Y249150D03*
D19*
X494030Y334400D03*
X494030Y351400D03*
D27*
X575390Y323977D03*
X580390Y323977D03*
X585390Y323977D03*
X585390Y303403D03*
X580390Y303403D03*
X575390Y303403D03*
D17*
X599290Y220980D03*
X612290Y220980D03*
X581810Y220980D03*
X568810Y220980D03*
D28*
X586050Y208030D03*
X595050Y208030D03*
X586050Y145030D03*
X595050Y145030D03*
D29*
X368300Y35878D02*
X368300Y14923D01*
X393700Y14923D02*
X393700Y35878D01*
X419100Y35878D02*
X419100Y14923D01*
X444500Y14923D02*
X444500Y35878D01*
X469900Y35878D02*
X469900Y14923D01*
X495300Y14923D02*
X495300Y35878D01*
X520700Y35878D02*
X520700Y14923D01*
X546100Y14923D02*
X546100Y35878D01*
D11*
X26300Y238000D03*
X26300Y270000D03*
X75300Y270000D03*
X75300Y238000D03*
D17*
X37950Y215900D03*
X50950Y215900D03*
D30*
X618490Y74030D03*
X618490Y113030D03*
X605790Y74030D03*
X605790Y113030D03*
X593090Y74030D03*
X593090Y113030D03*
X580390Y74030D03*
X580390Y113030D03*
X567690Y74030D03*
X567690Y113030D03*
D29*
X342900Y35878D02*
X342900Y14923D01*
M02*
