G04 EAGLE Gerber RS-274X export*
G75*
%MOMM*%
%FSLAX34Y34*%
%LPD*%
%INSoldermask Bottom*%
%IPPOS*%
%AMOC8*
5,1,8,0,0,1.08239X$1,22.5*%
G01*
%ADD10C,3.251200*%
%ADD11R,1.703200X1.503200*%
%ADD12R,0.609600X1.549400*%
%ADD13C,1.651000*%
%ADD14R,1.701800X2.108200*%
%ADD15C,1.397000*%
%ADD16R,1.403706X2.108200*%
%ADD17R,1.103200X0.903200*%
%ADD18R,1.016000X0.508000*%
%ADD19R,0.508000X1.016000*%
%ADD20R,2.794000X2.794000*%
%ADD21C,0.152400*%
%ADD22R,1.964400X1.054000*%
%ADD23R,1.964400X3.354000*%
%ADD24R,0.903200X1.103200*%
%ADD25R,1.203200X1.703200*%
%ADD26R,1.403200X0.803200*%
%ADD27R,1.603200X1.253200*%
%ADD28C,1.981200*%
%ADD29P,2.144431X8X112.500000*%
%ADD30R,0.533400X0.965200*%
%ADD31C,1.727200*%


D10*
X317500Y279400D03*
X38100Y88900D03*
X635000Y241300D03*
D11*
X123190Y19440D03*
X123190Y36440D03*
D12*
X189546Y40278D03*
X183046Y40278D03*
X176546Y40278D03*
X170046Y40278D03*
X163546Y40278D03*
D13*
X201422Y40386D03*
X151638Y40386D03*
D14*
X186546Y13278D03*
X166546Y13278D03*
D15*
X141546Y9722D02*
X141546Y16834D01*
X211546Y16834D02*
X211546Y9722D01*
D16*
X205546Y13278D03*
X147555Y13278D03*
D17*
X363982Y18900D03*
X363982Y31900D03*
D18*
X357505Y74930D03*
X357505Y80010D03*
X357505Y85090D03*
X357505Y90170D03*
X357505Y95250D03*
X357505Y100330D03*
D19*
X364490Y107315D03*
X369570Y107315D03*
X374650Y107315D03*
X379730Y107315D03*
X384810Y107315D03*
X389890Y107315D03*
D18*
X396875Y100330D03*
X396875Y95250D03*
X396875Y90170D03*
X396875Y85090D03*
X396875Y80010D03*
X396875Y74930D03*
D19*
X389890Y67945D03*
X384810Y67945D03*
X379730Y67945D03*
X374650Y67945D03*
X369570Y67945D03*
X364490Y67945D03*
D20*
X377190Y87630D03*
D21*
X363220Y73660D02*
X363220Y101600D01*
X391160Y101600D01*
X391160Y73660D01*
X363220Y73660D01*
D22*
X101370Y63640D03*
X101370Y40640D03*
X101370Y17640D03*
D23*
X40870Y40640D03*
D11*
X130556Y61096D03*
X130556Y78096D03*
D24*
X348130Y66040D03*
X335130Y66040D03*
X336700Y95250D03*
X323700Y95250D03*
X336700Y125730D03*
X323700Y125730D03*
D25*
X288800Y75300D03*
X320800Y75300D03*
X320800Y26300D03*
X288800Y26300D03*
X225300Y100700D03*
X257300Y100700D03*
X257300Y51700D03*
X225300Y51700D03*
X161800Y126100D03*
X193800Y126100D03*
X193800Y77100D03*
X161800Y77100D03*
X98300Y151500D03*
X130300Y151500D03*
X130300Y102500D03*
X98300Y102500D03*
X34800Y176900D03*
X66800Y176900D03*
X66800Y127900D03*
X34800Y127900D03*
X34800Y303900D03*
X66800Y303900D03*
X66800Y254900D03*
X34800Y254900D03*
X98300Y278500D03*
X130300Y278500D03*
X130300Y229500D03*
X98300Y229500D03*
X161800Y253100D03*
X193800Y253100D03*
X193800Y204100D03*
X161800Y204100D03*
X225300Y227700D03*
X257300Y227700D03*
X257300Y178700D03*
X225300Y178700D03*
X288800Y202300D03*
X320800Y202300D03*
X320800Y153300D03*
X288800Y153300D03*
X352300Y176900D03*
X384300Y176900D03*
X384300Y127900D03*
X352300Y127900D03*
X415800Y151500D03*
X447800Y151500D03*
X447800Y102500D03*
X415800Y102500D03*
X479300Y126100D03*
X511300Y126100D03*
X511300Y77100D03*
X479300Y77100D03*
X542800Y100700D03*
X574800Y100700D03*
X574800Y51700D03*
X542800Y51700D03*
X606300Y75300D03*
X638300Y75300D03*
X638300Y26300D03*
X606300Y26300D03*
X606300Y202300D03*
X638300Y202300D03*
X638300Y153300D03*
X606300Y153300D03*
X542800Y227700D03*
X574800Y227700D03*
X574800Y178700D03*
X542800Y178700D03*
X479300Y253100D03*
X511300Y253100D03*
X511300Y204100D03*
X479300Y204100D03*
X415800Y278500D03*
X447800Y278500D03*
X447800Y229500D03*
X415800Y229500D03*
X352300Y303900D03*
X384300Y303900D03*
X384300Y254900D03*
X352300Y254900D03*
D26*
X338840Y114990D03*
X338840Y105990D03*
X275840Y114990D03*
X275840Y105990D03*
D27*
X415510Y32650D03*
X415510Y17900D03*
X379510Y17900D03*
X379510Y32900D03*
X584420Y32650D03*
X584420Y17900D03*
X548420Y17900D03*
X548420Y32900D03*
D28*
X508000Y45160D03*
X482600Y45160D03*
X457200Y45160D03*
D17*
X435610Y64620D03*
X435610Y77620D03*
D24*
X289410Y90170D03*
X302410Y90170D03*
X225910Y115570D03*
X238910Y115570D03*
X162410Y140970D03*
X175410Y140970D03*
X98910Y166370D03*
X111910Y166370D03*
X35410Y191770D03*
X48410Y191770D03*
X57300Y318770D03*
X44300Y318770D03*
X98910Y293370D03*
X111910Y293370D03*
X162410Y267970D03*
X175410Y267970D03*
X225910Y242570D03*
X238910Y242570D03*
X289410Y218440D03*
X302410Y218440D03*
X352910Y193040D03*
X365910Y193040D03*
X416410Y167640D03*
X429410Y167640D03*
X479910Y142240D03*
X492910Y142240D03*
X543410Y116840D03*
X556410Y116840D03*
X606910Y91440D03*
X619910Y91440D03*
X606910Y217170D03*
X619910Y217170D03*
X543410Y242570D03*
X556410Y242570D03*
X479910Y267970D03*
X492910Y267970D03*
X416410Y293370D03*
X429410Y293370D03*
X352910Y318770D03*
X365910Y318770D03*
D29*
X408940Y311150D03*
X434340Y311150D03*
X459740Y311150D03*
X485140Y311150D03*
X510540Y311150D03*
X535940Y311150D03*
X561340Y311150D03*
X586740Y311150D03*
X612140Y311150D03*
X637540Y311150D03*
D30*
X350694Y20193D03*
X345694Y20193D03*
X340694Y20193D03*
X340694Y40767D03*
X345694Y40767D03*
X350694Y40767D03*
D31*
X198120Y311150D03*
X172720Y311150D03*
X147320Y311150D03*
M02*
