G04 EAGLE Gerber RS-274X export*
G75*
%MOMM*%
%FSLAX34Y34*%
%LPD*%
%INSolderpaste Bottom*%
%IPPOS*%
%AMOC8*
5,1,8,0,0,1.08239X$1,22.5*%
G01*
%ADD10R,1.500000X1.300000*%
%ADD11R,0.406400X1.346200*%
%ADD12R,1.498600X1.905000*%
%ADD13C,1.193800*%
%ADD14R,1.200506X1.905000*%
%ADD15R,0.900000X0.700000*%
%ADD16R,0.812800X0.304800*%
%ADD17R,0.304800X0.812800*%
%ADD18R,1.761200X0.850800*%
%ADD19R,1.761200X3.150800*%
%ADD20R,0.700000X0.900000*%
%ADD21R,1.000000X1.500000*%
%ADD22R,1.200000X0.600000*%
%ADD23R,1.400000X1.050000*%
%ADD24R,0.330200X0.762000*%

G36*
X389146Y88505D02*
X389146Y88505D01*
X389148Y88504D01*
X389191Y88524D01*
X389235Y88542D01*
X389235Y88544D01*
X389237Y88545D01*
X389270Y88630D01*
X389270Y99584D01*
X389269Y99586D01*
X389270Y99588D01*
X389250Y99631D01*
X389232Y99675D01*
X389230Y99675D01*
X389229Y99677D01*
X389144Y99710D01*
X378190Y99710D01*
X378188Y99709D01*
X378186Y99710D01*
X378143Y99690D01*
X378099Y99672D01*
X378099Y99670D01*
X378097Y99669D01*
X378064Y99584D01*
X378064Y88630D01*
X378065Y88628D01*
X378064Y88626D01*
X378084Y88583D01*
X378102Y88539D01*
X378104Y88539D01*
X378105Y88537D01*
X378190Y88504D01*
X389144Y88504D01*
X389146Y88505D01*
G37*
G36*
X376192Y88505D02*
X376192Y88505D01*
X376194Y88504D01*
X376237Y88524D01*
X376281Y88542D01*
X376281Y88544D01*
X376283Y88545D01*
X376316Y88630D01*
X376316Y99584D01*
X376315Y99586D01*
X376316Y99588D01*
X376296Y99631D01*
X376278Y99675D01*
X376276Y99675D01*
X376275Y99677D01*
X376190Y99710D01*
X365236Y99710D01*
X365234Y99709D01*
X365232Y99710D01*
X365189Y99690D01*
X365145Y99672D01*
X365145Y99670D01*
X365143Y99669D01*
X365110Y99584D01*
X365110Y88630D01*
X365111Y88628D01*
X365110Y88626D01*
X365130Y88583D01*
X365148Y88539D01*
X365150Y88539D01*
X365151Y88537D01*
X365236Y88504D01*
X376190Y88504D01*
X376192Y88505D01*
G37*
G36*
X389146Y75551D02*
X389146Y75551D01*
X389148Y75550D01*
X389191Y75570D01*
X389235Y75588D01*
X389235Y75590D01*
X389237Y75591D01*
X389270Y75676D01*
X389270Y86630D01*
X389269Y86632D01*
X389270Y86634D01*
X389250Y86677D01*
X389232Y86721D01*
X389230Y86721D01*
X389229Y86723D01*
X389144Y86756D01*
X378190Y86756D01*
X378188Y86755D01*
X378186Y86756D01*
X378143Y86736D01*
X378099Y86718D01*
X378099Y86716D01*
X378097Y86715D01*
X378064Y86630D01*
X378064Y75676D01*
X378065Y75674D01*
X378064Y75672D01*
X378084Y75629D01*
X378102Y75585D01*
X378104Y75585D01*
X378105Y75583D01*
X378190Y75550D01*
X389144Y75550D01*
X389146Y75551D01*
G37*
G36*
X376192Y75551D02*
X376192Y75551D01*
X376194Y75550D01*
X376237Y75570D01*
X376281Y75588D01*
X376281Y75590D01*
X376283Y75591D01*
X376316Y75676D01*
X376316Y86630D01*
X376315Y86632D01*
X376316Y86634D01*
X376296Y86677D01*
X376278Y86721D01*
X376276Y86721D01*
X376275Y86723D01*
X376190Y86756D01*
X365236Y86756D01*
X365234Y86755D01*
X365232Y86756D01*
X365189Y86736D01*
X365145Y86718D01*
X365145Y86716D01*
X365143Y86715D01*
X365110Y86630D01*
X365110Y75676D01*
X365111Y75674D01*
X365110Y75672D01*
X365130Y75629D01*
X365148Y75585D01*
X365150Y75585D01*
X365151Y75583D01*
X365236Y75550D01*
X376190Y75550D01*
X376192Y75551D01*
G37*
D10*
X123190Y19440D03*
X123190Y36440D03*
D11*
X189546Y40278D03*
X183046Y40278D03*
X176546Y40278D03*
X170046Y40278D03*
X163546Y40278D03*
D12*
X186546Y13278D03*
X166546Y13278D03*
D13*
X141546Y9722D02*
X141546Y16834D01*
X211546Y16834D02*
X211546Y9722D01*
D14*
X205546Y13278D03*
X147555Y13278D03*
D15*
X363982Y18900D03*
X363982Y31900D03*
D16*
X357505Y74930D03*
X357505Y80010D03*
X357505Y85090D03*
X357505Y90170D03*
X357505Y95250D03*
X357505Y100330D03*
D17*
X364490Y107315D03*
X369570Y107315D03*
X374650Y107315D03*
X379730Y107315D03*
X384810Y107315D03*
X389890Y107315D03*
D16*
X396875Y100330D03*
X396875Y95250D03*
X396875Y90170D03*
X396875Y85090D03*
X396875Y80010D03*
X396875Y74930D03*
D17*
X389890Y67945D03*
X384810Y67945D03*
X379730Y67945D03*
X374650Y67945D03*
X369570Y67945D03*
X364490Y67945D03*
D18*
X101370Y63640D03*
X101370Y40640D03*
X101370Y17640D03*
D19*
X40870Y40640D03*
D10*
X130556Y61096D03*
X130556Y78096D03*
D20*
X348130Y66040D03*
X335130Y66040D03*
X336700Y95250D03*
X323700Y95250D03*
X336700Y125730D03*
X323700Y125730D03*
D21*
X288800Y75300D03*
X320800Y75300D03*
X320800Y26300D03*
X288800Y26300D03*
X225300Y100700D03*
X257300Y100700D03*
X257300Y51700D03*
X225300Y51700D03*
X161800Y126100D03*
X193800Y126100D03*
X193800Y77100D03*
X161800Y77100D03*
X98300Y151500D03*
X130300Y151500D03*
X130300Y102500D03*
X98300Y102500D03*
X34800Y176900D03*
X66800Y176900D03*
X66800Y127900D03*
X34800Y127900D03*
X34800Y303900D03*
X66800Y303900D03*
X66800Y254900D03*
X34800Y254900D03*
X98300Y278500D03*
X130300Y278500D03*
X130300Y229500D03*
X98300Y229500D03*
X161800Y253100D03*
X193800Y253100D03*
X193800Y204100D03*
X161800Y204100D03*
X225300Y227700D03*
X257300Y227700D03*
X257300Y178700D03*
X225300Y178700D03*
X288800Y202300D03*
X320800Y202300D03*
X320800Y153300D03*
X288800Y153300D03*
X352300Y176900D03*
X384300Y176900D03*
X384300Y127900D03*
X352300Y127900D03*
X415800Y151500D03*
X447800Y151500D03*
X447800Y102500D03*
X415800Y102500D03*
X479300Y126100D03*
X511300Y126100D03*
X511300Y77100D03*
X479300Y77100D03*
X542800Y100700D03*
X574800Y100700D03*
X574800Y51700D03*
X542800Y51700D03*
X606300Y75300D03*
X638300Y75300D03*
X638300Y26300D03*
X606300Y26300D03*
X606300Y202300D03*
X638300Y202300D03*
X638300Y153300D03*
X606300Y153300D03*
X542800Y227700D03*
X574800Y227700D03*
X574800Y178700D03*
X542800Y178700D03*
X479300Y253100D03*
X511300Y253100D03*
X511300Y204100D03*
X479300Y204100D03*
X415800Y278500D03*
X447800Y278500D03*
X447800Y229500D03*
X415800Y229500D03*
X352300Y303900D03*
X384300Y303900D03*
X384300Y254900D03*
X352300Y254900D03*
D22*
X338840Y114990D03*
X338840Y105990D03*
X275840Y114990D03*
X275840Y105990D03*
D23*
X415510Y32650D03*
X415510Y17900D03*
X379510Y17900D03*
X379510Y32900D03*
X584420Y32650D03*
X584420Y17900D03*
X548420Y17900D03*
X548420Y32900D03*
D15*
X435610Y64620D03*
X435610Y77620D03*
D20*
X289410Y90170D03*
X302410Y90170D03*
X225910Y115570D03*
X238910Y115570D03*
X162410Y140970D03*
X175410Y140970D03*
X98910Y166370D03*
X111910Y166370D03*
X35410Y191770D03*
X48410Y191770D03*
X57300Y318770D03*
X44300Y318770D03*
X98910Y293370D03*
X111910Y293370D03*
X162410Y267970D03*
X175410Y267970D03*
X225910Y242570D03*
X238910Y242570D03*
X289410Y218440D03*
X302410Y218440D03*
X352910Y193040D03*
X365910Y193040D03*
X416410Y167640D03*
X429410Y167640D03*
X479910Y142240D03*
X492910Y142240D03*
X543410Y116840D03*
X556410Y116840D03*
X606910Y91440D03*
X619910Y91440D03*
X606910Y217170D03*
X619910Y217170D03*
X543410Y242570D03*
X556410Y242570D03*
X479910Y267970D03*
X492910Y267970D03*
X416410Y293370D03*
X429410Y293370D03*
X352910Y318770D03*
X365910Y318770D03*
D24*
X350694Y20193D03*
X345694Y20193D03*
X340694Y20193D03*
X340694Y40767D03*
X345694Y40767D03*
X350694Y40767D03*
M02*
