G04 EAGLE Gerber RS-274X export*
G75*
%MOMM*%
%FSLAX34Y34*%
%LPD*%
%IN*%
%IPPOS*%
%AMOC8*
5,1,8,0,0,1.08239X$1,22.5*%
G01*
%ADD10C,0.254000*%


D10*
X0Y31750D02*
X121Y28983D01*
X482Y26237D01*
X1082Y23533D01*
X1915Y20891D01*
X2975Y18332D01*
X4254Y15875D01*
X5742Y13539D01*
X7428Y11342D01*
X9299Y9299D01*
X11342Y7428D01*
X13539Y5742D01*
X15875Y4254D01*
X18332Y2975D01*
X20891Y1915D01*
X23533Y1082D01*
X26237Y482D01*
X28983Y121D01*
X31750Y0D01*
X158750Y0D01*
X161517Y121D01*
X164263Y482D01*
X166968Y1082D01*
X169609Y1915D01*
X172168Y2975D01*
X174625Y4254D01*
X176961Y5742D01*
X179159Y7428D01*
X181201Y9299D01*
X183072Y11342D01*
X184758Y13539D01*
X186246Y15875D01*
X187525Y18332D01*
X188585Y20891D01*
X189418Y23533D01*
X190018Y26237D01*
X190379Y28983D01*
X190500Y31750D01*
X190500Y298450D01*
X190379Y301217D01*
X190018Y303963D01*
X189418Y306668D01*
X188585Y309309D01*
X187525Y311868D01*
X186246Y314325D01*
X184758Y316661D01*
X183072Y318859D01*
X181201Y320901D01*
X179159Y322772D01*
X176961Y324458D01*
X174625Y325946D01*
X172168Y327225D01*
X169609Y328285D01*
X166968Y329118D01*
X164263Y329718D01*
X161517Y330079D01*
X158750Y330200D01*
X31750Y330200D01*
X28983Y330079D01*
X26237Y329718D01*
X23533Y329118D01*
X20891Y328285D01*
X18332Y327225D01*
X15875Y325946D01*
X13539Y324458D01*
X11342Y322772D01*
X9299Y320901D01*
X7428Y318859D01*
X5742Y316661D01*
X4254Y314325D01*
X2975Y311868D01*
X1915Y309309D01*
X1082Y306668D01*
X482Y303963D01*
X121Y301217D01*
X0Y298450D01*
X0Y31750D01*
X110490Y253456D02*
X110412Y252370D01*
X110257Y251292D01*
X110026Y250229D01*
X109719Y249184D01*
X109339Y248164D01*
X108887Y247174D01*
X108365Y246219D01*
X107776Y245303D01*
X107124Y244431D01*
X106411Y243609D01*
X105641Y242839D01*
X104819Y242126D01*
X103947Y241474D01*
X103031Y240885D01*
X102076Y240363D01*
X101086Y239911D01*
X100066Y239531D01*
X99021Y239224D01*
X97958Y238993D01*
X96880Y238838D01*
X95794Y238760D01*
X94706Y238760D01*
X93620Y238838D01*
X92542Y238993D01*
X91479Y239224D01*
X90434Y239531D01*
X89414Y239911D01*
X88424Y240363D01*
X87469Y240885D01*
X86553Y241474D01*
X85681Y242126D01*
X84859Y242839D01*
X84089Y243609D01*
X83376Y244431D01*
X82724Y245303D01*
X82135Y246219D01*
X81613Y247174D01*
X81161Y248164D01*
X80781Y249184D01*
X80474Y250229D01*
X80243Y251292D01*
X80088Y252370D01*
X80010Y253456D01*
X80010Y254544D01*
X80088Y255630D01*
X80243Y256708D01*
X80474Y257771D01*
X80781Y258816D01*
X81161Y259836D01*
X81613Y260826D01*
X82135Y261781D01*
X82724Y262697D01*
X83376Y263569D01*
X84089Y264391D01*
X84859Y265161D01*
X85681Y265874D01*
X86553Y266526D01*
X87469Y267115D01*
X88424Y267637D01*
X89414Y268089D01*
X90434Y268469D01*
X91479Y268776D01*
X92542Y269007D01*
X93620Y269162D01*
X94706Y269240D01*
X95794Y269240D01*
X96880Y269162D01*
X97958Y269007D01*
X99021Y268776D01*
X100066Y268469D01*
X101086Y268089D01*
X102076Y267637D01*
X103031Y267115D01*
X103947Y266526D01*
X104819Y265874D01*
X105641Y265161D01*
X106411Y264391D01*
X107124Y263569D01*
X107776Y262697D01*
X108365Y261781D01*
X108887Y260826D01*
X109339Y259836D01*
X109719Y258816D01*
X110026Y257771D01*
X110257Y256708D01*
X110412Y255630D01*
X110490Y254544D01*
X110490Y253456D01*
M02*
