G04 EAGLE Gerber RS-274X export*
G75*
%MOMM*%
%FSLAX34Y34*%
%LPD*%
%INSoldermask Top*%
%IPPOS*%
%AMOC8*
5,1,8,0,0,1.08239X$1,22.5*%
G01*
%ADD10C,3.200400*%
%ADD11R,2.438400X1.676400*%
%ADD12C,1.676400*%

G36*
X120689Y13830D02*
X120689Y13830D01*
X120792Y13832D01*
X120811Y13839D01*
X120831Y13841D01*
X120926Y13881D01*
X121023Y13917D01*
X121039Y13929D01*
X121057Y13937D01*
X121188Y14042D01*
X126576Y19430D01*
X126592Y19451D01*
X126627Y19485D01*
X127574Y20640D01*
X127586Y20661D01*
X127657Y20764D01*
X128361Y22082D01*
X128369Y22104D01*
X128418Y22219D01*
X128852Y23649D01*
X128855Y23673D01*
X128881Y23795D01*
X129028Y25282D01*
X129026Y25306D01*
X129028Y25431D01*
X128881Y26918D01*
X128875Y26941D01*
X128852Y27064D01*
X128418Y28494D01*
X128408Y28515D01*
X128397Y28543D01*
X128393Y28563D01*
X128382Y28581D01*
X128361Y28631D01*
X127657Y29949D01*
X127643Y29968D01*
X127574Y30073D01*
X126627Y31228D01*
X126609Y31243D01*
X126521Y31333D01*
X125366Y32281D01*
X125346Y32293D01*
X125242Y32364D01*
X123925Y33068D01*
X123902Y33076D01*
X123787Y33125D01*
X122358Y33559D01*
X122334Y33562D01*
X122211Y33588D01*
X120725Y33734D01*
X120701Y33733D01*
X120575Y33734D01*
X119089Y33588D01*
X119066Y33581D01*
X118942Y33559D01*
X117513Y33125D01*
X117492Y33114D01*
X117375Y33068D01*
X116058Y32364D01*
X116039Y32349D01*
X115934Y32281D01*
X114779Y31333D01*
X114763Y31315D01*
X114673Y31228D01*
X113726Y30073D01*
X113714Y30052D01*
X113643Y29949D01*
X112939Y28631D01*
X112931Y28609D01*
X112882Y28494D01*
X112448Y27064D01*
X112445Y27040D01*
X112419Y26918D01*
X112272Y25431D01*
X112274Y25407D01*
X112272Y25282D01*
X112419Y23795D01*
X112425Y23772D01*
X112448Y23649D01*
X112882Y22220D01*
X112892Y22198D01*
X112939Y22082D01*
X113643Y20764D01*
X113657Y20745D01*
X113726Y20640D01*
X114673Y19485D01*
X114693Y19468D01*
X114724Y19430D01*
X120112Y14042D01*
X120128Y14030D01*
X120140Y14015D01*
X120228Y13959D01*
X120311Y13898D01*
X120330Y13893D01*
X120347Y13882D01*
X120448Y13856D01*
X120547Y13826D01*
X120566Y13827D01*
X120586Y13822D01*
X120689Y13830D01*
G37*
G36*
X19089Y13830D02*
X19089Y13830D01*
X19192Y13832D01*
X19211Y13839D01*
X19231Y13841D01*
X19326Y13881D01*
X19423Y13917D01*
X19439Y13929D01*
X19457Y13937D01*
X19588Y14042D01*
X24976Y19430D01*
X24992Y19451D01*
X25027Y19485D01*
X25974Y20640D01*
X25986Y20661D01*
X26057Y20764D01*
X26761Y22082D01*
X26769Y22104D01*
X26818Y22219D01*
X27252Y23649D01*
X27255Y23673D01*
X27281Y23795D01*
X27428Y25282D01*
X27426Y25306D01*
X27428Y25431D01*
X27281Y26918D01*
X27275Y26941D01*
X27252Y27064D01*
X26818Y28494D01*
X26808Y28515D01*
X26797Y28543D01*
X26793Y28563D01*
X26782Y28581D01*
X26761Y28631D01*
X26057Y29949D01*
X26043Y29968D01*
X25974Y30073D01*
X25027Y31228D01*
X25009Y31243D01*
X24921Y31333D01*
X23766Y32281D01*
X23746Y32293D01*
X23642Y32364D01*
X22325Y33068D01*
X22302Y33076D01*
X22187Y33125D01*
X20758Y33559D01*
X20734Y33562D01*
X20611Y33588D01*
X19125Y33734D01*
X19101Y33733D01*
X18975Y33734D01*
X17489Y33588D01*
X17466Y33581D01*
X17342Y33559D01*
X15913Y33125D01*
X15892Y33114D01*
X15775Y33068D01*
X14458Y32364D01*
X14439Y32349D01*
X14334Y32281D01*
X13179Y31333D01*
X13163Y31315D01*
X13073Y31228D01*
X12126Y30073D01*
X12114Y30052D01*
X12043Y29949D01*
X11339Y28631D01*
X11331Y28609D01*
X11282Y28494D01*
X10848Y27064D01*
X10845Y27040D01*
X10819Y26918D01*
X10672Y25431D01*
X10674Y25407D01*
X10672Y25282D01*
X10819Y23795D01*
X10825Y23772D01*
X10848Y23649D01*
X11282Y22220D01*
X11292Y22198D01*
X11339Y22082D01*
X12043Y20764D01*
X12057Y20745D01*
X12126Y20640D01*
X13073Y19485D01*
X13093Y19468D01*
X13124Y19430D01*
X18512Y14042D01*
X18528Y14030D01*
X18540Y14015D01*
X18628Y13959D01*
X18711Y13898D01*
X18730Y13893D01*
X18747Y13882D01*
X18848Y13856D01*
X18947Y13826D01*
X18966Y13827D01*
X18986Y13822D01*
X19089Y13830D01*
G37*
G36*
X171489Y13830D02*
X171489Y13830D01*
X171592Y13832D01*
X171611Y13839D01*
X171631Y13841D01*
X171726Y13881D01*
X171823Y13917D01*
X171839Y13929D01*
X171857Y13937D01*
X171988Y14042D01*
X177376Y19430D01*
X177392Y19451D01*
X177427Y19485D01*
X178374Y20640D01*
X178386Y20661D01*
X178457Y20764D01*
X179161Y22082D01*
X179169Y22104D01*
X179218Y22219D01*
X179652Y23649D01*
X179655Y23673D01*
X179681Y23795D01*
X179828Y25282D01*
X179826Y25306D01*
X179828Y25431D01*
X179681Y26918D01*
X179675Y26941D01*
X179652Y27064D01*
X179218Y28494D01*
X179208Y28515D01*
X179197Y28543D01*
X179193Y28563D01*
X179182Y28581D01*
X179161Y28631D01*
X178457Y29949D01*
X178443Y29968D01*
X178374Y30073D01*
X177427Y31228D01*
X177409Y31243D01*
X177321Y31333D01*
X176166Y32281D01*
X176146Y32293D01*
X176042Y32364D01*
X174725Y33068D01*
X174702Y33076D01*
X174587Y33125D01*
X173158Y33559D01*
X173134Y33562D01*
X173011Y33588D01*
X171525Y33734D01*
X171501Y33733D01*
X171375Y33734D01*
X169889Y33588D01*
X169866Y33581D01*
X169742Y33559D01*
X168313Y33125D01*
X168292Y33114D01*
X168175Y33068D01*
X166858Y32364D01*
X166839Y32349D01*
X166734Y32281D01*
X165579Y31333D01*
X165563Y31315D01*
X165473Y31228D01*
X164526Y30073D01*
X164514Y30052D01*
X164443Y29949D01*
X163739Y28631D01*
X163731Y28609D01*
X163682Y28494D01*
X163248Y27064D01*
X163245Y27040D01*
X163219Y26918D01*
X163072Y25431D01*
X163074Y25407D01*
X163072Y25282D01*
X163219Y23795D01*
X163225Y23772D01*
X163248Y23649D01*
X163682Y22220D01*
X163692Y22198D01*
X163739Y22082D01*
X164443Y20764D01*
X164457Y20745D01*
X164526Y20640D01*
X165473Y19485D01*
X165493Y19468D01*
X165524Y19430D01*
X170912Y14042D01*
X170928Y14030D01*
X170940Y14015D01*
X171028Y13959D01*
X171111Y13898D01*
X171130Y13893D01*
X171147Y13882D01*
X171248Y13856D01*
X171347Y13826D01*
X171366Y13827D01*
X171386Y13822D01*
X171489Y13830D01*
G37*
G36*
X146089Y13830D02*
X146089Y13830D01*
X146192Y13832D01*
X146211Y13839D01*
X146231Y13841D01*
X146326Y13881D01*
X146423Y13917D01*
X146439Y13929D01*
X146457Y13937D01*
X146588Y14042D01*
X151976Y19430D01*
X151992Y19451D01*
X152027Y19485D01*
X152974Y20640D01*
X152986Y20661D01*
X153057Y20764D01*
X153761Y22082D01*
X153769Y22104D01*
X153818Y22219D01*
X154252Y23649D01*
X154255Y23673D01*
X154281Y23795D01*
X154428Y25282D01*
X154426Y25306D01*
X154428Y25431D01*
X154281Y26918D01*
X154275Y26941D01*
X154252Y27064D01*
X153818Y28494D01*
X153808Y28515D01*
X153797Y28543D01*
X153793Y28563D01*
X153782Y28581D01*
X153761Y28631D01*
X153057Y29949D01*
X153043Y29968D01*
X152974Y30073D01*
X152027Y31228D01*
X152009Y31243D01*
X151921Y31333D01*
X150766Y32281D01*
X150746Y32293D01*
X150642Y32364D01*
X149325Y33068D01*
X149302Y33076D01*
X149187Y33125D01*
X147758Y33559D01*
X147734Y33562D01*
X147611Y33588D01*
X146125Y33734D01*
X146101Y33733D01*
X145975Y33734D01*
X144489Y33588D01*
X144466Y33581D01*
X144342Y33559D01*
X142913Y33125D01*
X142892Y33114D01*
X142775Y33068D01*
X141458Y32364D01*
X141439Y32349D01*
X141334Y32281D01*
X140179Y31333D01*
X140163Y31315D01*
X140073Y31228D01*
X139126Y30073D01*
X139114Y30052D01*
X139043Y29949D01*
X138339Y28631D01*
X138331Y28609D01*
X138282Y28494D01*
X137848Y27064D01*
X137845Y27040D01*
X137819Y26918D01*
X137672Y25431D01*
X137674Y25407D01*
X137672Y25282D01*
X137819Y23795D01*
X137825Y23772D01*
X137848Y23649D01*
X138282Y22220D01*
X138292Y22198D01*
X138339Y22082D01*
X139043Y20764D01*
X139057Y20745D01*
X139126Y20640D01*
X140073Y19485D01*
X140093Y19468D01*
X140124Y19430D01*
X145512Y14042D01*
X145528Y14030D01*
X145540Y14015D01*
X145628Y13959D01*
X145711Y13898D01*
X145730Y13893D01*
X145747Y13882D01*
X145848Y13856D01*
X145947Y13826D01*
X145966Y13827D01*
X145986Y13822D01*
X146089Y13830D01*
G37*
D10*
X95250Y254000D03*
D11*
X102362Y190500D03*
X102362Y165100D03*
X102362Y139700D03*
X11938Y190500D03*
X11938Y165100D03*
X11938Y139700D03*
X157226Y139700D03*
X157226Y165100D03*
X157226Y190500D03*
D12*
X129540Y311150D03*
X104140Y311150D03*
X78740Y311150D03*
X53340Y311150D03*
M02*
