G04 EAGLE Gerber RS-274X export*
G75*
%MOMM*%
%FSLAX34Y34*%
%LPD*%
%INSilkscreen Bottom*%
%IPPOS*%
%AMOC8*
5,1,8,0,0,1.08239X$1,22.5*%
G01*
%ADD10R,0.279400X0.025400*%
%ADD11R,0.254000X0.025400*%
%ADD12R,2.641600X0.025400*%
%ADD13R,0.685800X0.025400*%
%ADD14R,0.457200X0.025400*%
%ADD15R,0.863600X0.025400*%
%ADD16R,2.692400X0.025400*%
%ADD17R,0.762000X0.025400*%
%ADD18R,0.584200X0.025400*%
%ADD19R,2.743200X0.025400*%
%ADD20R,0.812800X0.025400*%
%ADD21R,2.768600X0.025400*%
%ADD22R,0.787400X0.025400*%
%ADD23R,2.794000X0.025400*%
%ADD24R,0.914400X0.025400*%
%ADD25R,0.838200X0.025400*%
%ADD26R,0.203200X0.025400*%
%ADD27R,0.127000X0.025400*%
%ADD28R,0.939800X0.025400*%
%ADD29R,0.889000X0.025400*%
%ADD30R,0.965200X0.025400*%
%ADD31R,0.990600X0.025400*%
%ADD32R,1.041400X0.025400*%
%ADD33R,1.016000X0.025400*%
%ADD34R,0.025400X0.025400*%
%ADD35R,0.508000X0.025400*%
%ADD36R,0.482600X0.025400*%
%ADD37R,1.066800X0.025400*%
%ADD38R,0.050800X0.025400*%
%ADD39R,0.406400X0.025400*%
%ADD40R,0.381000X0.025400*%
%ADD41R,0.076200X0.025400*%
%ADD42R,0.355600X0.025400*%
%ADD43R,0.330200X0.025400*%
%ADD44R,0.304800X0.025400*%
%ADD45R,0.101600X0.025400*%
%ADD46R,0.152400X0.025400*%
%ADD47R,0.228600X0.025400*%
%ADD48R,0.177800X0.025400*%
%ADD49R,0.635000X0.025400*%
%ADD50R,0.736600X0.025400*%
%ADD51R,0.431800X0.025400*%
%ADD52R,0.711200X0.025400*%
%ADD53R,0.533400X0.025400*%
%ADD54R,0.609600X0.025400*%
%ADD55R,1.168400X0.025400*%
%ADD56R,1.193800X0.025400*%
%ADD57R,1.117600X0.025400*%
%ADD58R,0.558800X0.025400*%
%ADD59R,2.184400X0.025400*%
%ADD60R,2.235200X0.025400*%
%ADD61R,3.810000X0.025400*%
%ADD62R,3.759200X0.025400*%
%ADD63R,3.733800X0.025400*%
%ADD64R,3.657600X0.025400*%
%ADD65R,2.336800X0.025400*%
%ADD66C,0.254000*%
%ADD67C,0.152400*%


D10*
X146558Y210312D03*
X102616Y210312D03*
D11*
X76327Y210312D03*
D10*
X47498Y210312D03*
X35052Y210312D03*
D12*
X55245Y254000D03*
D13*
X174244Y210566D03*
D11*
X162941Y210566D03*
D10*
X155702Y210566D03*
D14*
X146431Y210566D03*
D11*
X136525Y210566D03*
D13*
X129286Y210566D03*
D11*
X117983Y210566D03*
D14*
X102489Y210566D03*
D11*
X92583Y210566D03*
D10*
X85344Y210566D03*
D14*
X76327Y210566D03*
D15*
X64389Y210566D03*
D11*
X57277Y210566D03*
D14*
X47625Y210566D03*
X34925Y210566D03*
D11*
X25019Y210566D03*
X14605Y210566D03*
D16*
X55245Y254254D03*
D17*
X173863Y210820D03*
D11*
X162941Y210820D03*
D10*
X155956Y210820D03*
D18*
X146558Y210820D03*
D11*
X136525Y210820D03*
D17*
X128905Y210820D03*
D11*
X117983Y210820D03*
D18*
X102616Y210820D03*
D11*
X92583Y210820D03*
D10*
X85598Y210820D03*
D18*
X76200Y210820D03*
D15*
X64389Y210820D03*
D11*
X57277Y210820D03*
D18*
X47498Y210820D03*
X35052Y210820D03*
D11*
X25019Y210820D03*
X14605Y210820D03*
D19*
X55245Y254508D03*
D20*
X173609Y211074D03*
D11*
X162941Y211074D03*
X156083Y211074D03*
D13*
X146558Y211074D03*
D11*
X136525Y211074D03*
D20*
X128651Y211074D03*
D11*
X117983Y211074D03*
D13*
X102616Y211074D03*
D11*
X92583Y211074D03*
X85725Y211074D03*
D13*
X76200Y211074D03*
D15*
X64389Y211074D03*
D11*
X57277Y211074D03*
D13*
X47498Y211074D03*
X35052Y211074D03*
D11*
X25019Y211074D03*
X14605Y211074D03*
D21*
X55372Y254762D03*
D15*
X173355Y211328D03*
D11*
X162941Y211328D03*
X156083Y211328D03*
D22*
X146558Y211328D03*
D11*
X136525Y211328D03*
D15*
X128397Y211328D03*
D11*
X117983Y211328D03*
D22*
X102616Y211328D03*
D11*
X92583Y211328D03*
X85725Y211328D03*
D17*
X76327Y211328D03*
D15*
X64389Y211328D03*
D11*
X57277Y211328D03*
D17*
X47625Y211328D03*
D22*
X35052Y211328D03*
D11*
X25019Y211328D03*
X14605Y211328D03*
D23*
X55499Y255016D03*
D24*
X173101Y211582D03*
D11*
X162941Y211582D03*
D10*
X156210Y211582D03*
D25*
X146558Y211582D03*
D11*
X136525Y211582D03*
D24*
X128143Y211582D03*
D11*
X117983Y211582D03*
D25*
X102616Y211582D03*
D11*
X92583Y211582D03*
D10*
X85852Y211582D03*
D25*
X76200Y211582D03*
D15*
X64389Y211582D03*
D11*
X57277Y211582D03*
D25*
X47498Y211582D03*
X35052Y211582D03*
D11*
X25019Y211582D03*
X14605Y211582D03*
D26*
X68707Y255270D03*
D27*
X42164Y255270D03*
D28*
X172974Y211836D03*
D11*
X162941Y211836D03*
X156337Y211836D03*
D29*
X146558Y211836D03*
D11*
X136525Y211836D03*
D28*
X128016Y211836D03*
D11*
X117983Y211836D03*
D29*
X102616Y211836D03*
D11*
X92583Y211836D03*
X85979Y211836D03*
D24*
X76327Y211836D03*
D15*
X64389Y211836D03*
D11*
X57277Y211836D03*
D24*
X47625Y211836D03*
D29*
X35052Y211836D03*
D11*
X25019Y211836D03*
X14605Y211836D03*
D26*
X68961Y255524D03*
D27*
X42164Y255524D03*
D30*
X172847Y212090D03*
D11*
X162941Y212090D03*
X156337Y212090D03*
D31*
X146558Y212090D03*
D11*
X136525Y212090D03*
D30*
X127889Y212090D03*
D11*
X117983Y212090D03*
D31*
X102616Y212090D03*
D11*
X92583Y212090D03*
X85979Y212090D03*
D30*
X76327Y212090D03*
D15*
X64389Y212090D03*
D11*
X57277Y212090D03*
D30*
X47625Y212090D03*
D31*
X35052Y212090D03*
D11*
X25019Y212090D03*
X14605Y212090D03*
D26*
X69215Y255778D03*
D27*
X42164Y255778D03*
D31*
X172720Y212344D03*
D11*
X162941Y212344D03*
D10*
X156464Y212344D03*
D32*
X146558Y212344D03*
D11*
X136525Y212344D03*
D31*
X127762Y212344D03*
D11*
X117983Y212344D03*
D32*
X102616Y212344D03*
D11*
X92583Y212344D03*
D10*
X86106Y212344D03*
D33*
X76327Y212344D03*
D15*
X64389Y212344D03*
D11*
X57277Y212344D03*
D33*
X47625Y212344D03*
D32*
X35052Y212344D03*
D11*
X25019Y212344D03*
D34*
X20066Y212344D03*
D11*
X14605Y212344D03*
D26*
X69469Y256032D03*
D27*
X42164Y256032D03*
D11*
X176403Y212598D03*
D35*
X170053Y212598D03*
D11*
X162941Y212598D03*
X156591Y212598D03*
D35*
X149479Y212598D03*
X143637Y212598D03*
D11*
X136525Y212598D03*
X131445Y212598D03*
D35*
X125095Y212598D03*
D11*
X117983Y212598D03*
D35*
X105537Y212598D03*
X99695Y212598D03*
D11*
X92583Y212598D03*
X86233Y212598D03*
D35*
X79121Y212598D03*
D36*
X73406Y212598D03*
D15*
X64389Y212598D03*
D11*
X57277Y212598D03*
D37*
X47625Y212598D03*
D35*
X37973Y212598D03*
X32131Y212598D03*
D11*
X25019Y212598D03*
D38*
X19939Y212598D03*
D11*
X14605Y212598D03*
D26*
X69723Y256286D03*
D27*
X42164Y256286D03*
D11*
X176403Y212852D03*
D39*
X169291Y212852D03*
D11*
X162941Y212852D03*
X156591Y212852D03*
D39*
X149987Y212852D03*
X143129Y212852D03*
D11*
X136525Y212852D03*
X131445Y212852D03*
D39*
X124333Y212852D03*
D11*
X117983Y212852D03*
D39*
X106045Y212852D03*
X99187Y212852D03*
D11*
X92583Y212852D03*
X86233Y212852D03*
D39*
X79629Y212852D03*
D40*
X72644Y212852D03*
D11*
X67437Y212852D03*
X57277Y212852D03*
D39*
X50927Y212852D03*
X44069Y212852D03*
X38481Y212852D03*
X31623Y212852D03*
D11*
X25019Y212852D03*
D41*
X19812Y212852D03*
D11*
X14605Y212852D03*
D26*
X69977Y256540D03*
D27*
X42164Y256540D03*
D11*
X176403Y213106D03*
D42*
X169037Y213106D03*
D11*
X162941Y213106D03*
D10*
X156718Y213106D03*
D42*
X150495Y213106D03*
X142621Y213106D03*
D11*
X136525Y213106D03*
X131445Y213106D03*
D42*
X124079Y213106D03*
D11*
X117983Y213106D03*
D42*
X106553Y213106D03*
X98679Y213106D03*
D11*
X92583Y213106D03*
D10*
X86360Y213106D03*
D42*
X80137Y213106D03*
D43*
X72390Y213106D03*
D11*
X67437Y213106D03*
D42*
X51435Y213106D03*
D44*
X43815Y213106D03*
D42*
X38989Y213106D03*
X31115Y213106D03*
D11*
X25019Y213106D03*
D45*
X19939Y213106D03*
D11*
X14605Y213106D03*
D26*
X70231Y256794D03*
D27*
X42164Y256794D03*
D11*
X176403Y213360D03*
D43*
X168656Y213360D03*
D11*
X162941Y213360D03*
X156845Y213360D03*
D42*
X150749Y213360D03*
X142367Y213360D03*
D11*
X136525Y213360D03*
X131445Y213360D03*
D43*
X123698Y213360D03*
D11*
X117983Y213360D03*
D42*
X106807Y213360D03*
X98425Y213360D03*
D11*
X92583Y213360D03*
X86487Y213360D03*
D42*
X80391Y213360D03*
D10*
X72136Y213360D03*
D11*
X67437Y213360D03*
D42*
X51689Y213360D03*
D11*
X43815Y213360D03*
D42*
X39243Y213360D03*
X30861Y213360D03*
D11*
X25019Y213360D03*
D27*
X19812Y213360D03*
D11*
X14605Y213360D03*
D26*
X70485Y257048D03*
D27*
X42164Y257048D03*
D11*
X176403Y213614D03*
D43*
X168402Y213614D03*
D11*
X162941Y213614D03*
X156845Y213614D03*
D44*
X151003Y213614D03*
X142113Y213614D03*
D11*
X136525Y213614D03*
X131445Y213614D03*
D43*
X123444Y213614D03*
D11*
X117983Y213614D03*
D44*
X107061Y213614D03*
X98171Y213614D03*
D11*
X92583Y213614D03*
X86487Y213614D03*
D44*
X80645Y213614D03*
D11*
X72009Y213614D03*
X67437Y213614D03*
D44*
X51943Y213614D03*
D26*
X43815Y213614D03*
D44*
X39497Y213614D03*
X30607Y213614D03*
D11*
X25019Y213614D03*
D46*
X19939Y213614D03*
D11*
X14605Y213614D03*
D26*
X70739Y257302D03*
D27*
X42164Y257302D03*
D11*
X176403Y213868D03*
D44*
X168275Y213868D03*
D11*
X162941Y213868D03*
X157099Y213868D03*
D44*
X151257Y213868D03*
X141859Y213868D03*
D11*
X136525Y213868D03*
X131445Y213868D03*
D44*
X123317Y213868D03*
D11*
X117983Y213868D03*
D44*
X107315Y213868D03*
X97917Y213868D03*
D11*
X92583Y213868D03*
X86741Y213868D03*
D44*
X80899Y213868D03*
D47*
X71882Y213868D03*
D11*
X67437Y213868D03*
D44*
X52197Y213868D03*
D27*
X43688Y213868D03*
D44*
X39751Y213868D03*
X30353Y213868D03*
D11*
X25019Y213868D03*
D48*
X19812Y213868D03*
D11*
X14605Y213868D03*
D26*
X70993Y257556D03*
D46*
X52197Y257556D03*
D27*
X42164Y257556D03*
D11*
X176403Y214122D03*
D44*
X168021Y214122D03*
D11*
X162941Y214122D03*
X157099Y214122D03*
D44*
X151511Y214122D03*
D10*
X141732Y214122D03*
D11*
X136525Y214122D03*
X131445Y214122D03*
D44*
X123063Y214122D03*
D11*
X117983Y214122D03*
D44*
X107569Y214122D03*
D10*
X97790Y214122D03*
D11*
X92583Y214122D03*
X86741Y214122D03*
D44*
X81153Y214122D03*
D47*
X71882Y214122D03*
D11*
X67437Y214122D03*
D44*
X52451Y214122D03*
D45*
X43815Y214122D03*
D44*
X40005Y214122D03*
D10*
X30226Y214122D03*
D11*
X25019Y214122D03*
D47*
X19812Y214122D03*
D11*
X14605Y214122D03*
D26*
X71247Y257810D03*
D47*
X52324Y257810D03*
D27*
X42164Y257810D03*
D11*
X176403Y214376D03*
D10*
X167894Y214376D03*
D11*
X162941Y214376D03*
D10*
X157226Y214376D03*
X151638Y214376D03*
X141478Y214376D03*
D11*
X136525Y214376D03*
X131445Y214376D03*
D10*
X122936Y214376D03*
D11*
X117983Y214376D03*
D10*
X107696Y214376D03*
X97536Y214376D03*
D11*
X92583Y214376D03*
D10*
X86868Y214376D03*
X81280Y214376D03*
D47*
X71882Y214376D03*
D11*
X67437Y214376D03*
D10*
X52578Y214376D03*
D38*
X43815Y214376D03*
D10*
X40132Y214376D03*
X29972Y214376D03*
D11*
X25019Y214376D03*
X19939Y214376D03*
X14605Y214376D03*
D26*
X71501Y258064D03*
D11*
X52197Y258064D03*
D27*
X42164Y258064D03*
D11*
X176403Y214630D03*
D10*
X167640Y214630D03*
D11*
X162941Y214630D03*
X157353Y214630D03*
D10*
X151638Y214630D03*
X141478Y214630D03*
D11*
X136525Y214630D03*
X131445Y214630D03*
D10*
X122682Y214630D03*
D11*
X117983Y214630D03*
D10*
X107696Y214630D03*
X97536Y214630D03*
D11*
X92583Y214630D03*
X86995Y214630D03*
D10*
X81280Y214630D03*
D47*
X71882Y214630D03*
D11*
X67437Y214630D03*
D10*
X52578Y214630D03*
X40132Y214630D03*
X29972Y214630D03*
D11*
X25019Y214630D03*
D10*
X19812Y214630D03*
D11*
X14605Y214630D03*
D26*
X71755Y258318D03*
D18*
X53848Y258318D03*
D27*
X42164Y258318D03*
D11*
X176403Y214884D03*
D10*
X167640Y214884D03*
D11*
X162941Y214884D03*
D10*
X157480Y214884D03*
X151892Y214884D03*
X141224Y214884D03*
D11*
X136525Y214884D03*
X131445Y214884D03*
D10*
X122682Y214884D03*
D11*
X117983Y214884D03*
D10*
X107950Y214884D03*
X97282Y214884D03*
D11*
X92583Y214884D03*
D10*
X87122Y214884D03*
X81534Y214884D03*
D47*
X71882Y214884D03*
D11*
X67437Y214884D03*
D10*
X52832Y214884D03*
X40386Y214884D03*
X29718Y214884D03*
D11*
X25019Y214884D03*
D44*
X19939Y214884D03*
D11*
X14605Y214884D03*
D26*
X72009Y258572D03*
D49*
X53848Y258572D03*
D27*
X42164Y258572D03*
D11*
X176403Y215138D03*
X167513Y215138D03*
X162941Y215138D03*
D10*
X157734Y215138D03*
X151892Y215138D03*
X141224Y215138D03*
D11*
X136525Y215138D03*
X131445Y215138D03*
X122555Y215138D03*
X117983Y215138D03*
D10*
X107950Y215138D03*
X97282Y215138D03*
D11*
X92583Y215138D03*
D10*
X87376Y215138D03*
X81534Y215138D03*
D35*
X73279Y215138D03*
D11*
X67437Y215138D03*
D10*
X52832Y215138D03*
X40386Y215138D03*
X29718Y215138D03*
D11*
X25019Y215138D03*
D43*
X19812Y215138D03*
D11*
X14605Y215138D03*
D26*
X72263Y258826D03*
D36*
X54864Y258826D03*
D27*
X51308Y258826D03*
X42164Y258826D03*
D11*
X176403Y215392D03*
X167513Y215392D03*
X162941Y215392D03*
D43*
X157988Y215392D03*
D11*
X152019Y215392D03*
X141097Y215392D03*
X136525Y215392D03*
X131445Y215392D03*
X122555Y215392D03*
X117983Y215392D03*
X108077Y215392D03*
X97155Y215392D03*
X92583Y215392D03*
D43*
X87630Y215392D03*
D11*
X81661Y215392D03*
D35*
X73279Y215392D03*
D11*
X67437Y215392D03*
X52959Y215392D03*
X40513Y215392D03*
X29591Y215392D03*
X25019Y215392D03*
D42*
X19939Y215392D03*
D11*
X14605Y215392D03*
D26*
X72517Y259080D03*
D48*
X66294Y259080D03*
D13*
X54102Y259080D03*
D27*
X42164Y259080D03*
D11*
X176403Y215646D03*
D10*
X167386Y215646D03*
D17*
X160401Y215646D03*
D10*
X152146Y215646D03*
X140970Y215646D03*
D11*
X136525Y215646D03*
X131445Y215646D03*
D10*
X122428Y215646D03*
D11*
X117983Y215646D03*
D10*
X108204Y215646D03*
X97028Y215646D03*
D17*
X90043Y215646D03*
D10*
X81788Y215646D03*
D35*
X73279Y215646D03*
D11*
X67437Y215646D03*
D10*
X53086Y215646D03*
X40640Y215646D03*
X29464Y215646D03*
D11*
X25019Y215646D03*
D40*
X19812Y215646D03*
D11*
X14605Y215646D03*
D26*
X72771Y259334D03*
D47*
X66294Y259334D03*
D13*
X54356Y259334D03*
D27*
X42164Y259334D03*
D11*
X176403Y215900D03*
X167259Y215900D03*
D50*
X160528Y215900D03*
D10*
X152146Y215900D03*
X140970Y215900D03*
D11*
X136525Y215900D03*
X131445Y215900D03*
X122301Y215900D03*
X117983Y215900D03*
D10*
X108204Y215900D03*
X97028Y215900D03*
D50*
X90170Y215900D03*
D10*
X81788Y215900D03*
D35*
X73279Y215900D03*
D11*
X67437Y215900D03*
D10*
X53086Y215900D03*
X40640Y215900D03*
X29464Y215900D03*
D11*
X25019Y215900D03*
D51*
X19812Y215900D03*
D11*
X14605Y215900D03*
D26*
X73025Y259588D03*
D10*
X66294Y259588D03*
D48*
X57150Y259588D03*
D11*
X52197Y259588D03*
D46*
X42291Y259588D03*
D11*
X176403Y216154D03*
X167259Y216154D03*
D13*
X160782Y216154D03*
D11*
X152273Y216154D03*
X140843Y216154D03*
X136525Y216154D03*
X131445Y216154D03*
X122301Y216154D03*
X117983Y216154D03*
X108331Y216154D03*
X96901Y216154D03*
D13*
X90424Y216154D03*
D11*
X81915Y216154D03*
D35*
X73279Y216154D03*
D11*
X67437Y216154D03*
X53213Y216154D03*
X40767Y216154D03*
X29337Y216154D03*
X25019Y216154D03*
D51*
X19812Y216154D03*
D11*
X14605Y216154D03*
D26*
X73279Y259842D03*
D10*
X66294Y259842D03*
D48*
X57404Y259842D03*
D47*
X52324Y259842D03*
D13*
X44958Y259842D03*
D11*
X176403Y216408D03*
X167259Y216408D03*
D13*
X160782Y216408D03*
D11*
X152273Y216408D03*
X140843Y216408D03*
X136525Y216408D03*
X131445Y216408D03*
X122301Y216408D03*
D15*
X114935Y216408D03*
D11*
X108331Y216408D03*
X96901Y216408D03*
D13*
X90424Y216408D03*
D11*
X81915Y216408D03*
D35*
X73279Y216408D03*
D15*
X64389Y216408D03*
D11*
X53213Y216408D03*
X40767Y216408D03*
X29337Y216408D03*
X25019Y216408D03*
D36*
X19812Y216408D03*
D11*
X14605Y216408D03*
D48*
X73406Y260096D03*
D10*
X66294Y260096D03*
D48*
X57658Y260096D03*
X52324Y260096D03*
D52*
X45085Y260096D03*
D11*
X176403Y216662D03*
X167259Y216662D03*
D50*
X160528Y216662D03*
D11*
X152273Y216662D03*
X140843Y216662D03*
X136525Y216662D03*
X131445Y216662D03*
X122301Y216662D03*
D15*
X114935Y216662D03*
D11*
X108331Y216662D03*
X96901Y216662D03*
D50*
X90170Y216662D03*
D11*
X81915Y216662D03*
D35*
X73279Y216662D03*
D15*
X64389Y216662D03*
D11*
X53213Y216662D03*
X40767Y216662D03*
X29337Y216662D03*
X25019Y216662D03*
D35*
X19939Y216662D03*
D11*
X14605Y216662D03*
D48*
X73660Y260350D03*
D27*
X67056Y260350D03*
X65532Y260350D03*
D48*
X57912Y260350D03*
D52*
X45339Y260350D03*
D11*
X176403Y216916D03*
X167259Y216916D03*
D22*
X160274Y216916D03*
D11*
X152273Y216916D03*
X140843Y216916D03*
X136525Y216916D03*
X131445Y216916D03*
X122301Y216916D03*
D15*
X114935Y216916D03*
D11*
X108331Y216916D03*
X96901Y216916D03*
D22*
X89916Y216916D03*
D11*
X81915Y216916D03*
D35*
X73279Y216916D03*
D15*
X64389Y216916D03*
D11*
X53213Y216916D03*
X40767Y216916D03*
X29337Y216916D03*
X25019Y216916D03*
D53*
X19812Y216916D03*
D11*
X14605Y216916D03*
D46*
X73787Y260604D03*
D10*
X66294Y260604D03*
D48*
X58166Y260604D03*
D52*
X45593Y260604D03*
D11*
X176403Y217170D03*
X167259Y217170D03*
D20*
X160147Y217170D03*
D11*
X152273Y217170D03*
X140843Y217170D03*
X136525Y217170D03*
X131445Y217170D03*
X122301Y217170D03*
D15*
X114935Y217170D03*
D11*
X108331Y217170D03*
X96901Y217170D03*
D20*
X89789Y217170D03*
D11*
X81915Y217170D03*
D35*
X73279Y217170D03*
D15*
X64389Y217170D03*
D11*
X53213Y217170D03*
X40767Y217170D03*
X29337Y217170D03*
X25019Y217170D03*
D10*
X21336Y217170D03*
X18288Y217170D03*
D11*
X14605Y217170D03*
D27*
X73914Y260858D03*
D10*
X66294Y260858D03*
D48*
X58420Y260858D03*
D13*
X45974Y260858D03*
D11*
X176403Y217424D03*
X167259Y217424D03*
D25*
X160020Y217424D03*
D11*
X152273Y217424D03*
X140843Y217424D03*
X136525Y217424D03*
X131445Y217424D03*
X122301Y217424D03*
D15*
X114935Y217424D03*
D11*
X108331Y217424D03*
X96901Y217424D03*
D25*
X89662Y217424D03*
D11*
X81915Y217424D03*
D15*
X64389Y217424D03*
D11*
X53213Y217424D03*
X40767Y217424D03*
X29337Y217424D03*
X25019Y217424D03*
X21463Y217424D03*
D10*
X18288Y217424D03*
D11*
X14605Y217424D03*
D46*
X73787Y261112D03*
D10*
X66294Y261112D03*
D48*
X58674Y261112D03*
X48768Y261112D03*
D11*
X176403Y217678D03*
X167259Y217678D03*
X162941Y217678D03*
D44*
X157353Y217678D03*
D11*
X152273Y217678D03*
X140843Y217678D03*
X136525Y217678D03*
X131445Y217678D03*
X122301Y217678D03*
D15*
X114935Y217678D03*
D11*
X108331Y217678D03*
X96901Y217678D03*
X92583Y217678D03*
D44*
X86995Y217678D03*
D11*
X81915Y217678D03*
D15*
X64389Y217678D03*
D11*
X53213Y217678D03*
X40767Y217678D03*
X29337Y217678D03*
X25019Y217678D03*
D10*
X21590Y217678D03*
X18034Y217678D03*
D11*
X14605Y217678D03*
D48*
X73660Y261366D03*
D47*
X66294Y261366D03*
D48*
X58928Y261366D03*
X49022Y261366D03*
D11*
X176403Y217932D03*
X167259Y217932D03*
X162941Y217932D03*
D10*
X156972Y217932D03*
D11*
X152273Y217932D03*
X140843Y217932D03*
X136525Y217932D03*
X131445Y217932D03*
X122301Y217932D03*
D15*
X114935Y217932D03*
D11*
X108331Y217932D03*
X96901Y217932D03*
X92583Y217932D03*
D10*
X86614Y217932D03*
D11*
X81915Y217932D03*
D15*
X64389Y217932D03*
D11*
X53213Y217932D03*
X40767Y217932D03*
X29337Y217932D03*
X25019Y217932D03*
X21717Y217932D03*
X17907Y217932D03*
X14605Y217932D03*
D48*
X73406Y261620D03*
X66294Y261620D03*
X59182Y261620D03*
X49276Y261620D03*
D11*
X176403Y218186D03*
X167259Y218186D03*
X162941Y218186D03*
D10*
X156718Y218186D03*
X152146Y218186D03*
X140970Y218186D03*
D11*
X136525Y218186D03*
X131445Y218186D03*
X122301Y218186D03*
D15*
X114935Y218186D03*
D10*
X108204Y218186D03*
X97028Y218186D03*
D11*
X92583Y218186D03*
D10*
X86360Y218186D03*
X81788Y218186D03*
D15*
X64389Y218186D03*
D10*
X53086Y218186D03*
X40640Y218186D03*
X29464Y218186D03*
D11*
X25019Y218186D03*
D10*
X21844Y218186D03*
X17780Y218186D03*
D11*
X14605Y218186D03*
D26*
X73279Y261874D03*
D27*
X66294Y261874D03*
D48*
X59436Y261874D03*
X49530Y261874D03*
D11*
X176403Y218440D03*
X167513Y218440D03*
X162941Y218440D03*
X156591Y218440D03*
X152019Y218440D03*
X141097Y218440D03*
X136525Y218440D03*
X131445Y218440D03*
X122555Y218440D03*
X117983Y218440D03*
X108077Y218440D03*
X97155Y218440D03*
X92583Y218440D03*
X86233Y218440D03*
X81661Y218440D03*
X67437Y218440D03*
X52959Y218440D03*
X40513Y218440D03*
X29591Y218440D03*
X25019Y218440D03*
X21971Y218440D03*
X17653Y218440D03*
X14605Y218440D03*
D26*
X73025Y262128D03*
D27*
X66294Y262128D03*
D48*
X59690Y262128D03*
X49784Y262128D03*
D11*
X176403Y218694D03*
X167513Y218694D03*
X162941Y218694D03*
X156591Y218694D03*
X152019Y218694D03*
X141097Y218694D03*
X136525Y218694D03*
X131445Y218694D03*
X122555Y218694D03*
X117983Y218694D03*
X108077Y218694D03*
X97155Y218694D03*
X92583Y218694D03*
X86233Y218694D03*
X81661Y218694D03*
X67437Y218694D03*
X52959Y218694D03*
X40513Y218694D03*
X29591Y218694D03*
X25019Y218694D03*
D10*
X22098Y218694D03*
X17526Y218694D03*
D11*
X14605Y218694D03*
D26*
X72771Y262382D03*
D27*
X66294Y262382D03*
D48*
X59944Y262382D03*
X50038Y262382D03*
D11*
X176403Y218948D03*
X167513Y218948D03*
X162941Y218948D03*
X156337Y218948D03*
D10*
X151892Y218948D03*
X141224Y218948D03*
D11*
X136525Y218948D03*
X131445Y218948D03*
X122555Y218948D03*
X117983Y218948D03*
D10*
X107950Y218948D03*
X97282Y218948D03*
D11*
X92583Y218948D03*
X85979Y218948D03*
D10*
X81534Y218948D03*
D11*
X67437Y218948D03*
D10*
X52832Y218948D03*
X40386Y218948D03*
X29718Y218948D03*
D11*
X25019Y218948D03*
X22225Y218948D03*
D53*
X16002Y218948D03*
D26*
X72517Y262636D03*
D27*
X66294Y262636D03*
D48*
X60198Y262636D03*
X50292Y262636D03*
D11*
X176403Y219202D03*
D10*
X167640Y219202D03*
D11*
X162941Y219202D03*
X156337Y219202D03*
D10*
X151638Y219202D03*
X141478Y219202D03*
D11*
X136525Y219202D03*
X131445Y219202D03*
D10*
X122682Y219202D03*
D11*
X117983Y219202D03*
D10*
X107696Y219202D03*
X97536Y219202D03*
D11*
X92583Y219202D03*
X85979Y219202D03*
D10*
X81280Y219202D03*
D11*
X67437Y219202D03*
D10*
X52578Y219202D03*
X40132Y219202D03*
X29972Y219202D03*
D53*
X23622Y219202D03*
X16002Y219202D03*
D26*
X72263Y262890D03*
D27*
X66294Y262890D03*
D48*
X60452Y262890D03*
X50546Y262890D03*
D11*
X176403Y219456D03*
X167767Y219456D03*
X162941Y219456D03*
X156337Y219456D03*
D10*
X151638Y219456D03*
X141478Y219456D03*
D11*
X136525Y219456D03*
X131445Y219456D03*
X122809Y219456D03*
X117983Y219456D03*
D10*
X107696Y219456D03*
X97536Y219456D03*
D11*
X92583Y219456D03*
X85979Y219456D03*
D10*
X81280Y219456D03*
D34*
X72644Y219456D03*
D11*
X67437Y219456D03*
D10*
X52578Y219456D03*
D34*
X43942Y219456D03*
D10*
X40132Y219456D03*
X29972Y219456D03*
D35*
X23749Y219456D03*
X15875Y219456D03*
D48*
X72136Y263144D03*
D27*
X66294Y263144D03*
D48*
X60706Y263144D03*
X50800Y263144D03*
D11*
X176403Y219710D03*
D10*
X167894Y219710D03*
D11*
X162941Y219710D03*
X156337Y219710D03*
D44*
X151511Y219710D03*
X141605Y219710D03*
D11*
X136525Y219710D03*
X131445Y219710D03*
D10*
X122936Y219710D03*
D11*
X117983Y219710D03*
D44*
X107569Y219710D03*
X97663Y219710D03*
D11*
X92583Y219710D03*
X85979Y219710D03*
D44*
X81153Y219710D03*
D38*
X72517Y219710D03*
D11*
X67437Y219710D03*
D44*
X52451Y219710D03*
D38*
X43815Y219710D03*
D44*
X40005Y219710D03*
X30099Y219710D03*
D36*
X23876Y219710D03*
X15748Y219710D03*
D48*
X71882Y263398D03*
D27*
X66294Y263398D03*
D48*
X60960Y263398D03*
X51054Y263398D03*
D11*
X176403Y219964D03*
D10*
X168148Y219964D03*
D11*
X162941Y219964D03*
X156337Y219964D03*
D44*
X151257Y219964D03*
X141859Y219964D03*
D11*
X136525Y219964D03*
X131445Y219964D03*
D10*
X123190Y219964D03*
D11*
X117983Y219964D03*
D44*
X107315Y219964D03*
X97917Y219964D03*
D11*
X92583Y219964D03*
X85979Y219964D03*
D44*
X80899Y219964D03*
D41*
X72390Y219964D03*
D11*
X67437Y219964D03*
D44*
X52197Y219964D03*
D45*
X43815Y219964D03*
D44*
X39751Y219964D03*
X30353Y219964D03*
D36*
X23876Y219964D03*
X15748Y219964D03*
D46*
X71755Y263652D03*
D27*
X66294Y263652D03*
D46*
X61087Y263652D03*
X51181Y263652D03*
D11*
X176403Y220218D03*
D44*
X168275Y220218D03*
D11*
X162941Y220218D03*
X156337Y220218D03*
D43*
X151130Y220218D03*
X141986Y220218D03*
D11*
X136525Y220218D03*
X131445Y220218D03*
D44*
X123317Y220218D03*
D11*
X117983Y220218D03*
D43*
X107188Y220218D03*
X98044Y220218D03*
D11*
X92583Y220218D03*
X85979Y220218D03*
D43*
X80772Y220218D03*
D27*
X72390Y220218D03*
D11*
X67437Y220218D03*
D43*
X52070Y220218D03*
D46*
X43815Y220218D03*
D43*
X39624Y220218D03*
X30480Y220218D03*
D14*
X24003Y220218D03*
X15621Y220218D03*
D27*
X71628Y263906D03*
X66294Y263906D03*
X61214Y263906D03*
X51308Y263906D03*
D11*
X176403Y220472D03*
D44*
X168529Y220472D03*
D11*
X162941Y220472D03*
D10*
X156464Y220472D03*
D43*
X150876Y220472D03*
X142240Y220472D03*
D11*
X136525Y220472D03*
X131445Y220472D03*
D44*
X123571Y220472D03*
D11*
X117983Y220472D03*
D43*
X106934Y220472D03*
X98298Y220472D03*
D11*
X92583Y220472D03*
D10*
X86106Y220472D03*
D43*
X80518Y220472D03*
D26*
X72517Y220472D03*
D11*
X67437Y220472D03*
D43*
X51816Y220472D03*
D47*
X43942Y220472D03*
D43*
X39370Y220472D03*
X30734Y220472D03*
D14*
X24003Y220472D03*
X15621Y220472D03*
D27*
X71628Y264160D03*
X66294Y264160D03*
X61214Y264160D03*
D46*
X51435Y264160D03*
D11*
X176403Y220726D03*
D43*
X168656Y220726D03*
D11*
X162941Y220726D03*
D10*
X156718Y220726D03*
D42*
X150495Y220726D03*
X142621Y220726D03*
D11*
X136525Y220726D03*
X131445Y220726D03*
D43*
X123698Y220726D03*
D11*
X117983Y220726D03*
D42*
X106553Y220726D03*
X98679Y220726D03*
D11*
X92583Y220726D03*
D10*
X86360Y220726D03*
D42*
X80137Y220726D03*
D11*
X72517Y220726D03*
X67437Y220726D03*
D42*
X51435Y220726D03*
D10*
X43942Y220726D03*
D42*
X38989Y220726D03*
X31115Y220726D03*
D51*
X24130Y220726D03*
X15494Y220726D03*
D27*
X71628Y264414D03*
X66294Y264414D03*
X61214Y264414D03*
X51562Y264414D03*
D11*
X176403Y220980D03*
D42*
X169037Y220980D03*
D11*
X162941Y220980D03*
D10*
X156718Y220980D03*
D39*
X150241Y220980D03*
X142875Y220980D03*
D11*
X136525Y220980D03*
X131445Y220980D03*
D42*
X124079Y220980D03*
D11*
X117983Y220980D03*
D39*
X106299Y220980D03*
X98933Y220980D03*
D11*
X92583Y220980D03*
D10*
X86360Y220980D03*
D39*
X79883Y220980D03*
D43*
X72644Y220980D03*
D11*
X67437Y220980D03*
D39*
X51181Y220980D03*
D40*
X43942Y220980D03*
D39*
X38735Y220980D03*
X31369Y220980D03*
D51*
X24130Y220980D03*
D39*
X15367Y220980D03*
D27*
X71628Y264668D03*
X66294Y264668D03*
X61214Y264668D03*
X51562Y264668D03*
D11*
X176403Y221234D03*
D40*
X169418Y221234D03*
D11*
X162941Y221234D03*
D43*
X156972Y221234D03*
D14*
X149733Y221234D03*
X143383Y221234D03*
D11*
X136525Y221234D03*
X131445Y221234D03*
D40*
X124460Y221234D03*
D11*
X117983Y221234D03*
D14*
X105791Y221234D03*
X99441Y221234D03*
D11*
X92583Y221234D03*
D43*
X86614Y221234D03*
D36*
X79248Y221234D03*
D14*
X73025Y221234D03*
D11*
X67437Y221234D03*
D14*
X50673Y221234D03*
X44577Y221234D03*
X38227Y221234D03*
X31877Y221234D03*
D39*
X24257Y221234D03*
X15367Y221234D03*
D27*
X71628Y264922D03*
X66294Y264922D03*
X61214Y264922D03*
X51562Y264922D03*
D31*
X172720Y221488D03*
D11*
X162941Y221488D03*
D42*
X157353Y221488D03*
D32*
X146558Y221488D03*
D11*
X136525Y221488D03*
D31*
X127762Y221488D03*
D15*
X114935Y221488D03*
D32*
X102616Y221488D03*
D11*
X92583Y221488D03*
D42*
X86995Y221488D03*
D32*
X76200Y221488D03*
D15*
X64389Y221488D03*
D33*
X47625Y221488D03*
D32*
X35052Y221488D03*
D40*
X24384Y221488D03*
X15240Y221488D03*
D27*
X71628Y265176D03*
X66294Y265176D03*
X61214Y265176D03*
X51562Y265176D03*
D30*
X172847Y221742D03*
D15*
X159893Y221742D03*
D31*
X146558Y221742D03*
D11*
X136525Y221742D03*
D30*
X127889Y221742D03*
D15*
X114935Y221742D03*
D31*
X102616Y221742D03*
D15*
X89535Y221742D03*
D31*
X76200Y221742D03*
D15*
X64389Y221742D03*
D30*
X47625Y221742D03*
D31*
X35052Y221742D03*
D40*
X24384Y221742D03*
X15240Y221742D03*
D27*
X71628Y265430D03*
X66294Y265430D03*
X61214Y265430D03*
X51562Y265430D03*
D28*
X172974Y221996D03*
D25*
X160020Y221996D03*
D28*
X146558Y221996D03*
D11*
X136525Y221996D03*
D28*
X128016Y221996D03*
D15*
X114935Y221996D03*
D28*
X102616Y221996D03*
D25*
X89662Y221996D03*
D28*
X76200Y221996D03*
D15*
X64389Y221996D03*
D24*
X47625Y221996D03*
D28*
X35052Y221996D03*
D42*
X24511Y221996D03*
X15113Y221996D03*
D27*
X71628Y265684D03*
X66294Y265684D03*
X61214Y265684D03*
X56388Y265684D03*
X51562Y265684D03*
D24*
X173101Y222250D03*
D20*
X160147Y222250D03*
D29*
X146558Y222250D03*
D11*
X136525Y222250D03*
D24*
X128143Y222250D03*
D15*
X114935Y222250D03*
D29*
X102616Y222250D03*
D20*
X89789Y222250D03*
D15*
X76073Y222250D03*
X64389Y222250D03*
X47625Y222250D03*
D29*
X35052Y222250D03*
D42*
X24511Y222250D03*
X15113Y222250D03*
D27*
X71628Y265938D03*
X66294Y265938D03*
X61214Y265938D03*
D26*
X56261Y265938D03*
D27*
X51562Y265938D03*
D15*
X173355Y222504D03*
D22*
X160274Y222504D03*
X146558Y222504D03*
D11*
X136525Y222504D03*
D15*
X128397Y222504D03*
X114935Y222504D03*
D22*
X102616Y222504D03*
X89916Y222504D03*
X76200Y222504D03*
D15*
X64389Y222504D03*
D22*
X47498Y222504D03*
X35052Y222504D03*
D43*
X24638Y222504D03*
X14986Y222504D03*
D27*
X71628Y266192D03*
X66294Y266192D03*
X61214Y266192D03*
D47*
X56388Y266192D03*
D27*
X51562Y266192D03*
D25*
X173482Y222758D03*
D17*
X160401Y222758D03*
D13*
X146558Y222758D03*
D11*
X136525Y222758D03*
D25*
X128524Y222758D03*
D15*
X114935Y222758D03*
D13*
X102616Y222758D03*
D17*
X90043Y222758D03*
D52*
X76073Y222758D03*
D15*
X64389Y222758D03*
D52*
X47625Y222758D03*
D13*
X35052Y222758D03*
D43*
X24638Y222758D03*
D44*
X14859Y222758D03*
D27*
X71628Y266446D03*
X66294Y266446D03*
X61214Y266446D03*
D10*
X56388Y266446D03*
D27*
X51562Y266446D03*
D22*
X173736Y223012D03*
D52*
X160655Y223012D03*
D49*
X146558Y223012D03*
D11*
X136525Y223012D03*
D22*
X128778Y223012D03*
D15*
X114935Y223012D03*
D49*
X102616Y223012D03*
D52*
X90297Y223012D03*
D54*
X76073Y223012D03*
D15*
X64389Y223012D03*
D54*
X47625Y223012D03*
D49*
X35052Y223012D03*
D44*
X24765Y223012D03*
X14859Y223012D03*
D27*
X71628Y266700D03*
X66294Y266700D03*
X61214Y266700D03*
D10*
X56388Y266700D03*
D27*
X51562Y266700D03*
D52*
X174117Y223266D03*
D49*
X161036Y223266D03*
D36*
X146558Y223266D03*
D11*
X136525Y223266D03*
D52*
X129159Y223266D03*
D15*
X114935Y223266D03*
D36*
X102616Y223266D03*
D49*
X90678Y223266D03*
D36*
X76200Y223266D03*
D15*
X64389Y223266D03*
D36*
X47498Y223266D03*
X35052Y223266D03*
D44*
X24765Y223266D03*
D10*
X14732Y223266D03*
D27*
X71628Y266954D03*
X66294Y266954D03*
X61214Y266954D03*
X57150Y266954D03*
X55626Y266954D03*
X51562Y266954D03*
D43*
X146558Y223520D03*
X102616Y223520D03*
X76200Y223520D03*
X47498Y223520D03*
X35052Y223520D03*
D27*
X71628Y267208D03*
X66294Y267208D03*
X61214Y267208D03*
X57150Y267208D03*
X55626Y267208D03*
X51562Y267208D03*
X71628Y267462D03*
X66294Y267462D03*
X61214Y267462D03*
D10*
X56388Y267462D03*
D27*
X51562Y267462D03*
X71628Y267716D03*
X66294Y267716D03*
X61214Y267716D03*
D10*
X56388Y267716D03*
D27*
X51562Y267716D03*
X71628Y267970D03*
X66294Y267970D03*
X61214Y267970D03*
D47*
X56388Y267970D03*
D27*
X51562Y267970D03*
X71628Y268224D03*
X66294Y268224D03*
X61214Y268224D03*
D26*
X56261Y268224D03*
D27*
X51562Y268224D03*
D46*
X71755Y268478D03*
D27*
X66294Y268478D03*
X61214Y268478D03*
X56388Y268478D03*
X51562Y268478D03*
D46*
X72009Y268732D03*
D27*
X66294Y268732D03*
X61214Y268732D03*
X56388Y268732D03*
X51562Y268732D03*
D48*
X72136Y268986D03*
D27*
X66294Y268986D03*
X61214Y268986D03*
X56388Y268986D03*
X51562Y268986D03*
D48*
X72390Y269240D03*
D27*
X66294Y269240D03*
X61214Y269240D03*
X56388Y269240D03*
X51562Y269240D03*
D48*
X72644Y269494D03*
D27*
X66294Y269494D03*
X61214Y269494D03*
X56388Y269494D03*
X51562Y269494D03*
D48*
X72898Y269748D03*
D27*
X66294Y269748D03*
X61214Y269748D03*
X56388Y269748D03*
X51562Y269748D03*
D48*
X73152Y270002D03*
D27*
X66294Y270002D03*
X61214Y270002D03*
X56388Y270002D03*
D46*
X51435Y270002D03*
D48*
X73406Y270256D03*
D27*
X66294Y270256D03*
X61214Y270256D03*
X56388Y270256D03*
D46*
X51181Y270256D03*
D48*
X73660Y270510D03*
D27*
X66294Y270510D03*
X61214Y270510D03*
X56388Y270510D03*
D48*
X51054Y270510D03*
X73914Y270764D03*
D27*
X66294Y270764D03*
X61214Y270764D03*
X56388Y270764D03*
D26*
X50927Y270764D03*
D48*
X74168Y271018D03*
D27*
X66294Y271018D03*
X61214Y271018D03*
X56388Y271018D03*
D26*
X50673Y271018D03*
D48*
X74422Y271272D03*
D46*
X66421Y271272D03*
D27*
X61214Y271272D03*
X56388Y271272D03*
D26*
X50419Y271272D03*
D48*
X74676Y271526D03*
X66548Y271526D03*
D27*
X61214Y271526D03*
X56388Y271526D03*
D26*
X50165Y271526D03*
D48*
X74930Y271780D03*
X66802Y271780D03*
D27*
X61214Y271780D03*
X56388Y271780D03*
D26*
X49911Y271780D03*
D48*
X75184Y272034D03*
X67056Y272034D03*
D27*
X61214Y272034D03*
X56388Y272034D03*
D26*
X49657Y272034D03*
D48*
X75438Y272288D03*
X67310Y272288D03*
D27*
X61214Y272288D03*
X56388Y272288D03*
D26*
X49403Y272288D03*
D48*
X75692Y272542D03*
X67564Y272542D03*
D27*
X61214Y272542D03*
X56388Y272542D03*
D26*
X49149Y272542D03*
D48*
X75946Y272796D03*
X67818Y272796D03*
D27*
X61214Y272796D03*
X56388Y272796D03*
D26*
X48895Y272796D03*
D48*
X76200Y273050D03*
X68072Y273050D03*
D27*
X61214Y273050D03*
X56388Y273050D03*
D26*
X48641Y273050D03*
D55*
X81407Y273304D03*
D48*
X68326Y273304D03*
D46*
X61341Y273304D03*
D27*
X56388Y273304D03*
D26*
X48387Y273304D03*
D56*
X81788Y273558D03*
D48*
X68580Y273558D03*
X61468Y273558D03*
D46*
X56261Y273558D03*
D26*
X48133Y273558D03*
D56*
X82042Y273812D03*
D48*
X68834Y273812D03*
X61722Y273812D03*
X56134Y273812D03*
D26*
X47879Y273812D03*
D56*
X82296Y274066D03*
D48*
X69088Y274066D03*
X61976Y274066D03*
X55880Y274066D03*
D26*
X47625Y274066D03*
D56*
X82550Y274320D03*
D48*
X69342Y274320D03*
X62230Y274320D03*
X55626Y274320D03*
D26*
X47371Y274320D03*
X87757Y274574D03*
D48*
X69596Y274574D03*
X62484Y274574D03*
X55372Y274574D03*
D26*
X47117Y274574D03*
D48*
X88138Y274828D03*
X69850Y274828D03*
X62738Y274828D03*
X55118Y274828D03*
D26*
X46863Y274828D03*
D48*
X88392Y275082D03*
X70104Y275082D03*
X62992Y275082D03*
X54864Y275082D03*
D26*
X46609Y275082D03*
D48*
X88646Y275336D03*
X70358Y275336D03*
X63246Y275336D03*
X54610Y275336D03*
D26*
X46355Y275336D03*
D48*
X88900Y275590D03*
X70612Y275590D03*
X63500Y275590D03*
X54356Y275590D03*
D26*
X46101Y275590D03*
D48*
X89154Y275844D03*
X70866Y275844D03*
X63754Y275844D03*
X54102Y275844D03*
D26*
X45847Y275844D03*
D48*
X89408Y276098D03*
X71120Y276098D03*
X64008Y276098D03*
X53848Y276098D03*
D26*
X45593Y276098D03*
D48*
X89662Y276352D03*
X71374Y276352D03*
X64262Y276352D03*
X53594Y276352D03*
D26*
X45339Y276352D03*
D48*
X89916Y276606D03*
X71628Y276606D03*
X64516Y276606D03*
X53340Y276606D03*
D26*
X45085Y276606D03*
D48*
X90170Y276860D03*
X71882Y276860D03*
D46*
X64643Y276860D03*
D48*
X53086Y276860D03*
D29*
X41402Y276860D03*
D48*
X90424Y277114D03*
X72136Y277114D03*
D27*
X64770Y277114D03*
D48*
X52832Y277114D03*
D24*
X41021Y277114D03*
D26*
X90805Y277368D03*
D34*
X83058Y277368D03*
D48*
X72390Y277368D03*
D27*
X64770Y277368D03*
D48*
X52578Y277368D03*
D24*
X40767Y277368D03*
D26*
X91059Y277622D03*
D48*
X83058Y277622D03*
X72644Y277622D03*
D27*
X64770Y277622D03*
D10*
X51816Y277622D03*
D24*
X40513Y277622D03*
D26*
X91313Y277876D03*
D47*
X83058Y277876D03*
D48*
X72898Y277876D03*
D27*
X64770Y277876D03*
D10*
X51562Y277876D03*
D15*
X40005Y277876D03*
D26*
X91567Y278130D03*
D10*
X83058Y278130D03*
D48*
X73152Y278130D03*
D27*
X64770Y278130D03*
D10*
X51308Y278130D03*
D26*
X36449Y278130D03*
X91821Y278384D03*
D56*
X78486Y278384D03*
D27*
X64770Y278384D03*
D10*
X51308Y278384D03*
D48*
X36322Y278384D03*
D26*
X92075Y278638D03*
D55*
X78613Y278638D03*
D27*
X64770Y278638D03*
D44*
X51181Y278638D03*
D48*
X36068Y278638D03*
D26*
X92329Y278892D03*
D27*
X83820Y278892D03*
D31*
X77978Y278892D03*
D27*
X64770Y278892D03*
X52070Y278892D03*
X50292Y278892D03*
D48*
X35814Y278892D03*
D26*
X92583Y279146D03*
D57*
X78867Y279146D03*
D26*
X64897Y279146D03*
D44*
X51181Y279146D03*
D46*
X35687Y279146D03*
D26*
X92837Y279400D03*
D58*
X81661Y279400D03*
D11*
X64897Y279400D03*
D44*
X51181Y279400D03*
D27*
X35560Y279400D03*
D26*
X93091Y279654D03*
D11*
X83185Y279654D03*
D10*
X64770Y279654D03*
D11*
X51181Y279654D03*
D27*
X35560Y279654D03*
D26*
X93345Y279908D03*
D47*
X83058Y279908D03*
D10*
X64770Y279908D03*
D47*
X51308Y279908D03*
D27*
X35560Y279908D03*
D26*
X93599Y280162D03*
D46*
X83185Y280162D03*
X65659Y280162D03*
D27*
X64008Y280162D03*
D48*
X51308Y280162D03*
D27*
X35560Y280162D03*
D26*
X93853Y280416D03*
D44*
X64897Y280416D03*
D27*
X35560Y280416D03*
D48*
X93980Y280670D03*
D10*
X64770Y280670D03*
D27*
X35560Y280670D03*
D48*
X94234Y280924D03*
D10*
X64770Y280924D03*
D27*
X35560Y280924D03*
D46*
X94361Y281178D03*
D11*
X64897Y281178D03*
D27*
X35560Y281178D03*
X94488Y281432D03*
D26*
X64897Y281432D03*
D27*
X35560Y281432D03*
D59*
X84201Y281686D03*
D45*
X64897Y281686D03*
D27*
X35560Y281686D03*
D60*
X83947Y281940D03*
D27*
X35560Y281940D03*
D60*
X83693Y282194D03*
D27*
X35560Y282194D03*
D60*
X83439Y282448D03*
D27*
X35560Y282448D03*
D60*
X83185Y282702D03*
D27*
X35560Y282702D03*
D26*
X72771Y282956D03*
D27*
X35560Y282956D03*
D26*
X72517Y283210D03*
D27*
X35560Y283210D03*
D56*
X67310Y283464D03*
D27*
X35560Y283464D03*
D61*
X53975Y283718D03*
D62*
X53975Y283972D03*
D63*
X53848Y284226D03*
D64*
X53721Y284480D03*
D65*
X47371Y284734D03*
D66*
X69725Y66880D02*
X65915Y63070D01*
X69725Y66880D02*
X65915Y70690D01*
D67*
X30226Y45930D02*
X23622Y45930D01*
X23622Y48865D01*
X28758Y52001D02*
X30226Y53836D01*
X23622Y53836D01*
X23622Y55670D02*
X23622Y52001D01*
D66*
X142115Y94820D02*
X145925Y98630D01*
X142115Y102440D01*
D67*
X106426Y77680D02*
X99822Y77680D01*
X99822Y80615D01*
X106426Y85769D02*
X106424Y85848D01*
X106419Y85926D01*
X106409Y86004D01*
X106396Y86081D01*
X106379Y86158D01*
X106359Y86234D01*
X106335Y86309D01*
X106308Y86383D01*
X106277Y86455D01*
X106242Y86526D01*
X106205Y86595D01*
X106164Y86662D01*
X106120Y86727D01*
X106073Y86790D01*
X106023Y86850D01*
X105970Y86908D01*
X105914Y86964D01*
X105856Y87017D01*
X105796Y87067D01*
X105733Y87114D01*
X105668Y87158D01*
X105601Y87199D01*
X105532Y87236D01*
X105461Y87271D01*
X105389Y87302D01*
X105315Y87329D01*
X105240Y87353D01*
X105164Y87373D01*
X105087Y87390D01*
X105010Y87403D01*
X104932Y87413D01*
X104854Y87418D01*
X104775Y87420D01*
X106426Y85769D02*
X106424Y85680D01*
X106419Y85591D01*
X106409Y85503D01*
X106396Y85415D01*
X106380Y85328D01*
X106359Y85241D01*
X106335Y85156D01*
X106308Y85071D01*
X106277Y84988D01*
X106242Y84906D01*
X106204Y84825D01*
X106163Y84746D01*
X106119Y84670D01*
X106071Y84594D01*
X106020Y84521D01*
X105967Y84451D01*
X105910Y84382D01*
X105850Y84316D01*
X105788Y84253D01*
X105723Y84192D01*
X105656Y84134D01*
X105586Y84079D01*
X105514Y84026D01*
X105440Y83977D01*
X105364Y83931D01*
X105286Y83889D01*
X105206Y83849D01*
X105125Y83813D01*
X105042Y83780D01*
X104958Y83751D01*
X103491Y86870D02*
X103547Y86926D01*
X103606Y86980D01*
X103667Y87031D01*
X103731Y87080D01*
X103796Y87125D01*
X103864Y87168D01*
X103933Y87207D01*
X104004Y87244D01*
X104077Y87277D01*
X104151Y87306D01*
X104226Y87333D01*
X104302Y87356D01*
X104380Y87375D01*
X104458Y87391D01*
X104536Y87404D01*
X104616Y87413D01*
X104695Y87418D01*
X104775Y87420D01*
X103491Y86870D02*
X99822Y83751D01*
X99822Y87420D01*
D66*
X65915Y126570D02*
X69725Y130380D01*
X65915Y134190D01*
D67*
X30353Y109430D02*
X23749Y109430D01*
X23749Y112365D01*
X23749Y115501D02*
X23749Y117336D01*
X23751Y117421D01*
X23757Y117505D01*
X23767Y117589D01*
X23780Y117673D01*
X23798Y117756D01*
X23819Y117838D01*
X23844Y117919D01*
X23873Y117999D01*
X23905Y118077D01*
X23941Y118153D01*
X23981Y118228D01*
X24024Y118301D01*
X24070Y118372D01*
X24119Y118441D01*
X24172Y118508D01*
X24228Y118572D01*
X24286Y118633D01*
X24347Y118691D01*
X24411Y118747D01*
X24478Y118800D01*
X24547Y118849D01*
X24618Y118895D01*
X24691Y118938D01*
X24766Y118978D01*
X24842Y119014D01*
X24920Y119046D01*
X25000Y119075D01*
X25081Y119100D01*
X25163Y119121D01*
X25246Y119139D01*
X25330Y119152D01*
X25414Y119162D01*
X25498Y119168D01*
X25583Y119170D01*
X25668Y119168D01*
X25752Y119162D01*
X25836Y119152D01*
X25920Y119139D01*
X26003Y119121D01*
X26085Y119100D01*
X26166Y119075D01*
X26246Y119046D01*
X26324Y119014D01*
X26400Y118978D01*
X26475Y118938D01*
X26548Y118895D01*
X26619Y118849D01*
X26688Y118800D01*
X26755Y118747D01*
X26819Y118691D01*
X26880Y118633D01*
X26938Y118572D01*
X26994Y118508D01*
X27047Y118441D01*
X27096Y118372D01*
X27142Y118301D01*
X27185Y118228D01*
X27225Y118153D01*
X27261Y118077D01*
X27293Y117999D01*
X27322Y117919D01*
X27347Y117838D01*
X27368Y117756D01*
X27386Y117673D01*
X27399Y117589D01*
X27409Y117505D01*
X27415Y117421D01*
X27417Y117336D01*
X30353Y117703D02*
X30353Y115501D01*
X30353Y117703D02*
X30351Y117779D01*
X30345Y117854D01*
X30336Y117929D01*
X30322Y118003D01*
X30305Y118077D01*
X30283Y118149D01*
X30259Y118221D01*
X30230Y118291D01*
X30198Y118359D01*
X30163Y118426D01*
X30124Y118491D01*
X30081Y118554D01*
X30036Y118614D01*
X29988Y118672D01*
X29936Y118728D01*
X29882Y118780D01*
X29825Y118830D01*
X29766Y118877D01*
X29705Y118921D01*
X29641Y118962D01*
X29575Y118999D01*
X29507Y119033D01*
X29438Y119063D01*
X29367Y119090D01*
X29295Y119113D01*
X29222Y119132D01*
X29148Y119147D01*
X29073Y119159D01*
X28998Y119167D01*
X28923Y119171D01*
X28847Y119171D01*
X28772Y119167D01*
X28697Y119159D01*
X28622Y119147D01*
X28548Y119132D01*
X28475Y119113D01*
X28403Y119090D01*
X28332Y119063D01*
X28263Y119033D01*
X28195Y118999D01*
X28129Y118962D01*
X28065Y118921D01*
X28004Y118877D01*
X27945Y118830D01*
X27888Y118780D01*
X27834Y118728D01*
X27782Y118672D01*
X27734Y118614D01*
X27689Y118554D01*
X27646Y118491D01*
X27607Y118426D01*
X27572Y118359D01*
X27540Y118291D01*
X27511Y118221D01*
X27487Y118149D01*
X27465Y118077D01*
X27448Y118003D01*
X27434Y117929D01*
X27425Y117854D01*
X27419Y117779D01*
X27417Y117703D01*
X27418Y117703D02*
X27418Y116235D01*
D66*
X142115Y158320D02*
X145925Y162130D01*
X142115Y165940D01*
D67*
X106426Y141180D02*
X99822Y141180D01*
X99822Y144115D01*
X101290Y147251D02*
X106426Y148719D01*
X101290Y147251D02*
X101290Y150920D01*
X102757Y149820D02*
X99822Y149820D01*
D66*
X65915Y190070D02*
X69725Y193880D01*
X65915Y197690D01*
D67*
X27432Y173946D02*
X20828Y173946D01*
X20828Y176881D01*
X20828Y180017D02*
X20828Y182219D01*
X20830Y182293D01*
X20836Y182368D01*
X20845Y182441D01*
X20858Y182515D01*
X20875Y182587D01*
X20895Y182658D01*
X20919Y182729D01*
X20947Y182798D01*
X20978Y182865D01*
X21012Y182931D01*
X21050Y182996D01*
X21091Y183058D01*
X21135Y183118D01*
X21182Y183175D01*
X21232Y183230D01*
X21285Y183283D01*
X21340Y183333D01*
X21397Y183380D01*
X21457Y183424D01*
X21519Y183465D01*
X21584Y183503D01*
X21649Y183537D01*
X21717Y183568D01*
X21786Y183596D01*
X21857Y183620D01*
X21928Y183640D01*
X22000Y183657D01*
X22074Y183670D01*
X22147Y183679D01*
X22222Y183685D01*
X22296Y183687D01*
X22296Y183686D02*
X23029Y183686D01*
X23029Y183687D02*
X23103Y183685D01*
X23178Y183679D01*
X23251Y183670D01*
X23325Y183657D01*
X23397Y183640D01*
X23468Y183620D01*
X23539Y183596D01*
X23608Y183568D01*
X23675Y183537D01*
X23741Y183503D01*
X23806Y183465D01*
X23868Y183424D01*
X23928Y183380D01*
X23985Y183333D01*
X24040Y183283D01*
X24093Y183230D01*
X24143Y183175D01*
X24190Y183118D01*
X24234Y183058D01*
X24275Y182996D01*
X24313Y182931D01*
X24347Y182865D01*
X24378Y182798D01*
X24406Y182729D01*
X24430Y182658D01*
X24450Y182587D01*
X24467Y182515D01*
X24480Y182441D01*
X24489Y182368D01*
X24495Y182293D01*
X24497Y182219D01*
X24497Y180017D01*
X27432Y180017D01*
X27432Y183686D01*
X9652Y34177D02*
X9652Y32710D01*
X9654Y32636D01*
X9660Y32561D01*
X9669Y32488D01*
X9682Y32414D01*
X9699Y32342D01*
X9719Y32271D01*
X9743Y32200D01*
X9771Y32131D01*
X9802Y32064D01*
X9836Y31998D01*
X9874Y31933D01*
X9915Y31871D01*
X9959Y31811D01*
X10006Y31754D01*
X10056Y31699D01*
X10109Y31646D01*
X10164Y31596D01*
X10221Y31549D01*
X10281Y31505D01*
X10343Y31464D01*
X10408Y31426D01*
X10474Y31392D01*
X10541Y31361D01*
X10610Y31333D01*
X10681Y31309D01*
X10752Y31289D01*
X10824Y31272D01*
X10898Y31259D01*
X10971Y31250D01*
X11046Y31244D01*
X11120Y31242D01*
X14788Y31242D01*
X14862Y31244D01*
X14937Y31250D01*
X15010Y31259D01*
X15084Y31272D01*
X15156Y31289D01*
X15227Y31309D01*
X15298Y31333D01*
X15367Y31361D01*
X15434Y31392D01*
X15500Y31426D01*
X15565Y31464D01*
X15627Y31505D01*
X15687Y31549D01*
X15744Y31596D01*
X15799Y31646D01*
X15852Y31699D01*
X15902Y31754D01*
X15949Y31811D01*
X15993Y31871D01*
X16034Y31933D01*
X16072Y31998D01*
X16106Y32063D01*
X16137Y32131D01*
X16165Y32200D01*
X16189Y32271D01*
X16209Y32342D01*
X16226Y32414D01*
X16239Y32488D01*
X16248Y32561D01*
X16254Y32636D01*
X16256Y32710D01*
X16256Y34177D01*
X14788Y37374D02*
X16256Y39208D01*
X9652Y39208D01*
X9652Y37374D02*
X9652Y41042D01*
X132087Y28194D02*
X133555Y28194D01*
X133629Y28196D01*
X133704Y28202D01*
X133777Y28211D01*
X133851Y28224D01*
X133923Y28241D01*
X133994Y28261D01*
X134065Y28285D01*
X134134Y28313D01*
X134202Y28344D01*
X134267Y28378D01*
X134332Y28416D01*
X134394Y28457D01*
X134454Y28501D01*
X134511Y28548D01*
X134566Y28598D01*
X134619Y28651D01*
X134669Y28706D01*
X134716Y28763D01*
X134760Y28823D01*
X134801Y28885D01*
X134839Y28950D01*
X134873Y29016D01*
X134904Y29083D01*
X134932Y29152D01*
X134956Y29223D01*
X134976Y29294D01*
X134993Y29367D01*
X135006Y29440D01*
X135015Y29514D01*
X135021Y29588D01*
X135023Y29662D01*
X135022Y29662D02*
X135022Y33330D01*
X135023Y33330D02*
X135021Y33404D01*
X135015Y33479D01*
X135006Y33552D01*
X134993Y33625D01*
X134976Y33698D01*
X134956Y33769D01*
X134932Y33840D01*
X134904Y33909D01*
X134873Y33976D01*
X134839Y34042D01*
X134801Y34107D01*
X134760Y34169D01*
X134716Y34229D01*
X134669Y34286D01*
X134619Y34341D01*
X134566Y34394D01*
X134511Y34444D01*
X134454Y34491D01*
X134394Y34535D01*
X134332Y34576D01*
X134267Y34614D01*
X134202Y34648D01*
X134134Y34679D01*
X134065Y34707D01*
X133995Y34731D01*
X133923Y34751D01*
X133851Y34768D01*
X133777Y34781D01*
X133704Y34790D01*
X133629Y34796D01*
X133555Y34798D01*
X132087Y34798D01*
X126873Y34798D02*
X126794Y34796D01*
X126716Y34791D01*
X126638Y34781D01*
X126561Y34768D01*
X126484Y34751D01*
X126408Y34731D01*
X126333Y34707D01*
X126259Y34680D01*
X126187Y34649D01*
X126116Y34614D01*
X126048Y34577D01*
X125980Y34536D01*
X125915Y34492D01*
X125852Y34445D01*
X125792Y34395D01*
X125734Y34342D01*
X125678Y34286D01*
X125625Y34228D01*
X125575Y34168D01*
X125528Y34105D01*
X125484Y34040D01*
X125443Y33973D01*
X125406Y33904D01*
X125371Y33833D01*
X125340Y33761D01*
X125313Y33687D01*
X125289Y33612D01*
X125269Y33536D01*
X125252Y33459D01*
X125239Y33382D01*
X125229Y33304D01*
X125224Y33226D01*
X125222Y33147D01*
X126873Y34798D02*
X126962Y34796D01*
X127051Y34791D01*
X127139Y34781D01*
X127227Y34768D01*
X127314Y34752D01*
X127401Y34731D01*
X127486Y34707D01*
X127571Y34680D01*
X127654Y34649D01*
X127736Y34614D01*
X127817Y34576D01*
X127896Y34535D01*
X127972Y34491D01*
X128048Y34443D01*
X128121Y34392D01*
X128191Y34339D01*
X128260Y34282D01*
X128326Y34222D01*
X128389Y34160D01*
X128450Y34095D01*
X128508Y34028D01*
X128563Y33958D01*
X128616Y33886D01*
X128665Y33812D01*
X128711Y33736D01*
X128753Y33658D01*
X128793Y33578D01*
X128829Y33497D01*
X128862Y33414D01*
X128891Y33330D01*
X125772Y31863D02*
X125716Y31919D01*
X125662Y31978D01*
X125611Y32039D01*
X125562Y32103D01*
X125517Y32168D01*
X125474Y32236D01*
X125435Y32305D01*
X125398Y32376D01*
X125365Y32449D01*
X125336Y32523D01*
X125309Y32598D01*
X125286Y32674D01*
X125267Y32752D01*
X125251Y32830D01*
X125238Y32908D01*
X125229Y32988D01*
X125224Y33067D01*
X125222Y33147D01*
X125772Y31863D02*
X128891Y28194D01*
X125222Y28194D01*
X9652Y96210D02*
X9652Y97677D01*
X9652Y96210D02*
X9654Y96136D01*
X9660Y96061D01*
X9669Y95988D01*
X9682Y95914D01*
X9699Y95842D01*
X9719Y95771D01*
X9743Y95700D01*
X9771Y95631D01*
X9802Y95564D01*
X9836Y95498D01*
X9874Y95433D01*
X9915Y95371D01*
X9959Y95311D01*
X10006Y95254D01*
X10056Y95199D01*
X10109Y95146D01*
X10164Y95096D01*
X10221Y95049D01*
X10281Y95005D01*
X10343Y94964D01*
X10408Y94926D01*
X10474Y94892D01*
X10541Y94861D01*
X10610Y94833D01*
X10681Y94809D01*
X10752Y94789D01*
X10824Y94772D01*
X10898Y94759D01*
X10971Y94750D01*
X11046Y94744D01*
X11120Y94742D01*
X14788Y94742D01*
X14862Y94744D01*
X14937Y94750D01*
X15010Y94759D01*
X15084Y94772D01*
X15156Y94789D01*
X15227Y94809D01*
X15298Y94833D01*
X15367Y94861D01*
X15434Y94892D01*
X15500Y94926D01*
X15565Y94964D01*
X15627Y95005D01*
X15687Y95049D01*
X15744Y95096D01*
X15799Y95146D01*
X15852Y95199D01*
X15902Y95254D01*
X15949Y95311D01*
X15993Y95371D01*
X16034Y95433D01*
X16072Y95498D01*
X16106Y95563D01*
X16137Y95631D01*
X16165Y95700D01*
X16189Y95771D01*
X16209Y95842D01*
X16226Y95914D01*
X16239Y95988D01*
X16248Y96061D01*
X16254Y96136D01*
X16256Y96210D01*
X16256Y97677D01*
X9652Y100874D02*
X9652Y102708D01*
X9654Y102793D01*
X9660Y102877D01*
X9670Y102961D01*
X9683Y103045D01*
X9701Y103128D01*
X9722Y103210D01*
X9747Y103291D01*
X9776Y103371D01*
X9808Y103449D01*
X9844Y103525D01*
X9884Y103600D01*
X9927Y103673D01*
X9973Y103744D01*
X10022Y103813D01*
X10075Y103880D01*
X10131Y103944D01*
X10189Y104005D01*
X10250Y104063D01*
X10314Y104119D01*
X10381Y104172D01*
X10450Y104221D01*
X10521Y104267D01*
X10594Y104310D01*
X10669Y104350D01*
X10745Y104386D01*
X10823Y104418D01*
X10903Y104447D01*
X10984Y104472D01*
X11066Y104493D01*
X11149Y104511D01*
X11233Y104524D01*
X11317Y104534D01*
X11401Y104540D01*
X11486Y104542D01*
X11571Y104540D01*
X11655Y104534D01*
X11739Y104524D01*
X11823Y104511D01*
X11906Y104493D01*
X11988Y104472D01*
X12069Y104447D01*
X12149Y104418D01*
X12227Y104386D01*
X12303Y104350D01*
X12378Y104310D01*
X12451Y104267D01*
X12522Y104221D01*
X12591Y104172D01*
X12658Y104119D01*
X12722Y104063D01*
X12783Y104005D01*
X12841Y103944D01*
X12897Y103880D01*
X12950Y103813D01*
X12999Y103744D01*
X13045Y103673D01*
X13088Y103600D01*
X13128Y103525D01*
X13164Y103449D01*
X13196Y103371D01*
X13225Y103291D01*
X13250Y103210D01*
X13271Y103128D01*
X13289Y103045D01*
X13302Y102961D01*
X13312Y102877D01*
X13318Y102793D01*
X13320Y102708D01*
X16256Y103075D02*
X16256Y100874D01*
X16256Y103075D02*
X16254Y103151D01*
X16248Y103226D01*
X16239Y103301D01*
X16225Y103375D01*
X16208Y103449D01*
X16186Y103521D01*
X16162Y103593D01*
X16133Y103663D01*
X16101Y103731D01*
X16066Y103798D01*
X16027Y103863D01*
X15984Y103926D01*
X15939Y103986D01*
X15891Y104044D01*
X15839Y104100D01*
X15785Y104152D01*
X15728Y104202D01*
X15669Y104249D01*
X15608Y104293D01*
X15544Y104334D01*
X15478Y104371D01*
X15410Y104405D01*
X15341Y104435D01*
X15270Y104462D01*
X15198Y104485D01*
X15125Y104504D01*
X15051Y104519D01*
X14976Y104531D01*
X14901Y104539D01*
X14826Y104543D01*
X14750Y104543D01*
X14675Y104539D01*
X14600Y104531D01*
X14525Y104519D01*
X14451Y104504D01*
X14378Y104485D01*
X14306Y104462D01*
X14235Y104435D01*
X14166Y104405D01*
X14098Y104371D01*
X14032Y104334D01*
X13968Y104293D01*
X13907Y104249D01*
X13848Y104202D01*
X13791Y104152D01*
X13737Y104100D01*
X13685Y104044D01*
X13637Y103986D01*
X13592Y103926D01*
X13549Y103863D01*
X13510Y103798D01*
X13475Y103731D01*
X13443Y103663D01*
X13414Y103593D01*
X13390Y103521D01*
X13368Y103449D01*
X13351Y103375D01*
X13337Y103301D01*
X13328Y103226D01*
X13322Y103151D01*
X13320Y103075D01*
X13321Y103075D02*
X13321Y101607D01*
X132087Y189484D02*
X133555Y189484D01*
X133629Y189486D01*
X133704Y189492D01*
X133777Y189501D01*
X133851Y189514D01*
X133923Y189531D01*
X133994Y189551D01*
X134065Y189575D01*
X134134Y189603D01*
X134202Y189634D01*
X134267Y189668D01*
X134332Y189706D01*
X134394Y189747D01*
X134454Y189791D01*
X134511Y189838D01*
X134566Y189888D01*
X134619Y189941D01*
X134669Y189996D01*
X134716Y190053D01*
X134760Y190113D01*
X134801Y190175D01*
X134839Y190240D01*
X134873Y190306D01*
X134904Y190373D01*
X134932Y190442D01*
X134956Y190513D01*
X134976Y190584D01*
X134993Y190657D01*
X135006Y190730D01*
X135015Y190804D01*
X135021Y190878D01*
X135023Y190952D01*
X135022Y190952D02*
X135022Y194620D01*
X135023Y194620D02*
X135021Y194694D01*
X135015Y194769D01*
X135006Y194842D01*
X134993Y194915D01*
X134976Y194988D01*
X134956Y195059D01*
X134932Y195130D01*
X134904Y195199D01*
X134873Y195266D01*
X134839Y195332D01*
X134801Y195397D01*
X134760Y195459D01*
X134716Y195519D01*
X134669Y195576D01*
X134619Y195631D01*
X134566Y195684D01*
X134511Y195734D01*
X134454Y195781D01*
X134394Y195825D01*
X134332Y195866D01*
X134267Y195904D01*
X134202Y195938D01*
X134134Y195969D01*
X134065Y195997D01*
X133995Y196021D01*
X133923Y196041D01*
X133851Y196058D01*
X133777Y196071D01*
X133704Y196080D01*
X133629Y196086D01*
X133555Y196088D01*
X132087Y196088D01*
X127423Y196088D02*
X128891Y190952D01*
X125222Y190952D01*
X126323Y192419D02*
X126323Y189484D01*
X9652Y161177D02*
X9652Y159710D01*
X9654Y159636D01*
X9660Y159561D01*
X9669Y159488D01*
X9682Y159414D01*
X9699Y159342D01*
X9719Y159271D01*
X9743Y159200D01*
X9771Y159131D01*
X9802Y159064D01*
X9836Y158998D01*
X9874Y158933D01*
X9915Y158871D01*
X9959Y158811D01*
X10006Y158754D01*
X10056Y158699D01*
X10109Y158646D01*
X10164Y158596D01*
X10221Y158549D01*
X10281Y158505D01*
X10343Y158464D01*
X10408Y158426D01*
X10474Y158392D01*
X10541Y158361D01*
X10610Y158333D01*
X10681Y158309D01*
X10752Y158289D01*
X10824Y158272D01*
X10898Y158259D01*
X10971Y158250D01*
X11046Y158244D01*
X11120Y158242D01*
X14788Y158242D01*
X14862Y158244D01*
X14937Y158250D01*
X15010Y158259D01*
X15084Y158272D01*
X15156Y158289D01*
X15227Y158309D01*
X15298Y158333D01*
X15367Y158361D01*
X15434Y158392D01*
X15500Y158426D01*
X15565Y158464D01*
X15627Y158505D01*
X15687Y158549D01*
X15744Y158596D01*
X15799Y158646D01*
X15852Y158699D01*
X15902Y158754D01*
X15949Y158811D01*
X15993Y158871D01*
X16034Y158933D01*
X16072Y158998D01*
X16106Y159063D01*
X16137Y159131D01*
X16165Y159200D01*
X16189Y159271D01*
X16209Y159342D01*
X16226Y159414D01*
X16239Y159488D01*
X16248Y159561D01*
X16254Y159636D01*
X16256Y159710D01*
X16256Y161177D01*
X9652Y164374D02*
X9652Y166575D01*
X9654Y166649D01*
X9660Y166724D01*
X9669Y166797D01*
X9682Y166871D01*
X9699Y166943D01*
X9719Y167014D01*
X9743Y167085D01*
X9771Y167154D01*
X9802Y167221D01*
X9836Y167287D01*
X9874Y167352D01*
X9915Y167414D01*
X9959Y167474D01*
X10006Y167531D01*
X10056Y167586D01*
X10109Y167639D01*
X10164Y167689D01*
X10221Y167736D01*
X10281Y167780D01*
X10343Y167821D01*
X10408Y167859D01*
X10473Y167893D01*
X10541Y167924D01*
X10610Y167952D01*
X10681Y167976D01*
X10752Y167996D01*
X10824Y168013D01*
X10898Y168026D01*
X10971Y168035D01*
X11046Y168041D01*
X11120Y168043D01*
X11120Y168042D02*
X11853Y168042D01*
X11853Y168043D02*
X11927Y168041D01*
X12002Y168035D01*
X12075Y168026D01*
X12149Y168013D01*
X12221Y167996D01*
X12292Y167976D01*
X12363Y167952D01*
X12432Y167924D01*
X12499Y167893D01*
X12565Y167859D01*
X12630Y167821D01*
X12692Y167780D01*
X12752Y167736D01*
X12809Y167689D01*
X12864Y167639D01*
X12917Y167586D01*
X12967Y167531D01*
X13014Y167474D01*
X13058Y167414D01*
X13099Y167352D01*
X13137Y167287D01*
X13171Y167221D01*
X13202Y167154D01*
X13230Y167085D01*
X13254Y167014D01*
X13274Y166943D01*
X13291Y166871D01*
X13304Y166797D01*
X13313Y166724D01*
X13319Y166649D01*
X13321Y166575D01*
X13321Y164374D01*
X16256Y164374D01*
X16256Y168042D01*
M02*
