M48
;GenerationSoftware,Autodesk,EAGLE,9.5.2*%
;CreationDate,2020-01-04T22:26:58Z*%
FMAT,2
ICI,OFF
METRIC,TZ,000.000
T6C0.350
T5C0.500
T4C0.600
T3C0.864
T2C1.397
T1C3.048
%
G90
M71
T1
X63500Y24130
X3810Y8890
X31750Y27940
T2
X34290Y2540
X36830Y2540
X39370Y2540
X41910Y2540
X44450Y2540
X46990Y2540
X49530Y2540
X52070Y2540
X54610Y2540
T3
X55931Y35331
X60909Y35331
T4
X46990Y33440
X64770Y10160
T5
X59690Y29210
X60960Y17780
X55880Y16510
X3810Y13970
X48797Y6604
X51287Y7802
X6350Y16510
X60960Y30480
X45720Y30480
X45720Y29210
X24130Y38100
X43180Y38100
X5080Y25400
X61595Y14605
X37338Y35433
X3810Y19050
X54102Y29210
T6
X55191Y12827
X54737Y26543
X53419Y12827
X55191Y13685
X52962Y13583
X36195Y34290
M30