M48
;GenerationSoftware,Autodesk,EAGLE,9.5.2*%
;CreationDate,2020-01-06T02:30:18Z*%
FMAT,2
ICI,OFF
METRIC,TZ,000.000
T4C0.350
T3C0.600
T2C1.016
T1C3.048
%
G90
M71
T1
X31750Y27940
X3810Y8890
X63500Y24130
T2
X63754Y31115
X61214Y31115
X58674Y31115
X56134Y31115
T3
X30086Y18174
T4
X11430Y25375
X17780Y22835
X24130Y20295
X5080Y27915
X5080Y15215
X17780Y10135
X24155Y7645
X55880Y7595
X62230Y5055
X37287Y15240
X49530Y22835
X55880Y20320
X36830Y27915
X33655Y18390
X65024Y21717
X62230Y17755
X43180Y25375
X50800Y5080
X36805Y29868
X17780Y21311
X15240Y17780
X44450Y1270
X35560Y7620
M30