G04 EAGLE Gerber RS-274X export*
G75*
%MOMM*%
%FSLAX34Y34*%
%LPD*%
%INBottom Copper*%
%IPPOS*%
%AMOC8*
5,1,8,0,0,1.08239X$1,22.5*%
G01*
%ADD10R,1.500000X1.000000*%
%ADD11R,0.900000X0.700000*%
%ADD12R,0.812800X0.304800*%
%ADD13R,0.304800X0.812800*%
%ADD14R,2.590800X2.590800*%
%ADD15R,0.700000X0.900000*%
%ADD16R,1.400000X1.050000*%
%ADD17R,1.500000X1.300000*%
%ADD18R,0.406400X1.346200*%
%ADD19C,1.447800*%
%ADD20R,1.498600X1.905000*%
%ADD21C,1.193800*%
%ADD22R,1.200506X1.905000*%
%ADD23R,0.850800X1.761200*%
%ADD24R,3.150800X1.761200*%
%ADD25R,0.330200X0.762000*%
%ADD26R,0.600000X1.200000*%
%ADD27C,2.095500*%
%ADD28R,0.762000X2.387600*%
%ADD29C,0.304800*%
%ADD30C,0.855600*%
%ADD31C,0.406400*%
%ADD32C,0.955600*%
%ADD33C,0.152400*%
%ADD34C,0.705600*%

G36*
X335271Y3822D02*
X335271Y3822D01*
X335343Y3824D01*
X335392Y3842D01*
X335443Y3850D01*
X335506Y3884D01*
X335574Y3909D01*
X335614Y3941D01*
X335660Y3966D01*
X335710Y4018D01*
X335766Y4062D01*
X335794Y4106D01*
X335830Y4144D01*
X335860Y4209D01*
X335899Y4269D01*
X335911Y4320D01*
X335933Y4367D01*
X335941Y4438D01*
X335959Y4508D01*
X335955Y4560D01*
X335960Y4611D01*
X335945Y4682D01*
X335940Y4753D01*
X335919Y4801D01*
X335908Y4852D01*
X335871Y4913D01*
X335843Y4979D01*
X335799Y5035D01*
X335782Y5063D01*
X335764Y5078D01*
X335739Y5110D01*
X332725Y8124D01*
X330898Y12535D01*
X330898Y38265D01*
X332725Y42676D01*
X336101Y46052D01*
X340513Y47880D01*
X345287Y47880D01*
X349699Y46052D01*
X353075Y42676D01*
X354897Y38278D01*
X354935Y38217D01*
X354964Y38152D01*
X354999Y38113D01*
X355026Y38069D01*
X355082Y38023D01*
X355130Y37971D01*
X355176Y37946D01*
X355216Y37912D01*
X355283Y37887D01*
X355346Y37852D01*
X355397Y37843D01*
X355445Y37824D01*
X355517Y37821D01*
X355588Y37808D01*
X355639Y37816D01*
X355691Y37814D01*
X355760Y37834D01*
X355831Y37844D01*
X355877Y37868D01*
X355927Y37882D01*
X355986Y37923D01*
X356050Y37956D01*
X356087Y37993D01*
X356129Y38023D01*
X356172Y38080D01*
X356222Y38131D01*
X356257Y38194D01*
X356276Y38220D01*
X356283Y38242D01*
X356303Y38278D01*
X358125Y42676D01*
X361501Y46052D01*
X364781Y47411D01*
X364880Y47472D01*
X364981Y47533D01*
X364985Y47537D01*
X364990Y47541D01*
X365064Y47630D01*
X365141Y47720D01*
X365143Y47725D01*
X365147Y47730D01*
X365189Y47838D01*
X365233Y47948D01*
X365234Y47955D01*
X365235Y47960D01*
X365236Y47978D01*
X365251Y48114D01*
X365251Y188022D01*
X365237Y188112D01*
X365229Y188203D01*
X365217Y188233D01*
X365212Y188265D01*
X365187Y188311D01*
X365187Y188313D01*
X365180Y188324D01*
X365169Y188345D01*
X365133Y188429D01*
X365107Y188461D01*
X365096Y188482D01*
X365073Y188504D01*
X365070Y188508D01*
X365060Y188524D01*
X365050Y188533D01*
X365028Y188560D01*
X262751Y290837D01*
X262751Y345014D01*
X262748Y345034D01*
X262750Y345053D01*
X262728Y345155D01*
X262712Y345257D01*
X262702Y345274D01*
X262698Y345294D01*
X262645Y345383D01*
X262596Y345474D01*
X262582Y345488D01*
X262572Y345505D01*
X262493Y345572D01*
X262418Y345644D01*
X262400Y345652D01*
X262385Y345665D01*
X262289Y345704D01*
X262195Y345747D01*
X262175Y345749D01*
X262157Y345757D01*
X261990Y345775D01*
X257668Y345775D01*
X256775Y346668D01*
X256775Y357990D01*
X256772Y358010D01*
X256774Y358029D01*
X256752Y358131D01*
X256736Y358233D01*
X256726Y358250D01*
X256722Y358270D01*
X256669Y358359D01*
X256620Y358450D01*
X256606Y358464D01*
X256596Y358481D01*
X256517Y358548D01*
X256442Y358620D01*
X256424Y358628D01*
X256409Y358641D01*
X256313Y358680D01*
X256219Y358723D01*
X256199Y358725D01*
X256181Y358733D01*
X256014Y358751D01*
X226586Y358751D01*
X226566Y358748D01*
X226547Y358750D01*
X226445Y358728D01*
X226343Y358712D01*
X226326Y358702D01*
X226306Y358698D01*
X226217Y358645D01*
X226126Y358596D01*
X226112Y358582D01*
X226095Y358572D01*
X226028Y358493D01*
X225956Y358418D01*
X225948Y358400D01*
X225935Y358385D01*
X225896Y358289D01*
X225853Y358195D01*
X225851Y358175D01*
X225843Y358157D01*
X225825Y357990D01*
X225825Y346668D01*
X224932Y345775D01*
X208668Y345775D01*
X207775Y346668D01*
X207775Y348490D01*
X207772Y348510D01*
X207774Y348529D01*
X207752Y348631D01*
X207736Y348733D01*
X207726Y348750D01*
X207722Y348770D01*
X207669Y348859D01*
X207620Y348950D01*
X207606Y348964D01*
X207596Y348981D01*
X207517Y349048D01*
X207442Y349120D01*
X207424Y349128D01*
X207409Y349141D01*
X207313Y349180D01*
X207219Y349223D01*
X207199Y349225D01*
X207181Y349233D01*
X207014Y349251D01*
X205087Y349251D01*
X203078Y351260D01*
X197786Y356552D01*
X197712Y356605D01*
X197643Y356665D01*
X197613Y356677D01*
X197586Y356696D01*
X197499Y356723D01*
X197415Y356757D01*
X197374Y356761D01*
X197351Y356768D01*
X197319Y356767D01*
X197248Y356775D01*
X191718Y356775D01*
X190825Y357668D01*
X190825Y365932D01*
X191718Y366825D01*
X201982Y366825D01*
X202875Y365932D01*
X202875Y365610D01*
X202878Y365590D01*
X202876Y365571D01*
X202898Y365469D01*
X202914Y365367D01*
X202924Y365350D01*
X202928Y365330D01*
X202981Y365241D01*
X203030Y365150D01*
X203044Y365136D01*
X203054Y365119D01*
X203133Y365052D01*
X203208Y364980D01*
X203226Y364972D01*
X203241Y364959D01*
X203337Y364920D01*
X203431Y364877D01*
X203451Y364875D01*
X203469Y364867D01*
X203636Y364849D01*
X284022Y364849D01*
X284112Y364863D01*
X284203Y364871D01*
X284233Y364883D01*
X284265Y364888D01*
X284345Y364931D01*
X284429Y364967D01*
X284461Y364993D01*
X284482Y365004D01*
X284504Y365027D01*
X284560Y365072D01*
X306635Y387147D01*
X366315Y387147D01*
X379962Y373500D01*
X380036Y373447D01*
X380105Y373387D01*
X380135Y373375D01*
X380162Y373356D01*
X380249Y373329D01*
X380333Y373295D01*
X380374Y373291D01*
X380397Y373284D01*
X380429Y373285D01*
X380500Y373277D01*
X385827Y373277D01*
X385827Y368246D01*
X385807Y368203D01*
X385799Y368132D01*
X385782Y368062D01*
X385786Y368010D01*
X385780Y367959D01*
X385795Y367888D01*
X385801Y367817D01*
X385821Y367769D01*
X385832Y367718D01*
X385869Y367657D01*
X385897Y367591D01*
X385942Y367535D01*
X385958Y367507D01*
X385976Y367492D01*
X386002Y367460D01*
X386414Y367048D01*
X386488Y366994D01*
X386557Y366935D01*
X386587Y366923D01*
X386614Y366904D01*
X386701Y366877D01*
X386785Y366843D01*
X386826Y366839D01*
X386849Y366832D01*
X386881Y366833D01*
X386952Y366825D01*
X392482Y366825D01*
X393375Y365932D01*
X393375Y365760D01*
X393378Y365740D01*
X393376Y365721D01*
X393398Y365619D01*
X393414Y365517D01*
X393424Y365500D01*
X393428Y365480D01*
X393481Y365391D01*
X393530Y365300D01*
X393544Y365286D01*
X393554Y365269D01*
X393633Y365202D01*
X393708Y365130D01*
X393726Y365122D01*
X393741Y365109D01*
X393837Y365070D01*
X393931Y365027D01*
X393951Y365025D01*
X393969Y365017D01*
X394136Y364999D01*
X466083Y364999D01*
X472949Y358133D01*
X472949Y340468D01*
X472968Y340353D01*
X472985Y340237D01*
X472987Y340231D01*
X472988Y340225D01*
X473043Y340122D01*
X473096Y340018D01*
X473101Y340013D01*
X473104Y340008D01*
X473188Y339928D01*
X473272Y339845D01*
X473278Y339842D01*
X473282Y339838D01*
X473299Y339831D01*
X473419Y339765D01*
X473470Y339743D01*
X475243Y337970D01*
X475265Y337919D01*
X475326Y337820D01*
X475386Y337719D01*
X475391Y337715D01*
X475394Y337710D01*
X475484Y337635D01*
X475573Y337559D01*
X475579Y337557D01*
X475584Y337553D01*
X475692Y337511D01*
X475801Y337467D01*
X475809Y337466D01*
X475813Y337465D01*
X475832Y337464D01*
X475968Y337449D01*
X484244Y337449D01*
X484264Y337452D01*
X484283Y337450D01*
X484385Y337472D01*
X484487Y337488D01*
X484504Y337498D01*
X484524Y337502D01*
X484613Y337555D01*
X484704Y337604D01*
X484718Y337618D01*
X484735Y337628D01*
X484802Y337707D01*
X484874Y337782D01*
X484882Y337800D01*
X484895Y337815D01*
X484934Y337911D01*
X484977Y338005D01*
X484979Y338025D01*
X484987Y338043D01*
X485005Y338210D01*
X485005Y341532D01*
X485137Y341664D01*
X485206Y341759D01*
X485277Y341856D01*
X485279Y341860D01*
X485281Y341863D01*
X485316Y341977D01*
X485352Y342090D01*
X485352Y342095D01*
X485353Y342098D01*
X485350Y342217D01*
X485348Y342336D01*
X485347Y342340D01*
X485347Y342344D01*
X485306Y342455D01*
X485267Y342568D01*
X485264Y342571D01*
X485263Y342575D01*
X485188Y342668D01*
X485115Y342762D01*
X485111Y342765D01*
X485109Y342767D01*
X485097Y342775D01*
X484980Y342861D01*
X484970Y342867D01*
X484497Y343340D01*
X484162Y343919D01*
X483989Y344566D01*
X483989Y349877D01*
X493268Y349877D01*
X493288Y349880D01*
X493307Y349878D01*
X493409Y349900D01*
X493511Y349917D01*
X493528Y349926D01*
X493548Y349930D01*
X493637Y349983D01*
X493728Y350032D01*
X493742Y350046D01*
X493759Y350056D01*
X493826Y350135D01*
X493897Y350210D01*
X493906Y350228D01*
X493919Y350243D01*
X493958Y350339D01*
X494001Y350433D01*
X494003Y350453D01*
X494011Y350471D01*
X494029Y350638D01*
X494029Y351401D01*
X494031Y351401D01*
X494031Y350638D01*
X494034Y350618D01*
X494032Y350599D01*
X494054Y350497D01*
X494071Y350395D01*
X494080Y350378D01*
X494084Y350358D01*
X494137Y350269D01*
X494186Y350178D01*
X494200Y350164D01*
X494210Y350147D01*
X494289Y350080D01*
X494364Y350009D01*
X494382Y350000D01*
X494397Y349987D01*
X494493Y349948D01*
X494587Y349905D01*
X494607Y349903D01*
X494625Y349895D01*
X494792Y349877D01*
X504071Y349877D01*
X504071Y344566D01*
X503898Y343919D01*
X503563Y343340D01*
X503090Y342867D01*
X503080Y342861D01*
X502989Y342786D01*
X502895Y342712D01*
X502893Y342708D01*
X502890Y342705D01*
X502827Y342606D01*
X502762Y342505D01*
X502761Y342501D01*
X502759Y342497D01*
X502731Y342382D01*
X502702Y342266D01*
X502703Y342262D01*
X502702Y342258D01*
X502712Y342139D01*
X502721Y342021D01*
X502723Y342017D01*
X502723Y342013D01*
X502771Y341905D01*
X502818Y341795D01*
X502821Y341791D01*
X502822Y341788D01*
X502831Y341778D01*
X502923Y341664D01*
X503055Y341532D01*
X503055Y327268D01*
X502162Y326375D01*
X499618Y326375D01*
X499598Y326372D01*
X499579Y326374D01*
X499477Y326352D01*
X499375Y326336D01*
X499358Y326326D01*
X499338Y326322D01*
X499249Y326269D01*
X499158Y326220D01*
X499144Y326206D01*
X499127Y326196D01*
X499060Y326117D01*
X498988Y326042D01*
X498980Y326024D01*
X498967Y326009D01*
X498928Y325913D01*
X498885Y325819D01*
X498883Y325799D01*
X498875Y325781D01*
X498857Y325614D01*
X498857Y320742D01*
X498860Y320722D01*
X498858Y320703D01*
X498880Y320601D01*
X498896Y320499D01*
X498906Y320482D01*
X498910Y320462D01*
X498963Y320373D01*
X499012Y320282D01*
X499026Y320268D01*
X499036Y320251D01*
X499115Y320184D01*
X499190Y320112D01*
X499208Y320104D01*
X499223Y320091D01*
X499319Y320052D01*
X499413Y320009D01*
X499433Y320007D01*
X499451Y319999D01*
X499618Y319981D01*
X500186Y319981D01*
X501079Y319088D01*
X501079Y300212D01*
X500002Y299136D01*
X499991Y299120D01*
X499975Y299107D01*
X499919Y299020D01*
X499859Y298936D01*
X499853Y298917D01*
X499842Y298900D01*
X499817Y298800D01*
X499786Y298701D01*
X499787Y298681D01*
X499782Y298662D01*
X499790Y298559D01*
X499793Y298455D01*
X499800Y298436D01*
X499801Y298417D01*
X499841Y298322D01*
X499877Y298224D01*
X499890Y298209D01*
X499897Y298190D01*
X500002Y298059D01*
X502690Y295372D01*
X502764Y295319D01*
X502833Y295259D01*
X502863Y295247D01*
X502890Y295228D01*
X502977Y295201D01*
X503061Y295167D01*
X503102Y295163D01*
X503125Y295156D01*
X503157Y295157D01*
X503228Y295149D01*
X535547Y295149D01*
X535637Y295163D01*
X535728Y295171D01*
X535758Y295183D01*
X535790Y295188D01*
X535871Y295231D01*
X535954Y295267D01*
X535987Y295293D01*
X536007Y295304D01*
X536029Y295327D01*
X536085Y295372D01*
X537733Y297019D01*
X539866Y297903D01*
X542196Y297903D01*
X542286Y297917D01*
X542377Y297925D01*
X542407Y297937D01*
X542439Y297942D01*
X542519Y297985D01*
X542603Y298021D01*
X542635Y298047D01*
X542656Y298058D01*
X542678Y298081D01*
X542734Y298126D01*
X558807Y314199D01*
X579113Y314199D01*
X581122Y312190D01*
X583439Y309873D01*
X583439Y309499D01*
X583442Y309479D01*
X583440Y309460D01*
X583462Y309358D01*
X583478Y309256D01*
X583488Y309239D01*
X583492Y309219D01*
X583545Y309130D01*
X583594Y309039D01*
X583608Y309025D01*
X583618Y309008D01*
X583697Y308941D01*
X583772Y308869D01*
X583790Y308861D01*
X583805Y308848D01*
X583901Y308809D01*
X583995Y308766D01*
X584015Y308764D01*
X584033Y308756D01*
X584200Y308738D01*
X587673Y308738D01*
X588566Y307845D01*
X588566Y298933D01*
X588549Y298914D01*
X588537Y298884D01*
X588518Y298858D01*
X588491Y298771D01*
X588457Y298686D01*
X588453Y298645D01*
X588446Y298623D01*
X588447Y298590D01*
X588439Y298519D01*
X588439Y297369D01*
X586202Y295132D01*
X586158Y295070D01*
X586125Y295036D01*
X586120Y295024D01*
X586089Y294988D01*
X586077Y294958D01*
X586058Y294932D01*
X586031Y294845D01*
X585997Y294760D01*
X585993Y294719D01*
X585986Y294697D01*
X585987Y294665D01*
X585979Y294593D01*
X585979Y279781D01*
X585982Y279761D01*
X585980Y279742D01*
X586002Y279640D01*
X586018Y279538D01*
X586028Y279521D01*
X586032Y279501D01*
X586085Y279412D01*
X586134Y279321D01*
X586148Y279307D01*
X586158Y279290D01*
X586237Y279223D01*
X586312Y279151D01*
X586330Y279143D01*
X586345Y279130D01*
X586441Y279091D01*
X586535Y279048D01*
X586555Y279046D01*
X586573Y279038D01*
X586740Y279020D01*
X587249Y279020D01*
X587249Y272415D01*
X587252Y272396D01*
X587250Y272376D01*
X587272Y272275D01*
X587288Y272173D01*
X587298Y272155D01*
X587302Y272136D01*
X587355Y272046D01*
X587403Y271955D01*
X587418Y271942D01*
X587428Y271924D01*
X587507Y271857D01*
X587582Y271786D01*
X587600Y271777D01*
X587615Y271764D01*
X587711Y271726D01*
X587805Y271682D01*
X587825Y271680D01*
X587843Y271673D01*
X588010Y271654D01*
X588030Y271657D01*
X588049Y271655D01*
X588050Y271655D01*
X588151Y271677D01*
X588253Y271694D01*
X588270Y271703D01*
X588290Y271707D01*
X588379Y271761D01*
X588470Y271809D01*
X588484Y271823D01*
X588501Y271834D01*
X588568Y271912D01*
X588640Y271987D01*
X588648Y272005D01*
X588661Y272020D01*
X588700Y272117D01*
X588743Y272210D01*
X588745Y272230D01*
X588753Y272249D01*
X588771Y272415D01*
X588771Y279020D01*
X589353Y279020D01*
X589443Y279034D01*
X589534Y279042D01*
X589564Y279054D01*
X589596Y279059D01*
X589676Y279102D01*
X589760Y279138D01*
X589792Y279164D01*
X589813Y279175D01*
X589835Y279198D01*
X589891Y279243D01*
X592358Y281710D01*
X594367Y283719D01*
X598584Y283719D01*
X598604Y283722D01*
X598623Y283720D01*
X598725Y283742D01*
X598827Y283758D01*
X598844Y283768D01*
X598864Y283772D01*
X598953Y283825D01*
X599044Y283874D01*
X599058Y283888D01*
X599075Y283898D01*
X599142Y283977D01*
X599214Y284052D01*
X599222Y284070D01*
X599235Y284085D01*
X599274Y284181D01*
X599317Y284275D01*
X599319Y284295D01*
X599327Y284313D01*
X599345Y284480D01*
X599345Y285693D01*
X599338Y285738D01*
X599340Y285784D01*
X599318Y285859D01*
X599306Y285936D01*
X599284Y285976D01*
X599271Y286020D01*
X599227Y286084D01*
X599190Y286153D01*
X599157Y286185D01*
X599131Y286222D01*
X599069Y286269D01*
X599012Y286322D01*
X598970Y286342D01*
X598934Y286369D01*
X598860Y286393D01*
X598789Y286426D01*
X598743Y286431D01*
X598700Y286445D01*
X598622Y286444D01*
X598545Y286453D01*
X598500Y286443D01*
X598454Y286443D01*
X598322Y286405D01*
X598304Y286401D01*
X598300Y286398D01*
X598293Y286396D01*
X598054Y286297D01*
X595746Y286297D01*
X593613Y287181D01*
X591981Y288813D01*
X591097Y290946D01*
X591097Y293254D01*
X591981Y295387D01*
X593613Y297019D01*
X595746Y297903D01*
X598054Y297903D01*
X600187Y297019D01*
X601819Y295387D01*
X602719Y293214D01*
X602754Y293158D01*
X602780Y293098D01*
X602831Y293033D01*
X602849Y293005D01*
X602864Y292993D01*
X602884Y292967D01*
X607419Y288433D01*
X607419Y287456D01*
X607422Y287436D01*
X607420Y287417D01*
X607442Y287315D01*
X607458Y287213D01*
X607468Y287196D01*
X607472Y287176D01*
X607525Y287087D01*
X607574Y286996D01*
X607588Y286982D01*
X607598Y286965D01*
X607677Y286898D01*
X607752Y286826D01*
X607770Y286818D01*
X607785Y286805D01*
X607881Y286766D01*
X607975Y286723D01*
X607995Y286721D01*
X608013Y286713D01*
X608180Y286695D01*
X608502Y286695D01*
X609395Y285802D01*
X609395Y275538D01*
X608502Y274645D01*
X600238Y274645D01*
X599345Y275538D01*
X599345Y276860D01*
X599342Y276880D01*
X599344Y276899D01*
X599322Y277001D01*
X599306Y277103D01*
X599296Y277120D01*
X599292Y277140D01*
X599239Y277229D01*
X599190Y277320D01*
X599176Y277334D01*
X599166Y277351D01*
X599087Y277418D01*
X599012Y277490D01*
X598994Y277498D01*
X598979Y277511D01*
X598883Y277550D01*
X598789Y277593D01*
X598769Y277595D01*
X598751Y277603D01*
X598584Y277621D01*
X597208Y277621D01*
X597118Y277607D01*
X597027Y277599D01*
X596997Y277587D01*
X596965Y277582D01*
X596885Y277539D01*
X596801Y277503D01*
X596769Y277477D01*
X596748Y277466D01*
X596726Y277443D01*
X596670Y277398D01*
X596362Y277090D01*
X596309Y277016D01*
X596249Y276947D01*
X596237Y276917D01*
X596218Y276890D01*
X596191Y276803D01*
X596157Y276719D01*
X596153Y276678D01*
X596146Y276655D01*
X596147Y276623D01*
X596139Y276552D01*
X596139Y269240D01*
X596142Y269220D01*
X596140Y269201D01*
X596162Y269099D01*
X596178Y268997D01*
X596188Y268980D01*
X596192Y268960D01*
X596245Y268871D01*
X596294Y268780D01*
X596308Y268766D01*
X596318Y268749D01*
X596397Y268682D01*
X596472Y268610D01*
X596490Y268602D01*
X596505Y268589D01*
X596601Y268550D01*
X596695Y268507D01*
X596715Y268505D01*
X596733Y268497D01*
X596900Y268479D01*
X604771Y268479D01*
X605664Y267586D01*
X605664Y263203D01*
X605657Y263193D01*
X605632Y263092D01*
X605602Y262994D01*
X605602Y262974D01*
X605597Y262954D01*
X605605Y262851D01*
X605608Y262748D01*
X605615Y262729D01*
X605616Y262709D01*
X605657Y262614D01*
X605664Y262595D01*
X605664Y258123D01*
X605657Y258113D01*
X605632Y258012D01*
X605602Y257913D01*
X605602Y257893D01*
X605597Y257874D01*
X605605Y257771D01*
X605608Y257668D01*
X605615Y257649D01*
X605616Y257629D01*
X605657Y257534D01*
X605664Y257515D01*
X605664Y253043D01*
X605657Y253033D01*
X605639Y252958D01*
X605632Y252944D01*
X605630Y252926D01*
X605602Y252834D01*
X605602Y252814D01*
X605597Y252794D01*
X605605Y252691D01*
X605608Y252588D01*
X605615Y252569D01*
X605616Y252549D01*
X605657Y252454D01*
X605664Y252435D01*
X605664Y247963D01*
X605657Y247953D01*
X605632Y247852D01*
X605602Y247754D01*
X605602Y247734D01*
X605597Y247714D01*
X605605Y247611D01*
X605608Y247508D01*
X605615Y247489D01*
X605616Y247469D01*
X605657Y247374D01*
X605664Y247355D01*
X605664Y242883D01*
X605657Y242873D01*
X605632Y242772D01*
X605602Y242674D01*
X605602Y242654D01*
X605597Y242634D01*
X605605Y242531D01*
X605608Y242428D01*
X605615Y242409D01*
X605616Y242389D01*
X605657Y242294D01*
X605664Y242275D01*
X605664Y237874D01*
X604771Y236981D01*
X596900Y236981D01*
X596880Y236978D01*
X596861Y236980D01*
X596759Y236958D01*
X596657Y236942D01*
X596640Y236932D01*
X596620Y236928D01*
X596531Y236875D01*
X596440Y236826D01*
X596426Y236812D01*
X596409Y236802D01*
X596342Y236723D01*
X596270Y236648D01*
X596262Y236630D01*
X596249Y236615D01*
X596210Y236519D01*
X596167Y236425D01*
X596165Y236405D01*
X596157Y236387D01*
X596139Y236220D01*
X596139Y228337D01*
X596102Y228280D01*
X596041Y228196D01*
X596036Y228177D01*
X596025Y228160D01*
X596000Y228060D01*
X595969Y227961D01*
X595970Y227941D01*
X595965Y227922D01*
X595973Y227818D01*
X595975Y227715D01*
X595982Y227696D01*
X595984Y227676D01*
X596024Y227581D01*
X596060Y227484D01*
X596072Y227468D01*
X596080Y227450D01*
X596185Y227319D01*
X596276Y227228D01*
X596350Y227175D01*
X596420Y227115D01*
X596450Y227103D01*
X596476Y227084D01*
X596563Y227057D01*
X596648Y227023D01*
X596689Y227019D01*
X596711Y227012D01*
X596743Y227013D01*
X596814Y227005D01*
X603422Y227005D01*
X604315Y226112D01*
X604315Y215848D01*
X603422Y214955D01*
X600336Y214955D01*
X600316Y214952D01*
X600297Y214954D01*
X600195Y214932D01*
X600093Y214916D01*
X600076Y214906D01*
X600056Y214902D01*
X599967Y214849D01*
X599876Y214800D01*
X599862Y214786D01*
X599845Y214776D01*
X599778Y214697D01*
X599706Y214622D01*
X599698Y214604D01*
X599685Y214589D01*
X599646Y214493D01*
X599603Y214399D01*
X599601Y214379D01*
X599593Y214361D01*
X599575Y214194D01*
X599575Y201398D01*
X598682Y200505D01*
X591418Y200505D01*
X591088Y200835D01*
X591072Y200847D01*
X591060Y200863D01*
X590973Y200919D01*
X590889Y200979D01*
X590870Y200985D01*
X590853Y200996D01*
X590752Y201021D01*
X590653Y201051D01*
X590634Y201051D01*
X590614Y201056D01*
X590511Y201048D01*
X590408Y201045D01*
X590389Y201038D01*
X590369Y201037D01*
X590274Y200996D01*
X590177Y200961D01*
X590161Y200948D01*
X590143Y200940D01*
X590012Y200835D01*
X589682Y200505D01*
X582418Y200505D01*
X581525Y201398D01*
X581525Y214194D01*
X581522Y214214D01*
X581524Y214233D01*
X581502Y214335D01*
X581486Y214437D01*
X581476Y214454D01*
X581472Y214474D01*
X581419Y214563D01*
X581370Y214654D01*
X581356Y214668D01*
X581346Y214685D01*
X581267Y214752D01*
X581192Y214824D01*
X581174Y214832D01*
X581159Y214845D01*
X581063Y214884D01*
X580969Y214927D01*
X580949Y214929D01*
X580931Y214937D01*
X580764Y214955D01*
X577678Y214955D01*
X576785Y215848D01*
X576785Y226112D01*
X576830Y226157D01*
X576872Y226215D01*
X576922Y226267D01*
X576944Y226314D01*
X576974Y226356D01*
X576995Y226425D01*
X577025Y226490D01*
X577031Y226542D01*
X577046Y226592D01*
X577044Y226663D01*
X577052Y226734D01*
X577041Y226785D01*
X577040Y226837D01*
X577015Y226905D01*
X577000Y226975D01*
X576973Y227020D01*
X576956Y227068D01*
X576911Y227124D01*
X576874Y227186D01*
X576834Y227220D01*
X576802Y227260D01*
X576742Y227299D01*
X576687Y227346D01*
X576639Y227365D01*
X576595Y227393D01*
X576526Y227411D01*
X576459Y227438D01*
X576388Y227446D01*
X576356Y227454D01*
X576333Y227452D01*
X576292Y227456D01*
X575403Y227456D01*
X575286Y227437D01*
X575168Y227419D01*
X575164Y227417D01*
X575160Y227417D01*
X575056Y227361D01*
X574949Y227306D01*
X574946Y227303D01*
X574943Y227301D01*
X574862Y227216D01*
X574778Y227130D01*
X574776Y227126D01*
X574773Y227123D01*
X574724Y227016D01*
X574672Y226908D01*
X574672Y226904D01*
X574670Y226900D01*
X574657Y226784D01*
X574642Y226664D01*
X574643Y226659D01*
X574643Y226656D01*
X574646Y226642D01*
X574668Y226498D01*
X574851Y225814D01*
X574851Y222503D01*
X569572Y222503D01*
X569552Y222500D01*
X569533Y222502D01*
X569431Y222480D01*
X569329Y222463D01*
X569312Y222454D01*
X569292Y222450D01*
X569203Y222397D01*
X569112Y222348D01*
X569098Y222334D01*
X569081Y222324D01*
X569014Y222245D01*
X568943Y222170D01*
X568934Y222152D01*
X568921Y222137D01*
X568882Y222041D01*
X568839Y221947D01*
X568837Y221927D01*
X568829Y221909D01*
X568811Y221742D01*
X568811Y220979D01*
X568809Y220979D01*
X568809Y221742D01*
X568806Y221762D01*
X568808Y221781D01*
X568786Y221883D01*
X568769Y221985D01*
X568760Y222002D01*
X568756Y222022D01*
X568703Y222111D01*
X568654Y222202D01*
X568640Y222216D01*
X568630Y222233D01*
X568551Y222300D01*
X568476Y222371D01*
X568458Y222380D01*
X568443Y222393D01*
X568347Y222432D01*
X568253Y222475D01*
X568233Y222477D01*
X568215Y222485D01*
X568048Y222503D01*
X562769Y222503D01*
X562769Y225814D01*
X562942Y226461D01*
X563277Y227040D01*
X563750Y227513D01*
X564261Y227808D01*
X564313Y227851D01*
X564371Y227885D01*
X564408Y227928D01*
X564451Y227964D01*
X564487Y228021D01*
X564531Y228072D01*
X564552Y228125D01*
X564582Y228172D01*
X564598Y228238D01*
X564623Y228300D01*
X564632Y228379D01*
X564639Y228411D01*
X564637Y228432D01*
X564641Y228467D01*
X564641Y236220D01*
X564638Y236240D01*
X564640Y236259D01*
X564618Y236361D01*
X564602Y236463D01*
X564592Y236480D01*
X564588Y236500D01*
X564535Y236589D01*
X564486Y236680D01*
X564472Y236694D01*
X564462Y236711D01*
X564383Y236778D01*
X564308Y236850D01*
X564290Y236858D01*
X564275Y236871D01*
X564179Y236910D01*
X564085Y236953D01*
X564065Y236955D01*
X564047Y236963D01*
X563880Y236981D01*
X555298Y236981D01*
X555208Y236967D01*
X555117Y236959D01*
X555087Y236947D01*
X555055Y236942D01*
X554975Y236899D01*
X554891Y236863D01*
X554859Y236837D01*
X554838Y236826D01*
X554816Y236803D01*
X554760Y236758D01*
X553182Y235180D01*
X553129Y235106D01*
X553069Y235037D01*
X553057Y235007D01*
X553038Y234980D01*
X553011Y234893D01*
X552977Y234809D01*
X552973Y234768D01*
X552966Y234745D01*
X552967Y234713D01*
X552959Y234642D01*
X552959Y175568D01*
X552973Y175478D01*
X552981Y175387D01*
X552993Y175357D01*
X552998Y175325D01*
X553041Y175245D01*
X553077Y175161D01*
X553103Y175129D01*
X553114Y175108D01*
X553137Y175086D01*
X553182Y175030D01*
X557086Y171126D01*
X557160Y171073D01*
X557229Y171013D01*
X557259Y171001D01*
X557286Y170982D01*
X557373Y170955D01*
X557457Y170921D01*
X557498Y170917D01*
X557521Y170910D01*
X557553Y170911D01*
X557624Y170903D01*
X559954Y170903D01*
X562087Y170019D01*
X563719Y168387D01*
X564603Y166254D01*
X564603Y163946D01*
X563719Y161813D01*
X562087Y160181D01*
X559954Y159297D01*
X557646Y159297D01*
X555513Y160181D01*
X553881Y161813D01*
X552997Y163946D01*
X552997Y166276D01*
X552983Y166366D01*
X552975Y166457D01*
X552963Y166487D01*
X552958Y166519D01*
X552915Y166599D01*
X552879Y166683D01*
X552853Y166715D01*
X552842Y166736D01*
X552819Y166758D01*
X552774Y166814D01*
X549686Y169902D01*
X549628Y169944D01*
X549576Y169993D01*
X549529Y170015D01*
X549487Y170046D01*
X549418Y170067D01*
X549353Y170097D01*
X549301Y170103D01*
X549251Y170118D01*
X549180Y170116D01*
X549109Y170124D01*
X549058Y170113D01*
X549006Y170112D01*
X548938Y170087D01*
X548868Y170072D01*
X548823Y170045D01*
X548775Y170027D01*
X548719Y169982D01*
X548657Y169946D01*
X548623Y169906D01*
X548583Y169874D01*
X548544Y169813D01*
X548497Y169759D01*
X548478Y169710D01*
X548450Y169667D01*
X548432Y169597D01*
X548405Y169531D01*
X548397Y169459D01*
X548389Y169428D01*
X548391Y169405D01*
X548387Y169364D01*
X548387Y142306D01*
X548398Y142235D01*
X548400Y142164D01*
X548418Y142115D01*
X548426Y142063D01*
X548460Y142000D01*
X548485Y141933D01*
X548517Y141892D01*
X548542Y141846D01*
X548593Y141797D01*
X548638Y141741D01*
X548682Y141713D01*
X548720Y141677D01*
X548785Y141646D01*
X548845Y141608D01*
X548896Y141595D01*
X548943Y141573D01*
X549014Y141565D01*
X549084Y141548D01*
X549136Y141552D01*
X549187Y141546D01*
X549258Y141561D01*
X549329Y141567D01*
X549377Y141587D01*
X549428Y141598D01*
X549489Y141635D01*
X549555Y141663D01*
X549611Y141708D01*
X549639Y141724D01*
X549654Y141742D01*
X549686Y141768D01*
X549821Y141903D01*
X554007Y141903D01*
X555788Y140122D01*
X555862Y140069D01*
X555931Y140009D01*
X555962Y139997D01*
X555988Y139978D01*
X556075Y139951D01*
X556160Y139917D01*
X556200Y139913D01*
X556223Y139906D01*
X556255Y139907D01*
X556326Y139899D01*
X561643Y139899D01*
X565428Y136114D01*
X565502Y136061D01*
X565571Y136001D01*
X565601Y135989D01*
X565628Y135970D01*
X565715Y135943D01*
X565799Y135909D01*
X565840Y135905D01*
X565863Y135898D01*
X565895Y135899D01*
X565966Y135891D01*
X612641Y135891D01*
X621643Y126888D01*
X621645Y126885D01*
X621694Y126794D01*
X621708Y126780D01*
X621718Y126763D01*
X621797Y126696D01*
X621872Y126624D01*
X621890Y126616D01*
X621905Y126603D01*
X622001Y126564D01*
X622095Y126521D01*
X622115Y126519D01*
X622133Y126511D01*
X622300Y126493D01*
X622320Y126496D01*
X622339Y126494D01*
X622441Y126516D01*
X622543Y126532D01*
X622560Y126542D01*
X622580Y126546D01*
X622669Y126599D01*
X622760Y126648D01*
X622774Y126662D01*
X622791Y126672D01*
X622858Y126751D01*
X622930Y126826D01*
X622938Y126844D01*
X622951Y126859D01*
X622990Y126955D01*
X623033Y127049D01*
X623035Y127069D01*
X623043Y127087D01*
X623061Y127254D01*
X623061Y159712D01*
X623047Y159802D01*
X623039Y159893D01*
X623027Y159923D01*
X623022Y159955D01*
X622979Y160035D01*
X622943Y160119D01*
X622917Y160151D01*
X622906Y160172D01*
X622883Y160194D01*
X622838Y160250D01*
X611314Y171774D01*
X611240Y171827D01*
X611171Y171887D01*
X611141Y171899D01*
X611114Y171918D01*
X611027Y171945D01*
X610943Y171979D01*
X610902Y171983D01*
X610879Y171990D01*
X610847Y171989D01*
X610776Y171997D01*
X608446Y171997D01*
X606313Y172881D01*
X604681Y174513D01*
X603797Y176646D01*
X603797Y178954D01*
X604681Y181087D01*
X606313Y182719D01*
X608446Y183603D01*
X610754Y183603D01*
X612887Y182719D01*
X614519Y181087D01*
X615403Y178954D01*
X615403Y176624D01*
X615417Y176534D01*
X615425Y176443D01*
X615437Y176413D01*
X615442Y176381D01*
X615465Y176340D01*
X615466Y176335D01*
X615479Y176312D01*
X615485Y176301D01*
X615521Y176217D01*
X615547Y176185D01*
X615558Y176164D01*
X615581Y176142D01*
X615592Y176124D01*
X615604Y176114D01*
X615626Y176086D01*
X629159Y162553D01*
X629159Y93987D01*
X627150Y91978D01*
X623336Y88165D01*
X623325Y88148D01*
X623309Y88136D01*
X623253Y88049D01*
X623193Y87965D01*
X623187Y87946D01*
X623176Y87929D01*
X623151Y87829D01*
X623120Y87730D01*
X623121Y87710D01*
X623116Y87691D01*
X623124Y87588D01*
X623127Y87484D01*
X623134Y87465D01*
X623135Y87445D01*
X623175Y87351D01*
X623211Y87253D01*
X623224Y87237D01*
X623231Y87219D01*
X623336Y87088D01*
X623825Y86600D01*
X623825Y61460D01*
X622932Y60567D01*
X614048Y60567D01*
X613225Y61391D01*
X613147Y61447D01*
X613074Y61508D01*
X613048Y61518D01*
X613025Y61535D01*
X612934Y61563D01*
X612845Y61597D01*
X612817Y61599D01*
X612790Y61607D01*
X612695Y61604D01*
X612599Y61609D01*
X612572Y61601D01*
X612544Y61601D01*
X612454Y61568D01*
X612363Y61542D01*
X612339Y61526D01*
X612313Y61516D01*
X612238Y61456D01*
X612160Y61402D01*
X612143Y61380D01*
X612121Y61362D01*
X612069Y61282D01*
X612012Y61206D01*
X611999Y61173D01*
X611988Y61155D01*
X611984Y61140D01*
X611633Y60532D01*
X611160Y60059D01*
X610581Y59724D01*
X609934Y59551D01*
X607313Y59551D01*
X607313Y73268D01*
X607310Y73288D01*
X607312Y73307D01*
X607290Y73409D01*
X607273Y73511D01*
X607264Y73528D01*
X607260Y73548D01*
X607207Y73637D01*
X607158Y73728D01*
X607144Y73742D01*
X607134Y73759D01*
X607055Y73826D01*
X606980Y73897D01*
X606962Y73906D01*
X606947Y73919D01*
X606851Y73957D01*
X606757Y74001D01*
X606737Y74003D01*
X606719Y74011D01*
X606552Y74029D01*
X605789Y74029D01*
X605789Y74031D01*
X606552Y74031D01*
X606572Y74034D01*
X606591Y74032D01*
X606693Y74054D01*
X606795Y74071D01*
X606812Y74080D01*
X606832Y74084D01*
X606921Y74137D01*
X607012Y74186D01*
X607026Y74200D01*
X607043Y74210D01*
X607110Y74289D01*
X607181Y74364D01*
X607190Y74382D01*
X607203Y74397D01*
X607242Y74493D01*
X607285Y74587D01*
X607287Y74607D01*
X607295Y74625D01*
X607313Y74792D01*
X607313Y88509D01*
X609935Y88509D01*
X610581Y88336D01*
X611160Y88001D01*
X611633Y87528D01*
X612004Y86885D01*
X612023Y86834D01*
X612041Y86812D01*
X612052Y86786D01*
X612117Y86716D01*
X612177Y86642D01*
X612200Y86627D01*
X612220Y86606D01*
X612303Y86560D01*
X612384Y86509D01*
X612411Y86502D01*
X612436Y86488D01*
X612530Y86472D01*
X612622Y86449D01*
X612650Y86451D01*
X612678Y86446D01*
X612773Y86460D01*
X612867Y86468D01*
X612893Y86479D01*
X612921Y86483D01*
X613006Y86527D01*
X613094Y86564D01*
X613121Y86586D01*
X613140Y86596D01*
X613163Y86619D01*
X613225Y86669D01*
X614048Y87493D01*
X614680Y87493D01*
X614700Y87496D01*
X614719Y87494D01*
X614821Y87516D01*
X614923Y87532D01*
X614940Y87542D01*
X614960Y87546D01*
X615049Y87599D01*
X615140Y87648D01*
X615154Y87662D01*
X615171Y87672D01*
X615238Y87751D01*
X615310Y87826D01*
X615318Y87844D01*
X615331Y87859D01*
X615370Y87955D01*
X615413Y88049D01*
X615415Y88069D01*
X615423Y88087D01*
X615441Y88254D01*
X615441Y88893D01*
X617450Y90902D01*
X617492Y90960D01*
X617541Y91012D01*
X617563Y91059D01*
X617594Y91101D01*
X617615Y91170D01*
X617645Y91235D01*
X617651Y91287D01*
X617666Y91337D01*
X617664Y91408D01*
X617672Y91479D01*
X617661Y91530D01*
X617660Y91582D01*
X617635Y91650D01*
X617620Y91720D01*
X617593Y91765D01*
X617575Y91813D01*
X617530Y91869D01*
X617494Y91931D01*
X617454Y91965D01*
X617422Y92005D01*
X617361Y92044D01*
X617307Y92091D01*
X617258Y92110D01*
X617215Y92138D01*
X617145Y92156D01*
X617079Y92183D01*
X617007Y92191D01*
X616976Y92199D01*
X616953Y92197D01*
X616912Y92201D01*
X561648Y92201D01*
X561558Y92187D01*
X561467Y92179D01*
X561437Y92167D01*
X561405Y92162D01*
X561325Y92119D01*
X561241Y92083D01*
X561209Y92057D01*
X561188Y92046D01*
X561166Y92023D01*
X561110Y91978D01*
X523972Y54840D01*
X523919Y54766D01*
X523859Y54697D01*
X523847Y54667D01*
X523828Y54640D01*
X523801Y54553D01*
X523767Y54469D01*
X523763Y54428D01*
X523756Y54405D01*
X523757Y54373D01*
X523749Y54302D01*
X523749Y48114D01*
X523768Y48000D01*
X523785Y47884D01*
X523787Y47878D01*
X523788Y47872D01*
X523843Y47769D01*
X523896Y47664D01*
X523901Y47660D01*
X523904Y47654D01*
X523988Y47574D01*
X524072Y47492D01*
X524078Y47488D01*
X524082Y47485D01*
X524099Y47477D01*
X524219Y47411D01*
X527499Y46052D01*
X530875Y42676D01*
X532185Y39515D01*
X532238Y39428D01*
X532286Y39340D01*
X532302Y39325D01*
X532314Y39306D01*
X532392Y39241D01*
X532466Y39172D01*
X532487Y39163D01*
X532504Y39149D01*
X532598Y39113D01*
X532690Y39071D01*
X532713Y39069D01*
X532733Y39061D01*
X532834Y39056D01*
X532935Y39046D01*
X532957Y39051D01*
X532979Y39050D01*
X533076Y39078D01*
X533175Y39101D01*
X533194Y39113D01*
X533215Y39119D01*
X533298Y39176D01*
X533385Y39229D01*
X533399Y39246D01*
X533417Y39259D01*
X533478Y39340D01*
X533543Y39418D01*
X533554Y39443D01*
X533564Y39456D01*
X533574Y39488D01*
X533612Y39571D01*
X534036Y40875D01*
X534966Y42700D01*
X536170Y44358D01*
X537619Y45807D01*
X539277Y47012D01*
X541103Y47942D01*
X543052Y48575D01*
X544577Y48817D01*
X544577Y26162D01*
X544580Y26142D01*
X544578Y26123D01*
X544600Y26021D01*
X544617Y25919D01*
X544626Y25902D01*
X544630Y25882D01*
X544683Y25793D01*
X544732Y25702D01*
X544746Y25688D01*
X544756Y25671D01*
X544835Y25604D01*
X544910Y25533D01*
X544928Y25524D01*
X544943Y25511D01*
X545039Y25473D01*
X545133Y25429D01*
X545153Y25427D01*
X545171Y25419D01*
X545338Y25401D01*
X546101Y25401D01*
X546101Y24638D01*
X546104Y24618D01*
X546102Y24599D01*
X546124Y24497D01*
X546141Y24395D01*
X546150Y24378D01*
X546154Y24358D01*
X546207Y24269D01*
X546256Y24178D01*
X546270Y24164D01*
X546280Y24147D01*
X546359Y24080D01*
X546434Y24009D01*
X546452Y24000D01*
X546467Y23987D01*
X546563Y23948D01*
X546657Y23905D01*
X546677Y23903D01*
X546695Y23895D01*
X546862Y23877D01*
X559118Y23877D01*
X559118Y13898D01*
X558798Y11874D01*
X558164Y9925D01*
X557234Y8100D01*
X556030Y6442D01*
X554698Y5110D01*
X554656Y5052D01*
X554607Y5000D01*
X554585Y4953D01*
X554555Y4911D01*
X554534Y4842D01*
X554503Y4777D01*
X554498Y4725D01*
X554482Y4675D01*
X554484Y4604D01*
X554476Y4533D01*
X554487Y4482D01*
X554489Y4430D01*
X554513Y4362D01*
X554529Y4292D01*
X554555Y4247D01*
X554573Y4199D01*
X554618Y4143D01*
X554655Y4081D01*
X554694Y4047D01*
X554727Y4007D01*
X554787Y3968D01*
X554842Y3921D01*
X554890Y3902D01*
X554934Y3874D01*
X555003Y3856D01*
X555070Y3829D01*
X555141Y3821D01*
X555172Y3813D01*
X555196Y3815D01*
X555237Y3811D01*
X641350Y3811D01*
X641369Y3814D01*
X641400Y3812D01*
X644947Y4045D01*
X644970Y4050D01*
X645094Y4069D01*
X651948Y5905D01*
X651962Y5912D01*
X651978Y5914D01*
X652131Y5982D01*
X658276Y9529D01*
X658288Y9539D01*
X658302Y9545D01*
X658433Y9650D01*
X663450Y14667D01*
X663459Y14680D01*
X663472Y14689D01*
X663550Y14795D01*
X663555Y14801D01*
X663558Y14806D01*
X663571Y14824D01*
X667118Y20969D01*
X667124Y20984D01*
X667134Y20996D01*
X667195Y21152D01*
X669031Y28006D01*
X669033Y28029D01*
X669055Y28153D01*
X669288Y31700D01*
X669286Y31719D01*
X669289Y31750D01*
X669289Y361950D01*
X669286Y361969D01*
X669288Y362000D01*
X669055Y365547D01*
X669050Y365570D01*
X669031Y365694D01*
X667195Y372548D01*
X667188Y372562D01*
X667186Y372578D01*
X667118Y372731D01*
X663571Y378876D01*
X663561Y378888D01*
X663555Y378902D01*
X663450Y379033D01*
X658433Y384050D01*
X658420Y384059D01*
X658411Y384072D01*
X658276Y384171D01*
X652131Y387718D01*
X652116Y387724D01*
X652104Y387734D01*
X651948Y387795D01*
X645094Y389631D01*
X645071Y389633D01*
X644947Y389655D01*
X641400Y389888D01*
X641381Y389886D01*
X641350Y389889D01*
X625709Y389889D01*
X625638Y389878D01*
X625566Y389876D01*
X625517Y389858D01*
X625466Y389850D01*
X625403Y389816D01*
X625335Y389791D01*
X625295Y389759D01*
X625249Y389734D01*
X625199Y389682D01*
X625143Y389638D01*
X625115Y389594D01*
X625079Y389556D01*
X625049Y389491D01*
X625010Y389431D01*
X624998Y389380D01*
X624976Y389333D01*
X624968Y389262D01*
X624950Y389192D01*
X624954Y389140D01*
X624948Y389089D01*
X624964Y389018D01*
X624969Y388947D01*
X624990Y388899D01*
X625001Y388848D01*
X625038Y388787D01*
X625066Y388721D01*
X625110Y388665D01*
X625127Y388637D01*
X625145Y388622D01*
X625170Y388590D01*
X625537Y388223D01*
X626678Y385469D01*
X626678Y375376D01*
X625537Y372621D01*
X623532Y370616D01*
X623490Y370558D01*
X623441Y370506D01*
X623419Y370459D01*
X623389Y370417D01*
X623367Y370348D01*
X623337Y370283D01*
X623331Y370231D01*
X623316Y370181D01*
X623318Y370110D01*
X623310Y370039D01*
X623321Y369988D01*
X623323Y369936D01*
X623347Y369868D01*
X623362Y369798D01*
X623389Y369753D01*
X623407Y369705D01*
X623452Y369649D01*
X623489Y369587D01*
X623528Y369553D01*
X623561Y369513D01*
X623621Y369474D01*
X623675Y369427D01*
X623724Y369408D01*
X623768Y369380D01*
X623837Y369362D01*
X623904Y369335D01*
X623975Y369327D01*
X624006Y369319D01*
X624029Y369321D01*
X624070Y369317D01*
X639013Y369317D01*
X641320Y367010D01*
X661650Y346680D01*
X663957Y344373D01*
X663957Y112827D01*
X661650Y110520D01*
X654226Y103096D01*
X654173Y103022D01*
X654113Y102952D01*
X654101Y102922D01*
X654082Y102896D01*
X654055Y102809D01*
X654021Y102724D01*
X654017Y102683D01*
X654010Y102661D01*
X654011Y102629D01*
X654003Y102557D01*
X654003Y100346D01*
X653043Y98030D01*
X651270Y96257D01*
X648954Y95297D01*
X646446Y95297D01*
X644130Y96257D01*
X642357Y98030D01*
X641397Y100346D01*
X641397Y102854D01*
X642357Y105170D01*
X644130Y106943D01*
X646446Y107903D01*
X648657Y107903D01*
X648748Y107917D01*
X648838Y107925D01*
X648868Y107937D01*
X648900Y107942D01*
X648981Y107985D01*
X649065Y108021D01*
X649097Y108047D01*
X649118Y108058D01*
X649140Y108081D01*
X649196Y108126D01*
X656620Y115550D01*
X656673Y115624D01*
X656733Y115694D01*
X656745Y115724D01*
X656764Y115750D01*
X656791Y115837D01*
X656825Y115922D01*
X656829Y115963D01*
X656836Y115985D01*
X656835Y116017D01*
X656843Y116089D01*
X656843Y341111D01*
X656829Y341202D01*
X656821Y341292D01*
X656809Y341322D01*
X656804Y341354D01*
X656761Y341435D01*
X656725Y341519D01*
X656699Y341551D01*
X656688Y341572D01*
X656665Y341594D01*
X656620Y341650D01*
X636290Y361980D01*
X636216Y362033D01*
X636146Y362093D01*
X636116Y362105D01*
X636090Y362124D01*
X636003Y362151D01*
X635918Y362185D01*
X635877Y362189D01*
X635855Y362196D01*
X635823Y362195D01*
X635751Y362203D01*
X614359Y362203D01*
X614263Y362188D01*
X614166Y362178D01*
X614142Y362168D01*
X614116Y362164D01*
X614030Y362118D01*
X613941Y362078D01*
X613922Y362061D01*
X613899Y362048D01*
X613832Y361978D01*
X613760Y361912D01*
X613748Y361889D01*
X613730Y361870D01*
X613689Y361782D01*
X613642Y361696D01*
X613637Y361671D01*
X613626Y361647D01*
X613615Y361550D01*
X613598Y361454D01*
X613602Y361428D01*
X613599Y361403D01*
X613620Y361307D01*
X613634Y361211D01*
X613646Y361188D01*
X613651Y361162D01*
X613701Y361079D01*
X613745Y360992D01*
X613764Y360973D01*
X613777Y360951D01*
X613851Y360888D01*
X613921Y360820D01*
X613950Y360804D01*
X613964Y360791D01*
X613995Y360779D01*
X614053Y360747D01*
X616522Y358278D01*
X617856Y355057D01*
X617856Y351571D01*
X616522Y348350D01*
X614056Y345884D01*
X610835Y344550D01*
X607349Y344550D01*
X604128Y345884D01*
X603057Y346956D01*
X602998Y346998D01*
X602946Y347047D01*
X602899Y347069D01*
X602857Y347099D01*
X602788Y347120D01*
X602723Y347151D01*
X602672Y347156D01*
X602622Y347172D01*
X602550Y347170D01*
X602479Y347178D01*
X602428Y347167D01*
X602376Y347165D01*
X602309Y347141D01*
X602238Y347125D01*
X602194Y347099D01*
X602145Y347081D01*
X602089Y347036D01*
X602027Y346999D01*
X601993Y346960D01*
X601953Y346927D01*
X601914Y346867D01*
X601867Y346812D01*
X601848Y346764D01*
X601820Y346720D01*
X601802Y346651D01*
X601775Y346584D01*
X601768Y346513D01*
X601760Y346482D01*
X601762Y346458D01*
X601757Y346417D01*
X601757Y346357D01*
X601584Y345710D01*
X601249Y345131D01*
X600776Y344658D01*
X600197Y344324D01*
X599551Y344150D01*
X598200Y344150D01*
X598200Y353168D01*
X598196Y353188D01*
X598199Y353207D01*
X598177Y353309D01*
X598160Y353411D01*
X598151Y353428D01*
X598146Y353448D01*
X598093Y353537D01*
X598045Y353628D01*
X598030Y353642D01*
X598020Y353659D01*
X597941Y353726D01*
X597866Y353797D01*
X597848Y353806D01*
X597833Y353819D01*
X597737Y353858D01*
X597643Y353901D01*
X597624Y353903D01*
X597605Y353911D01*
X597438Y353929D01*
X596930Y353929D01*
X596911Y353926D01*
X596891Y353928D01*
X596790Y353906D01*
X596687Y353889D01*
X596670Y353880D01*
X596650Y353876D01*
X596561Y353823D01*
X596470Y353774D01*
X596456Y353760D01*
X596439Y353750D01*
X596372Y353671D01*
X596301Y353596D01*
X596292Y353578D01*
X596279Y353563D01*
X596241Y353467D01*
X596197Y353373D01*
X596195Y353353D01*
X596187Y353335D01*
X596169Y353168D01*
X596169Y344150D01*
X594818Y344150D01*
X594172Y344324D01*
X593592Y344658D01*
X593307Y344943D01*
X593233Y344997D01*
X593163Y345056D01*
X593133Y345068D01*
X593107Y345087D01*
X593020Y345114D01*
X592935Y345148D01*
X592894Y345153D01*
X592872Y345159D01*
X592840Y345159D01*
X592769Y345166D01*
X587994Y345166D01*
X587975Y345163D01*
X587955Y345165D01*
X587854Y345143D01*
X587752Y345127D01*
X587734Y345117D01*
X587714Y345113D01*
X587625Y345060D01*
X587534Y345012D01*
X587520Y344997D01*
X587503Y344987D01*
X587436Y344908D01*
X587365Y344833D01*
X587356Y344815D01*
X587343Y344800D01*
X587305Y344704D01*
X587261Y344610D01*
X587259Y344590D01*
X587251Y344572D01*
X587233Y344405D01*
X587233Y336874D01*
X587248Y336784D01*
X587255Y336693D01*
X587268Y336663D01*
X587273Y336631D01*
X587315Y336550D01*
X587351Y336467D01*
X587377Y336434D01*
X587388Y336414D01*
X587411Y336392D01*
X587456Y336336D01*
X588439Y335353D01*
X588439Y328861D01*
X588442Y328843D01*
X588440Y328825D01*
X588455Y328757D01*
X588461Y328680D01*
X588473Y328650D01*
X588478Y328618D01*
X588489Y328598D01*
X588492Y328585D01*
X588524Y328532D01*
X588557Y328454D01*
X588566Y328443D01*
X588566Y319535D01*
X587673Y318642D01*
X584425Y318642D01*
X584335Y318628D01*
X584244Y318620D01*
X584214Y318608D01*
X584182Y318603D01*
X584101Y318560D01*
X584017Y318524D01*
X583985Y318498D01*
X583965Y318487D01*
X583942Y318464D01*
X583886Y318419D01*
X583601Y318134D01*
X583022Y317799D01*
X582375Y317626D01*
X581215Y317626D01*
X581215Y323913D01*
X581212Y323933D01*
X581214Y323953D01*
X581208Y323979D01*
X581215Y324041D01*
X581215Y330328D01*
X581580Y330328D01*
X581600Y330331D01*
X581619Y330329D01*
X581721Y330351D01*
X581823Y330367D01*
X581840Y330377D01*
X581860Y330381D01*
X581949Y330434D01*
X582040Y330483D01*
X582054Y330497D01*
X582071Y330507D01*
X582138Y330586D01*
X582210Y330661D01*
X582218Y330679D01*
X582231Y330694D01*
X582269Y330790D01*
X582313Y330884D01*
X582315Y330904D01*
X582323Y330922D01*
X582341Y331089D01*
X582341Y332512D01*
X582327Y332602D01*
X582319Y332693D01*
X582307Y332723D01*
X582302Y332755D01*
X582259Y332835D01*
X582223Y332919D01*
X582197Y332951D01*
X582186Y332972D01*
X582163Y332994D01*
X582118Y333050D01*
X581563Y333605D01*
X581547Y333617D01*
X581535Y333632D01*
X581447Y333688D01*
X581364Y333749D01*
X581345Y333755D01*
X581328Y333765D01*
X581227Y333791D01*
X581128Y333821D01*
X581109Y333821D01*
X581089Y333825D01*
X580986Y333817D01*
X580883Y333815D01*
X580864Y333808D01*
X580844Y333806D01*
X580749Y333766D01*
X580652Y333730D01*
X580636Y333718D01*
X580618Y333710D01*
X580487Y333605D01*
X578662Y331780D01*
X578609Y331706D01*
X578549Y331637D01*
X578537Y331607D01*
X578518Y331580D01*
X578491Y331493D01*
X578457Y331409D01*
X578453Y331368D01*
X578446Y331345D01*
X578447Y331313D01*
X578439Y331242D01*
X578439Y331089D01*
X578442Y331069D01*
X578440Y331050D01*
X578462Y330948D01*
X578478Y330846D01*
X578488Y330829D01*
X578492Y330809D01*
X578545Y330720D01*
X578594Y330629D01*
X578608Y330615D01*
X578618Y330598D01*
X578697Y330531D01*
X578772Y330459D01*
X578790Y330451D01*
X578805Y330438D01*
X578901Y330399D01*
X578995Y330356D01*
X579015Y330354D01*
X579033Y330346D01*
X579200Y330328D01*
X579565Y330328D01*
X579565Y324041D01*
X579568Y324021D01*
X579566Y324001D01*
X579572Y323975D01*
X579565Y323913D01*
X579565Y317626D01*
X578405Y317626D01*
X577758Y317799D01*
X577179Y318134D01*
X576894Y318419D01*
X576820Y318472D01*
X576750Y318532D01*
X576720Y318544D01*
X576694Y318563D01*
X576607Y318590D01*
X576522Y318624D01*
X576481Y318628D01*
X576459Y318635D01*
X576427Y318634D01*
X576355Y318642D01*
X573107Y318642D01*
X572214Y319535D01*
X572214Y328447D01*
X572231Y328466D01*
X572243Y328496D01*
X572262Y328522D01*
X572286Y328601D01*
X572313Y328659D01*
X572315Y328674D01*
X572323Y328694D01*
X572327Y328735D01*
X572334Y328757D01*
X572333Y328790D01*
X572341Y328861D01*
X572341Y334083D01*
X574578Y336320D01*
X574631Y336394D01*
X574691Y336463D01*
X574703Y336493D01*
X574722Y336520D01*
X574749Y336607D01*
X574783Y336691D01*
X574787Y336732D01*
X574794Y336755D01*
X574793Y336787D01*
X574801Y336858D01*
X574801Y339333D01*
X574790Y339404D01*
X574788Y339476D01*
X574770Y339525D01*
X574762Y339576D01*
X574728Y339640D01*
X574703Y339707D01*
X574671Y339748D01*
X574646Y339794D01*
X574594Y339843D01*
X574550Y339899D01*
X574506Y339927D01*
X574468Y339963D01*
X574403Y339993D01*
X574343Y340032D01*
X574292Y340045D01*
X574245Y340067D01*
X574174Y340075D01*
X574104Y340092D01*
X574052Y340088D01*
X574001Y340094D01*
X573930Y340078D01*
X573859Y340073D01*
X573811Y340053D01*
X573760Y340041D01*
X573699Y340005D01*
X573633Y339977D01*
X573577Y339932D01*
X573549Y339915D01*
X573534Y339897D01*
X573502Y339872D01*
X564473Y330843D01*
X529216Y330843D01*
X529196Y330840D01*
X529177Y330842D01*
X529075Y330820D01*
X528973Y330804D01*
X528956Y330794D01*
X528936Y330790D01*
X528847Y330737D01*
X528756Y330688D01*
X528742Y330674D01*
X528725Y330664D01*
X528658Y330585D01*
X528586Y330510D01*
X528578Y330492D01*
X528565Y330477D01*
X528526Y330381D01*
X528483Y330287D01*
X528481Y330267D01*
X528473Y330249D01*
X528455Y330082D01*
X528455Y327268D01*
X527562Y326375D01*
X522618Y326375D01*
X522598Y326372D01*
X522579Y326374D01*
X522477Y326352D01*
X522375Y326336D01*
X522358Y326326D01*
X522338Y326322D01*
X522249Y326269D01*
X522158Y326220D01*
X522144Y326206D01*
X522127Y326196D01*
X522060Y326117D01*
X521988Y326042D01*
X521980Y326024D01*
X521967Y326009D01*
X521928Y325913D01*
X521885Y325819D01*
X521883Y325799D01*
X521875Y325781D01*
X521857Y325614D01*
X521857Y320742D01*
X521860Y320722D01*
X521858Y320703D01*
X521880Y320601D01*
X521896Y320499D01*
X521906Y320482D01*
X521910Y320462D01*
X521963Y320373D01*
X522012Y320282D01*
X522026Y320268D01*
X522036Y320251D01*
X522115Y320184D01*
X522190Y320112D01*
X522208Y320104D01*
X522223Y320091D01*
X522319Y320052D01*
X522413Y320009D01*
X522433Y320007D01*
X522451Y319999D01*
X522618Y319981D01*
X523186Y319981D01*
X524079Y319088D01*
X524079Y300212D01*
X523186Y299319D01*
X513414Y299319D01*
X512521Y300212D01*
X512521Y319088D01*
X513414Y319981D01*
X513982Y319981D01*
X514002Y319984D01*
X514021Y319982D01*
X514123Y320004D01*
X514225Y320020D01*
X514242Y320030D01*
X514262Y320034D01*
X514351Y320087D01*
X514442Y320136D01*
X514456Y320150D01*
X514473Y320160D01*
X514540Y320239D01*
X514612Y320314D01*
X514620Y320332D01*
X514633Y320347D01*
X514672Y320443D01*
X514715Y320537D01*
X514717Y320557D01*
X514725Y320575D01*
X514743Y320742D01*
X514743Y325614D01*
X514740Y325634D01*
X514742Y325653D01*
X514720Y325755D01*
X514704Y325857D01*
X514694Y325874D01*
X514690Y325894D01*
X514637Y325983D01*
X514588Y326074D01*
X514574Y326088D01*
X514564Y326105D01*
X514485Y326172D01*
X514410Y326244D01*
X514392Y326252D01*
X514377Y326265D01*
X514281Y326304D01*
X514187Y326347D01*
X514167Y326349D01*
X514149Y326357D01*
X513982Y326375D01*
X511298Y326375D01*
X510405Y327268D01*
X510405Y341532D01*
X510537Y341664D01*
X510606Y341759D01*
X510677Y341856D01*
X510679Y341860D01*
X510681Y341863D01*
X510716Y341977D01*
X510752Y342090D01*
X510752Y342095D01*
X510753Y342098D01*
X510750Y342217D01*
X510748Y342336D01*
X510747Y342340D01*
X510747Y342344D01*
X510706Y342455D01*
X510667Y342568D01*
X510664Y342571D01*
X510663Y342575D01*
X510588Y342668D01*
X510515Y342762D01*
X510511Y342765D01*
X510509Y342767D01*
X510497Y342775D01*
X510380Y342861D01*
X510370Y342867D01*
X509897Y343340D01*
X509562Y343919D01*
X509389Y344566D01*
X509389Y349877D01*
X518668Y349877D01*
X518688Y349880D01*
X518707Y349878D01*
X518809Y349900D01*
X518911Y349917D01*
X518928Y349926D01*
X518948Y349930D01*
X519037Y349983D01*
X519128Y350032D01*
X519142Y350046D01*
X519159Y350056D01*
X519226Y350135D01*
X519297Y350210D01*
X519306Y350228D01*
X519319Y350243D01*
X519358Y350339D01*
X519401Y350433D01*
X519403Y350453D01*
X519411Y350471D01*
X519429Y350638D01*
X519429Y351401D01*
X519431Y351401D01*
X519431Y350638D01*
X519434Y350618D01*
X519432Y350599D01*
X519454Y350497D01*
X519471Y350395D01*
X519480Y350378D01*
X519484Y350358D01*
X519537Y350269D01*
X519586Y350178D01*
X519600Y350164D01*
X519610Y350147D01*
X519689Y350080D01*
X519764Y350009D01*
X519782Y350000D01*
X519797Y349987D01*
X519893Y349948D01*
X519987Y349905D01*
X520007Y349903D01*
X520025Y349895D01*
X520192Y349877D01*
X529471Y349877D01*
X529471Y344566D01*
X529298Y343919D01*
X528963Y343340D01*
X528490Y342867D01*
X528480Y342861D01*
X528389Y342786D01*
X528295Y342712D01*
X528293Y342708D01*
X528290Y342705D01*
X528227Y342606D01*
X528162Y342505D01*
X528161Y342501D01*
X528159Y342497D01*
X528131Y342382D01*
X528102Y342266D01*
X528103Y342262D01*
X528102Y342258D01*
X528112Y342139D01*
X528121Y342021D01*
X528123Y342017D01*
X528123Y342013D01*
X528171Y341905D01*
X528218Y341795D01*
X528221Y341791D01*
X528222Y341788D01*
X528231Y341778D01*
X528323Y341664D01*
X528455Y341532D01*
X528455Y338718D01*
X528458Y338698D01*
X528456Y338679D01*
X528478Y338577D01*
X528494Y338475D01*
X528504Y338458D01*
X528508Y338438D01*
X528561Y338349D01*
X528610Y338258D01*
X528624Y338244D01*
X528634Y338227D01*
X528713Y338160D01*
X528788Y338088D01*
X528806Y338080D01*
X528821Y338067D01*
X528917Y338028D01*
X529011Y337985D01*
X529031Y337983D01*
X529049Y337975D01*
X529216Y337957D01*
X561211Y337957D01*
X561302Y337971D01*
X561392Y337979D01*
X561422Y337991D01*
X561454Y337996D01*
X561535Y338039D01*
X561619Y338075D01*
X561651Y338101D01*
X561672Y338112D01*
X561694Y338135D01*
X561750Y338180D01*
X567405Y343835D01*
X567458Y343909D01*
X567517Y343978D01*
X567529Y344008D01*
X567548Y344034D01*
X567575Y344121D01*
X567609Y344206D01*
X567614Y344247D01*
X567620Y344269D01*
X567620Y344302D01*
X567628Y344373D01*
X567628Y347402D01*
X567616Y347473D01*
X567614Y347544D01*
X567596Y347593D01*
X567588Y347645D01*
X567554Y347708D01*
X567530Y347775D01*
X567497Y347816D01*
X567473Y347862D01*
X567421Y347911D01*
X567376Y347967D01*
X567332Y347996D01*
X567294Y348031D01*
X567229Y348062D01*
X567169Y348100D01*
X567118Y348113D01*
X567071Y348135D01*
X567000Y348143D01*
X566931Y348160D01*
X566879Y348156D01*
X566827Y348162D01*
X566757Y348147D01*
X566685Y348141D01*
X566637Y348121D01*
X566586Y348110D01*
X566525Y348073D01*
X566459Y348045D01*
X566403Y348000D01*
X566375Y347984D01*
X566360Y347966D01*
X566328Y347940D01*
X564272Y345884D01*
X561051Y344550D01*
X557565Y344550D01*
X554344Y345884D01*
X551878Y348350D01*
X550544Y351571D01*
X550544Y355057D01*
X551878Y358278D01*
X554344Y360744D01*
X557565Y362078D01*
X561051Y362078D01*
X564272Y360744D01*
X566328Y358688D01*
X566386Y358646D01*
X566438Y358597D01*
X566485Y358575D01*
X566528Y358544D01*
X566596Y358523D01*
X566661Y358493D01*
X566713Y358487D01*
X566763Y358472D01*
X566835Y358474D01*
X566906Y358466D01*
X566957Y358477D01*
X567009Y358478D01*
X567076Y358503D01*
X567146Y358518D01*
X567191Y358545D01*
X567240Y358563D01*
X567296Y358608D01*
X567357Y358644D01*
X567391Y358684D01*
X567432Y358716D01*
X567471Y358777D01*
X567517Y358831D01*
X567537Y358880D01*
X567565Y358923D01*
X567582Y358993D01*
X567609Y359059D01*
X567617Y359131D01*
X567625Y359162D01*
X567623Y359185D01*
X567628Y359226D01*
X567628Y363108D01*
X572593Y368073D01*
X572635Y368131D01*
X572684Y368183D01*
X572706Y368230D01*
X572736Y368273D01*
X572758Y368341D01*
X572788Y368406D01*
X572794Y368458D01*
X572809Y368508D01*
X572807Y368579D01*
X572815Y368651D01*
X572804Y368702D01*
X572802Y368754D01*
X572778Y368821D01*
X572763Y368891D01*
X572736Y368936D01*
X572718Y368985D01*
X572673Y369041D01*
X572636Y369102D01*
X572597Y369136D01*
X572564Y369177D01*
X572504Y369215D01*
X572450Y369262D01*
X572401Y369282D01*
X572357Y369310D01*
X572288Y369327D01*
X572221Y369354D01*
X572150Y369362D01*
X572119Y369370D01*
X572096Y369368D01*
X572055Y369372D01*
X566060Y369372D01*
X565167Y370266D01*
X565167Y389128D01*
X565163Y389148D01*
X565166Y389167D01*
X565144Y389269D01*
X565127Y389371D01*
X565118Y389388D01*
X565113Y389408D01*
X565060Y389497D01*
X565012Y389588D01*
X564997Y389602D01*
X564987Y389619D01*
X564908Y389686D01*
X564833Y389758D01*
X564815Y389766D01*
X564800Y389779D01*
X564704Y389818D01*
X564610Y389861D01*
X564591Y389863D01*
X564572Y389871D01*
X564405Y389889D01*
X563473Y389889D01*
X563453Y389886D01*
X563433Y389888D01*
X563332Y389866D01*
X563230Y389850D01*
X563212Y389840D01*
X563193Y389836D01*
X563104Y389783D01*
X563013Y389734D01*
X562999Y389720D01*
X562982Y389710D01*
X562914Y389631D01*
X562843Y389556D01*
X562835Y389538D01*
X562822Y389523D01*
X562783Y389427D01*
X562740Y389333D01*
X562737Y389313D01*
X562730Y389295D01*
X562712Y389128D01*
X562712Y370266D01*
X561818Y369372D01*
X547694Y369372D01*
X544939Y370513D01*
X542831Y372621D01*
X541691Y375376D01*
X541691Y385469D01*
X542831Y388223D01*
X543198Y388590D01*
X543240Y388648D01*
X543289Y388700D01*
X543311Y388747D01*
X543342Y388789D01*
X543363Y388858D01*
X543393Y388923D01*
X543399Y388975D01*
X543414Y389025D01*
X543412Y389096D01*
X543420Y389167D01*
X543409Y389218D01*
X543408Y389270D01*
X543383Y389338D01*
X543368Y389408D01*
X543341Y389453D01*
X543323Y389501D01*
X543278Y389557D01*
X543242Y389619D01*
X543202Y389653D01*
X543170Y389693D01*
X543109Y389732D01*
X543055Y389779D01*
X543006Y389798D01*
X542963Y389826D01*
X542893Y389844D01*
X542827Y389871D01*
X542755Y389879D01*
X542724Y389887D01*
X542701Y389885D01*
X542660Y389889D01*
X467102Y389889D01*
X467082Y389886D01*
X467063Y389888D01*
X466961Y389866D01*
X466859Y389850D01*
X466842Y389840D01*
X466822Y389836D01*
X466733Y389783D01*
X466642Y389734D01*
X466628Y389720D01*
X466611Y389710D01*
X466544Y389631D01*
X466472Y389556D01*
X466464Y389538D01*
X466451Y389523D01*
X466412Y389427D01*
X466369Y389333D01*
X466367Y389313D01*
X466359Y389295D01*
X466341Y389128D01*
X466341Y385823D01*
X457062Y385823D01*
X457042Y385820D01*
X457023Y385822D01*
X456921Y385800D01*
X456819Y385783D01*
X456802Y385774D01*
X456782Y385770D01*
X456693Y385717D01*
X456602Y385668D01*
X456588Y385654D01*
X456571Y385644D01*
X456504Y385565D01*
X456433Y385490D01*
X456424Y385472D01*
X456411Y385457D01*
X456372Y385361D01*
X456329Y385267D01*
X456327Y385247D01*
X456319Y385229D01*
X456301Y385062D01*
X456301Y384299D01*
X456299Y384299D01*
X456299Y385062D01*
X456296Y385082D01*
X456298Y385101D01*
X456276Y385202D01*
X456259Y385305D01*
X456250Y385322D01*
X456246Y385342D01*
X456193Y385431D01*
X456144Y385522D01*
X456130Y385536D01*
X456120Y385553D01*
X456041Y385620D01*
X455966Y385691D01*
X455948Y385700D01*
X455933Y385713D01*
X455837Y385752D01*
X455743Y385795D01*
X455723Y385797D01*
X455705Y385805D01*
X455538Y385823D01*
X446259Y385823D01*
X446259Y389128D01*
X446256Y389148D01*
X446258Y389167D01*
X446236Y389269D01*
X446220Y389371D01*
X446210Y389388D01*
X446206Y389408D01*
X446153Y389497D01*
X446104Y389588D01*
X446090Y389602D01*
X446080Y389619D01*
X446001Y389686D01*
X445926Y389758D01*
X445908Y389766D01*
X445893Y389779D01*
X445797Y389818D01*
X445703Y389861D01*
X445683Y389863D01*
X445665Y389871D01*
X445498Y389889D01*
X417086Y389889D01*
X417066Y389886D01*
X417047Y389888D01*
X416945Y389866D01*
X416843Y389850D01*
X416826Y389840D01*
X416806Y389836D01*
X416717Y389783D01*
X416626Y389734D01*
X416612Y389720D01*
X416595Y389710D01*
X416528Y389631D01*
X416456Y389556D01*
X416448Y389538D01*
X416435Y389523D01*
X416396Y389427D01*
X416353Y389333D01*
X416351Y389313D01*
X416343Y389295D01*
X416325Y389128D01*
X416325Y378668D01*
X415432Y377775D01*
X399168Y377775D01*
X398275Y378668D01*
X398275Y389128D01*
X398272Y389148D01*
X398274Y389167D01*
X398252Y389269D01*
X398236Y389371D01*
X398226Y389388D01*
X398222Y389408D01*
X398169Y389497D01*
X398120Y389588D01*
X398106Y389602D01*
X398096Y389619D01*
X398017Y389686D01*
X397942Y389758D01*
X397924Y389766D01*
X397909Y389779D01*
X397813Y389818D01*
X397719Y389861D01*
X397699Y389863D01*
X397681Y389871D01*
X397514Y389889D01*
X276602Y389889D01*
X276582Y389886D01*
X276563Y389888D01*
X276461Y389866D01*
X276359Y389850D01*
X276342Y389840D01*
X276322Y389836D01*
X276233Y389783D01*
X276142Y389734D01*
X276128Y389720D01*
X276111Y389710D01*
X276044Y389631D01*
X275972Y389556D01*
X275964Y389538D01*
X275951Y389523D01*
X275912Y389427D01*
X275869Y389333D01*
X275867Y389313D01*
X275859Y389295D01*
X275841Y389128D01*
X275841Y385823D01*
X266562Y385823D01*
X266542Y385820D01*
X266523Y385822D01*
X266421Y385800D01*
X266319Y385783D01*
X266302Y385774D01*
X266282Y385770D01*
X266193Y385717D01*
X266102Y385668D01*
X266088Y385654D01*
X266071Y385644D01*
X266004Y385565D01*
X265933Y385490D01*
X265924Y385472D01*
X265911Y385457D01*
X265872Y385361D01*
X265829Y385267D01*
X265827Y385247D01*
X265819Y385229D01*
X265801Y385062D01*
X265801Y384299D01*
X265799Y384299D01*
X265799Y385062D01*
X265796Y385082D01*
X265798Y385101D01*
X265776Y385202D01*
X265759Y385305D01*
X265750Y385322D01*
X265746Y385342D01*
X265693Y385431D01*
X265644Y385522D01*
X265630Y385536D01*
X265620Y385553D01*
X265541Y385620D01*
X265466Y385691D01*
X265448Y385700D01*
X265433Y385713D01*
X265337Y385752D01*
X265243Y385795D01*
X265223Y385797D01*
X265205Y385805D01*
X265038Y385823D01*
X255759Y385823D01*
X255759Y389128D01*
X255756Y389148D01*
X255758Y389167D01*
X255736Y389269D01*
X255720Y389371D01*
X255710Y389388D01*
X255706Y389408D01*
X255653Y389497D01*
X255604Y389588D01*
X255590Y389602D01*
X255580Y389619D01*
X255501Y389686D01*
X255426Y389758D01*
X255408Y389766D01*
X255393Y389779D01*
X255297Y389818D01*
X255203Y389861D01*
X255183Y389863D01*
X255165Y389871D01*
X254998Y389889D01*
X226586Y389889D01*
X226566Y389886D01*
X226547Y389888D01*
X226445Y389866D01*
X226343Y389850D01*
X226326Y389840D01*
X226306Y389836D01*
X226217Y389783D01*
X226126Y389734D01*
X226112Y389720D01*
X226095Y389710D01*
X226028Y389631D01*
X225956Y389556D01*
X225948Y389538D01*
X225935Y389523D01*
X225896Y389427D01*
X225853Y389333D01*
X225851Y389313D01*
X225843Y389295D01*
X225825Y389128D01*
X225825Y378668D01*
X224932Y377775D01*
X208668Y377775D01*
X207775Y378668D01*
X207775Y389128D01*
X207772Y389148D01*
X207774Y389167D01*
X207752Y389269D01*
X207736Y389371D01*
X207726Y389388D01*
X207722Y389408D01*
X207669Y389497D01*
X207620Y389588D01*
X207606Y389602D01*
X207596Y389619D01*
X207517Y389686D01*
X207442Y389758D01*
X207424Y389766D01*
X207409Y389779D01*
X207313Y389818D01*
X207219Y389861D01*
X207199Y389863D01*
X207181Y389871D01*
X207014Y389889D01*
X31750Y389889D01*
X31731Y389886D01*
X31700Y389888D01*
X28153Y389655D01*
X28130Y389650D01*
X28006Y389631D01*
X21152Y387795D01*
X21138Y387788D01*
X21122Y387786D01*
X20969Y387718D01*
X14824Y384171D01*
X14812Y384161D01*
X14798Y384155D01*
X14667Y384050D01*
X9650Y379033D01*
X9641Y379020D01*
X9628Y379011D01*
X9529Y378876D01*
X5982Y372731D01*
X5976Y372717D01*
X5966Y372704D01*
X5913Y372568D01*
X5908Y372556D01*
X5907Y372552D01*
X5905Y372548D01*
X4069Y365694D01*
X4067Y365671D01*
X4045Y365547D01*
X3812Y362000D01*
X3814Y361981D01*
X3811Y361950D01*
X3811Y31750D01*
X3814Y31732D01*
X3812Y31700D01*
X4045Y28153D01*
X4050Y28130D01*
X4069Y28006D01*
X5905Y21152D01*
X5912Y21138D01*
X5914Y21122D01*
X5950Y21041D01*
X5950Y21040D01*
X5951Y21038D01*
X5982Y20969D01*
X9529Y14824D01*
X9539Y14812D01*
X9545Y14798D01*
X9592Y14739D01*
X9593Y14738D01*
X9650Y14667D01*
X14667Y9650D01*
X14680Y9641D01*
X14689Y9628D01*
X14824Y9529D01*
X20969Y5982D01*
X20983Y5976D01*
X20996Y5966D01*
X21152Y5905D01*
X28006Y4069D01*
X28029Y4067D01*
X28153Y4045D01*
X31700Y3812D01*
X31719Y3814D01*
X31750Y3811D01*
X335200Y3811D01*
X335271Y3822D01*
G37*
G36*
X431839Y37816D02*
X431839Y37816D01*
X431891Y37814D01*
X431960Y37834D01*
X432031Y37844D01*
X432077Y37868D01*
X432127Y37882D01*
X432186Y37923D01*
X432250Y37956D01*
X432287Y37993D01*
X432329Y38023D01*
X432372Y38080D01*
X432422Y38131D01*
X432457Y38194D01*
X432476Y38220D01*
X432483Y38242D01*
X432503Y38278D01*
X434325Y42676D01*
X437701Y46052D01*
X440981Y47411D01*
X441080Y47472D01*
X441181Y47533D01*
X441185Y47537D01*
X441190Y47541D01*
X441264Y47630D01*
X441341Y47720D01*
X441343Y47725D01*
X441347Y47730D01*
X441389Y47838D01*
X441433Y47948D01*
X441434Y47955D01*
X441435Y47960D01*
X441436Y47978D01*
X441451Y48114D01*
X441451Y53333D01*
X453397Y65279D01*
X465743Y65279D01*
X465833Y65293D01*
X465924Y65301D01*
X465953Y65313D01*
X465985Y65318D01*
X466066Y65361D01*
X466150Y65397D01*
X466182Y65423D01*
X466203Y65434D01*
X466225Y65457D01*
X466281Y65502D01*
X523778Y122999D01*
X523831Y123073D01*
X523891Y123143D01*
X523903Y123173D01*
X523922Y123199D01*
X523949Y123286D01*
X523983Y123371D01*
X523987Y123412D01*
X523994Y123434D01*
X523993Y123466D01*
X524001Y123537D01*
X524001Y134527D01*
X524342Y134868D01*
X524395Y134942D01*
X524455Y135011D01*
X524467Y135041D01*
X524486Y135068D01*
X524513Y135155D01*
X524547Y135239D01*
X524551Y135280D01*
X524558Y135303D01*
X524557Y135335D01*
X524565Y135406D01*
X524565Y137925D01*
X527525Y140885D01*
X527812Y140885D01*
X527832Y140888D01*
X527851Y140886D01*
X527953Y140908D01*
X528055Y140924D01*
X528072Y140934D01*
X528092Y140938D01*
X528181Y140991D01*
X528272Y141040D01*
X528286Y141054D01*
X528303Y141064D01*
X528370Y141143D01*
X528442Y141218D01*
X528450Y141236D01*
X528463Y141251D01*
X528502Y141347D01*
X528545Y141441D01*
X528547Y141461D01*
X528555Y141479D01*
X528573Y141646D01*
X528573Y266711D01*
X546851Y284989D01*
X570223Y284989D01*
X572232Y282980D01*
X573502Y281710D01*
X573560Y281668D01*
X573612Y281619D01*
X573659Y281597D01*
X573701Y281566D01*
X573770Y281545D01*
X573835Y281515D01*
X573887Y281509D01*
X573937Y281494D01*
X574008Y281496D01*
X574079Y281488D01*
X574130Y281499D01*
X574182Y281500D01*
X574250Y281525D01*
X574320Y281540D01*
X574365Y281567D01*
X574413Y281585D01*
X574469Y281630D01*
X574531Y281666D01*
X574565Y281706D01*
X574605Y281738D01*
X574644Y281799D01*
X574691Y281853D01*
X574710Y281902D01*
X574738Y281945D01*
X574756Y282015D01*
X574783Y282081D01*
X574791Y282153D01*
X574799Y282184D01*
X574797Y282207D01*
X574801Y282248D01*
X574801Y294593D01*
X574787Y294683D01*
X574779Y294774D01*
X574767Y294804D01*
X574762Y294836D01*
X574719Y294917D01*
X574683Y295001D01*
X574657Y295033D01*
X574646Y295053D01*
X574623Y295076D01*
X574615Y295086D01*
X574607Y295099D01*
X574599Y295106D01*
X574578Y295132D01*
X572341Y297369D01*
X572341Y298519D01*
X572327Y298609D01*
X572319Y298700D01*
X572307Y298730D01*
X572302Y298762D01*
X572259Y298843D01*
X572223Y298926D01*
X572214Y298937D01*
X572214Y307340D01*
X572211Y307360D01*
X572213Y307379D01*
X572191Y307481D01*
X572175Y307583D01*
X572165Y307600D01*
X572161Y307620D01*
X572108Y307709D01*
X572059Y307800D01*
X572045Y307814D01*
X572035Y307831D01*
X571956Y307898D01*
X571881Y307970D01*
X571863Y307978D01*
X571848Y307991D01*
X571752Y308030D01*
X571658Y308073D01*
X571638Y308075D01*
X571620Y308083D01*
X571453Y308101D01*
X561648Y308101D01*
X561558Y308087D01*
X561467Y308079D01*
X561437Y308067D01*
X561405Y308062D01*
X561325Y308019D01*
X561241Y307983D01*
X561209Y307957D01*
X561188Y307946D01*
X561166Y307923D01*
X561110Y307878D01*
X547046Y293814D01*
X546993Y293740D01*
X546933Y293671D01*
X546921Y293641D01*
X546902Y293614D01*
X546875Y293527D01*
X546841Y293443D01*
X546837Y293402D01*
X546830Y293379D01*
X546831Y293347D01*
X546823Y293276D01*
X546823Y290946D01*
X545939Y288813D01*
X544307Y287181D01*
X542174Y286297D01*
X539866Y286297D01*
X537733Y287181D01*
X536085Y288828D01*
X536011Y288881D01*
X535942Y288941D01*
X535912Y288953D01*
X535886Y288972D01*
X535799Y288999D01*
X535714Y289033D01*
X535673Y289037D01*
X535651Y289044D01*
X535618Y289043D01*
X535547Y289051D01*
X500387Y289051D01*
X498378Y291060D01*
X492251Y297187D01*
X492251Y298558D01*
X492248Y298578D01*
X492250Y298597D01*
X492228Y298699D01*
X492212Y298801D01*
X492202Y298818D01*
X492198Y298838D01*
X492145Y298927D01*
X492096Y299018D01*
X492082Y299032D01*
X492072Y299049D01*
X491993Y299116D01*
X491918Y299188D01*
X491900Y299196D01*
X491885Y299209D01*
X491789Y299248D01*
X491695Y299291D01*
X491675Y299293D01*
X491657Y299301D01*
X491490Y299319D01*
X490414Y299319D01*
X489521Y300212D01*
X489521Y319088D01*
X490414Y319981D01*
X490982Y319981D01*
X491002Y319984D01*
X491021Y319982D01*
X491123Y320004D01*
X491225Y320020D01*
X491242Y320030D01*
X491262Y320034D01*
X491351Y320087D01*
X491442Y320136D01*
X491456Y320150D01*
X491473Y320160D01*
X491540Y320239D01*
X491612Y320314D01*
X491620Y320332D01*
X491633Y320347D01*
X491672Y320443D01*
X491715Y320537D01*
X491717Y320557D01*
X491725Y320575D01*
X491743Y320742D01*
X491743Y325614D01*
X491740Y325634D01*
X491742Y325653D01*
X491720Y325755D01*
X491704Y325857D01*
X491694Y325874D01*
X491690Y325894D01*
X491637Y325983D01*
X491588Y326074D01*
X491574Y326088D01*
X491564Y326105D01*
X491485Y326172D01*
X491410Y326244D01*
X491392Y326252D01*
X491377Y326265D01*
X491281Y326304D01*
X491187Y326347D01*
X491167Y326349D01*
X491149Y326357D01*
X490982Y326375D01*
X485898Y326375D01*
X485005Y327268D01*
X485005Y330590D01*
X485002Y330610D01*
X485004Y330629D01*
X484982Y330731D01*
X484966Y330833D01*
X484956Y330850D01*
X484952Y330870D01*
X484899Y330959D01*
X484850Y331050D01*
X484836Y331064D01*
X484826Y331081D01*
X484747Y331148D01*
X484672Y331220D01*
X484654Y331228D01*
X484639Y331241D01*
X484543Y331280D01*
X484449Y331323D01*
X484429Y331325D01*
X484411Y331333D01*
X484244Y331351D01*
X475968Y331351D01*
X475853Y331332D01*
X475737Y331315D01*
X475731Y331313D01*
X475725Y331312D01*
X475622Y331257D01*
X475518Y331204D01*
X475513Y331199D01*
X475508Y331196D01*
X475428Y331112D01*
X475345Y331028D01*
X475342Y331022D01*
X475338Y331018D01*
X475331Y331001D01*
X475265Y330881D01*
X475243Y330830D01*
X473470Y329057D01*
X471154Y328097D01*
X468646Y328097D01*
X466330Y329057D01*
X464557Y330830D01*
X463597Y333146D01*
X463597Y335654D01*
X464557Y337970D01*
X466330Y339743D01*
X466381Y339765D01*
X466480Y339826D01*
X466581Y339886D01*
X466585Y339891D01*
X466590Y339894D01*
X466665Y339984D01*
X466741Y340073D01*
X466743Y340079D01*
X466747Y340084D01*
X466789Y340192D01*
X466833Y340301D01*
X466834Y340309D01*
X466835Y340313D01*
X466836Y340332D01*
X466851Y340468D01*
X466851Y355292D01*
X466837Y355380D01*
X466830Y355470D01*
X466817Y355501D01*
X466812Y355535D01*
X466770Y355614D01*
X466735Y355697D01*
X466708Y355731D01*
X466696Y355752D01*
X466693Y355756D01*
X466692Y355756D01*
X466673Y355775D01*
X466630Y355828D01*
X466626Y355832D01*
X466567Y355875D01*
X466514Y355925D01*
X466468Y355947D01*
X466427Y355976D01*
X466357Y355998D01*
X466291Y356029D01*
X466241Y356035D01*
X466192Y356050D01*
X466119Y356048D01*
X466047Y356056D01*
X465997Y356045D01*
X465946Y356044D01*
X465878Y356019D01*
X465806Y356004D01*
X465763Y355978D01*
X465715Y355961D01*
X465658Y355915D01*
X465595Y355878D01*
X465562Y355839D01*
X465522Y355808D01*
X465483Y355746D01*
X465435Y355691D01*
X465416Y355644D01*
X465389Y355601D01*
X465371Y355531D01*
X465343Y355463D01*
X465336Y355394D01*
X465328Y355363D01*
X465329Y355339D01*
X465325Y355296D01*
X465325Y346668D01*
X464432Y345775D01*
X461010Y345775D01*
X460990Y345772D01*
X460971Y345774D01*
X460869Y345752D01*
X460767Y345736D01*
X460750Y345726D01*
X460730Y345722D01*
X460641Y345669D01*
X460550Y345620D01*
X460536Y345606D01*
X460519Y345596D01*
X460452Y345517D01*
X460380Y345442D01*
X460372Y345424D01*
X460359Y345409D01*
X460320Y345313D01*
X460277Y345219D01*
X460275Y345199D01*
X460267Y345181D01*
X460249Y345014D01*
X460249Y328937D01*
X396972Y265660D01*
X396919Y265586D01*
X396859Y265517D01*
X396847Y265487D01*
X396828Y265460D01*
X396801Y265373D01*
X396767Y265289D01*
X396763Y265248D01*
X396756Y265225D01*
X396757Y265193D01*
X396749Y265122D01*
X396749Y48114D01*
X396768Y48000D01*
X396785Y47884D01*
X396787Y47878D01*
X396788Y47872D01*
X396843Y47769D01*
X396896Y47664D01*
X396901Y47660D01*
X396904Y47654D01*
X396988Y47574D01*
X397072Y47492D01*
X397078Y47488D01*
X397082Y47485D01*
X397099Y47477D01*
X397219Y47411D01*
X400499Y46052D01*
X403875Y42676D01*
X405697Y38278D01*
X405735Y38217D01*
X405764Y38152D01*
X405799Y38114D01*
X405826Y38069D01*
X405882Y38023D01*
X405930Y37971D01*
X405976Y37946D01*
X406016Y37912D01*
X406083Y37887D01*
X406146Y37852D01*
X406197Y37843D01*
X406245Y37824D01*
X406317Y37821D01*
X406388Y37808D01*
X406439Y37816D01*
X406491Y37814D01*
X406560Y37834D01*
X406631Y37844D01*
X406677Y37868D01*
X406727Y37882D01*
X406786Y37923D01*
X406850Y37956D01*
X406887Y37993D01*
X406929Y38023D01*
X406972Y38080D01*
X407022Y38131D01*
X407057Y38194D01*
X407076Y38220D01*
X407083Y38242D01*
X407103Y38278D01*
X408925Y42676D01*
X412301Y46052D01*
X416713Y47880D01*
X421487Y47880D01*
X425899Y46052D01*
X429275Y42676D01*
X431097Y38278D01*
X431135Y38217D01*
X431164Y38152D01*
X431199Y38114D01*
X431226Y38069D01*
X431282Y38023D01*
X431330Y37971D01*
X431376Y37946D01*
X431416Y37912D01*
X431483Y37887D01*
X431546Y37852D01*
X431597Y37843D01*
X431645Y37824D01*
X431717Y37821D01*
X431788Y37808D01*
X431839Y37816D01*
G37*
G36*
X381039Y37816D02*
X381039Y37816D01*
X381091Y37814D01*
X381160Y37834D01*
X381231Y37844D01*
X381277Y37868D01*
X381327Y37882D01*
X381386Y37923D01*
X381450Y37956D01*
X381487Y37993D01*
X381529Y38023D01*
X381572Y38080D01*
X381622Y38131D01*
X381657Y38194D01*
X381676Y38220D01*
X381683Y38242D01*
X381703Y38278D01*
X383525Y42676D01*
X386901Y46052D01*
X390181Y47411D01*
X390280Y47472D01*
X390381Y47533D01*
X390385Y47537D01*
X390390Y47541D01*
X390464Y47630D01*
X390541Y47720D01*
X390543Y47725D01*
X390547Y47730D01*
X390589Y47838D01*
X390633Y47948D01*
X390634Y47955D01*
X390635Y47960D01*
X390636Y47978D01*
X390651Y48114D01*
X390651Y267963D01*
X453928Y331240D01*
X453981Y331314D01*
X454041Y331383D01*
X454053Y331413D01*
X454072Y331440D01*
X454099Y331527D01*
X454133Y331611D01*
X454137Y331652D01*
X454144Y331675D01*
X454143Y331707D01*
X454151Y331778D01*
X454151Y345014D01*
X454148Y345034D01*
X454150Y345053D01*
X454128Y345155D01*
X454112Y345257D01*
X454102Y345274D01*
X454098Y345294D01*
X454045Y345383D01*
X453996Y345474D01*
X453982Y345488D01*
X453972Y345505D01*
X453893Y345572D01*
X453818Y345644D01*
X453800Y345652D01*
X453785Y345665D01*
X453689Y345704D01*
X453595Y345747D01*
X453575Y345749D01*
X453557Y345757D01*
X453390Y345775D01*
X448168Y345775D01*
X447275Y346668D01*
X447275Y358140D01*
X447272Y358160D01*
X447274Y358179D01*
X447252Y358281D01*
X447236Y358383D01*
X447226Y358400D01*
X447222Y358420D01*
X447169Y358509D01*
X447120Y358600D01*
X447106Y358614D01*
X447096Y358631D01*
X447017Y358698D01*
X446942Y358770D01*
X446924Y358778D01*
X446909Y358791D01*
X446813Y358830D01*
X446719Y358873D01*
X446699Y358875D01*
X446681Y358883D01*
X446514Y358901D01*
X417086Y358901D01*
X417066Y358898D01*
X417047Y358900D01*
X416945Y358878D01*
X416843Y358862D01*
X416826Y358852D01*
X416806Y358848D01*
X416717Y358795D01*
X416626Y358746D01*
X416612Y358732D01*
X416595Y358722D01*
X416528Y358643D01*
X416456Y358568D01*
X416448Y358550D01*
X416435Y358535D01*
X416396Y358439D01*
X416353Y358345D01*
X416351Y358325D01*
X416343Y358307D01*
X416325Y358140D01*
X416325Y346668D01*
X415432Y345775D01*
X399168Y345775D01*
X398275Y346668D01*
X398275Y348490D01*
X398272Y348510D01*
X398274Y348529D01*
X398252Y348631D01*
X398236Y348733D01*
X398226Y348750D01*
X398222Y348770D01*
X398169Y348859D01*
X398120Y348950D01*
X398106Y348964D01*
X398096Y348981D01*
X398017Y349048D01*
X397942Y349120D01*
X397924Y349128D01*
X397909Y349141D01*
X397813Y349180D01*
X397719Y349223D01*
X397699Y349225D01*
X397681Y349233D01*
X397514Y349251D01*
X395587Y349251D01*
X388286Y356552D01*
X388212Y356605D01*
X388143Y356665D01*
X388113Y356677D01*
X388086Y356696D01*
X387999Y356723D01*
X387915Y356757D01*
X387874Y356761D01*
X387851Y356768D01*
X387819Y356767D01*
X387748Y356775D01*
X382218Y356775D01*
X381325Y357668D01*
X381325Y363198D01*
X381311Y363288D01*
X381303Y363379D01*
X381291Y363409D01*
X381286Y363441D01*
X381243Y363521D01*
X381207Y363605D01*
X381181Y363637D01*
X381170Y363658D01*
X381147Y363680D01*
X381102Y363736D01*
X365390Y379448D01*
X365332Y379490D01*
X365280Y379539D01*
X365233Y379561D01*
X365191Y379592D01*
X365122Y379613D01*
X365057Y379643D01*
X365005Y379649D01*
X364955Y379664D01*
X364884Y379662D01*
X364813Y379670D01*
X364762Y379659D01*
X364710Y379658D01*
X364642Y379633D01*
X364572Y379618D01*
X364527Y379591D01*
X364479Y379573D01*
X364423Y379528D01*
X364361Y379492D01*
X364327Y379452D01*
X364287Y379420D01*
X364248Y379359D01*
X364201Y379305D01*
X364182Y379256D01*
X364154Y379213D01*
X364136Y379143D01*
X364109Y379077D01*
X364101Y379005D01*
X364093Y378974D01*
X364095Y378951D01*
X364091Y378910D01*
X364091Y377323D01*
X355312Y377323D01*
X355292Y377320D01*
X355273Y377322D01*
X355171Y377300D01*
X355069Y377283D01*
X355052Y377274D01*
X355032Y377270D01*
X354943Y377217D01*
X354852Y377168D01*
X354838Y377154D01*
X354821Y377144D01*
X354754Y377065D01*
X354683Y376990D01*
X354674Y376972D01*
X354661Y376957D01*
X354622Y376861D01*
X354579Y376767D01*
X354577Y376747D01*
X354569Y376729D01*
X354551Y376562D01*
X354551Y375038D01*
X354554Y375018D01*
X354552Y374999D01*
X354574Y374897D01*
X354591Y374795D01*
X354600Y374778D01*
X354604Y374758D01*
X354657Y374669D01*
X354706Y374578D01*
X354720Y374564D01*
X354730Y374547D01*
X354809Y374480D01*
X354884Y374409D01*
X354902Y374400D01*
X354917Y374387D01*
X355013Y374348D01*
X355107Y374305D01*
X355127Y374303D01*
X355145Y374295D01*
X355312Y374277D01*
X364091Y374277D01*
X364091Y370216D01*
X363918Y369569D01*
X363583Y368990D01*
X363110Y368517D01*
X362783Y368328D01*
X362752Y368302D01*
X362737Y368295D01*
X362719Y368276D01*
X362692Y368254D01*
X362598Y368179D01*
X362596Y368175D01*
X362593Y368172D01*
X362530Y368073D01*
X362465Y367972D01*
X362464Y367968D01*
X362462Y367964D01*
X362434Y367849D01*
X362405Y367733D01*
X362406Y367729D01*
X362405Y367725D01*
X362415Y367605D01*
X362424Y367488D01*
X362426Y367484D01*
X362426Y367480D01*
X362475Y367369D01*
X362521Y367262D01*
X362524Y367258D01*
X362525Y367255D01*
X362534Y367245D01*
X362626Y367131D01*
X363075Y366682D01*
X363075Y354918D01*
X362182Y354025D01*
X358360Y354025D01*
X358340Y354022D01*
X358321Y354024D01*
X358219Y354002D01*
X358117Y353986D01*
X358100Y353976D01*
X358080Y353972D01*
X357991Y353919D01*
X357900Y353870D01*
X357886Y353856D01*
X357869Y353846D01*
X357802Y353767D01*
X357730Y353692D01*
X357722Y353674D01*
X357709Y353659D01*
X357670Y353563D01*
X357627Y353469D01*
X357625Y353449D01*
X357617Y353431D01*
X357599Y353264D01*
X357599Y351878D01*
X357613Y351788D01*
X357621Y351697D01*
X357633Y351667D01*
X357638Y351635D01*
X357681Y351555D01*
X357717Y351471D01*
X357743Y351439D01*
X357754Y351418D01*
X357777Y351396D01*
X357822Y351340D01*
X360986Y348176D01*
X361060Y348123D01*
X361129Y348063D01*
X361159Y348051D01*
X361186Y348032D01*
X361273Y348005D01*
X361357Y347971D01*
X361398Y347967D01*
X361421Y347960D01*
X361453Y347961D01*
X361524Y347953D01*
X364043Y347953D01*
X367003Y344993D01*
X367003Y340807D01*
X364043Y337847D01*
X359857Y337847D01*
X356897Y340807D01*
X356897Y343326D01*
X356892Y343355D01*
X356894Y343368D01*
X356882Y343422D01*
X356875Y343507D01*
X356863Y343537D01*
X356858Y343569D01*
X356845Y343592D01*
X356842Y343608D01*
X356810Y343662D01*
X356779Y343733D01*
X356753Y343765D01*
X356742Y343786D01*
X356726Y343802D01*
X356715Y343819D01*
X356699Y343833D01*
X356674Y343864D01*
X351501Y349037D01*
X351501Y353264D01*
X351498Y353284D01*
X351500Y353303D01*
X351478Y353405D01*
X351462Y353507D01*
X351452Y353524D01*
X351448Y353544D01*
X351395Y353633D01*
X351346Y353724D01*
X351332Y353738D01*
X351322Y353755D01*
X351243Y353822D01*
X351168Y353894D01*
X351150Y353902D01*
X351135Y353915D01*
X351039Y353954D01*
X350945Y353997D01*
X350925Y353999D01*
X350907Y354007D01*
X350740Y354025D01*
X346918Y354025D01*
X346025Y354918D01*
X346025Y357240D01*
X346022Y357260D01*
X346024Y357279D01*
X346002Y357381D01*
X345986Y357483D01*
X345976Y357500D01*
X345972Y357520D01*
X345919Y357609D01*
X345870Y357700D01*
X345856Y357714D01*
X345846Y357731D01*
X345767Y357798D01*
X345692Y357870D01*
X345674Y357878D01*
X345659Y357891D01*
X345563Y357930D01*
X345469Y357973D01*
X345449Y357975D01*
X345431Y357983D01*
X345264Y358001D01*
X327836Y358001D01*
X327816Y357998D01*
X327797Y358000D01*
X327695Y357978D01*
X327593Y357962D01*
X327576Y357952D01*
X327556Y357948D01*
X327467Y357895D01*
X327376Y357846D01*
X327362Y357832D01*
X327345Y357822D01*
X327278Y357743D01*
X327206Y357668D01*
X327198Y357650D01*
X327185Y357635D01*
X327146Y357539D01*
X327103Y357445D01*
X327101Y357425D01*
X327093Y357407D01*
X327075Y357240D01*
X327075Y355168D01*
X326182Y354275D01*
X310918Y354275D01*
X310025Y355168D01*
X310025Y357240D01*
X310022Y357260D01*
X310024Y357279D01*
X310002Y357381D01*
X309986Y357483D01*
X309976Y357500D01*
X309972Y357520D01*
X309919Y357609D01*
X309870Y357700D01*
X309856Y357714D01*
X309846Y357731D01*
X309767Y357798D01*
X309692Y357870D01*
X309674Y357878D01*
X309659Y357891D01*
X309563Y357930D01*
X309469Y357973D01*
X309449Y357975D01*
X309431Y357983D01*
X309264Y358001D01*
X305478Y358001D01*
X305388Y357987D01*
X305297Y357979D01*
X305267Y357967D01*
X305235Y357962D01*
X305155Y357919D01*
X305071Y357883D01*
X305039Y357857D01*
X305018Y357846D01*
X304996Y357823D01*
X304940Y357778D01*
X301722Y354560D01*
X301669Y354486D01*
X301609Y354417D01*
X301597Y354387D01*
X301578Y354360D01*
X301551Y354273D01*
X301517Y354189D01*
X301513Y354148D01*
X301506Y354125D01*
X301507Y354093D01*
X301499Y354022D01*
X301499Y353916D01*
X301502Y353896D01*
X301500Y353877D01*
X301522Y353775D01*
X301538Y353673D01*
X301548Y353656D01*
X301552Y353636D01*
X301605Y353547D01*
X301654Y353456D01*
X301668Y353442D01*
X301678Y353425D01*
X301757Y353358D01*
X301832Y353286D01*
X301850Y353278D01*
X301865Y353265D01*
X301961Y353226D01*
X302055Y353183D01*
X302075Y353181D01*
X302093Y353173D01*
X302260Y353155D01*
X303582Y353155D01*
X304475Y352262D01*
X304475Y343998D01*
X303582Y343105D01*
X296624Y343105D01*
X296553Y343094D01*
X296482Y343092D01*
X296433Y343074D01*
X296381Y343066D01*
X296318Y343032D01*
X296251Y343007D01*
X296210Y342975D01*
X296164Y342950D01*
X296115Y342898D01*
X296059Y342854D01*
X296030Y342810D01*
X295995Y342772D01*
X295964Y342707D01*
X295926Y342647D01*
X295913Y342596D01*
X295891Y342549D01*
X295883Y342478D01*
X295866Y342408D01*
X295870Y342356D01*
X295864Y342305D01*
X295879Y342234D01*
X295885Y342163D01*
X295905Y342115D01*
X295916Y342064D01*
X295953Y342003D01*
X295981Y341937D01*
X296026Y341881D01*
X296042Y341853D01*
X296060Y341838D01*
X296086Y341806D01*
X297514Y340378D01*
X297588Y340325D01*
X297657Y340265D01*
X297687Y340253D01*
X297714Y340234D01*
X297801Y340207D01*
X297885Y340173D01*
X297926Y340169D01*
X297949Y340162D01*
X297981Y340163D01*
X298052Y340155D01*
X303582Y340155D01*
X304475Y339262D01*
X304475Y330998D01*
X303582Y330105D01*
X293318Y330105D01*
X292425Y330998D01*
X292425Y336528D01*
X292411Y336618D01*
X292403Y336709D01*
X292391Y336739D01*
X292386Y336771D01*
X292343Y336851D01*
X292307Y336935D01*
X292281Y336967D01*
X292270Y336988D01*
X292247Y337010D01*
X292202Y337066D01*
X282551Y346717D01*
X282551Y357990D01*
X282548Y358010D01*
X282550Y358029D01*
X282528Y358131D01*
X282512Y358233D01*
X282502Y358250D01*
X282498Y358270D01*
X282445Y358359D01*
X282396Y358450D01*
X282382Y358464D01*
X282372Y358481D01*
X282293Y358548D01*
X282218Y358620D01*
X282200Y358628D01*
X282185Y358641D01*
X282089Y358680D01*
X281995Y358723D01*
X281975Y358725D01*
X281957Y358733D01*
X281790Y358751D01*
X275586Y358751D01*
X275566Y358748D01*
X275547Y358750D01*
X275445Y358728D01*
X275343Y358712D01*
X275326Y358702D01*
X275306Y358698D01*
X275217Y358645D01*
X275126Y358596D01*
X275112Y358582D01*
X275095Y358572D01*
X275028Y358493D01*
X274956Y358418D01*
X274948Y358400D01*
X274935Y358385D01*
X274896Y358289D01*
X274853Y358195D01*
X274851Y358175D01*
X274843Y358157D01*
X274825Y357990D01*
X274825Y346668D01*
X273932Y345775D01*
X269610Y345775D01*
X269590Y345772D01*
X269571Y345774D01*
X269469Y345752D01*
X269367Y345736D01*
X269350Y345726D01*
X269330Y345722D01*
X269241Y345669D01*
X269150Y345620D01*
X269136Y345606D01*
X269119Y345596D01*
X269052Y345517D01*
X268980Y345442D01*
X268972Y345424D01*
X268959Y345409D01*
X268920Y345313D01*
X268877Y345219D01*
X268875Y345199D01*
X268867Y345181D01*
X268849Y345014D01*
X268849Y293678D01*
X268863Y293588D01*
X268871Y293497D01*
X268883Y293467D01*
X268888Y293435D01*
X268931Y293355D01*
X268967Y293271D01*
X268993Y293239D01*
X269004Y293218D01*
X269027Y293196D01*
X269072Y293140D01*
X371349Y190863D01*
X371349Y48114D01*
X371368Y48000D01*
X371385Y47884D01*
X371387Y47878D01*
X371388Y47872D01*
X371443Y47769D01*
X371496Y47664D01*
X371501Y47660D01*
X371504Y47654D01*
X371588Y47574D01*
X371672Y47492D01*
X371678Y47488D01*
X371682Y47485D01*
X371699Y47477D01*
X371819Y47411D01*
X375099Y46052D01*
X378475Y42676D01*
X380297Y38278D01*
X380335Y38217D01*
X380364Y38152D01*
X380399Y38114D01*
X380426Y38069D01*
X380482Y38023D01*
X380530Y37971D01*
X380576Y37946D01*
X380616Y37912D01*
X380683Y37887D01*
X380746Y37852D01*
X380797Y37843D01*
X380845Y37824D01*
X380917Y37821D01*
X380988Y37808D01*
X381039Y37816D01*
G37*
%LPC*%
G36*
X34311Y69849D02*
X34311Y69849D01*
X27309Y72750D01*
X21950Y78109D01*
X19049Y85111D01*
X19049Y92689D01*
X21950Y99691D01*
X27309Y105050D01*
X34311Y107951D01*
X41889Y107951D01*
X48891Y105050D01*
X54250Y99691D01*
X57151Y92689D01*
X57151Y85111D01*
X54250Y78109D01*
X48891Y72750D01*
X41889Y69849D01*
X34311Y69849D01*
G37*
%LPD*%
%LPC*%
G36*
X631211Y222249D02*
X631211Y222249D01*
X624209Y225150D01*
X618850Y230509D01*
X615949Y237511D01*
X615949Y245089D01*
X618850Y252091D01*
X624209Y257450D01*
X631211Y260351D01*
X638789Y260351D01*
X645791Y257450D01*
X651150Y252091D01*
X654051Y245089D01*
X654051Y237511D01*
X651150Y230509D01*
X645791Y225150D01*
X638789Y222249D01*
X631211Y222249D01*
G37*
%LPD*%
%LPC*%
G36*
X313711Y260349D02*
X313711Y260349D01*
X306709Y263250D01*
X301350Y268609D01*
X298449Y275611D01*
X298449Y283189D01*
X301350Y290191D01*
X306709Y295550D01*
X313711Y298451D01*
X321289Y298451D01*
X328291Y295550D01*
X333650Y290191D01*
X336551Y283189D01*
X336551Y275611D01*
X333650Y268609D01*
X328291Y263250D01*
X321289Y260349D01*
X313711Y260349D01*
G37*
%LPD*%
%LPC*%
G36*
X62346Y159297D02*
X62346Y159297D01*
X60213Y160181D01*
X58581Y161813D01*
X57697Y163946D01*
X57697Y166254D01*
X58581Y168387D01*
X60228Y170035D01*
X60281Y170109D01*
X60341Y170178D01*
X60353Y170208D01*
X60372Y170234D01*
X60399Y170321D01*
X60433Y170406D01*
X60437Y170447D01*
X60444Y170469D01*
X60443Y170502D01*
X60451Y170573D01*
X60451Y227463D01*
X66052Y233064D01*
X66105Y233138D01*
X66165Y233207D01*
X66177Y233237D01*
X66196Y233264D01*
X66223Y233351D01*
X66257Y233435D01*
X66261Y233476D01*
X66268Y233499D01*
X66267Y233531D01*
X66275Y233602D01*
X66275Y243632D01*
X67168Y244525D01*
X83432Y244525D01*
X84325Y243632D01*
X84325Y232368D01*
X83432Y231475D01*
X73402Y231475D01*
X73312Y231461D01*
X73221Y231453D01*
X73191Y231441D01*
X73159Y231436D01*
X73079Y231393D01*
X72995Y231357D01*
X72963Y231331D01*
X72942Y231320D01*
X72920Y231297D01*
X72864Y231252D01*
X66772Y225160D01*
X66719Y225086D01*
X66659Y225017D01*
X66647Y224987D01*
X66628Y224960D01*
X66601Y224873D01*
X66567Y224789D01*
X66563Y224748D01*
X66556Y224725D01*
X66557Y224693D01*
X66549Y224622D01*
X66549Y170573D01*
X66563Y170483D01*
X66571Y170392D01*
X66583Y170362D01*
X66588Y170330D01*
X66631Y170249D01*
X66667Y170166D01*
X66693Y170133D01*
X66704Y170113D01*
X66727Y170091D01*
X66772Y170035D01*
X68419Y168387D01*
X69303Y166254D01*
X69303Y163946D01*
X68419Y161813D01*
X66787Y160181D01*
X64654Y159297D01*
X62346Y159297D01*
G37*
%LPD*%
%LPC*%
G36*
X478914Y238819D02*
X478914Y238819D01*
X478021Y239712D01*
X478021Y258588D01*
X478914Y259481D01*
X511686Y259481D01*
X512579Y258588D01*
X512579Y239712D01*
X511686Y238819D01*
X478914Y238819D01*
G37*
%LPD*%
%LPC*%
G36*
X36946Y184697D02*
X36946Y184697D01*
X34813Y185581D01*
X33181Y187213D01*
X32297Y189346D01*
X32297Y191654D01*
X33181Y193787D01*
X34828Y195435D01*
X34881Y195509D01*
X34941Y195578D01*
X34953Y195608D01*
X34972Y195634D01*
X34999Y195721D01*
X35033Y195806D01*
X35037Y195847D01*
X35044Y195869D01*
X35043Y195902D01*
X35051Y195973D01*
X35051Y209114D01*
X35048Y209134D01*
X35050Y209153D01*
X35028Y209255D01*
X35012Y209357D01*
X35002Y209374D01*
X34998Y209394D01*
X34945Y209483D01*
X34896Y209574D01*
X34882Y209588D01*
X34872Y209605D01*
X34793Y209672D01*
X34718Y209744D01*
X34700Y209752D01*
X34685Y209765D01*
X34589Y209804D01*
X34495Y209847D01*
X34475Y209849D01*
X34457Y209857D01*
X34290Y209875D01*
X33818Y209875D01*
X32925Y210768D01*
X32925Y220258D01*
X32911Y220348D01*
X32903Y220439D01*
X32891Y220469D01*
X32886Y220501D01*
X32843Y220581D01*
X32807Y220665D01*
X32781Y220697D01*
X32770Y220718D01*
X32747Y220740D01*
X32702Y220796D01*
X25260Y228238D01*
X23251Y230247D01*
X23251Y230714D01*
X23248Y230734D01*
X23250Y230753D01*
X23228Y230855D01*
X23212Y230957D01*
X23202Y230974D01*
X23198Y230994D01*
X23145Y231083D01*
X23096Y231174D01*
X23082Y231188D01*
X23072Y231205D01*
X22993Y231272D01*
X22918Y231344D01*
X22900Y231352D01*
X22885Y231365D01*
X22789Y231404D01*
X22695Y231447D01*
X22675Y231449D01*
X22657Y231457D01*
X22490Y231475D01*
X18168Y231475D01*
X17275Y232368D01*
X17275Y243632D01*
X18168Y244525D01*
X34432Y244525D01*
X35325Y243632D01*
X35325Y232368D01*
X34432Y231475D01*
X32484Y231475D01*
X32413Y231464D01*
X32342Y231462D01*
X32293Y231444D01*
X32241Y231436D01*
X32178Y231402D01*
X32111Y231377D01*
X32070Y231345D01*
X32024Y231320D01*
X31975Y231269D01*
X31919Y231224D01*
X31890Y231180D01*
X31855Y231142D01*
X31824Y231077D01*
X31786Y231017D01*
X31773Y230966D01*
X31751Y230919D01*
X31743Y230848D01*
X31726Y230778D01*
X31730Y230726D01*
X31724Y230675D01*
X31739Y230604D01*
X31745Y230533D01*
X31765Y230485D01*
X31776Y230434D01*
X31813Y230373D01*
X31841Y230307D01*
X31886Y230251D01*
X31902Y230223D01*
X31920Y230208D01*
X31946Y230176D01*
X39974Y222148D01*
X40048Y222094D01*
X40117Y222035D01*
X40147Y222023D01*
X40174Y222004D01*
X40261Y221977D01*
X40345Y221943D01*
X40386Y221939D01*
X40409Y221932D01*
X40441Y221933D01*
X40512Y221925D01*
X42082Y221925D01*
X42975Y221032D01*
X42975Y210768D01*
X42082Y209875D01*
X41910Y209875D01*
X41890Y209872D01*
X41871Y209874D01*
X41769Y209852D01*
X41667Y209836D01*
X41650Y209826D01*
X41630Y209822D01*
X41541Y209769D01*
X41450Y209720D01*
X41436Y209706D01*
X41419Y209696D01*
X41352Y209617D01*
X41280Y209542D01*
X41272Y209524D01*
X41259Y209509D01*
X41220Y209413D01*
X41177Y209319D01*
X41175Y209299D01*
X41167Y209281D01*
X41149Y209114D01*
X41149Y195973D01*
X41163Y195883D01*
X41171Y195792D01*
X41183Y195762D01*
X41188Y195730D01*
X41231Y195649D01*
X41267Y195566D01*
X41293Y195533D01*
X41304Y195513D01*
X41327Y195491D01*
X41372Y195435D01*
X43019Y193787D01*
X43903Y191654D01*
X43903Y189346D01*
X43019Y187213D01*
X41387Y185581D01*
X39254Y184697D01*
X36946Y184697D01*
G37*
%LPD*%
%LPC*%
G36*
X588946Y59551D02*
X588946Y59551D01*
X588299Y59724D01*
X587720Y60059D01*
X587247Y60532D01*
X586876Y61175D01*
X586857Y61226D01*
X586839Y61248D01*
X586828Y61274D01*
X586763Y61344D01*
X586703Y61418D01*
X586680Y61433D01*
X586661Y61454D01*
X586577Y61500D01*
X586496Y61551D01*
X586469Y61558D01*
X586444Y61571D01*
X586351Y61588D01*
X586258Y61611D01*
X586230Y61609D01*
X586202Y61614D01*
X586108Y61600D01*
X586013Y61592D01*
X585987Y61581D01*
X585959Y61577D01*
X585874Y61533D01*
X585786Y61496D01*
X585759Y61474D01*
X585740Y61464D01*
X585717Y61441D01*
X585655Y61391D01*
X584832Y60567D01*
X575948Y60567D01*
X575055Y61460D01*
X575055Y86600D01*
X575948Y87493D01*
X584832Y87493D01*
X585655Y86669D01*
X585733Y86613D01*
X585806Y86552D01*
X585832Y86542D01*
X585855Y86525D01*
X585946Y86497D01*
X586035Y86463D01*
X586063Y86461D01*
X586090Y86453D01*
X586186Y86455D01*
X586281Y86451D01*
X586308Y86459D01*
X586336Y86459D01*
X586426Y86492D01*
X586518Y86518D01*
X586541Y86534D01*
X586567Y86544D01*
X586642Y86604D01*
X586720Y86658D01*
X586737Y86680D01*
X586759Y86698D01*
X586811Y86778D01*
X586868Y86854D01*
X586881Y86887D01*
X586892Y86904D01*
X586896Y86920D01*
X587247Y87528D01*
X587720Y88001D01*
X588299Y88336D01*
X588946Y88509D01*
X591567Y88509D01*
X591567Y74792D01*
X591570Y74772D01*
X591568Y74753D01*
X591590Y74651D01*
X591607Y74549D01*
X591616Y74532D01*
X591620Y74512D01*
X591673Y74423D01*
X591722Y74332D01*
X591736Y74318D01*
X591746Y74301D01*
X591825Y74234D01*
X591900Y74163D01*
X591918Y74154D01*
X591933Y74141D01*
X592029Y74102D01*
X592123Y74059D01*
X592143Y74057D01*
X592161Y74049D01*
X592328Y74031D01*
X593091Y74031D01*
X593091Y74029D01*
X592328Y74029D01*
X592308Y74026D01*
X592289Y74028D01*
X592187Y74006D01*
X592085Y73989D01*
X592068Y73980D01*
X592048Y73976D01*
X591959Y73923D01*
X591868Y73874D01*
X591854Y73860D01*
X591837Y73850D01*
X591770Y73771D01*
X591699Y73696D01*
X591690Y73678D01*
X591677Y73663D01*
X591638Y73567D01*
X591595Y73473D01*
X591593Y73453D01*
X591585Y73435D01*
X591567Y73268D01*
X591567Y59551D01*
X588946Y59551D01*
G37*
%LPD*%
G36*
X345284Y364102D02*
X345284Y364102D01*
X345303Y364100D01*
X345405Y364122D01*
X345507Y364138D01*
X345524Y364148D01*
X345544Y364152D01*
X345633Y364205D01*
X345724Y364254D01*
X345738Y364268D01*
X345755Y364278D01*
X345822Y364357D01*
X345894Y364432D01*
X345902Y364450D01*
X345915Y364465D01*
X345954Y364561D01*
X345997Y364655D01*
X345999Y364675D01*
X346007Y364693D01*
X346025Y364860D01*
X346025Y366682D01*
X346474Y367131D01*
X346544Y367227D01*
X346614Y367323D01*
X346616Y367327D01*
X346618Y367330D01*
X346653Y367443D01*
X346689Y367557D01*
X346689Y367562D01*
X346690Y367566D01*
X346687Y367684D01*
X346685Y367803D01*
X346684Y367807D01*
X346684Y367811D01*
X346643Y367923D01*
X346604Y368035D01*
X346601Y368039D01*
X346600Y368042D01*
X346525Y368135D01*
X346452Y368229D01*
X346448Y368232D01*
X346446Y368234D01*
X346434Y368242D01*
X346317Y368328D01*
X345990Y368517D01*
X345517Y368990D01*
X345182Y369569D01*
X345009Y370216D01*
X345009Y374277D01*
X353788Y374277D01*
X353808Y374280D01*
X353827Y374278D01*
X353929Y374300D01*
X354031Y374317D01*
X354048Y374326D01*
X354068Y374330D01*
X354157Y374383D01*
X354248Y374432D01*
X354262Y374446D01*
X354279Y374456D01*
X354346Y374535D01*
X354417Y374610D01*
X354426Y374628D01*
X354439Y374643D01*
X354478Y374739D01*
X354521Y374833D01*
X354523Y374853D01*
X354531Y374871D01*
X354549Y375038D01*
X354549Y376562D01*
X354546Y376582D01*
X354548Y376601D01*
X354526Y376703D01*
X354509Y376805D01*
X354500Y376822D01*
X354496Y376842D01*
X354443Y376931D01*
X354394Y377022D01*
X354380Y377036D01*
X354370Y377053D01*
X354291Y377120D01*
X354216Y377191D01*
X354198Y377200D01*
X354183Y377213D01*
X354087Y377252D01*
X353993Y377295D01*
X353973Y377297D01*
X353955Y377305D01*
X353788Y377323D01*
X345009Y377323D01*
X345009Y380288D01*
X345006Y380308D01*
X345008Y380327D01*
X344986Y380429D01*
X344970Y380531D01*
X344960Y380548D01*
X344956Y380568D01*
X344903Y380657D01*
X344854Y380748D01*
X344840Y380762D01*
X344830Y380779D01*
X344751Y380846D01*
X344676Y380918D01*
X344658Y380926D01*
X344643Y380939D01*
X344547Y380978D01*
X344453Y381021D01*
X344433Y381023D01*
X344415Y381031D01*
X344248Y381049D01*
X328852Y381049D01*
X328832Y381046D01*
X328813Y381048D01*
X328711Y381026D01*
X328609Y381010D01*
X328592Y381000D01*
X328572Y380996D01*
X328483Y380943D01*
X328392Y380894D01*
X328378Y380880D01*
X328361Y380870D01*
X328294Y380791D01*
X328222Y380716D01*
X328214Y380698D01*
X328201Y380683D01*
X328162Y380587D01*
X328119Y380493D01*
X328117Y380473D01*
X328109Y380455D01*
X328091Y380288D01*
X328091Y377323D01*
X319312Y377323D01*
X319292Y377320D01*
X319273Y377322D01*
X319171Y377300D01*
X319069Y377283D01*
X319052Y377274D01*
X319032Y377270D01*
X318943Y377217D01*
X318852Y377168D01*
X318838Y377154D01*
X318821Y377144D01*
X318754Y377065D01*
X318683Y376990D01*
X318674Y376972D01*
X318661Y376957D01*
X318622Y376861D01*
X318579Y376767D01*
X318577Y376747D01*
X318569Y376729D01*
X318551Y376562D01*
X318551Y375038D01*
X318554Y375018D01*
X318552Y374999D01*
X318574Y374897D01*
X318591Y374795D01*
X318600Y374778D01*
X318604Y374758D01*
X318657Y374669D01*
X318706Y374578D01*
X318720Y374564D01*
X318730Y374547D01*
X318809Y374480D01*
X318884Y374409D01*
X318902Y374400D01*
X318917Y374387D01*
X319013Y374348D01*
X319107Y374305D01*
X319127Y374303D01*
X319145Y374295D01*
X319312Y374277D01*
X328091Y374277D01*
X328091Y370216D01*
X327918Y369569D01*
X327583Y368990D01*
X327110Y368517D01*
X326942Y368420D01*
X326850Y368344D01*
X326757Y368270D01*
X326755Y368267D01*
X326751Y368264D01*
X326688Y368163D01*
X326624Y368063D01*
X326623Y368059D01*
X326621Y368056D01*
X326593Y367940D01*
X326564Y367825D01*
X326564Y367821D01*
X326563Y367816D01*
X326574Y367697D01*
X326583Y367579D01*
X326585Y367576D01*
X326585Y367571D01*
X326633Y367462D01*
X326679Y367353D01*
X326682Y367349D01*
X326684Y367346D01*
X326693Y367336D01*
X326784Y367222D01*
X327075Y366932D01*
X327075Y364860D01*
X327078Y364840D01*
X327076Y364821D01*
X327098Y364719D01*
X327114Y364617D01*
X327124Y364600D01*
X327128Y364580D01*
X327181Y364491D01*
X327230Y364400D01*
X327244Y364386D01*
X327254Y364369D01*
X327333Y364302D01*
X327408Y364230D01*
X327426Y364222D01*
X327441Y364209D01*
X327537Y364170D01*
X327631Y364127D01*
X327651Y364125D01*
X327669Y364117D01*
X327836Y364099D01*
X345264Y364099D01*
X345284Y364102D01*
G37*
G36*
X291754Y346555D02*
X291754Y346555D01*
X291806Y346556D01*
X291874Y346581D01*
X291944Y346596D01*
X291989Y346623D01*
X292037Y346641D01*
X292093Y346686D01*
X292155Y346722D01*
X292189Y346762D01*
X292229Y346794D01*
X292268Y346855D01*
X292315Y346909D01*
X292334Y346958D01*
X292362Y347001D01*
X292380Y347071D01*
X292407Y347137D01*
X292415Y347209D01*
X292423Y347240D01*
X292421Y347263D01*
X292425Y347304D01*
X292425Y352262D01*
X293318Y353155D01*
X294640Y353155D01*
X294660Y353158D01*
X294679Y353156D01*
X294781Y353178D01*
X294883Y353194D01*
X294900Y353204D01*
X294920Y353208D01*
X295009Y353261D01*
X295100Y353310D01*
X295114Y353324D01*
X295131Y353334D01*
X295198Y353413D01*
X295270Y353488D01*
X295278Y353506D01*
X295291Y353521D01*
X295330Y353617D01*
X295373Y353711D01*
X295375Y353731D01*
X295383Y353749D01*
X295401Y353916D01*
X295401Y356863D01*
X302637Y364099D01*
X309264Y364099D01*
X309284Y364102D01*
X309303Y364100D01*
X309405Y364122D01*
X309507Y364138D01*
X309524Y364148D01*
X309544Y364152D01*
X309633Y364205D01*
X309724Y364254D01*
X309738Y364268D01*
X309755Y364278D01*
X309822Y364357D01*
X309894Y364432D01*
X309902Y364450D01*
X309915Y364465D01*
X309954Y364561D01*
X309997Y364655D01*
X309999Y364675D01*
X310007Y364693D01*
X310025Y364860D01*
X310025Y366932D01*
X310316Y367222D01*
X310385Y367319D01*
X310456Y367415D01*
X310457Y367419D01*
X310459Y367422D01*
X310494Y367535D01*
X310531Y367649D01*
X310531Y367653D01*
X310532Y367657D01*
X310529Y367773D01*
X310527Y367895D01*
X310526Y367899D01*
X310525Y367903D01*
X310485Y368014D01*
X310445Y368127D01*
X310442Y368130D01*
X310441Y368134D01*
X310367Y368226D01*
X310293Y368320D01*
X310289Y368323D01*
X310287Y368326D01*
X310276Y368333D01*
X310158Y368420D01*
X309990Y368517D01*
X309517Y368990D01*
X309182Y369569D01*
X309009Y370216D01*
X309009Y374277D01*
X317788Y374277D01*
X317808Y374280D01*
X317827Y374278D01*
X317929Y374300D01*
X318031Y374317D01*
X318048Y374326D01*
X318068Y374330D01*
X318157Y374383D01*
X318248Y374432D01*
X318262Y374446D01*
X318279Y374456D01*
X318346Y374535D01*
X318417Y374610D01*
X318426Y374628D01*
X318439Y374643D01*
X318478Y374739D01*
X318521Y374833D01*
X318523Y374853D01*
X318531Y374871D01*
X318549Y375038D01*
X318549Y376562D01*
X318546Y376582D01*
X318548Y376601D01*
X318526Y376703D01*
X318509Y376805D01*
X318500Y376822D01*
X318496Y376842D01*
X318443Y376931D01*
X318394Y377022D01*
X318380Y377036D01*
X318370Y377053D01*
X318291Y377120D01*
X318216Y377191D01*
X318198Y377200D01*
X318183Y377213D01*
X318087Y377252D01*
X317993Y377295D01*
X317973Y377297D01*
X317955Y377305D01*
X317788Y377323D01*
X309009Y377323D01*
X309009Y379060D01*
X308998Y379131D01*
X308996Y379202D01*
X308978Y379251D01*
X308970Y379303D01*
X308936Y379366D01*
X308911Y379433D01*
X308879Y379474D01*
X308854Y379520D01*
X308803Y379569D01*
X308758Y379625D01*
X308714Y379654D01*
X308676Y379689D01*
X308611Y379720D01*
X308551Y379758D01*
X308500Y379771D01*
X308453Y379793D01*
X308382Y379801D01*
X308312Y379818D01*
X308260Y379814D01*
X308209Y379820D01*
X308138Y379805D01*
X308067Y379799D01*
X308019Y379779D01*
X307968Y379768D01*
X307907Y379731D01*
X307841Y379703D01*
X307785Y379658D01*
X307757Y379642D01*
X307742Y379624D01*
X307710Y379598D01*
X288872Y360760D01*
X288819Y360686D01*
X288759Y360617D01*
X288747Y360587D01*
X288728Y360560D01*
X288701Y360473D01*
X288667Y360389D01*
X288663Y360348D01*
X288656Y360325D01*
X288657Y360293D01*
X288649Y360222D01*
X288649Y349558D01*
X288663Y349468D01*
X288671Y349377D01*
X288683Y349347D01*
X288688Y349315D01*
X288731Y349235D01*
X288767Y349151D01*
X288793Y349119D01*
X288804Y349098D01*
X288827Y349076D01*
X288872Y349020D01*
X291126Y346766D01*
X291184Y346724D01*
X291236Y346675D01*
X291283Y346653D01*
X291325Y346622D01*
X291394Y346601D01*
X291459Y346571D01*
X291511Y346565D01*
X291561Y346550D01*
X291632Y346552D01*
X291703Y346544D01*
X291754Y346555D01*
G37*
%LPC*%
G36*
X563248Y60567D02*
X563248Y60567D01*
X562355Y61460D01*
X562355Y86600D01*
X563248Y87493D01*
X572132Y87493D01*
X573025Y86600D01*
X573025Y61460D01*
X572132Y60567D01*
X563248Y60567D01*
G37*
%LPD*%
%LPC*%
G36*
X582418Y137505D02*
X582418Y137505D01*
X581525Y138398D01*
X581525Y151662D01*
X582418Y152555D01*
X589682Y152555D01*
X590012Y152225D01*
X590028Y152213D01*
X590040Y152197D01*
X590127Y152141D01*
X590211Y152081D01*
X590230Y152075D01*
X590247Y152064D01*
X590348Y152039D01*
X590447Y152009D01*
X590466Y152009D01*
X590486Y152004D01*
X590589Y152012D01*
X590692Y152015D01*
X590711Y152022D01*
X590731Y152023D01*
X590826Y152064D01*
X590923Y152099D01*
X590939Y152112D01*
X590957Y152120D01*
X591088Y152225D01*
X591418Y152555D01*
X598682Y152555D01*
X599575Y151662D01*
X599575Y138398D01*
X598682Y137505D01*
X591418Y137505D01*
X591088Y137835D01*
X591072Y137847D01*
X591060Y137863D01*
X590973Y137919D01*
X590889Y137979D01*
X590870Y137985D01*
X590853Y137996D01*
X590752Y138021D01*
X590653Y138051D01*
X590634Y138051D01*
X590614Y138056D01*
X590511Y138048D01*
X590408Y138045D01*
X590389Y138038D01*
X590369Y138037D01*
X590274Y137996D01*
X590177Y137961D01*
X590161Y137948D01*
X590143Y137940D01*
X590012Y137835D01*
X589682Y137505D01*
X582418Y137505D01*
G37*
%LPD*%
%LPC*%
G36*
X18168Y263475D02*
X18168Y263475D01*
X17275Y264368D01*
X17275Y275632D01*
X18168Y276525D01*
X34432Y276525D01*
X35325Y275632D01*
X35325Y264368D01*
X34432Y263475D01*
X18168Y263475D01*
G37*
%LPD*%
%LPC*%
G36*
X547623Y26923D02*
X547623Y26923D01*
X547623Y48817D01*
X549148Y48575D01*
X551097Y47942D01*
X552923Y47012D01*
X554581Y45807D01*
X556030Y44358D01*
X557234Y42700D01*
X558164Y40875D01*
X558798Y38926D01*
X559118Y36902D01*
X559118Y26923D01*
X547623Y26923D01*
G37*
%LPD*%
%LPC*%
G36*
X594613Y75553D02*
X594613Y75553D01*
X594613Y88509D01*
X597235Y88509D01*
X597881Y88336D01*
X598460Y88001D01*
X598902Y87559D01*
X598918Y87548D01*
X598930Y87532D01*
X599017Y87476D01*
X599101Y87416D01*
X599120Y87410D01*
X599137Y87399D01*
X599238Y87374D01*
X599337Y87343D01*
X599357Y87344D01*
X599376Y87339D01*
X599479Y87347D01*
X599582Y87350D01*
X599601Y87357D01*
X599621Y87358D01*
X599716Y87399D01*
X599813Y87434D01*
X599829Y87447D01*
X599847Y87455D01*
X599978Y87559D01*
X600420Y88001D01*
X600999Y88336D01*
X601646Y88509D01*
X604267Y88509D01*
X604267Y75553D01*
X594613Y75553D01*
G37*
%LPD*%
%LPC*%
G36*
X594613Y59551D02*
X594613Y59551D01*
X594613Y72507D01*
X604267Y72507D01*
X604267Y59551D01*
X601646Y59551D01*
X600999Y59724D01*
X600420Y60059D01*
X599978Y60501D01*
X599962Y60512D01*
X599950Y60528D01*
X599863Y60584D01*
X599779Y60644D01*
X599760Y60650D01*
X599743Y60661D01*
X599642Y60686D01*
X599544Y60716D01*
X599524Y60716D01*
X599504Y60721D01*
X599401Y60713D01*
X599298Y60710D01*
X599279Y60703D01*
X599259Y60702D01*
X599164Y60661D01*
X599067Y60626D01*
X599051Y60613D01*
X599033Y60605D01*
X598902Y60501D01*
X598460Y60059D01*
X597881Y59724D01*
X597234Y59551D01*
X594613Y59551D01*
G37*
%LPD*%
%LPC*%
G36*
X520953Y352923D02*
X520953Y352923D01*
X520953Y360441D01*
X527264Y360441D01*
X527911Y360268D01*
X528490Y359933D01*
X528963Y359460D01*
X529298Y358881D01*
X529471Y358234D01*
X529471Y352923D01*
X520953Y352923D01*
G37*
%LPD*%
%LPC*%
G36*
X495553Y352923D02*
X495553Y352923D01*
X495553Y360441D01*
X501864Y360441D01*
X502511Y360268D01*
X503090Y359933D01*
X503563Y359460D01*
X503898Y358881D01*
X504071Y358234D01*
X504071Y352923D01*
X495553Y352923D01*
G37*
%LPD*%
%LPC*%
G36*
X483989Y352923D02*
X483989Y352923D01*
X483989Y358234D01*
X484162Y358881D01*
X484497Y359460D01*
X484970Y359933D01*
X485549Y360268D01*
X486196Y360441D01*
X492507Y360441D01*
X492507Y352923D01*
X483989Y352923D01*
G37*
%LPD*%
%LPC*%
G36*
X509389Y352923D02*
X509389Y352923D01*
X509389Y358234D01*
X509562Y358881D01*
X509897Y359460D01*
X510370Y359933D01*
X510949Y360268D01*
X511596Y360441D01*
X517907Y360441D01*
X517907Y352923D01*
X509389Y352923D01*
G37*
%LPD*%
%LPC*%
G36*
X473823Y311173D02*
X473823Y311173D01*
X473823Y320997D01*
X476888Y320997D01*
X477535Y320824D01*
X478114Y320489D01*
X478587Y320016D01*
X478922Y319437D01*
X479095Y318790D01*
X479095Y311173D01*
X473823Y311173D01*
G37*
%LPD*%
%LPC*%
G36*
X473823Y298303D02*
X473823Y298303D01*
X473823Y308127D01*
X479095Y308127D01*
X479095Y300510D01*
X478922Y299863D01*
X478587Y299284D01*
X478114Y298811D01*
X477535Y298476D01*
X476888Y298303D01*
X473823Y298303D01*
G37*
%LPD*%
%LPC*%
G36*
X465505Y311173D02*
X465505Y311173D01*
X465505Y318790D01*
X465678Y319437D01*
X466013Y320016D01*
X466486Y320489D01*
X467065Y320824D01*
X467712Y320997D01*
X470777Y320997D01*
X470777Y311173D01*
X465505Y311173D01*
G37*
%LPD*%
%LPC*%
G36*
X467712Y298303D02*
X467712Y298303D01*
X467065Y298476D01*
X466486Y298811D01*
X466013Y299284D01*
X465678Y299863D01*
X465505Y300510D01*
X465505Y308127D01*
X470777Y308127D01*
X470777Y298303D01*
X467712Y298303D01*
G37*
%LPD*%
%LPC*%
G36*
X76823Y271523D02*
X76823Y271523D01*
X76823Y277541D01*
X83134Y277541D01*
X83781Y277368D01*
X84360Y277033D01*
X84833Y276560D01*
X85168Y275981D01*
X85341Y275334D01*
X85341Y271523D01*
X76823Y271523D01*
G37*
%LPD*%
%LPC*%
G36*
X65259Y271523D02*
X65259Y271523D01*
X65259Y275334D01*
X65432Y275981D01*
X65767Y276560D01*
X66240Y277033D01*
X66819Y277368D01*
X67466Y277541D01*
X73777Y277541D01*
X73777Y271523D01*
X65259Y271523D01*
G37*
%LPD*%
%LPC*%
G36*
X457823Y376759D02*
X457823Y376759D01*
X457823Y382777D01*
X466341Y382777D01*
X466341Y378965D01*
X466168Y378319D01*
X465833Y377740D01*
X465360Y377267D01*
X464781Y376932D01*
X464134Y376759D01*
X457823Y376759D01*
G37*
%LPD*%
%LPC*%
G36*
X267323Y376759D02*
X267323Y376759D01*
X267323Y382777D01*
X275841Y382777D01*
X275841Y378965D01*
X275668Y378319D01*
X275333Y377740D01*
X274860Y377267D01*
X274281Y376932D01*
X273634Y376759D01*
X267323Y376759D01*
G37*
%LPD*%
%LPC*%
G36*
X76823Y262459D02*
X76823Y262459D01*
X76823Y268477D01*
X85341Y268477D01*
X85341Y264665D01*
X85168Y264019D01*
X84833Y263440D01*
X84360Y262967D01*
X83781Y262632D01*
X83134Y262459D01*
X76823Y262459D01*
G37*
%LPD*%
%LPC*%
G36*
X67466Y262459D02*
X67466Y262459D01*
X66819Y262632D01*
X66240Y262967D01*
X65767Y263440D01*
X65432Y264019D01*
X65259Y264666D01*
X65259Y268477D01*
X73777Y268477D01*
X73777Y262459D01*
X67466Y262459D01*
G37*
%LPD*%
%LPC*%
G36*
X448466Y376759D02*
X448466Y376759D01*
X447819Y376932D01*
X447240Y377267D01*
X446767Y377740D01*
X446432Y378319D01*
X446259Y378966D01*
X446259Y382777D01*
X454777Y382777D01*
X454777Y376759D01*
X448466Y376759D01*
G37*
%LPD*%
%LPC*%
G36*
X257966Y376759D02*
X257966Y376759D01*
X257319Y376932D01*
X256740Y377267D01*
X256267Y377740D01*
X255932Y378319D01*
X255759Y378966D01*
X255759Y382777D01*
X264277Y382777D01*
X264277Y376759D01*
X257966Y376759D01*
G37*
%LPD*%
G36*
X593745Y251210D02*
X593745Y251210D01*
X593764Y251208D01*
X593866Y251230D01*
X593968Y251247D01*
X593985Y251256D01*
X594005Y251260D01*
X594094Y251313D01*
X594185Y251362D01*
X594199Y251376D01*
X594216Y251386D01*
X594283Y251465D01*
X594355Y251540D01*
X594363Y251558D01*
X594376Y251573D01*
X594415Y251669D01*
X594458Y251763D01*
X594460Y251783D01*
X594468Y251801D01*
X594486Y251968D01*
X594486Y252417D01*
X594493Y252427D01*
X594518Y252528D01*
X594548Y252627D01*
X594548Y252647D01*
X594553Y252666D01*
X594545Y252769D01*
X594544Y252775D01*
X594545Y252779D01*
X594544Y252781D01*
X594542Y252872D01*
X594535Y252891D01*
X594534Y252911D01*
X594498Y252995D01*
X594493Y253019D01*
X594486Y253030D01*
X594486Y253492D01*
X594483Y253512D01*
X594485Y253531D01*
X594463Y253633D01*
X594447Y253735D01*
X594437Y253752D01*
X594433Y253772D01*
X594380Y253861D01*
X594331Y253952D01*
X594317Y253966D01*
X594307Y253983D01*
X594228Y254050D01*
X594153Y254121D01*
X594135Y254130D01*
X594120Y254143D01*
X594024Y254182D01*
X593930Y254225D01*
X593910Y254227D01*
X593892Y254235D01*
X593725Y254253D01*
X581152Y254253D01*
X581132Y254250D01*
X581113Y254252D01*
X581011Y254230D01*
X580909Y254213D01*
X580892Y254204D01*
X580872Y254200D01*
X580783Y254147D01*
X580692Y254098D01*
X580678Y254084D01*
X580661Y254074D01*
X580594Y253995D01*
X580523Y253920D01*
X580514Y253902D01*
X580501Y253887D01*
X580462Y253791D01*
X580419Y253697D01*
X580417Y253677D01*
X580409Y253659D01*
X580391Y253492D01*
X580391Y251968D01*
X580393Y251952D01*
X580392Y251939D01*
X580393Y251935D01*
X580392Y251929D01*
X580414Y251827D01*
X580431Y251725D01*
X580440Y251708D01*
X580444Y251688D01*
X580497Y251599D01*
X580546Y251508D01*
X580560Y251494D01*
X580570Y251477D01*
X580649Y251410D01*
X580724Y251339D01*
X580742Y251330D01*
X580757Y251317D01*
X580853Y251278D01*
X580947Y251235D01*
X580967Y251233D01*
X580985Y251225D01*
X581152Y251207D01*
X593725Y251207D01*
X593745Y251210D01*
G37*
%LPC*%
G36*
X198373Y376323D02*
X198373Y376323D01*
X198373Y380841D01*
X201684Y380841D01*
X202331Y380668D01*
X202910Y380333D01*
X203383Y379860D01*
X203718Y379281D01*
X203891Y378634D01*
X203891Y376323D01*
X198373Y376323D01*
G37*
%LPD*%
%LPC*%
G36*
X388873Y376323D02*
X388873Y376323D01*
X388873Y380841D01*
X392184Y380841D01*
X392831Y380668D01*
X393410Y380333D01*
X393883Y379860D01*
X394218Y379281D01*
X394391Y378634D01*
X394391Y376323D01*
X388873Y376323D01*
G37*
%LPD*%
%LPC*%
G36*
X618893Y282193D02*
X618893Y282193D01*
X618893Y287711D01*
X621205Y287711D01*
X621851Y287538D01*
X622430Y287203D01*
X622903Y286730D01*
X623238Y286151D01*
X623411Y285504D01*
X623411Y282193D01*
X618893Y282193D01*
G37*
%LPD*%
%LPC*%
G36*
X613813Y222503D02*
X613813Y222503D01*
X613813Y228021D01*
X616125Y228021D01*
X616771Y227848D01*
X617350Y227513D01*
X617823Y227040D01*
X618158Y226461D01*
X618331Y225814D01*
X618331Y222503D01*
X613813Y222503D01*
G37*
%LPD*%
%LPC*%
G36*
X52473Y217423D02*
X52473Y217423D01*
X52473Y222941D01*
X54785Y222941D01*
X55431Y222768D01*
X56010Y222433D01*
X56483Y221960D01*
X56818Y221381D01*
X56991Y220734D01*
X56991Y217423D01*
X52473Y217423D01*
G37*
%LPD*%
%LPC*%
G36*
X611329Y282193D02*
X611329Y282193D01*
X611329Y285504D01*
X611502Y286151D01*
X611837Y286730D01*
X612310Y287203D01*
X612889Y287538D01*
X613536Y287711D01*
X615847Y287711D01*
X615847Y282193D01*
X611329Y282193D01*
G37*
%LPD*%
%LPC*%
G36*
X44909Y217423D02*
X44909Y217423D01*
X44909Y220734D01*
X45082Y221381D01*
X45417Y221960D01*
X45890Y222433D01*
X46469Y222768D01*
X47116Y222941D01*
X49427Y222941D01*
X49427Y217423D01*
X44909Y217423D01*
G37*
%LPD*%
%LPC*%
G36*
X606249Y222503D02*
X606249Y222503D01*
X606249Y225814D01*
X606422Y226461D01*
X606757Y227040D01*
X607230Y227513D01*
X607809Y227848D01*
X608456Y228021D01*
X610767Y228021D01*
X610767Y222503D01*
X606249Y222503D01*
G37*
%LPD*%
%LPC*%
G36*
X618893Y273629D02*
X618893Y273629D01*
X618893Y279147D01*
X623411Y279147D01*
X623411Y275836D01*
X623238Y275189D01*
X622903Y274610D01*
X622430Y274137D01*
X621851Y273802D01*
X621204Y273629D01*
X618893Y273629D01*
G37*
%LPD*%
%LPC*%
G36*
X189809Y376323D02*
X189809Y376323D01*
X189809Y378634D01*
X189982Y379281D01*
X190317Y379860D01*
X190790Y380333D01*
X191369Y380668D01*
X192016Y380841D01*
X195327Y380841D01*
X195327Y376323D01*
X189809Y376323D01*
G37*
%LPD*%
%LPC*%
G36*
X380309Y376323D02*
X380309Y376323D01*
X380309Y378634D01*
X380482Y379281D01*
X380817Y379860D01*
X381290Y380333D01*
X381869Y380668D01*
X382516Y380841D01*
X385827Y380841D01*
X385827Y376323D01*
X380309Y376323D01*
G37*
%LPD*%
%LPC*%
G36*
X613813Y213939D02*
X613813Y213939D01*
X613813Y219457D01*
X618331Y219457D01*
X618331Y216146D01*
X618158Y215499D01*
X617823Y214920D01*
X617350Y214447D01*
X616771Y214112D01*
X616124Y213939D01*
X613813Y213939D01*
G37*
%LPD*%
%LPC*%
G36*
X570333Y213939D02*
X570333Y213939D01*
X570333Y219457D01*
X574851Y219457D01*
X574851Y216146D01*
X574678Y215499D01*
X574343Y214920D01*
X573870Y214447D01*
X573291Y214112D01*
X572644Y213939D01*
X570333Y213939D01*
G37*
%LPD*%
%LPC*%
G36*
X52473Y208859D02*
X52473Y208859D01*
X52473Y214377D01*
X56991Y214377D01*
X56991Y211066D01*
X56818Y210419D01*
X56483Y209840D01*
X56010Y209367D01*
X55431Y209032D01*
X54784Y208859D01*
X52473Y208859D01*
G37*
%LPD*%
%LPC*%
G36*
X198373Y373277D02*
X198373Y373277D01*
X203891Y373277D01*
X203891Y370965D01*
X203718Y370319D01*
X203383Y369740D01*
X202910Y369267D01*
X202331Y368932D01*
X201684Y368759D01*
X198373Y368759D01*
X198373Y373277D01*
G37*
%LPD*%
%LPC*%
G36*
X388873Y373277D02*
X388873Y373277D01*
X394391Y373277D01*
X394391Y370965D01*
X394218Y370319D01*
X393883Y369740D01*
X393410Y369267D01*
X392831Y368932D01*
X392184Y368759D01*
X388873Y368759D01*
X388873Y373277D01*
G37*
%LPD*%
%LPC*%
G36*
X47116Y208859D02*
X47116Y208859D01*
X46469Y209032D01*
X45890Y209367D01*
X45417Y209840D01*
X45082Y210419D01*
X44909Y211066D01*
X44909Y214377D01*
X49427Y214377D01*
X49427Y208859D01*
X47116Y208859D01*
G37*
%LPD*%
%LPC*%
G36*
X192016Y368759D02*
X192016Y368759D01*
X191369Y368932D01*
X190790Y369267D01*
X190317Y369740D01*
X189982Y370319D01*
X189809Y370966D01*
X189809Y373277D01*
X195327Y373277D01*
X195327Y368759D01*
X192016Y368759D01*
G37*
%LPD*%
%LPC*%
G36*
X613536Y273629D02*
X613536Y273629D01*
X612889Y273802D01*
X612310Y274137D01*
X611837Y274610D01*
X611502Y275189D01*
X611329Y275836D01*
X611329Y279147D01*
X615847Y279147D01*
X615847Y273629D01*
X613536Y273629D01*
G37*
%LPD*%
%LPC*%
G36*
X608456Y213939D02*
X608456Y213939D01*
X607809Y214112D01*
X607230Y214447D01*
X606757Y214920D01*
X606422Y215499D01*
X606249Y216146D01*
X606249Y219457D01*
X610767Y219457D01*
X610767Y213939D01*
X608456Y213939D01*
G37*
%LPD*%
%LPC*%
G36*
X564976Y213939D02*
X564976Y213939D01*
X564329Y214112D01*
X563750Y214447D01*
X563277Y214920D01*
X562942Y215499D01*
X562769Y216146D01*
X562769Y219457D01*
X567287Y219457D01*
X567287Y213939D01*
X564976Y213939D01*
G37*
%LPD*%
%LPC*%
G36*
X50949Y215899D02*
X50949Y215899D01*
X50949Y215901D01*
X50951Y215901D01*
X50951Y215899D01*
X50949Y215899D01*
G37*
%LPD*%
%LPC*%
G36*
X75299Y269999D02*
X75299Y269999D01*
X75299Y270001D01*
X75301Y270001D01*
X75301Y269999D01*
X75299Y269999D01*
G37*
%LPD*%
%LPC*%
G36*
X387349Y374799D02*
X387349Y374799D01*
X387349Y374801D01*
X387351Y374801D01*
X387351Y374799D01*
X387349Y374799D01*
G37*
%LPD*%
%LPC*%
G36*
X472299Y309649D02*
X472299Y309649D01*
X472299Y309651D01*
X472301Y309651D01*
X472301Y309649D01*
X472299Y309649D01*
G37*
%LPD*%
%LPC*%
G36*
X196849Y374799D02*
X196849Y374799D01*
X196849Y374801D01*
X196851Y374801D01*
X196851Y374799D01*
X196849Y374799D01*
G37*
%LPD*%
%LPC*%
G36*
X617369Y280669D02*
X617369Y280669D01*
X617369Y280671D01*
X617371Y280671D01*
X617371Y280669D01*
X617369Y280669D01*
G37*
%LPD*%
%LPC*%
G36*
X612289Y220979D02*
X612289Y220979D01*
X612289Y220981D01*
X612291Y220981D01*
X612291Y220979D01*
X612289Y220979D01*
G37*
%LPD*%
D10*
X407300Y352300D03*
X407300Y384300D03*
X456300Y384300D03*
X456300Y352300D03*
X216800Y352300D03*
X216800Y384300D03*
X265800Y384300D03*
X265800Y352300D03*
D11*
X387350Y361800D03*
X387350Y374800D03*
X196850Y361800D03*
X196850Y374800D03*
D12*
X600075Y265430D03*
X600075Y260350D03*
X600075Y255270D03*
X600075Y250190D03*
X600075Y245110D03*
X600075Y240030D03*
D13*
X593090Y233045D03*
X588010Y233045D03*
X582930Y233045D03*
X577850Y233045D03*
X572770Y233045D03*
X567690Y233045D03*
D12*
X560705Y240030D03*
X560705Y245110D03*
X560705Y250190D03*
X560705Y255270D03*
X560705Y260350D03*
X560705Y265430D03*
D13*
X567690Y272415D03*
X572770Y272415D03*
X577850Y272415D03*
X582930Y272415D03*
X588010Y272415D03*
X593090Y272415D03*
D14*
X580390Y252730D03*
D11*
X298450Y348130D03*
X298450Y335130D03*
D15*
X604370Y280670D03*
X617370Y280670D03*
D16*
X318550Y361050D03*
X318550Y375800D03*
X354550Y375800D03*
X354550Y360800D03*
D17*
X519430Y334400D03*
X519430Y351400D03*
D18*
X571184Y353422D03*
X577684Y353422D03*
X584184Y353422D03*
X590684Y353422D03*
X597184Y353422D03*
D19*
X559308Y353314D03*
X609092Y353314D03*
D20*
X574184Y380422D03*
X594184Y380422D03*
D21*
X619184Y383978D02*
X619184Y376866D01*
X549184Y376866D02*
X549184Y383978D01*
D22*
X555184Y380422D03*
X613175Y380422D03*
D23*
X472300Y309650D03*
X495300Y309650D03*
X518300Y309650D03*
D24*
X495300Y249150D03*
D17*
X494030Y334400D03*
X494030Y351400D03*
D25*
X575390Y323977D03*
X580390Y323977D03*
X585390Y323977D03*
X585390Y303403D03*
X580390Y303403D03*
X575390Y303403D03*
D15*
X599290Y220980D03*
X612290Y220980D03*
X581810Y220980D03*
X568810Y220980D03*
D26*
X586050Y208030D03*
X595050Y208030D03*
X586050Y145030D03*
X595050Y145030D03*
D27*
X368300Y35878D02*
X368300Y14923D01*
X393700Y14923D02*
X393700Y35878D01*
X419100Y35878D02*
X419100Y14923D01*
X444500Y14923D02*
X444500Y35878D01*
X469900Y35878D02*
X469900Y14923D01*
X495300Y14923D02*
X495300Y35878D01*
X520700Y35878D02*
X520700Y14923D01*
X546100Y14923D02*
X546100Y35878D01*
D10*
X26300Y238000D03*
X26300Y270000D03*
X75300Y270000D03*
X75300Y238000D03*
D15*
X37950Y215900D03*
X50950Y215900D03*
D28*
X618490Y74030D03*
X618490Y113030D03*
X605790Y74030D03*
X605790Y113030D03*
X593090Y74030D03*
X593090Y113030D03*
X580390Y74030D03*
X580390Y113030D03*
X567690Y74030D03*
X567690Y113030D03*
D27*
X342900Y35878D02*
X342900Y14923D01*
D29*
X588010Y257810D02*
X588010Y272415D01*
X582930Y252730D02*
X580390Y252730D01*
X582930Y252730D02*
X588010Y257810D01*
D30*
X38100Y139700D03*
X609600Y304800D03*
X457200Y304800D03*
X457200Y292100D03*
X241300Y381000D03*
X431800Y381000D03*
X50800Y254000D03*
X615950Y146050D03*
X373380Y354330D03*
D31*
X494030Y334400D02*
X495300Y333130D01*
X495300Y309650D01*
D29*
X494030Y334400D02*
X469900Y334400D01*
X206350Y352300D02*
X196850Y361800D01*
X206350Y352300D02*
X216800Y352300D01*
X387350Y361800D02*
X396850Y352300D01*
X407300Y352300D01*
X593090Y278130D02*
X593090Y272415D01*
X593090Y278130D02*
X595630Y280670D01*
X604370Y280670D01*
X541020Y292100D02*
X501650Y292100D01*
D32*
X469900Y334400D03*
D29*
X469900Y356870D01*
X464820Y361950D01*
X387500Y361950D01*
X387350Y361800D01*
X285600Y361800D02*
X196850Y361800D01*
X285600Y347980D02*
X298450Y335130D01*
X285600Y347980D02*
X285600Y361800D01*
D30*
X38100Y190500D03*
D29*
X26300Y231510D02*
X26300Y238000D01*
X37950Y219860D02*
X37950Y215900D01*
X37950Y219860D02*
X26300Y231510D01*
X37950Y215900D02*
X38100Y215750D01*
X38100Y190500D01*
X580390Y303403D02*
X580390Y308610D01*
D30*
X541020Y292100D03*
D29*
X577850Y311150D02*
X580390Y308610D01*
D30*
X596900Y292100D03*
D29*
X604370Y287170D02*
X604370Y280670D01*
X599440Y292100D02*
X596900Y292100D01*
X599440Y292100D02*
X604370Y287170D01*
X577850Y311150D02*
X560070Y311150D01*
X541020Y292100D01*
X495300Y298450D02*
X495300Y309650D01*
X495300Y298450D02*
X501650Y292100D01*
X365052Y384098D02*
X307898Y384098D01*
X285600Y361800D01*
X365052Y384098D02*
X387350Y361800D01*
X618490Y87630D02*
X618490Y74030D01*
X626110Y161290D02*
X609600Y177800D01*
D30*
X609600Y177800D03*
D29*
X626110Y95250D02*
X618490Y87630D01*
X626110Y95250D02*
X626110Y161290D01*
X520700Y55880D02*
X520700Y25400D01*
X560070Y95250D02*
X626110Y95250D01*
X560070Y95250D02*
X520700Y55880D01*
X552450Y260350D02*
X560705Y260350D01*
X552450Y260350D02*
X545338Y253238D01*
X495300Y70812D02*
X495300Y25400D01*
X545338Y120850D02*
X545338Y253238D01*
X545338Y120850D02*
X495300Y70812D01*
X553720Y240030D02*
X560705Y240030D01*
X553720Y240030D02*
X549910Y236220D01*
X549910Y173990D01*
X558800Y165100D01*
D30*
X558800Y165100D03*
D29*
X582930Y272415D02*
X582930Y296172D01*
X585390Y298632D02*
X585390Y303403D01*
X585390Y298632D02*
X582930Y296172D01*
X577850Y296172D02*
X577850Y272415D01*
X575390Y298632D02*
X575390Y303403D01*
X575390Y298632D02*
X577850Y296172D01*
D33*
X593090Y233045D02*
X593090Y227180D01*
X599290Y220980D01*
X595050Y216740D01*
X595050Y208030D01*
X588010Y227180D02*
X588010Y233045D01*
X588010Y227180D02*
X581810Y220980D01*
X586050Y216740D01*
X586050Y208030D01*
D29*
X572770Y272415D02*
X572770Y278130D01*
X568960Y281940D01*
X548114Y281940D01*
X531622Y265448D01*
X467321Y62230D02*
X454660Y62230D01*
X444500Y52070D01*
X444500Y25400D01*
X531622Y137836D02*
X531622Y265448D01*
X527050Y121959D02*
X467321Y62230D01*
X529618Y135832D02*
X531622Y137836D01*
D34*
X529618Y135832D03*
X551914Y136850D03*
D29*
X560380Y136850D01*
X564388Y132842D01*
X611378Y132842D01*
X618490Y125730D02*
X618490Y113030D01*
X618490Y125730D02*
X611378Y132842D01*
X529618Y135832D02*
X527050Y133264D01*
X527050Y121959D01*
X469900Y58343D02*
X469900Y25400D01*
X567281Y272006D02*
X567690Y272415D01*
X567281Y272006D02*
X544646Y272006D01*
X536194Y263554D01*
X536194Y124637D02*
X469900Y58343D01*
X536194Y124637D02*
X536194Y130274D01*
X536194Y165100D02*
X536194Y263554D01*
X536194Y165100D02*
X536194Y130274D01*
X534190Y128270D01*
D34*
X534190Y128270D03*
X551914Y128270D03*
D29*
X605790Y124460D02*
X605790Y113030D01*
X601980Y128270D02*
X551914Y128270D01*
X601980Y128270D02*
X605790Y124460D01*
X298450Y348130D02*
X298450Y355600D01*
X303900Y361050D02*
X318550Y361050D01*
X303900Y361050D02*
X298450Y355600D01*
X318550Y361050D02*
X354300Y361050D01*
X354550Y360800D01*
X354550Y350300D01*
X361950Y342900D01*
D34*
X361950Y342900D03*
X547370Y265430D03*
D29*
X560705Y265430D01*
X547370Y265430D02*
X540766Y258826D01*
X487974Y69952D02*
X487974Y66040D01*
D30*
X487974Y66040D03*
D29*
X540766Y122744D02*
X540766Y258826D01*
X540766Y122744D02*
X487974Y69952D01*
X547879Y113030D02*
X567690Y113030D01*
X547879Y113030D02*
X512866Y78017D01*
D30*
X512866Y78017D03*
D31*
X571184Y342584D02*
X571184Y353422D01*
X563000Y334400D02*
X519430Y334400D01*
X563000Y334400D02*
X571184Y342584D01*
X518300Y333270D02*
X518300Y309650D01*
X518300Y333270D02*
X519430Y334400D01*
X571184Y353422D02*
X571184Y361634D01*
X575310Y365760D01*
X660400Y114300D02*
X647700Y101600D01*
D32*
X647700Y101600D03*
D31*
X660400Y342900D02*
X637540Y365760D01*
X575310Y365760D01*
X660400Y342900D02*
X660400Y114300D01*
D33*
X577850Y353256D02*
X577684Y353422D01*
D29*
X575390Y332820D02*
X575390Y323977D01*
X577850Y335280D02*
X577850Y353256D01*
X577850Y335280D02*
X575390Y332820D01*
X585390Y334090D02*
X585390Y323977D01*
X584184Y335296D02*
X584184Y353422D01*
X584184Y335296D02*
X585390Y334090D01*
X393700Y266700D02*
X393700Y25400D01*
X457200Y330200D02*
X457200Y355600D01*
X456300Y354700D01*
X456300Y352300D01*
X457200Y330200D02*
X393700Y266700D01*
X265800Y292100D02*
X265800Y352300D01*
X368300Y189600D02*
X368300Y25400D01*
X368300Y189600D02*
X265800Y292100D01*
D30*
X63500Y165100D03*
D29*
X63500Y226200D01*
X75300Y238000D01*
M02*
