G04 EAGLE Gerber RS-274X export*
G75*
%MOMM*%
%FSLAX34Y34*%
%LPD*%
%INTop Copper*%
%IPPOS*%
%AMOC8*
5,1,8,0,0,1.08239X$1,22.5*%
G01*
%ADD10R,2.286000X1.524000*%
%ADD11C,1.447800*%
%ADD12C,2.095500*%
%ADD13C,0.855600*%
%ADD14C,0.955600*%
%ADD15C,0.406400*%
%ADD16C,0.304800*%
%ADD17C,0.705600*%

G36*
X335271Y3822D02*
X335271Y3822D01*
X335343Y3824D01*
X335392Y3842D01*
X335443Y3850D01*
X335506Y3884D01*
X335574Y3909D01*
X335614Y3941D01*
X335660Y3966D01*
X335710Y4018D01*
X335766Y4062D01*
X335794Y4106D01*
X335830Y4144D01*
X335860Y4209D01*
X335899Y4269D01*
X335911Y4320D01*
X335933Y4367D01*
X335941Y4438D01*
X335959Y4508D01*
X335955Y4560D01*
X335960Y4611D01*
X335945Y4682D01*
X335940Y4753D01*
X335919Y4801D01*
X335908Y4852D01*
X335871Y4913D01*
X335843Y4979D01*
X335799Y5035D01*
X335782Y5063D01*
X335764Y5078D01*
X335739Y5110D01*
X332725Y8124D01*
X330898Y12535D01*
X330898Y38265D01*
X332725Y42676D01*
X336101Y46052D01*
X338873Y47201D01*
X338973Y47262D01*
X339073Y47322D01*
X339077Y47327D01*
X339082Y47330D01*
X339157Y47420D01*
X339233Y47509D01*
X339235Y47515D01*
X339239Y47520D01*
X339281Y47628D01*
X339325Y47737D01*
X339326Y47745D01*
X339327Y47749D01*
X339328Y47768D01*
X339343Y47904D01*
X339343Y77673D01*
X366827Y105157D01*
X642028Y105157D01*
X642118Y105171D01*
X642209Y105179D01*
X642239Y105191D01*
X642271Y105196D01*
X642351Y105239D01*
X642435Y105275D01*
X642467Y105301D01*
X642488Y105312D01*
X642510Y105335D01*
X642566Y105380D01*
X644130Y106943D01*
X646446Y107903D01*
X648954Y107903D01*
X651270Y106943D01*
X653043Y105170D01*
X654003Y102854D01*
X654003Y100346D01*
X653043Y98030D01*
X651270Y96257D01*
X648954Y95297D01*
X646446Y95297D01*
X644130Y96257D01*
X642566Y97820D01*
X642492Y97873D01*
X642423Y97933D01*
X642393Y97945D01*
X642367Y97964D01*
X642280Y97991D01*
X642195Y98025D01*
X642154Y98029D01*
X642131Y98036D01*
X642099Y98035D01*
X642028Y98043D01*
X370089Y98043D01*
X369998Y98029D01*
X369908Y98021D01*
X369878Y98009D01*
X369846Y98004D01*
X369765Y97961D01*
X369681Y97925D01*
X369649Y97899D01*
X369628Y97888D01*
X369606Y97865D01*
X369550Y97820D01*
X346680Y74950D01*
X346627Y74876D01*
X346567Y74806D01*
X346555Y74776D01*
X346536Y74750D01*
X346509Y74663D01*
X346475Y74578D01*
X346471Y74537D01*
X346464Y74515D01*
X346465Y74483D01*
X346457Y74411D01*
X346457Y47904D01*
X346476Y47789D01*
X346493Y47673D01*
X346495Y47667D01*
X346496Y47661D01*
X346551Y47559D01*
X346604Y47454D01*
X346609Y47449D01*
X346612Y47444D01*
X346696Y47364D01*
X346780Y47282D01*
X346786Y47278D01*
X346790Y47275D01*
X346807Y47267D01*
X346927Y47201D01*
X349699Y46052D01*
X353075Y42676D01*
X354897Y38278D01*
X354935Y38217D01*
X354964Y38152D01*
X354999Y38114D01*
X355026Y38069D01*
X355082Y38023D01*
X355130Y37971D01*
X355176Y37946D01*
X355216Y37912D01*
X355283Y37887D01*
X355346Y37852D01*
X355397Y37843D01*
X355445Y37824D01*
X355517Y37821D01*
X355588Y37808D01*
X355639Y37816D01*
X355691Y37814D01*
X355760Y37834D01*
X355831Y37844D01*
X355877Y37868D01*
X355927Y37882D01*
X355986Y37923D01*
X356050Y37956D01*
X356087Y37993D01*
X356129Y38023D01*
X356172Y38080D01*
X356222Y38131D01*
X356257Y38194D01*
X356276Y38220D01*
X356283Y38242D01*
X356303Y38278D01*
X358125Y42676D01*
X361501Y46052D01*
X365913Y47880D01*
X370687Y47880D01*
X375099Y46052D01*
X378475Y42676D01*
X380297Y38278D01*
X380334Y38217D01*
X380364Y38152D01*
X380399Y38113D01*
X380426Y38069D01*
X380481Y38024D01*
X380530Y37971D01*
X380576Y37946D01*
X380616Y37912D01*
X380683Y37887D01*
X380746Y37852D01*
X380797Y37843D01*
X380845Y37824D01*
X380917Y37821D01*
X380988Y37808D01*
X381039Y37816D01*
X381091Y37814D01*
X381160Y37834D01*
X381231Y37844D01*
X381277Y37868D01*
X381327Y37882D01*
X381386Y37923D01*
X381450Y37956D01*
X381487Y37993D01*
X381529Y38023D01*
X381572Y38080D01*
X381622Y38131D01*
X381657Y38194D01*
X381676Y38220D01*
X381683Y38242D01*
X381703Y38278D01*
X383525Y42676D01*
X386901Y46052D01*
X391313Y47880D01*
X396087Y47880D01*
X400499Y46052D01*
X403875Y42676D01*
X405697Y38278D01*
X405734Y38217D01*
X405764Y38152D01*
X405799Y38113D01*
X405826Y38069D01*
X405881Y38024D01*
X405930Y37971D01*
X405976Y37946D01*
X406016Y37912D01*
X406083Y37887D01*
X406146Y37852D01*
X406197Y37843D01*
X406245Y37824D01*
X406317Y37821D01*
X406388Y37808D01*
X406439Y37816D01*
X406491Y37814D01*
X406560Y37834D01*
X406631Y37844D01*
X406677Y37868D01*
X406727Y37882D01*
X406786Y37923D01*
X406850Y37956D01*
X406887Y37993D01*
X406929Y38023D01*
X406972Y38080D01*
X407022Y38131D01*
X407057Y38194D01*
X407076Y38220D01*
X407083Y38242D01*
X407103Y38278D01*
X408925Y42676D01*
X412301Y46052D01*
X415581Y47411D01*
X415680Y47472D01*
X415781Y47533D01*
X415785Y47537D01*
X415790Y47541D01*
X415864Y47630D01*
X415941Y47720D01*
X415943Y47725D01*
X415947Y47730D01*
X415989Y47838D01*
X416033Y47948D01*
X416034Y47955D01*
X416035Y47960D01*
X416036Y47978D01*
X416051Y48114D01*
X416051Y52063D01*
X426727Y62739D01*
X480046Y62739D01*
X480136Y62753D01*
X480227Y62761D01*
X480257Y62773D01*
X480289Y62778D01*
X480369Y62821D01*
X480453Y62857D01*
X480485Y62883D01*
X480506Y62894D01*
X480528Y62917D01*
X480584Y62962D01*
X481948Y64326D01*
X482001Y64400D01*
X482061Y64469D01*
X482073Y64499D01*
X482092Y64526D01*
X482119Y64613D01*
X482153Y64697D01*
X482157Y64738D01*
X482164Y64761D01*
X482163Y64793D01*
X482171Y64864D01*
X482171Y67194D01*
X483055Y69327D01*
X484687Y70959D01*
X486820Y71843D01*
X489150Y71843D01*
X489240Y71857D01*
X489331Y71865D01*
X489361Y71877D01*
X489393Y71882D01*
X489473Y71925D01*
X489557Y71961D01*
X489589Y71987D01*
X489610Y71998D01*
X489632Y72021D01*
X489688Y72066D01*
X498688Y81066D01*
X507393Y81066D01*
X507483Y81081D01*
X507574Y81088D01*
X507604Y81100D01*
X507636Y81106D01*
X507717Y81148D01*
X507800Y81184D01*
X507833Y81210D01*
X507853Y81221D01*
X507875Y81244D01*
X507931Y81289D01*
X509579Y82937D01*
X511712Y83820D01*
X514020Y83820D01*
X516153Y82937D01*
X517785Y81304D01*
X518669Y79171D01*
X518669Y76863D01*
X517785Y74730D01*
X516153Y73098D01*
X514020Y72215D01*
X511712Y72215D01*
X509579Y73098D01*
X507931Y74746D01*
X507857Y74799D01*
X507788Y74858D01*
X507758Y74870D01*
X507732Y74889D01*
X507645Y74916D01*
X507560Y74950D01*
X507519Y74955D01*
X507497Y74961D01*
X507464Y74961D01*
X507393Y74969D01*
X501529Y74969D01*
X501439Y74954D01*
X501348Y74947D01*
X501319Y74934D01*
X501287Y74929D01*
X501206Y74886D01*
X501122Y74850D01*
X501090Y74825D01*
X501069Y74814D01*
X501047Y74790D01*
X500991Y74746D01*
X494000Y67754D01*
X493947Y67680D01*
X493887Y67611D01*
X493875Y67581D01*
X493856Y67554D01*
X493829Y67467D01*
X493795Y67383D01*
X493791Y67342D01*
X493784Y67319D01*
X493785Y67287D01*
X493777Y67216D01*
X493777Y64886D01*
X492893Y62753D01*
X491261Y61121D01*
X489128Y60237D01*
X486798Y60237D01*
X486708Y60223D01*
X486617Y60215D01*
X486587Y60203D01*
X486555Y60198D01*
X486475Y60155D01*
X486391Y60119D01*
X486359Y60093D01*
X486338Y60082D01*
X486316Y60059D01*
X486260Y60014D01*
X484896Y58650D01*
X482887Y56641D01*
X429568Y56641D01*
X429478Y56627D01*
X429387Y56619D01*
X429357Y56607D01*
X429325Y56602D01*
X429245Y56559D01*
X429161Y56523D01*
X429129Y56497D01*
X429108Y56486D01*
X429086Y56463D01*
X429030Y56418D01*
X422372Y49760D01*
X422319Y49686D01*
X422259Y49617D01*
X422247Y49587D01*
X422228Y49560D01*
X422201Y49473D01*
X422167Y49389D01*
X422163Y49348D01*
X422156Y49325D01*
X422157Y49293D01*
X422149Y49222D01*
X422149Y48114D01*
X422168Y48000D01*
X422185Y47884D01*
X422187Y47878D01*
X422188Y47872D01*
X422243Y47769D01*
X422296Y47664D01*
X422301Y47660D01*
X422304Y47654D01*
X422388Y47574D01*
X422472Y47492D01*
X422478Y47488D01*
X422482Y47485D01*
X422499Y47477D01*
X422619Y47411D01*
X425899Y46052D01*
X429275Y42676D01*
X431097Y38278D01*
X431134Y38217D01*
X431164Y38152D01*
X431199Y38113D01*
X431226Y38069D01*
X431281Y38024D01*
X431330Y37971D01*
X431376Y37946D01*
X431416Y37912D01*
X431483Y37887D01*
X431546Y37852D01*
X431597Y37843D01*
X431645Y37824D01*
X431717Y37821D01*
X431788Y37808D01*
X431839Y37816D01*
X431891Y37814D01*
X431960Y37834D01*
X432031Y37844D01*
X432077Y37868D01*
X432127Y37882D01*
X432186Y37923D01*
X432250Y37956D01*
X432287Y37993D01*
X432329Y38023D01*
X432372Y38080D01*
X432422Y38131D01*
X432457Y38194D01*
X432476Y38220D01*
X432483Y38242D01*
X432503Y38278D01*
X434325Y42676D01*
X437701Y46052D01*
X442113Y47880D01*
X446887Y47880D01*
X451299Y46052D01*
X454675Y42676D01*
X456497Y38278D01*
X456534Y38217D01*
X456564Y38152D01*
X456599Y38113D01*
X456626Y38069D01*
X456681Y38024D01*
X456730Y37971D01*
X456776Y37946D01*
X456816Y37912D01*
X456883Y37887D01*
X456946Y37852D01*
X456997Y37843D01*
X457045Y37824D01*
X457117Y37821D01*
X457188Y37808D01*
X457239Y37816D01*
X457291Y37814D01*
X457360Y37834D01*
X457431Y37844D01*
X457477Y37868D01*
X457527Y37882D01*
X457586Y37923D01*
X457650Y37956D01*
X457687Y37993D01*
X457729Y38023D01*
X457772Y38080D01*
X457822Y38131D01*
X457857Y38194D01*
X457876Y38220D01*
X457883Y38242D01*
X457903Y38278D01*
X459725Y42676D01*
X463101Y46052D01*
X467513Y47880D01*
X472287Y47880D01*
X476699Y46052D01*
X480075Y42676D01*
X481897Y38278D01*
X481934Y38217D01*
X481964Y38152D01*
X481999Y38113D01*
X482026Y38069D01*
X482081Y38024D01*
X482130Y37971D01*
X482176Y37946D01*
X482216Y37912D01*
X482283Y37887D01*
X482346Y37852D01*
X482397Y37843D01*
X482445Y37824D01*
X482517Y37821D01*
X482588Y37808D01*
X482639Y37816D01*
X482691Y37814D01*
X482760Y37834D01*
X482831Y37844D01*
X482877Y37868D01*
X482927Y37882D01*
X482986Y37923D01*
X483050Y37956D01*
X483087Y37993D01*
X483129Y38023D01*
X483172Y38080D01*
X483222Y38131D01*
X483257Y38194D01*
X483276Y38220D01*
X483283Y38242D01*
X483303Y38278D01*
X485125Y42676D01*
X488501Y46052D01*
X492913Y47880D01*
X497687Y47880D01*
X502099Y46052D01*
X505475Y42676D01*
X507297Y38278D01*
X507334Y38217D01*
X507364Y38152D01*
X507399Y38113D01*
X507426Y38069D01*
X507481Y38024D01*
X507530Y37971D01*
X507576Y37946D01*
X507616Y37912D01*
X507683Y37887D01*
X507746Y37852D01*
X507797Y37843D01*
X507845Y37824D01*
X507917Y37821D01*
X507988Y37808D01*
X508039Y37816D01*
X508091Y37814D01*
X508160Y37834D01*
X508231Y37844D01*
X508277Y37868D01*
X508327Y37882D01*
X508386Y37923D01*
X508450Y37956D01*
X508487Y37993D01*
X508529Y38023D01*
X508572Y38080D01*
X508622Y38131D01*
X508657Y38194D01*
X508676Y38220D01*
X508683Y38242D01*
X508703Y38278D01*
X510525Y42676D01*
X513901Y46052D01*
X518313Y47880D01*
X523087Y47880D01*
X527499Y46052D01*
X530875Y42676D01*
X532185Y39515D01*
X532238Y39428D01*
X532286Y39340D01*
X532302Y39325D01*
X532314Y39306D01*
X532392Y39241D01*
X532466Y39172D01*
X532487Y39163D01*
X532504Y39149D01*
X532598Y39113D01*
X532690Y39071D01*
X532713Y39069D01*
X532733Y39061D01*
X532834Y39056D01*
X532935Y39046D01*
X532957Y39051D01*
X532979Y39050D01*
X533076Y39078D01*
X533175Y39101D01*
X533194Y39113D01*
X533215Y39119D01*
X533298Y39176D01*
X533385Y39229D01*
X533399Y39246D01*
X533417Y39259D01*
X533478Y39340D01*
X533543Y39418D01*
X533554Y39443D01*
X533564Y39456D01*
X533574Y39488D01*
X533612Y39571D01*
X534036Y40875D01*
X534966Y42700D01*
X536170Y44358D01*
X537619Y45807D01*
X539277Y47012D01*
X541103Y47942D01*
X543052Y48575D01*
X544577Y48817D01*
X544577Y26162D01*
X544580Y26142D01*
X544578Y26123D01*
X544600Y26021D01*
X544617Y25919D01*
X544626Y25902D01*
X544630Y25882D01*
X544683Y25793D01*
X544732Y25702D01*
X544746Y25688D01*
X544756Y25671D01*
X544835Y25604D01*
X544910Y25533D01*
X544928Y25524D01*
X544943Y25511D01*
X545039Y25473D01*
X545133Y25429D01*
X545153Y25427D01*
X545171Y25419D01*
X545338Y25401D01*
X546101Y25401D01*
X546101Y24638D01*
X546104Y24618D01*
X546102Y24599D01*
X546124Y24497D01*
X546141Y24395D01*
X546150Y24378D01*
X546154Y24358D01*
X546207Y24269D01*
X546256Y24178D01*
X546270Y24164D01*
X546280Y24147D01*
X546359Y24080D01*
X546434Y24009D01*
X546452Y24000D01*
X546467Y23987D01*
X546563Y23948D01*
X546657Y23905D01*
X546677Y23903D01*
X546695Y23895D01*
X546862Y23877D01*
X559118Y23877D01*
X559118Y13898D01*
X558798Y11874D01*
X558164Y9925D01*
X557234Y8100D01*
X556030Y6442D01*
X554698Y5110D01*
X554656Y5052D01*
X554607Y5000D01*
X554585Y4953D01*
X554555Y4911D01*
X554534Y4842D01*
X554503Y4777D01*
X554498Y4725D01*
X554482Y4675D01*
X554484Y4604D01*
X554476Y4533D01*
X554487Y4482D01*
X554489Y4430D01*
X554513Y4362D01*
X554529Y4292D01*
X554555Y4247D01*
X554573Y4199D01*
X554618Y4143D01*
X554655Y4081D01*
X554694Y4047D01*
X554727Y4007D01*
X554787Y3968D01*
X554842Y3921D01*
X554890Y3902D01*
X554934Y3874D01*
X555003Y3856D01*
X555070Y3829D01*
X555141Y3821D01*
X555172Y3813D01*
X555196Y3815D01*
X555237Y3811D01*
X641350Y3811D01*
X641369Y3814D01*
X641400Y3812D01*
X644947Y4045D01*
X644970Y4050D01*
X645094Y4069D01*
X651948Y5905D01*
X651962Y5912D01*
X651978Y5914D01*
X652131Y5982D01*
X658276Y9529D01*
X658288Y9539D01*
X658302Y9545D01*
X658433Y9650D01*
X663450Y14667D01*
X663459Y14680D01*
X663472Y14689D01*
X663550Y14795D01*
X663555Y14801D01*
X663558Y14806D01*
X663571Y14824D01*
X667118Y20969D01*
X667124Y20984D01*
X667134Y20996D01*
X667195Y21152D01*
X669031Y28006D01*
X669033Y28029D01*
X669055Y28153D01*
X669288Y31700D01*
X669286Y31719D01*
X669289Y31750D01*
X669289Y361950D01*
X669286Y361969D01*
X669288Y362000D01*
X669055Y365547D01*
X669050Y365570D01*
X669031Y365694D01*
X667195Y372548D01*
X667188Y372562D01*
X667186Y372578D01*
X667118Y372731D01*
X663571Y378876D01*
X663561Y378888D01*
X663555Y378902D01*
X663450Y379033D01*
X658433Y384050D01*
X658420Y384059D01*
X658411Y384072D01*
X658276Y384171D01*
X652131Y387718D01*
X652116Y387724D01*
X652104Y387734D01*
X651948Y387795D01*
X645094Y389631D01*
X645071Y389633D01*
X644947Y389655D01*
X641400Y389888D01*
X641381Y389886D01*
X641350Y389889D01*
X31750Y389889D01*
X31731Y389886D01*
X31700Y389888D01*
X28153Y389655D01*
X28130Y389650D01*
X28006Y389631D01*
X21152Y387795D01*
X21138Y387788D01*
X21122Y387786D01*
X20969Y387718D01*
X14824Y384171D01*
X14812Y384161D01*
X14798Y384155D01*
X14667Y384050D01*
X9650Y379033D01*
X9641Y379020D01*
X9628Y379011D01*
X9529Y378876D01*
X5982Y372731D01*
X5976Y372717D01*
X5966Y372704D01*
X5913Y372568D01*
X5908Y372556D01*
X5907Y372552D01*
X5905Y372548D01*
X4069Y365694D01*
X4067Y365671D01*
X4045Y365547D01*
X3812Y362000D01*
X3814Y361981D01*
X3811Y361950D01*
X3811Y200406D01*
X3814Y200386D01*
X3812Y200367D01*
X3834Y200265D01*
X3850Y200163D01*
X3860Y200146D01*
X3864Y200126D01*
X3917Y200037D01*
X3966Y199946D01*
X3980Y199932D01*
X3990Y199915D01*
X4069Y199848D01*
X4144Y199776D01*
X4162Y199768D01*
X4177Y199755D01*
X4273Y199716D01*
X4367Y199673D01*
X4387Y199671D01*
X4405Y199663D01*
X4572Y199645D01*
X24000Y199645D01*
X24893Y198752D01*
X24893Y194818D01*
X24896Y194798D01*
X24894Y194779D01*
X24916Y194677D01*
X24932Y194575D01*
X24942Y194558D01*
X24946Y194538D01*
X24999Y194449D01*
X25048Y194358D01*
X25062Y194344D01*
X25072Y194327D01*
X25151Y194260D01*
X25226Y194188D01*
X25244Y194180D01*
X25259Y194167D01*
X25355Y194128D01*
X25449Y194085D01*
X25469Y194083D01*
X25487Y194075D01*
X25654Y194057D01*
X33135Y194057D01*
X33225Y194071D01*
X33316Y194079D01*
X33346Y194091D01*
X33378Y194096D01*
X33459Y194139D01*
X33542Y194175D01*
X33575Y194201D01*
X33595Y194212D01*
X33617Y194235D01*
X33673Y194280D01*
X34813Y195419D01*
X36946Y196303D01*
X39254Y196303D01*
X41387Y195419D01*
X42527Y194280D01*
X42601Y194227D01*
X42670Y194167D01*
X42700Y194155D01*
X42726Y194136D01*
X42813Y194109D01*
X42898Y194075D01*
X42939Y194071D01*
X42961Y194064D01*
X42994Y194065D01*
X43065Y194057D01*
X88646Y194057D01*
X88666Y194060D01*
X88685Y194058D01*
X88787Y194080D01*
X88889Y194096D01*
X88906Y194106D01*
X88926Y194110D01*
X89015Y194163D01*
X89106Y194212D01*
X89120Y194226D01*
X89137Y194236D01*
X89204Y194315D01*
X89276Y194390D01*
X89284Y194408D01*
X89297Y194423D01*
X89336Y194519D01*
X89379Y194613D01*
X89381Y194633D01*
X89389Y194651D01*
X89407Y194818D01*
X89407Y198752D01*
X90300Y199645D01*
X114424Y199645D01*
X115317Y198752D01*
X115317Y194818D01*
X115320Y194798D01*
X115318Y194779D01*
X115340Y194677D01*
X115356Y194575D01*
X115366Y194558D01*
X115370Y194538D01*
X115423Y194449D01*
X115472Y194358D01*
X115486Y194344D01*
X115496Y194327D01*
X115575Y194260D01*
X115650Y194188D01*
X115668Y194180D01*
X115683Y194167D01*
X115779Y194128D01*
X115873Y194085D01*
X115893Y194083D01*
X115911Y194075D01*
X116078Y194057D01*
X442711Y194057D01*
X442802Y194071D01*
X442892Y194079D01*
X442922Y194091D01*
X442954Y194096D01*
X443035Y194139D01*
X443119Y194175D01*
X443151Y194201D01*
X443172Y194212D01*
X443194Y194235D01*
X443250Y194280D01*
X466120Y217150D01*
X466173Y217224D01*
X466233Y217294D01*
X466245Y217324D01*
X466264Y217350D01*
X466291Y217437D01*
X466325Y217522D01*
X466329Y217563D01*
X466336Y217585D01*
X466335Y217617D01*
X466343Y217689D01*
X466343Y328728D01*
X466329Y328818D01*
X466321Y328909D01*
X466309Y328939D01*
X466304Y328971D01*
X466261Y329051D01*
X466225Y329135D01*
X466199Y329167D01*
X466188Y329188D01*
X466165Y329210D01*
X466120Y329266D01*
X464557Y330830D01*
X463597Y333146D01*
X463597Y335654D01*
X464557Y337970D01*
X465138Y338552D01*
X465180Y338610D01*
X465230Y338662D01*
X465252Y338709D01*
X465282Y338751D01*
X465303Y338820D01*
X465333Y338885D01*
X465339Y338937D01*
X465354Y338987D01*
X465352Y339058D01*
X465360Y339129D01*
X465349Y339180D01*
X465348Y339232D01*
X465323Y339300D01*
X465308Y339370D01*
X465281Y339415D01*
X465263Y339463D01*
X465219Y339519D01*
X465182Y339581D01*
X465142Y339615D01*
X465110Y339655D01*
X465049Y339694D01*
X464995Y339741D01*
X464947Y339760D01*
X464903Y339788D01*
X464833Y339806D01*
X464767Y339833D01*
X464696Y339841D01*
X464664Y339849D01*
X464641Y339847D01*
X464600Y339851D01*
X366362Y339851D01*
X366272Y339837D01*
X366181Y339829D01*
X366151Y339817D01*
X366119Y339812D01*
X366039Y339769D01*
X365955Y339733D01*
X365923Y339707D01*
X365902Y339696D01*
X365880Y339673D01*
X365824Y339628D01*
X364043Y337847D01*
X359857Y337847D01*
X356897Y340807D01*
X356897Y344993D01*
X359857Y347953D01*
X364043Y347953D01*
X365824Y346172D01*
X365898Y346119D01*
X365967Y346059D01*
X365998Y346047D01*
X366024Y346028D01*
X366111Y346001D01*
X366196Y345967D01*
X366236Y345963D01*
X366259Y345956D01*
X366291Y345957D01*
X366362Y345949D01*
X483863Y345949D01*
X498349Y331463D01*
X498349Y306378D01*
X498363Y306288D01*
X498371Y306197D01*
X498383Y306167D01*
X498388Y306135D01*
X498431Y306055D01*
X498467Y305971D01*
X498493Y305939D01*
X498504Y305918D01*
X498527Y305896D01*
X498572Y305840D01*
X535710Y268702D01*
X535784Y268649D01*
X535853Y268589D01*
X535883Y268577D01*
X535910Y268558D01*
X535997Y268531D01*
X536081Y268497D01*
X536122Y268493D01*
X536145Y268486D01*
X536177Y268487D01*
X536248Y268479D01*
X542958Y268479D01*
X543048Y268493D01*
X543139Y268501D01*
X543169Y268513D01*
X543201Y268518D01*
X543281Y268561D01*
X543365Y268597D01*
X543397Y268623D01*
X543418Y268634D01*
X543440Y268657D01*
X543496Y268702D01*
X545277Y270483D01*
X549463Y270483D01*
X552423Y267523D01*
X552423Y263337D01*
X549463Y260377D01*
X545277Y260377D01*
X543496Y262158D01*
X543422Y262211D01*
X543353Y262271D01*
X543322Y262283D01*
X543296Y262302D01*
X543209Y262329D01*
X543124Y262363D01*
X543084Y262367D01*
X543061Y262374D01*
X543029Y262373D01*
X542958Y262381D01*
X533407Y262381D01*
X492251Y303537D01*
X492251Y328622D01*
X492237Y328712D01*
X492229Y328803D01*
X492217Y328833D01*
X492212Y328865D01*
X492169Y328945D01*
X492133Y329029D01*
X492107Y329061D01*
X492096Y329082D01*
X492073Y329104D01*
X492028Y329160D01*
X481560Y339628D01*
X481486Y339681D01*
X481417Y339741D01*
X481387Y339753D01*
X481360Y339772D01*
X481273Y339799D01*
X481189Y339833D01*
X481148Y339837D01*
X481125Y339844D01*
X481093Y339843D01*
X481022Y339851D01*
X475200Y339851D01*
X475129Y339840D01*
X475057Y339838D01*
X475009Y339820D01*
X474957Y339812D01*
X474894Y339778D01*
X474826Y339753D01*
X474786Y339721D01*
X474740Y339696D01*
X474690Y339644D01*
X474634Y339600D01*
X474606Y339556D01*
X474570Y339518D01*
X474540Y339453D01*
X474501Y339393D01*
X474489Y339342D01*
X474467Y339295D01*
X474459Y339224D01*
X474441Y339154D01*
X474445Y339102D01*
X474440Y339051D01*
X474455Y338980D01*
X474461Y338909D01*
X474481Y338861D01*
X474492Y338810D01*
X474529Y338749D01*
X474557Y338683D01*
X474602Y338627D01*
X474618Y338599D01*
X474636Y338584D01*
X474662Y338552D01*
X475243Y337970D01*
X476203Y335654D01*
X476203Y333146D01*
X475243Y330830D01*
X473680Y329266D01*
X473627Y329192D01*
X473567Y329123D01*
X473555Y329093D01*
X473536Y329067D01*
X473509Y328980D01*
X473475Y328895D01*
X473471Y328854D01*
X473464Y328831D01*
X473465Y328799D01*
X473457Y328728D01*
X473457Y217689D01*
X473471Y217598D01*
X473479Y217508D01*
X473491Y217478D01*
X473496Y217446D01*
X473539Y217365D01*
X473575Y217281D01*
X473601Y217249D01*
X473612Y217228D01*
X473635Y217206D01*
X473680Y217150D01*
X496550Y194280D01*
X496624Y194227D01*
X496694Y194167D01*
X496724Y194155D01*
X496750Y194136D01*
X496837Y194109D01*
X496922Y194075D01*
X496963Y194071D01*
X496985Y194064D01*
X497017Y194065D01*
X497089Y194057D01*
X626110Y194057D01*
X626130Y194060D01*
X626149Y194058D01*
X626251Y194080D01*
X626353Y194096D01*
X626370Y194106D01*
X626390Y194110D01*
X626479Y194163D01*
X626570Y194212D01*
X626584Y194226D01*
X626601Y194236D01*
X626668Y194315D01*
X626740Y194390D01*
X626748Y194408D01*
X626761Y194423D01*
X626800Y194519D01*
X626843Y194613D01*
X626845Y194633D01*
X626853Y194651D01*
X626871Y194818D01*
X626871Y198752D01*
X627764Y199645D01*
X651888Y199645D01*
X652781Y198752D01*
X652781Y182248D01*
X651888Y181355D01*
X627764Y181355D01*
X626871Y182248D01*
X626871Y186182D01*
X626868Y186202D01*
X626870Y186221D01*
X626848Y186323D01*
X626832Y186425D01*
X626822Y186442D01*
X626818Y186462D01*
X626765Y186550D01*
X626716Y186642D01*
X626702Y186656D01*
X626692Y186673D01*
X626613Y186740D01*
X626538Y186812D01*
X626520Y186820D01*
X626505Y186833D01*
X626409Y186872D01*
X626315Y186915D01*
X626295Y186917D01*
X626277Y186925D01*
X626110Y186943D01*
X606606Y186943D01*
X606535Y186932D01*
X606464Y186930D01*
X606415Y186912D01*
X606363Y186904D01*
X606300Y186870D01*
X606233Y186845D01*
X606192Y186813D01*
X606146Y186788D01*
X606097Y186736D01*
X606041Y186692D01*
X606012Y186648D01*
X605977Y186610D01*
X605946Y186545D01*
X605908Y186485D01*
X605895Y186434D01*
X605873Y186387D01*
X605865Y186316D01*
X605848Y186246D01*
X605852Y186194D01*
X605846Y186143D01*
X605861Y186072D01*
X605867Y186001D01*
X605887Y185953D01*
X605898Y185902D01*
X605935Y185841D01*
X605963Y185775D01*
X606008Y185719D01*
X606024Y185691D01*
X606042Y185676D01*
X606068Y185644D01*
X607886Y183826D01*
X607960Y183773D01*
X608029Y183713D01*
X608059Y183701D01*
X608086Y183682D01*
X608173Y183655D01*
X608257Y183621D01*
X608298Y183617D01*
X608321Y183610D01*
X608353Y183611D01*
X608424Y183603D01*
X610754Y183603D01*
X612887Y182719D01*
X614519Y181087D01*
X615403Y178954D01*
X615403Y176646D01*
X614519Y174513D01*
X612887Y172881D01*
X610754Y171997D01*
X608446Y171997D01*
X606313Y172881D01*
X604681Y174513D01*
X603797Y176646D01*
X603797Y178976D01*
X603783Y179066D01*
X603775Y179157D01*
X603763Y179187D01*
X603758Y179219D01*
X603715Y179299D01*
X603679Y179383D01*
X603653Y179415D01*
X603642Y179436D01*
X603619Y179458D01*
X603574Y179514D01*
X596368Y186720D01*
X596294Y186773D01*
X596225Y186833D01*
X596195Y186845D01*
X596168Y186864D01*
X596081Y186891D01*
X595997Y186925D01*
X595956Y186929D01*
X595933Y186936D01*
X595901Y186935D01*
X595830Y186943D01*
X493827Y186943D01*
X470438Y210332D01*
X470422Y210343D01*
X470410Y210359D01*
X470322Y210415D01*
X470239Y210475D01*
X470220Y210481D01*
X470203Y210492D01*
X470102Y210517D01*
X470003Y210548D01*
X469984Y210547D01*
X469964Y210552D01*
X469861Y210544D01*
X469758Y210541D01*
X469739Y210534D01*
X469719Y210533D01*
X469624Y210493D01*
X469527Y210457D01*
X469511Y210444D01*
X469493Y210437D01*
X469362Y210332D01*
X448280Y189250D01*
X445973Y186943D01*
X116078Y186943D01*
X116058Y186940D01*
X116039Y186942D01*
X115937Y186920D01*
X115835Y186904D01*
X115818Y186894D01*
X115798Y186890D01*
X115709Y186837D01*
X115618Y186788D01*
X115604Y186774D01*
X115587Y186764D01*
X115520Y186685D01*
X115448Y186610D01*
X115440Y186592D01*
X115427Y186577D01*
X115388Y186481D01*
X115345Y186387D01*
X115343Y186367D01*
X115335Y186349D01*
X115317Y186182D01*
X115317Y182248D01*
X114424Y181355D01*
X90300Y181355D01*
X89407Y182248D01*
X89407Y186182D01*
X89404Y186202D01*
X89406Y186221D01*
X89384Y186323D01*
X89368Y186425D01*
X89358Y186442D01*
X89354Y186462D01*
X89301Y186550D01*
X89252Y186642D01*
X89238Y186656D01*
X89228Y186673D01*
X89149Y186740D01*
X89074Y186812D01*
X89056Y186820D01*
X89041Y186833D01*
X88945Y186872D01*
X88851Y186915D01*
X88831Y186917D01*
X88813Y186925D01*
X88646Y186943D01*
X43065Y186943D01*
X42975Y186929D01*
X42884Y186921D01*
X42854Y186909D01*
X42822Y186904D01*
X42741Y186861D01*
X42658Y186825D01*
X42625Y186799D01*
X42605Y186788D01*
X42583Y186765D01*
X42527Y186720D01*
X41387Y185581D01*
X39254Y184697D01*
X36946Y184697D01*
X34813Y185581D01*
X33673Y186720D01*
X33599Y186773D01*
X33530Y186833D01*
X33500Y186845D01*
X33474Y186864D01*
X33387Y186891D01*
X33302Y186925D01*
X33261Y186929D01*
X33239Y186936D01*
X33206Y186935D01*
X33135Y186943D01*
X25654Y186943D01*
X25634Y186940D01*
X25615Y186942D01*
X25513Y186920D01*
X25411Y186904D01*
X25394Y186894D01*
X25374Y186890D01*
X25285Y186837D01*
X25194Y186788D01*
X25180Y186774D01*
X25163Y186764D01*
X25096Y186685D01*
X25024Y186610D01*
X25016Y186592D01*
X25003Y186577D01*
X24964Y186481D01*
X24921Y186387D01*
X24919Y186367D01*
X24911Y186349D01*
X24893Y186182D01*
X24893Y182248D01*
X24000Y181355D01*
X4572Y181355D01*
X4552Y181352D01*
X4533Y181354D01*
X4431Y181332D01*
X4329Y181316D01*
X4312Y181306D01*
X4292Y181302D01*
X4203Y181249D01*
X4112Y181200D01*
X4098Y181186D01*
X4081Y181176D01*
X4014Y181097D01*
X3942Y181022D01*
X3934Y181004D01*
X3921Y180989D01*
X3882Y180893D01*
X3839Y180799D01*
X3837Y180779D01*
X3829Y180761D01*
X3811Y180594D01*
X3811Y175006D01*
X3814Y174986D01*
X3812Y174967D01*
X3834Y174865D01*
X3850Y174763D01*
X3860Y174746D01*
X3864Y174726D01*
X3917Y174637D01*
X3966Y174546D01*
X3980Y174532D01*
X3990Y174515D01*
X4069Y174448D01*
X4144Y174376D01*
X4162Y174368D01*
X4177Y174355D01*
X4273Y174316D01*
X4367Y174273D01*
X4387Y174271D01*
X4405Y174263D01*
X4572Y174245D01*
X24000Y174245D01*
X24893Y173352D01*
X24893Y168910D01*
X24896Y168890D01*
X24894Y168871D01*
X24916Y168769D01*
X24932Y168667D01*
X24942Y168650D01*
X24946Y168630D01*
X24999Y168541D01*
X25048Y168450D01*
X25062Y168436D01*
X25072Y168419D01*
X25151Y168352D01*
X25226Y168280D01*
X25244Y168272D01*
X25259Y168259D01*
X25355Y168220D01*
X25449Y168177D01*
X25469Y168175D01*
X25487Y168167D01*
X25654Y168149D01*
X58027Y168149D01*
X58117Y168163D01*
X58208Y168171D01*
X58238Y168183D01*
X58270Y168188D01*
X58351Y168231D01*
X58434Y168267D01*
X58467Y168293D01*
X58487Y168304D01*
X58509Y168327D01*
X58565Y168372D01*
X60213Y170019D01*
X62346Y170903D01*
X64654Y170903D01*
X66787Y170019D01*
X68435Y168372D01*
X68509Y168319D01*
X68578Y168259D01*
X68608Y168247D01*
X68634Y168228D01*
X68721Y168201D01*
X68806Y168167D01*
X68847Y168163D01*
X68869Y168156D01*
X68902Y168157D01*
X68973Y168149D01*
X88646Y168149D01*
X88666Y168152D01*
X88685Y168150D01*
X88787Y168172D01*
X88889Y168188D01*
X88906Y168198D01*
X88926Y168202D01*
X89015Y168255D01*
X89106Y168304D01*
X89120Y168318D01*
X89137Y168328D01*
X89204Y168407D01*
X89276Y168482D01*
X89284Y168500D01*
X89297Y168515D01*
X89336Y168611D01*
X89379Y168705D01*
X89381Y168725D01*
X89389Y168743D01*
X89407Y168910D01*
X89407Y173352D01*
X90300Y174245D01*
X114424Y174245D01*
X115317Y173352D01*
X115317Y156848D01*
X114424Y155955D01*
X90300Y155955D01*
X89407Y156848D01*
X89407Y161290D01*
X89404Y161310D01*
X89406Y161329D01*
X89384Y161431D01*
X89368Y161533D01*
X89358Y161550D01*
X89354Y161570D01*
X89301Y161659D01*
X89252Y161750D01*
X89238Y161764D01*
X89228Y161781D01*
X89149Y161848D01*
X89074Y161920D01*
X89056Y161928D01*
X89041Y161941D01*
X88945Y161980D01*
X88851Y162023D01*
X88831Y162025D01*
X88813Y162033D01*
X88646Y162051D01*
X68973Y162051D01*
X68883Y162037D01*
X68792Y162029D01*
X68762Y162017D01*
X68730Y162012D01*
X68649Y161969D01*
X68566Y161933D01*
X68533Y161907D01*
X68513Y161896D01*
X68491Y161873D01*
X68435Y161828D01*
X66787Y160181D01*
X64654Y159297D01*
X62346Y159297D01*
X60213Y160181D01*
X58565Y161828D01*
X58491Y161881D01*
X58422Y161941D01*
X58392Y161953D01*
X58366Y161972D01*
X58279Y161999D01*
X58194Y162033D01*
X58153Y162037D01*
X58131Y162044D01*
X58098Y162043D01*
X58027Y162051D01*
X25654Y162051D01*
X25634Y162048D01*
X25615Y162050D01*
X25513Y162028D01*
X25411Y162012D01*
X25394Y162002D01*
X25374Y161998D01*
X25285Y161945D01*
X25194Y161896D01*
X25180Y161882D01*
X25163Y161872D01*
X25096Y161793D01*
X25024Y161718D01*
X25016Y161700D01*
X25003Y161685D01*
X24964Y161589D01*
X24921Y161495D01*
X24919Y161475D01*
X24911Y161457D01*
X24893Y161290D01*
X24893Y156848D01*
X24000Y155955D01*
X4572Y155955D01*
X4552Y155952D01*
X4533Y155954D01*
X4431Y155932D01*
X4329Y155916D01*
X4312Y155906D01*
X4292Y155902D01*
X4203Y155849D01*
X4112Y155800D01*
X4098Y155786D01*
X4081Y155776D01*
X4014Y155697D01*
X3942Y155622D01*
X3934Y155604D01*
X3921Y155589D01*
X3882Y155493D01*
X3839Y155399D01*
X3837Y155379D01*
X3829Y155361D01*
X3811Y155194D01*
X3811Y150622D01*
X3814Y150602D01*
X3812Y150583D01*
X3834Y150481D01*
X3850Y150379D01*
X3860Y150362D01*
X3864Y150342D01*
X3917Y150253D01*
X3966Y150162D01*
X3980Y150148D01*
X3990Y150131D01*
X4069Y150064D01*
X4144Y149992D01*
X4162Y149984D01*
X4177Y149971D01*
X4273Y149932D01*
X4367Y149889D01*
X4387Y149887D01*
X4405Y149879D01*
X4572Y149861D01*
X10415Y149861D01*
X10415Y140462D01*
X10418Y140442D01*
X10416Y140423D01*
X10438Y140321D01*
X10455Y140219D01*
X10464Y140202D01*
X10468Y140182D01*
X10521Y140093D01*
X10570Y140002D01*
X10584Y139988D01*
X10594Y139971D01*
X10673Y139904D01*
X10748Y139833D01*
X10766Y139824D01*
X10781Y139811D01*
X10877Y139772D01*
X10971Y139729D01*
X10991Y139727D01*
X11009Y139719D01*
X11176Y139701D01*
X11939Y139701D01*
X11939Y139699D01*
X11176Y139699D01*
X11156Y139696D01*
X11137Y139698D01*
X11035Y139676D01*
X10933Y139659D01*
X10916Y139650D01*
X10896Y139646D01*
X10807Y139593D01*
X10716Y139544D01*
X10702Y139530D01*
X10685Y139520D01*
X10618Y139441D01*
X10547Y139366D01*
X10538Y139348D01*
X10525Y139333D01*
X10486Y139237D01*
X10443Y139143D01*
X10441Y139123D01*
X10433Y139105D01*
X10415Y138938D01*
X10415Y129539D01*
X4572Y129539D01*
X4552Y129536D01*
X4533Y129538D01*
X4431Y129516D01*
X4329Y129500D01*
X4312Y129490D01*
X4292Y129486D01*
X4203Y129433D01*
X4112Y129384D01*
X4098Y129370D01*
X4081Y129360D01*
X4014Y129281D01*
X3942Y129206D01*
X3934Y129188D01*
X3921Y129173D01*
X3882Y129077D01*
X3839Y128983D01*
X3837Y128963D01*
X3829Y128945D01*
X3811Y128778D01*
X3811Y31750D01*
X3814Y31732D01*
X3812Y31700D01*
X4045Y28153D01*
X4050Y28130D01*
X4069Y28006D01*
X5905Y21152D01*
X5912Y21138D01*
X5914Y21122D01*
X5950Y21041D01*
X5950Y21040D01*
X5951Y21038D01*
X5982Y20969D01*
X9529Y14824D01*
X9539Y14812D01*
X9545Y14798D01*
X9592Y14739D01*
X9593Y14738D01*
X9650Y14667D01*
X14667Y9650D01*
X14680Y9641D01*
X14689Y9628D01*
X14824Y9529D01*
X20969Y5982D01*
X20983Y5976D01*
X20996Y5966D01*
X21152Y5905D01*
X28006Y4069D01*
X28029Y4067D01*
X28153Y4045D01*
X31700Y3812D01*
X31719Y3814D01*
X31750Y3811D01*
X335200Y3811D01*
X335271Y3822D01*
G37*
%LPC*%
G36*
X313711Y260349D02*
X313711Y260349D01*
X306709Y263250D01*
X301350Y268609D01*
X298449Y275611D01*
X298449Y283189D01*
X301350Y290191D01*
X306709Y295550D01*
X313711Y298451D01*
X321289Y298451D01*
X328291Y295550D01*
X333650Y290191D01*
X336551Y283189D01*
X336551Y275611D01*
X333650Y268609D01*
X328291Y263250D01*
X321289Y260349D01*
X313711Y260349D01*
G37*
%LPD*%
%LPC*%
G36*
X631211Y222249D02*
X631211Y222249D01*
X624209Y225150D01*
X618850Y230509D01*
X615949Y237511D01*
X615949Y245089D01*
X618850Y252091D01*
X624209Y257450D01*
X631211Y260351D01*
X638789Y260351D01*
X645791Y257450D01*
X651150Y252091D01*
X654051Y245089D01*
X654051Y237511D01*
X651150Y230509D01*
X645791Y225150D01*
X638789Y222249D01*
X631211Y222249D01*
G37*
%LPD*%
%LPC*%
G36*
X34311Y69849D02*
X34311Y69849D01*
X27309Y72750D01*
X21950Y78109D01*
X19049Y85111D01*
X19049Y92689D01*
X21950Y99691D01*
X27309Y105050D01*
X34311Y107951D01*
X41889Y107951D01*
X48891Y105050D01*
X54250Y99691D01*
X57151Y92689D01*
X57151Y85111D01*
X54250Y78109D01*
X48891Y72750D01*
X41889Y69849D01*
X34311Y69849D01*
G37*
%LPD*%
%LPC*%
G36*
X627764Y155955D02*
X627764Y155955D01*
X626871Y156848D01*
X626871Y161290D01*
X626868Y161310D01*
X626870Y161329D01*
X626848Y161431D01*
X626832Y161533D01*
X626822Y161550D01*
X626818Y161570D01*
X626765Y161659D01*
X626716Y161750D01*
X626702Y161764D01*
X626692Y161781D01*
X626613Y161848D01*
X626538Y161920D01*
X626520Y161928D01*
X626505Y161941D01*
X626409Y161980D01*
X626315Y162023D01*
X626295Y162025D01*
X626277Y162033D01*
X626110Y162051D01*
X564273Y162051D01*
X564183Y162037D01*
X564092Y162029D01*
X564062Y162017D01*
X564030Y162012D01*
X563949Y161969D01*
X563866Y161933D01*
X563833Y161907D01*
X563813Y161896D01*
X563791Y161873D01*
X563735Y161828D01*
X562087Y160181D01*
X559954Y159297D01*
X557646Y159297D01*
X555513Y160181D01*
X553881Y161813D01*
X552997Y163946D01*
X552997Y166254D01*
X553881Y168387D01*
X555513Y170019D01*
X557646Y170903D01*
X559954Y170903D01*
X562087Y170019D01*
X563735Y168372D01*
X563809Y168319D01*
X563878Y168259D01*
X563908Y168247D01*
X563934Y168228D01*
X564021Y168201D01*
X564106Y168167D01*
X564147Y168163D01*
X564169Y168156D01*
X564202Y168157D01*
X564273Y168149D01*
X626110Y168149D01*
X626130Y168152D01*
X626149Y168150D01*
X626251Y168172D01*
X626353Y168188D01*
X626370Y168198D01*
X626390Y168202D01*
X626479Y168255D01*
X626570Y168304D01*
X626584Y168318D01*
X626601Y168328D01*
X626668Y168407D01*
X626740Y168482D01*
X626748Y168500D01*
X626761Y168515D01*
X626800Y168611D01*
X626843Y168705D01*
X626845Y168725D01*
X626853Y168743D01*
X626871Y168910D01*
X626871Y173352D01*
X627764Y174245D01*
X651888Y174245D01*
X652781Y173352D01*
X652781Y156848D01*
X651888Y155955D01*
X627764Y155955D01*
G37*
%LPD*%
%LPC*%
G36*
X539866Y286297D02*
X539866Y286297D01*
X537733Y287181D01*
X536101Y288813D01*
X535217Y290946D01*
X535217Y293254D01*
X536101Y295387D01*
X537733Y297019D01*
X539866Y297903D01*
X542174Y297903D01*
X544307Y297019D01*
X545955Y295372D01*
X546029Y295319D01*
X546098Y295259D01*
X546128Y295247D01*
X546154Y295228D01*
X546241Y295201D01*
X546326Y295167D01*
X546367Y295163D01*
X546389Y295156D01*
X546422Y295157D01*
X546493Y295149D01*
X591427Y295149D01*
X591517Y295163D01*
X591608Y295171D01*
X591638Y295183D01*
X591670Y295188D01*
X591751Y295231D01*
X591834Y295267D01*
X591867Y295293D01*
X591887Y295304D01*
X591909Y295327D01*
X591965Y295372D01*
X593613Y297019D01*
X595746Y297903D01*
X598054Y297903D01*
X600187Y297019D01*
X601819Y295387D01*
X602703Y293254D01*
X602703Y290946D01*
X601819Y288813D01*
X600187Y287181D01*
X598054Y286297D01*
X595746Y286297D01*
X593613Y287181D01*
X591965Y288828D01*
X591891Y288881D01*
X591822Y288941D01*
X591792Y288953D01*
X591766Y288972D01*
X591679Y288999D01*
X591594Y289033D01*
X591553Y289037D01*
X591531Y289044D01*
X591498Y289043D01*
X591427Y289051D01*
X546493Y289051D01*
X546403Y289037D01*
X546312Y289029D01*
X546282Y289017D01*
X546250Y289012D01*
X546169Y288969D01*
X546086Y288933D01*
X546053Y288907D01*
X546033Y288896D01*
X546011Y288873D01*
X545955Y288828D01*
X544307Y287181D01*
X542174Y286297D01*
X539866Y286297D01*
G37*
%LPD*%
%LPC*%
G36*
X532097Y123217D02*
X532097Y123217D01*
X529137Y126177D01*
X529137Y130018D01*
X529134Y130038D01*
X529136Y130057D01*
X529114Y130159D01*
X529098Y130261D01*
X529088Y130278D01*
X529084Y130298D01*
X529031Y130387D01*
X528982Y130478D01*
X528968Y130492D01*
X528958Y130509D01*
X528879Y130576D01*
X528804Y130648D01*
X528786Y130656D01*
X528771Y130669D01*
X528675Y130708D01*
X528581Y130751D01*
X528561Y130753D01*
X528543Y130761D01*
X528376Y130779D01*
X527525Y130779D01*
X524565Y133739D01*
X524565Y137925D01*
X527525Y140885D01*
X531711Y140885D01*
X533492Y139104D01*
X533566Y139051D01*
X533635Y138991D01*
X533666Y138979D01*
X533692Y138960D01*
X533779Y138933D01*
X533864Y138899D01*
X533904Y138895D01*
X533927Y138888D01*
X533959Y138889D01*
X534030Y138881D01*
X546484Y138881D01*
X546574Y138895D01*
X546665Y138903D01*
X546695Y138915D01*
X546727Y138920D01*
X546807Y138963D01*
X546891Y138999D01*
X546923Y139025D01*
X546944Y139036D01*
X546966Y139059D01*
X547022Y139104D01*
X549821Y141903D01*
X554007Y141903D01*
X556967Y138943D01*
X556967Y134757D01*
X555308Y133098D01*
X555296Y133082D01*
X555281Y133070D01*
X555225Y132982D01*
X555164Y132899D01*
X555159Y132880D01*
X555148Y132863D01*
X555122Y132762D01*
X555092Y132663D01*
X555093Y132644D01*
X555088Y132624D01*
X555096Y132521D01*
X555098Y132418D01*
X555105Y132399D01*
X555107Y132379D01*
X555147Y132284D01*
X555183Y132187D01*
X555195Y132171D01*
X555203Y132153D01*
X555308Y132022D01*
X556967Y130363D01*
X556967Y126177D01*
X554007Y123217D01*
X549821Y123217D01*
X548040Y124998D01*
X547966Y125051D01*
X547897Y125111D01*
X547866Y125123D01*
X547840Y125142D01*
X547753Y125169D01*
X547668Y125203D01*
X547628Y125207D01*
X547605Y125214D01*
X547573Y125213D01*
X547502Y125221D01*
X538602Y125221D01*
X538512Y125207D01*
X538421Y125199D01*
X538391Y125187D01*
X538359Y125182D01*
X538279Y125139D01*
X538195Y125103D01*
X538163Y125077D01*
X538142Y125066D01*
X538120Y125043D01*
X538064Y124998D01*
X536283Y123217D01*
X532097Y123217D01*
G37*
%LPD*%
%LPC*%
G36*
X607349Y344550D02*
X607349Y344550D01*
X604128Y345884D01*
X601662Y348350D01*
X600328Y351571D01*
X600328Y355057D01*
X601662Y358278D01*
X604128Y360744D01*
X607349Y362078D01*
X610835Y362078D01*
X614056Y360744D01*
X616522Y358278D01*
X617856Y355057D01*
X617856Y351571D01*
X616522Y348350D01*
X614056Y345884D01*
X610835Y344550D01*
X607349Y344550D01*
G37*
%LPD*%
%LPC*%
G36*
X557565Y344550D02*
X557565Y344550D01*
X554344Y345884D01*
X551878Y348350D01*
X550544Y351571D01*
X550544Y355057D01*
X551878Y358278D01*
X554344Y360744D01*
X557565Y362078D01*
X561051Y362078D01*
X564272Y360744D01*
X566738Y358278D01*
X568072Y355057D01*
X568072Y351571D01*
X566738Y348350D01*
X564272Y345884D01*
X561051Y344550D01*
X557565Y344550D01*
G37*
%LPD*%
%LPC*%
G36*
X547623Y26923D02*
X547623Y26923D01*
X547623Y48817D01*
X549148Y48575D01*
X551097Y47942D01*
X552923Y47012D01*
X554581Y45807D01*
X556030Y44358D01*
X557234Y42700D01*
X558164Y40875D01*
X558798Y38926D01*
X559118Y36902D01*
X559118Y26923D01*
X547623Y26923D01*
G37*
%LPD*%
%LPC*%
G36*
X641349Y141223D02*
X641349Y141223D01*
X641349Y149861D01*
X651590Y149861D01*
X652237Y149688D01*
X652816Y149353D01*
X653289Y148880D01*
X653624Y148301D01*
X653797Y147654D01*
X653797Y141223D01*
X641349Y141223D01*
G37*
%LPD*%
%LPC*%
G36*
X103885Y141223D02*
X103885Y141223D01*
X103885Y149861D01*
X114126Y149861D01*
X114773Y149688D01*
X115352Y149353D01*
X115825Y148880D01*
X116160Y148301D01*
X116333Y147654D01*
X116333Y141223D01*
X103885Y141223D01*
G37*
%LPD*%
%LPC*%
G36*
X13461Y141223D02*
X13461Y141223D01*
X13461Y149861D01*
X23702Y149861D01*
X24349Y149688D01*
X24928Y149353D01*
X25401Y148880D01*
X25736Y148301D01*
X25909Y147654D01*
X25909Y141223D01*
X13461Y141223D01*
G37*
%LPD*%
%LPC*%
G36*
X641349Y138177D02*
X641349Y138177D01*
X653797Y138177D01*
X653797Y131746D01*
X653624Y131099D01*
X653289Y130520D01*
X652816Y130047D01*
X652237Y129712D01*
X651590Y129539D01*
X641349Y129539D01*
X641349Y138177D01*
G37*
%LPD*%
%LPC*%
G36*
X103885Y138177D02*
X103885Y138177D01*
X116333Y138177D01*
X116333Y131746D01*
X116160Y131099D01*
X115825Y130520D01*
X115352Y130047D01*
X114773Y129712D01*
X114126Y129539D01*
X103885Y129539D01*
X103885Y138177D01*
G37*
%LPD*%
%LPC*%
G36*
X13461Y138177D02*
X13461Y138177D01*
X25909Y138177D01*
X25909Y131746D01*
X25736Y131099D01*
X25401Y130520D01*
X24928Y130047D01*
X24349Y129712D01*
X23702Y129539D01*
X13461Y129539D01*
X13461Y138177D01*
G37*
%LPD*%
%LPC*%
G36*
X625855Y141223D02*
X625855Y141223D01*
X625855Y147654D01*
X626028Y148301D01*
X626363Y148880D01*
X626836Y149353D01*
X627415Y149688D01*
X628062Y149861D01*
X638303Y149861D01*
X638303Y141223D01*
X625855Y141223D01*
G37*
%LPD*%
%LPC*%
G36*
X88391Y141223D02*
X88391Y141223D01*
X88391Y147654D01*
X88564Y148301D01*
X88899Y148880D01*
X89372Y149353D01*
X89951Y149688D01*
X90598Y149861D01*
X100839Y149861D01*
X100839Y141223D01*
X88391Y141223D01*
G37*
%LPD*%
%LPC*%
G36*
X628062Y129539D02*
X628062Y129539D01*
X627415Y129712D01*
X626836Y130047D01*
X626363Y130520D01*
X626028Y131099D01*
X625855Y131746D01*
X625855Y138177D01*
X638303Y138177D01*
X638303Y129539D01*
X628062Y129539D01*
G37*
%LPD*%
%LPC*%
G36*
X90598Y129539D02*
X90598Y129539D01*
X89951Y129712D01*
X89372Y130047D01*
X88899Y130520D01*
X88564Y131099D01*
X88391Y131746D01*
X88391Y138177D01*
X100839Y138177D01*
X100839Y129539D01*
X90598Y129539D01*
G37*
%LPD*%
%LPC*%
G36*
X639825Y139699D02*
X639825Y139699D01*
X639825Y139701D01*
X639827Y139701D01*
X639827Y139699D01*
X639825Y139699D01*
G37*
%LPD*%
%LPC*%
G36*
X102361Y139699D02*
X102361Y139699D01*
X102361Y139701D01*
X102363Y139701D01*
X102363Y139699D01*
X102361Y139699D01*
G37*
%LPD*%
D10*
X102362Y190500D03*
X102362Y165100D03*
X102362Y139700D03*
X11938Y190500D03*
X11938Y165100D03*
X11938Y139700D03*
X639826Y139700D03*
X639826Y165100D03*
X639826Y190500D03*
D11*
X559308Y353314D03*
X609092Y353314D03*
D12*
X368300Y35878D02*
X368300Y14923D01*
X393700Y14923D02*
X393700Y35878D01*
X419100Y35878D02*
X419100Y14923D01*
X444500Y14923D02*
X444500Y35878D01*
X469900Y35878D02*
X469900Y14923D01*
X495300Y14923D02*
X495300Y35878D01*
X520700Y35878D02*
X520700Y14923D01*
X546100Y14923D02*
X546100Y35878D01*
X342900Y35878D02*
X342900Y14923D01*
D13*
X38100Y139700D03*
X609600Y304800D03*
X457200Y304800D03*
X457200Y292100D03*
X241300Y381000D03*
X431800Y381000D03*
X50800Y254000D03*
X615950Y146050D03*
X373380Y354330D03*
D14*
X469900Y334400D03*
D15*
X469900Y215900D01*
X444500Y190500D01*
X102362Y190500D01*
X38100Y190500D01*
X11938Y190500D01*
X584200Y190500D02*
X639826Y190500D01*
X584200Y190500D02*
X495300Y190500D01*
X469900Y215900D01*
D13*
X38100Y190500D03*
X541020Y292100D03*
D16*
X596900Y292100D01*
D13*
X596900Y292100D03*
X609600Y177800D03*
D16*
X596900Y190500D01*
X584200Y190500D01*
D13*
X558800Y165100D03*
D16*
X639826Y165100D01*
D17*
X529618Y135832D03*
D16*
X550896Y135832D01*
X551914Y136850D01*
D17*
X551914Y136850D03*
X534190Y128270D03*
D16*
X551914Y128270D01*
D17*
X551914Y128270D03*
X361950Y342900D03*
D16*
X482600Y342900D01*
X495300Y330200D01*
X495300Y304800D01*
X534670Y265430D01*
X547370Y265430D01*
D17*
X547370Y265430D03*
D13*
X487974Y66040D03*
D16*
X484017Y62083D01*
X481624Y59690D01*
X427990Y59690D02*
X419100Y50800D01*
X419100Y25400D01*
X427990Y59690D02*
X481624Y59690D01*
D13*
X512866Y78017D03*
D16*
X499951Y78017D01*
X487974Y66040D01*
D14*
X647700Y101600D03*
D15*
X368300Y101600D01*
X342900Y76200D01*
X342900Y25400D01*
D16*
X63500Y165100D02*
X11938Y165100D01*
X63500Y165100D02*
X102362Y165100D01*
D13*
X63500Y165100D03*
M02*
