G04 EAGLE Gerber RS-274X export*
G75*
%MOMM*%
%FSLAX34Y34*%
%LPD*%
%INSolderpaste Bottom*%
%IPPOS*%
%AMOC8*
5,1,8,0,0,1.08239X$1,22.5*%
G01*
%ADD10R,1.500000X1.000000*%
%ADD11R,0.900000X0.700000*%
%ADD12R,0.812800X0.304800*%
%ADD13R,0.304800X0.812800*%
%ADD14R,0.700000X0.900000*%
%ADD15R,1.400000X1.050000*%
%ADD16R,1.500000X1.300000*%
%ADD17R,0.406400X1.346200*%
%ADD18R,1.498600X1.905000*%
%ADD19C,1.193800*%
%ADD20R,1.200506X1.905000*%
%ADD21R,0.850800X1.761200*%
%ADD22R,3.150800X1.761200*%
%ADD23R,0.330200X0.762000*%
%ADD24R,0.600000X1.200000*%
%ADD25R,0.762000X2.387600*%

G36*
X579392Y253605D02*
X579392Y253605D01*
X579394Y253604D01*
X579437Y253624D01*
X579481Y253642D01*
X579481Y253644D01*
X579483Y253645D01*
X579516Y253730D01*
X579516Y264684D01*
X579515Y264686D01*
X579516Y264688D01*
X579496Y264731D01*
X579478Y264775D01*
X579476Y264775D01*
X579475Y264777D01*
X579390Y264810D01*
X568436Y264810D01*
X568434Y264809D01*
X568432Y264810D01*
X568389Y264790D01*
X568345Y264772D01*
X568345Y264770D01*
X568343Y264769D01*
X568310Y264684D01*
X568310Y253730D01*
X568311Y253728D01*
X568310Y253726D01*
X568330Y253683D01*
X568348Y253639D01*
X568350Y253639D01*
X568351Y253637D01*
X568436Y253604D01*
X579390Y253604D01*
X579392Y253605D01*
G37*
G36*
X592346Y253605D02*
X592346Y253605D01*
X592348Y253604D01*
X592391Y253624D01*
X592435Y253642D01*
X592435Y253644D01*
X592437Y253645D01*
X592470Y253730D01*
X592470Y264684D01*
X592469Y264686D01*
X592470Y264688D01*
X592450Y264731D01*
X592432Y264775D01*
X592430Y264775D01*
X592429Y264777D01*
X592344Y264810D01*
X581390Y264810D01*
X581388Y264809D01*
X581386Y264810D01*
X581343Y264790D01*
X581299Y264772D01*
X581299Y264770D01*
X581297Y264769D01*
X581264Y264684D01*
X581264Y253730D01*
X581265Y253728D01*
X581264Y253726D01*
X581284Y253683D01*
X581302Y253639D01*
X581304Y253639D01*
X581305Y253637D01*
X581390Y253604D01*
X592344Y253604D01*
X592346Y253605D01*
G37*
G36*
X579392Y240651D02*
X579392Y240651D01*
X579394Y240650D01*
X579437Y240670D01*
X579481Y240688D01*
X579481Y240690D01*
X579483Y240691D01*
X579516Y240776D01*
X579516Y251730D01*
X579515Y251732D01*
X579516Y251734D01*
X579496Y251777D01*
X579478Y251821D01*
X579476Y251821D01*
X579475Y251823D01*
X579390Y251856D01*
X568436Y251856D01*
X568434Y251855D01*
X568432Y251856D01*
X568389Y251836D01*
X568345Y251818D01*
X568345Y251816D01*
X568343Y251815D01*
X568310Y251730D01*
X568310Y240776D01*
X568311Y240774D01*
X568310Y240772D01*
X568330Y240729D01*
X568348Y240685D01*
X568350Y240685D01*
X568351Y240683D01*
X568436Y240650D01*
X579390Y240650D01*
X579392Y240651D01*
G37*
G36*
X592346Y240651D02*
X592346Y240651D01*
X592348Y240650D01*
X592391Y240670D01*
X592435Y240688D01*
X592435Y240690D01*
X592437Y240691D01*
X592470Y240776D01*
X592470Y251730D01*
X592469Y251732D01*
X592470Y251734D01*
X592450Y251777D01*
X592432Y251821D01*
X592430Y251821D01*
X592429Y251823D01*
X592344Y251856D01*
X581390Y251856D01*
X581388Y251855D01*
X581386Y251856D01*
X581343Y251836D01*
X581299Y251818D01*
X581299Y251816D01*
X581297Y251815D01*
X581264Y251730D01*
X581264Y240776D01*
X581265Y240774D01*
X581264Y240772D01*
X581284Y240729D01*
X581302Y240685D01*
X581304Y240685D01*
X581305Y240683D01*
X581390Y240650D01*
X592344Y240650D01*
X592346Y240651D01*
G37*
D10*
X407300Y352300D03*
X407300Y384300D03*
X456300Y384300D03*
X456300Y352300D03*
X216800Y352300D03*
X216800Y384300D03*
X265800Y384300D03*
X265800Y352300D03*
D11*
X387350Y361800D03*
X387350Y374800D03*
X196850Y361800D03*
X196850Y374800D03*
D12*
X600075Y265430D03*
X600075Y260350D03*
X600075Y255270D03*
X600075Y250190D03*
X600075Y245110D03*
X600075Y240030D03*
D13*
X593090Y233045D03*
X588010Y233045D03*
X582930Y233045D03*
X577850Y233045D03*
X572770Y233045D03*
X567690Y233045D03*
D12*
X560705Y240030D03*
X560705Y245110D03*
X560705Y250190D03*
X560705Y255270D03*
X560705Y260350D03*
X560705Y265430D03*
D13*
X567690Y272415D03*
X572770Y272415D03*
X577850Y272415D03*
X582930Y272415D03*
X588010Y272415D03*
X593090Y272415D03*
D11*
X298450Y348130D03*
X298450Y335130D03*
D14*
X604370Y280670D03*
X617370Y280670D03*
D15*
X318550Y361050D03*
X318550Y375800D03*
X354550Y375800D03*
X354550Y360800D03*
D16*
X519430Y334400D03*
X519430Y351400D03*
D17*
X571184Y353422D03*
X577684Y353422D03*
X584184Y353422D03*
X590684Y353422D03*
X597184Y353422D03*
D18*
X574184Y380422D03*
X594184Y380422D03*
D19*
X619184Y383978D02*
X619184Y376866D01*
X549184Y376866D02*
X549184Y383978D01*
D20*
X555184Y380422D03*
X613175Y380422D03*
D21*
X472300Y309650D03*
X495300Y309650D03*
X518300Y309650D03*
D22*
X495300Y249150D03*
D16*
X494030Y334400D03*
X494030Y351400D03*
D23*
X575390Y323977D03*
X580390Y323977D03*
X585390Y323977D03*
X585390Y303403D03*
X580390Y303403D03*
X575390Y303403D03*
D14*
X599290Y220980D03*
X612290Y220980D03*
X581810Y220980D03*
X568810Y220980D03*
D24*
X586050Y208030D03*
X595050Y208030D03*
X586050Y145030D03*
X595050Y145030D03*
D10*
X26300Y238000D03*
X26300Y270000D03*
X75300Y270000D03*
X75300Y238000D03*
D14*
X37950Y215900D03*
X50950Y215900D03*
D25*
X618490Y74030D03*
X618490Y113030D03*
X605790Y74030D03*
X605790Y113030D03*
X593090Y74030D03*
X593090Y113030D03*
X580390Y74030D03*
X580390Y113030D03*
X567690Y74030D03*
X567690Y113030D03*
M02*
