M48
;GenerationSoftware,Autodesk,EAGLE,9.5.2*%
;CreationDate,2020-01-06T02:44:22Z*%
FMAT,2
ICI,OFF
METRIC,TZ,000.000
T7C0.350
T6C0.500
T5C0.600
T4C0.850
T3C0.864
T2C1.016
T1C3.048
%
G90
M71
T1
X31750Y27940
X3810Y8890
X63500Y24130
T2
X48514Y31115
X40894Y31115
X43434Y31115
X45974Y31115
X51054Y31115
X53594Y31115
X56134Y31115
X58674Y31115
X61214Y31115
X63754Y31115
X19812Y31115
X17272Y31115
X14732Y31115
T3
X20142Y4039
X15164Y4039
T4
X50800Y4516
X48260Y4516
X45720Y4516
T5
X1727Y27991
X21337Y3318
X14732Y6604
T6
X8179Y7874
X9576Y7874
T7
X30226Y12573
X20320Y17780
X32080Y6275
X33274Y4826
X43180Y3810
X44089Y3890
X41529Y5102
X39618Y4263
X36551Y17495
X39880Y13256
X30480Y5055
X59030Y15291
X44958Y7112
X30480Y3810
X42757Y5388
X41411Y8342
X42565Y8647
X36068Y14732
X36565Y13944
X37162Y13256
X34620Y7614
X33528Y13716
X31877Y14049
X35336Y10714
X31308Y16558
X34551Y9501
X32258Y11024
X28956Y11024
X16002Y29616
X11430Y25375
X17780Y22835
X24130Y20295
X5080Y27915
X5080Y15215
X17780Y10135
X55880Y7595
X62230Y5055
X59690Y11430
X43180Y12675
X49530Y22835
X62255Y17780
X36830Y27915
X33655Y18390
X49530Y8865
X34239Y5690
X16688Y5334
X38760Y4547
M30